<?xml version="1.0" encoding="utf-8"?>
<svg version="1.1" id="Layer_1" xmlns="http://www.w3.org/2000/svg" xmlns:xlink="http://www.w3.org/1999/xlink" x="0px" y="0px"
	 viewBox="0 0 1792 1792" style="enable-background:new 0 0 1792 1792;" xml:space="preserve">
<style type="text/css">
	.st0{fill:#3B59ED;}
</style>
<path class="st0" d="M459.7,1428c-6.2,7-14,5.8-23.3-3.5c-10.1-8.6-11.7-15.9-4.7-22.2c6.2-7,14-5.8,23.3,3.5
	C464.3,1414.4,465.9,1421.8,459.7,1428z M410.7,1356.8c7,9.3,7,16.7,0,22.2c-6.2,4.7-12.8,1.9-19.8-8.2c-7-10.1-7-17.1,0-21
	C397.8,1344.4,404.4,1346.7,410.7,1356.8z M339.5,1286.8c-3.9,5.4-8.9,6.2-15.2,2.3c-7.8-3.9-10.5-8.6-8.2-14
	c2.3-3.9,7.4-4.7,15.2-2.3C339.1,1276.7,341.8,1281.4,339.5,1286.8z M375.7,1326.5c-4.7,5.4-10.9,4.3-18.7-3.5
	c-7-8.6-7.8-14.8-2.3-18.7c4.7-4.7,10.9-3.5,18.7,3.5C380.3,1316.4,381.1,1322.6,375.7,1326.5z M526.2,1457.2
	c-3.1,9.3-10.5,11.7-22.2,7c-13.2-3.1-18.3-8.9-15.2-17.5c3.1-8.6,10.5-11.3,22.2-8.2C523.4,1442.4,528.5,1448.6,526.2,1457.2z
	 M599.7,1463c0,8.6-6.2,12.8-18.7,12.8c-13.2,1.6-19.8-2.7-19.8-12.8c0-8.6,6.2-12.8,18.7-12.8
	C593.1,1448.6,599.7,1452.9,599.7,1463z M667.3,1451.3c1.6,7.8-3.9,13.2-16.3,16.3c-12.4,3.1-19.4,0-21-9.3
	c-1.6-9.3,3.9-15.2,16.3-17.5C658.8,1439.3,665.8,1442.8,667.3,1451.3z M1792,336v1120c0,92.6-32.9,171.7-98.6,237.4
	S1548.6,1792,1456,1792h-261.3c-12.4,0-22-0.4-28.6-1.2c-6.6-0.8-14.2-2.7-22.8-5.8c-8.6-3.1-14.8-8.8-18.7-16.9
	c-3.9-8.2-5.8-18.9-5.8-32.1v-278.8c0-75.4-20.2-130.7-60.7-165.7c44.3-4.7,84.2-11.7,119.6-21s71.9-24.5,109.7-45.5
	s69.2-46.9,94.5-77.6s45.9-71.6,61.8-122.5s23.9-109.5,23.9-175.6c0-94.1-30.7-174.2-92.2-240.3c28.8-70.8,25.7-150.1-9.3-238
	c-21.8-7-53.3-2.7-94.5,12.8s-77,32.7-107.3,51.3l-44.3,28c-72.3-20.2-147-30.3-224-30.3s-151.7,10.1-224,30.3
	c-12.4-8.6-29-19.1-49.6-31.5s-53.1-27.4-97.4-44.9S447.2,364,424.7,371c-34.2,87.9-36.9,167.2-8.2,238
	c-61.4,66.1-92.2,146.2-92.2,240.3c0,66.1,8,124.4,23.9,175s36.4,91.4,61.2,122.5c24.9,31.1,56.2,57.2,93.9,78.2
	s74.3,36.2,109.7,45.5s75.2,16.3,119.6,21c-31.1,28-50.2,68.1-57.2,120.2c-16.3,7.8-33.8,13.6-52.5,17.5
	c-18.7,3.9-40.8,5.8-66.5,5.8s-51.1-8.4-76.4-25.1s-46.9-41-64.8-72.9c-14.8-24.9-33.6-45.1-56.6-60.7c-22.9-15.6-42.2-24.9-57.8-28
	l-23.3-3.5c-16.3,0-27.6,1.8-33.8,5.2c-6.2,3.5-8.2,8-5.8,13.4s5.8,10.9,10.5,16.3c4.7,5.4,9.7,10.1,15.2,14l8.2,5.8
	c17.1,7.8,34,22.6,50.8,44.3c16.7,21.8,29,41.6,36.8,59.5l11.7,26.8c10.1,29.6,27.2,53.5,51.3,71.8c24.1,18.3,50.2,29.9,78.2,35
	c28,5.1,55,7.8,81.1,8.2c26.1,0.4,47.6-1,64.8-4.1l26.8-4.7c0,29.6,0.2,69.6,0.6,120.2c0.4,50.6,0.6,77,0.6,79.3
	c0,17.1-4.3,30.1-12.8,39.1c-8.6,8.9-17.1,14-25.7,15.2c-8.6,1.2-21.4,1.8-38.5,1.8H336c-92.6,0-171.7-32.9-237.4-98.6
	S0,1548.6,0,1456V336c0-92.6,32.9-171.7,98.6-237.4S243.4,0,336,0h1120c92.6,0,171.7,32.9,237.4,98.6S1792,243.4,1792,336z"/>
</svg>
