<?xml version="1.0" encoding="utf-8"?>
<!-- Generator: Adobe Illustrator 21.1.0, SVG Export Plug-In . SVG Version: 6.00 Build 0)  -->
<svg version="1.1" id="Layer_1" xmlns="http://www.w3.org/2000/svg" xmlns:xlink="http://www.w3.org/1999/xlink" x="0px" y="0px"
	 viewBox="0 0 256 250" style="enable-background:new 0 0 256 250;" xml:space="preserve">
<style type="text/css">
	.st0{fill:#1E6CFF;}
</style>
<g>
	<path class="st0" d="M128,0C57.3,0,0,57.3,0,128c0,56.6,36.7,104.5,87.5,121.5c6.4,1.2,8.7-2.8,8.7-6.2c0-3.1-0.1-13.1-0.2-23.8
		C60.5,227.2,53,204.4,53,204.4c-5.8-14.8-14.2-18.7-14.2-18.7c-11.6-7.9,0.9-7.8,0.9-7.8c12.9,0.9,19.6,13.2,19.6,13.2
		c11.4,19.6,29.9,13.9,37.2,10.6c1.1-8.3,4.5-13.9,8.1-17.1c-28.4-3.2-58.3-14.2-58.3-63.3c0-14,5-25.4,13.2-34.4
		c-1.3-3.2-5.7-16.2,1.2-33.9c0,0,10.7-3.4,35.2,13.1c10.2-2.8,21.2-4.3,32-4.3c10.9,0,21.8,1.5,32.1,4.3
		c24.4-16.6,35.2-13.1,35.2-13.1c7,17.6,2.6,30.7,1.3,33.9c8.2,9,13.2,20.4,13.2,34.4c0,49.2-29.9,60-58.4,63.2
		c4.6,4,8.7,11.8,8.7,23.7c0,17.1-0.1,30.9-0.1,35.1c0,3.4,2.3,7.4,8.8,6.1C219.4,232.5,256,184.5,256,128C256,57.3,198.7,0,128,0z
		 M47.9,182.3c-0.3,0.6-1.3,0.8-2.2,0.4c-0.9-0.4-1.4-1.3-1.1-1.9c0.3-0.7,1.3-0.8,2.2-0.4C47.7,180.8,48.3,181.7,47.9,182.3z
		 M54.2,188c-0.6,0.6-1.8,0.3-2.6-0.6c-0.8-0.9-1-2.1-0.4-2.7c0.6-0.6,1.8-0.3,2.6,0.6C54.7,186.2,54.9,187.4,54.2,188z M58.6,195.1
		c-0.8,0.5-2.1,0-2.9-1.1c-0.8-1.1-0.8-2.5,0-3.1c0.8-0.5,2.1-0.1,2.9,1.1C59.4,193.2,59.4,194.6,58.6,195.1z M65.9,203.5
		c-0.7,0.8-2.2,0.6-3.3-0.5c-1.1-1-1.4-2.5-0.7-3.3c0.7-0.8,2.2-0.6,3.3,0.5C66.3,201.2,66.6,202.7,65.9,203.5z M75.3,206.3
		c-0.3,1-1.7,1.5-3.2,1c-1.4-0.4-2.4-1.6-2.1-2.6c0.3-1,1.7-1.5,3.2-1C74.7,204.1,75.6,205.3,75.3,206.3z M86,207.5
		c0,1.1-1.2,1.9-2.7,2c-1.5,0-2.8-0.8-2.8-1.9c0-1.1,1.2-1.9,2.7-2C84.8,205.6,86,206.4,86,207.5z M96.6,207.1
		c0.2,1-0.9,2.1-2.4,2.4c-1.5,0.3-2.9-0.4-3.1-1.4c-0.2-1.1,0.9-2.1,2.4-2.4C95.1,205.4,96.4,206,96.6,207.1z"/>
</g>
</svg>
