<svg id="Layer_1" data-name="Layer 1" xmlns="http://www.w3.org/2000/svg" viewBox="0 0 300 300"><defs><style>.cls-1{fill:#3b59ed;}</style></defs><path class="cls-1" d="M213.65.31c29,2.12,45.94,9.17,61.44,24.68,12.73,12.7,19.74,27.5,23.25,48.66,1.48,9.17,1.66,19,1.66,76.86s-.18,67-1.66,76.15c-3.51,21.16-10.7,36-23.25,48.66s-27.67,19.74-48.71,23.27C217.16,300,207.38,300,150,300s-67.16,0-76.38-1.41c-21.22-3.53-36-10.58-48.71-23.27S5,247.82,1.66,226.66C.18,217.5,0,207.63,0,150.51s.18-67,1.66-76.16C5,53.2,12.18,38.39,24.91,25.7c8.85-9.17,17.53-14.1,30.07-19C70.66,1,76.57.31,143,.31,176.2-.39,208.12.31,213.65.31ZM92.07,27.81c-8.86.71-19,1.41-22.7,2.82-21,5.65-34.31,19-39.67,39.49-2.39,9.17-3.32,32.44-3.32,80.39s.93,71.22,3.32,80.39c5.36,21.15,18.82,34.55,39.67,39.48,9.23,2.12,32.66,3.53,80.26,3.53s71-1.41,80.44-3.53c21-5.64,34.32-19,39.67-39.48,2.4-9.17,3.32-32.44,3.32-80.39s-.92-71.22-3.32-80.39C264.39,49,251.11,36.28,230.07,30.63c-3.69-.7-12.54-2.11-20.11-2.82C190.41,26.4,110.89,26.4,92.07,27.81Z" transform="translate(0 0)"/><path class="cls-1" d="M74.91,52.49c3.69.71,8.67,5.65,10.7,9.88a16.7,16.7,0,0,1,0,14.8c-2.22,4.94-4.43,7.06-9.41,9.17-10.7,4.23-22.88-2.82-24.35-13.4C50,59.55,61.44,49,74.91,52.49Z" transform="translate(0 0)"/><path class="cls-1" d="M164.94,74.35c16.24,3.53,26.94,9.17,39.12,21.86,8.3,8.46,10.33,10.58,14.39,19,6.46,13.4,8.12,20.45,8.12,35.26s-1.66,21.86-8.12,35.26c-4.06,8.46-6.09,10.57-14.39,19s-11.07,10.57-19.19,14.1c-13.47,6.34-20.11,8.46-35.24,8.46S128,226,114.39,218.91c-8.12-4.23-10.88-6.35-19.19-14.1-8.3-8.47-10.33-11.29-14.39-19-6.46-13.4-8.12-20.45-8.12-35.26s1.66-21.86,8.12-35.26c4.06-8.46,6.09-10.58,14.39-19s11.07-10.57,19.19-14.1c5.17-2.82,12.18-5.64,15.5-6.35C138.56,72.94,156.64,72.24,164.94,74.35Zm-26.75,26.8c-9.78,2.82-16.6,6.35-23.8,13.4-19.93,19.74-19.93,50.77,0,70.51,20.11,19.75,50.55,19.75,70.48,0s19.93-50.77,0-70.51A52,52,0,0,0,138.19,101.15Z" transform="translate(0 0)"/></svg>