<svg id="Layer_1" data-name="Layer 1" xmlns="http://www.w3.org/2000/svg" viewBox="0 0 22.42 22.43"><defs><style>.cls-1{fill:#1e6cff;}</style></defs><path class="cls-1" d="M6.45,0A6.51,6.51,0,0,0,1.87,1.87,6.11,6.11,0,0,0,.13,5.51,42,42,0,0,0,0,11.22a41.69,41.69,0,0,0,.13,5.7A6.06,6.06,0,0,0,5.5,22.3a44.2,44.2,0,0,0,5.71.13,44.2,44.2,0,0,0,5.71-.13,6.06,6.06,0,0,0,5.38-5.38,45.33,45.33,0,0,0,.12-5.7,45.69,45.69,0,0,0-.12-5.71,6.22,6.22,0,0,0-1.74-3.64A5.49,5.49,0,0,0,18.31.48C17.13.06,16.7,0,11.74,0,9.24,0,6.86,0,6.45,0Zm9.07,2a12.77,12.77,0,0,1,1.69.19,3.87,3.87,0,0,1,3,3,34.48,34.48,0,0,1,.26,6,34.65,34.65,0,0,1-.26,6,3.87,3.87,0,0,1-3,3,35.19,35.19,0,0,1-6,.25,35.19,35.19,0,0,1-6-.25,3.87,3.87,0,0,1-3-3,34.65,34.65,0,0,1-.26-6,34.48,34.48,0,0,1,.26-6,3.88,3.88,0,0,1,3-3,10.23,10.23,0,0,1,1.5-.18C8.17,2,14.11,2,15.52,2.06Z"/><path class="cls-1" d="M16.8,3.92a1.52,1.52,0,0,0-.8.73,1.28,1.28,0,0,0,0,1.13,1.13,1.13,0,0,0,.71.67,1.33,1.33,0,0,0,1.82-1A1.36,1.36,0,0,0,16.8,3.92Z"/><path class="cls-1" d="M10.09,5.55A5.32,5.32,0,0,0,7.15,7.16,4.27,4.27,0,0,0,6.08,8.59a4.91,4.91,0,0,0-.61,2.63,4.9,4.9,0,0,0,.61,2.62,4.3,4.3,0,0,0,1.07,1.43,4.34,4.34,0,0,0,1.44,1.08,5,5,0,0,0,2.62.6,5,5,0,0,0,2.63-.6,4.41,4.41,0,0,0,1.43-1.08,4.3,4.3,0,0,0,1.07-1.43A4.9,4.9,0,0,0,17,11.22a4.91,4.91,0,0,0-.61-2.63,4.3,4.3,0,0,0-1.07-1.43,4.37,4.37,0,0,0-1.43-1.07,8.87,8.87,0,0,0-1.17-.47A7.73,7.73,0,0,0,10.09,5.55Zm2,2a3.6,3.6,0,0,1,1.77,1,3.72,3.72,0,1,1-5.26,5.27,3.73,3.73,0,0,1,3.49-6.27Z"/></svg>