<?xml version="1.0" standalone="no"?>
<!DOCTYPE svg PUBLIC "-//W3C//DTD SVG 20010904//EN"
 "http://www.w3.org/TR/2001/REC-SVG-20010904/DTD/svg10.dtd">
<svg version="1.0" xmlns="http://www.w3.org/2000/svg"
 width="300.000000pt" height="300.000000pt" viewBox="0 0 300.000000 300.000000"
 preserveAspectRatio="xMidYMid meet">
<g transform="translate(0.000000,22.500000) scale(0.007500,-0.007500)"
fill="#262938" stroke="none">
<path d="M865 2990 c-288 -23 -457 -91 -611 -244 -127 -127 -198 -275 -232
-485 -15 -93 -17 -189 -17 -761 0 -572 2 -668 17 -761 34 -210 105 -358 232
-485 127 -127 275 -198 485 -232 93 -15 189 -17 761 -17 572 0 668 2 761 17
210 34 358 105 485 232 127 127 198 275 232 485 15 93 17 189 17 761 0 572 -2
668 -17 761 -34 210 -105 358 -232 485 -89 89 -174 142 -300 186 -157 56 -214
60 -876 63 -333 2 -650 -1 -705 -5z m1210 -269 c88 -5 189 -16 225 -26 209
-54 341 -186 395 -395 24 -93 34 -325 34 -800 0 -475 -10 -707 -34 -800 -54
-209 -186 -341 -395 -395 -93 -24 -325 -34 -800 -34 -475 0 -707 10 -800 34
-209 54 -341 186 -395 395 -24 93 -34 325 -34 800 0 475 10 707 34 800 54 209
185 340 395 395 36 10 126 21 200 25 195 10 987 11 1175 1z"/>
<path d="M2245 2473 c-36 -9 -87 -55 -106 -97 -23 -52 -24 -100 0 -151 22 -48
44 -69 94 -90 106 -44 228 25 243 137 18 132 -98 233 -231 201z"/>
<path d="M1350 2255 c-163 -34 -268 -92 -391 -214 -83 -83 -103 -109 -143
-191 -65 -135 -81 -200 -81 -350 0 -150 16 -215 81 -350 40 -81 61 -109 143
-191 82 -82 110 -103 191 -143 135 -65 200 -81 350 -81 150 0 215 16 350 81
81 40 109 61 191 143 82 82 103 110 143 191 65 135 81 200 81 350 0 150 -16
215 -81 350 -40 81 -61 109 -143 191 -82 82 -110 103 -191 143 -52 25 -122 53
-155 62 -83 22 -264 27 -345 9z m265 -270 c98 -25 165 -64 236 -134 198 -199
198 -503 0 -702 -199 -198 -503 -198 -702 0 -198 199 -198 503 0 702 127 126
301 176 466 134z"/>
</g>
</svg>
