<?xml version="1.0" encoding="utf-8"?>
<svg version="1.1" id="twitter" xmlns="http://www.w3.org/2000/svg" xmlns:xlink="http://www.w3.org/1999/xlink" x="0px" y="0px"
	 viewBox="0 0 250 250" style="enable-background:new 0 0 250 250;" xml:space="preserve">
<style type="text/css">
	.st0{fill:#3B59ED;}
</style>
<path id="twitter-2" class="st0" d="M78.6,226.6c94.3,0,145.9-78.1,145.9-145.9c0-2.2,0-4.4-0.1-6.6c10-7.3,18.7-16.2,25.6-26.6
	c-9.4,4.2-19.3,6.9-29.5,8.1c10.7-6.4,18.7-16.5,22.5-28.4c-10.1,6-21.1,10.2-32.6,12.4C191.1,19,158.6,18,138,37.4
	c-13.3,12.5-19,31.2-14.8,49C81.9,84.3,43.5,64.8,17.4,32.8c-13.6,23.4-6.7,53.4,15.9,68.5c-8.1-0.3-16.1-2.5-23.2-6.4
	c0,0.2,0,0.4,0,0.7c0,24.4,17.2,45.5,41.2,50.3c-7.6,2.1-15.5,2.4-23.2,0.9c6.7,20.9,26,35.2,47.9,35.6c-18.2,14.3-40.6,22-63.7,22
	c-4.1,0-8.2-0.2-12.3-0.7C23.5,218.6,50.7,226.6,78.6,226.6"/>
</svg>
