<?xml version="1.0" encoding="utf-8"?>
<svg version="1.1" id="Layer_1" xmlns="http://www.w3.org/2000/svg" xmlns:xlink="http://www.w3.org/1999/xlink" x="0px" y="0px"
	 viewBox="0 0 512 512" style="enable-background:new 0 0 512 512;" xml:space="preserve">
<style type="text/css">
	.st0{fill:#3B59ED;}
</style>
<g>
	<g>
		<g>
			<path class="st0" d="M472.2,0H39.8C17.9,0,0,20.7,0,46C0,66.8,0,445.3,0,466c0,25.4,17.9,46,39.8,46h432.4
				c22,0,39.8-20.7,39.8-46c0-20.7,0-399.1,0-419.9C512,20.7,494.1,0,472.2,0z M477.9,465.9c0,3.6-2.6,6.6-5.7,6.6H39.8
				c-3.1,0-5.7-3-5.7-6.6V137.9h443.7L477.9,465.9L477.9,465.9z M477.9,98.4H34.1V46c0-3.6,2.6-6.6,5.7-6.6h432.4
				c3.1,0,5.7,3,5.7,6.6L477.9,98.4L477.9,98.4z"/>
			<ellipse class="st0" cx="71.8" cy="68.9" rx="12.8" ry="14.8"/>
			<ellipse class="st0" cx="113" cy="68.9" rx="12.8" ry="14.8"/>
			<ellipse class="st0" cx="154.1" cy="68.9" rx="12.8" ry="14.8"/>
			<path class="st0" d="M81.6,346.7c4.4,15.8,22.9,18.6,30.6,4.5l10.5-19l10.5,19c7.7,14.1,26.2,11.3,30.6-4.5l19.9-70.9
				c2.9-10.4-2-21.5-11-24.9c-9-3.4-18.6,2.3-21.5,12.7l-8.7,31l-5.4-9.8c-6.7-12.2-22.1-12.2-28.8,0l-5.4,9.8l-8.7-31
				c-2.9-10.4-12.5-16.1-21.5-12.7c-9,3.4-13.9,14.5-11,24.9L81.6,346.7z"/>
			<path class="st0" d="M214.9,346.7c4.4,15.9,22.9,18.6,30.6,4.5l10.5-19l10.5,19c7.8,14.1,26.2,11.3,30.6-4.5l19.9-70.9
				c2.9-10.4-2-21.5-11-24.9c-9-3.4-18.6,2.3-21.5,12.7l-8.7,31l-5.4-9.8c-6.7-12.2-22.1-12.2-28.8,0l-5.4,9.8l-8.7-31
				c-2.9-10.4-12.5-16.1-21.5-12.7c-9,3.4-13.9,14.5-11,24.9L214.9,346.7z"/>
			<path class="st0" d="M348.2,346.7c4.4,15.9,22.9,18.6,30.6,4.5l10.5-19l10.5,19c7.8,14.1,26.2,11.3,30.6-4.5l19.9-70.9
				c2.9-10.4-2-21.5-11-24.9c-9-3.4-18.6,2.3-21.5,12.7l-8.7,31l-5.4-9.8c-6.7-12.2-22.1-12.2-28.8,0l-5.4,9.8l-8.7-31
				c-2.9-10.4-12.5-16.1-21.5-12.7c-9,3.4-13.9,14.5-11,24.9L348.2,346.7z"/>
		</g>
	</g>
</g>
</svg>
