<?xml version="1.0" standalone="no"?>
<svg version="1.0" xmlns="http://www.w3.org/2000/svg"
 width="300.000000pt" height="212.000000pt" viewBox="0 0 300.000000 212.000000"
 preserveAspectRatio="xMidYMid meet">
<metadata>
Created by potrace 1.10, written by Peter Selinger 2001-2011
</metadata>
<g transform="translate(0.000000,20.000000) scale(0.008000,-0.009000)"
fill="#3B59ED" stroke="none">
<path d="M1045 2109 c-623 -17 -787 -47 -891 -162 -107 -118 -147 -360 -147
-887 0 -403 28 -667 83 -786 56 -124 149 -191 300 -218 382 -68 1838 -68 2220
0 151 27 244 94 300 218 55 119 83 383 83 786 0 527 -40 769 -147 887 -106
118 -254 144 -946 163 -386 11 -437 11 -855 -1z m548 -828 c207 -118 377 -218
377 -221 0 -7 -746 -433 -767 -438 -11 -3 -13 79 -13 438 0 359 2 441 13 438
7 -2 183 -99 390 -217z"/>
</g>
</svg>
