<svg width="357" height="198" viewBox="0 0 357 198" fill="none" xmlns="http://www.w3.org/2000/svg">
<rect x="190.217" width="139.616" height="139.616" rx="40.1302" transform="rotate(45 190.217 0)" fill="url(#paint0_linear)"/>
<mask id="mask0" mask-type="alpha" maskUnits="userSpaceOnUse" x="91" y="0" width="198" height="198">
<rect x="190.217" y="0.00012207" width="139.616" height="139.616" rx="40.1302" transform="rotate(45 190.217 0.00012207)" fill="url(#paint1_linear)"/>
</mask>
<g mask="url(#mask0)">
<g filter="url(#filter0_f)">
<rect x="190.217" y="1.55945" width="137.411" height="137.411" rx="32.1042" transform="rotate(45 190.217 1.55945)" fill="white"/>
</g>
</g>
<path d="M141.226 74.633C139.685 74.633 138.35 74.0936 137.22 73.0149C136.141 71.9362 135.602 70.6264 135.602 69.0854C135.602 67.8012 136.141 66.6711 137.22 65.6952C138.35 64.6678 139.685 64.1542 141.226 64.1542C142.459 64.1542 143.589 64.6678 144.617 65.6952C145.644 66.7225 146.158 67.8526 146.158 69.0854C146.158 70.575 145.644 71.8849 144.617 73.0149C143.589 74.0936 142.459 74.633 141.226 74.633ZM136.989 82.2609H145.541V120.786C145.541 125.923 144.437 130.16 142.228 133.499C140.019 136.838 136.578 138.507 131.903 138.507C130.003 138.507 128.667 138.482 127.897 138.43C127.126 138.379 125.996 138.225 124.507 137.968V129.955C125.174 130.006 126.125 130.16 127.357 130.417C127.511 130.417 127.717 130.443 127.974 130.494C128.282 130.597 128.59 130.648 128.898 130.648C132.134 130.648 134.292 129.595 135.371 127.489C136.449 125.435 136.989 123.2 136.989 120.786V82.2609ZM161.886 105.376C162.502 107.687 163.761 109.562 165.661 111.001C167.562 112.439 169.874 113.286 172.596 113.543C175.216 113.543 177.27 113.158 178.76 112.387C180.25 111.566 181.508 110.384 182.535 108.843L189.701 112.465C188.16 114.982 185.849 117.088 182.767 118.783C179.685 120.478 176.294 121.325 172.596 121.325C169.103 121.325 165.893 120.452 162.965 118.706C160.088 116.908 157.802 114.519 156.107 111.54C154.464 108.509 153.642 105.248 153.642 101.755C153.642 98.313 154.515 95.1026 156.261 92.1233C158.008 89.0927 160.345 86.7041 163.273 84.9577C166.201 83.1598 169.309 82.2609 172.596 82.2609C175.832 82.2609 178.863 83.0571 181.688 84.6495C184.564 86.1905 186.876 88.4249 188.622 91.3528C190.369 94.2807 191.242 97.6453 191.242 101.446C191.242 102.833 191.139 104.143 190.934 105.376H161.886ZM182.535 98.2103C181.97 95.9502 180.789 94.0239 178.991 92.4315C177.193 90.7878 175.062 89.9659 172.596 89.9659C169.976 89.9659 167.665 90.7364 165.661 92.2774C163.71 93.7671 162.271 95.7447 161.347 98.2103H182.535ZM227.781 64.1542H236.411V120.786H227.781V117.088C224.237 119.964 220.153 121.402 215.53 121.402C211.986 121.402 208.699 120.529 205.668 118.783C202.689 117.036 200.326 114.673 198.579 111.694C196.833 108.663 195.96 105.376 195.96 101.832C195.96 98.2873 196.833 95.0256 198.579 92.0463C200.326 89.0157 202.689 86.6271 205.668 84.8806C208.699 83.1342 211.986 82.2609 215.53 82.2609C220.153 82.2609 224.237 83.6992 227.781 86.5757V64.1542ZM216.763 113.235C218.869 113.235 220.744 112.696 222.388 111.617C224.083 110.538 225.393 109.126 226.317 107.379C227.293 105.633 227.781 103.784 227.781 101.832C227.781 99.8283 227.293 97.9535 226.317 96.207C225.393 94.4092 224.083 92.9709 222.388 91.8922C220.744 90.8135 218.869 90.2741 216.763 90.2741C214.554 90.2741 212.525 90.7878 210.676 91.8151C208.878 92.8425 207.44 94.2551 206.361 96.0529C205.334 97.7994 204.82 99.7256 204.82 101.832C204.82 103.938 205.334 105.864 206.361 107.61C207.44 109.305 208.878 110.667 210.676 111.694C212.525 112.721 214.554 113.235 216.763 113.235ZM251.509 65.7722C250.071 65.7722 248.838 66.2859 247.811 67.3132C246.783 68.2892 246.27 69.4963 246.27 70.9346C246.27 72.3215 246.783 73.5286 247.811 74.5559C248.838 75.5319 250.071 76.0199 251.509 76.0199C252.896 76.0199 254.103 75.5319 255.13 74.5559C256.158 73.5286 256.671 72.3215 256.671 70.9346C256.671 69.4963 256.158 68.2892 255.13 67.3132C254.103 66.2859 252.896 65.7722 251.509 65.7722ZM255.824 82.2609H247.117V120.786H255.824V82.2609Z" fill="#2D3D48"/>
<path d="M114.76 147.454C115.646 147.454 116.461 147.679 117.206 148.128C117.951 148.565 118.542 149.162 118.978 149.92C119.428 150.665 119.652 151.474 119.652 152.347C119.652 153.22 119.428 154.036 118.978 154.793C118.542 155.538 117.951 156.135 117.206 156.585C116.461 157.021 115.646 157.24 114.76 157.24C113.668 157.24 112.686 156.886 111.812 156.18V157.085H109.732V142.928H111.812V148.514C112.686 147.807 113.668 147.454 114.76 147.454ZM114.451 155.178C114.991 155.178 115.492 155.05 115.954 154.793C116.416 154.524 116.782 154.177 117.052 153.753C117.322 153.316 117.456 152.854 117.456 152.366C117.456 151.865 117.322 151.403 117.052 150.979C116.782 150.543 116.416 150.196 115.954 149.939C115.492 149.669 114.991 149.535 114.451 149.535C113.925 149.535 113.463 149.663 113.065 149.92C112.666 150.177 112.358 150.523 112.14 150.96C111.922 151.384 111.812 151.846 111.812 152.347C111.812 152.848 111.922 153.316 112.14 153.753C112.358 154.19 112.666 154.536 113.065 154.793C113.463 155.05 113.925 155.178 114.451 155.178ZM127.948 147.454H130.548L125.983 158.511C125.598 159.538 125.02 160.296 124.249 160.784C123.491 161.272 122.438 161.516 121.09 161.516H120.801V159.532H121.09C121.771 159.532 122.368 159.403 122.882 159.147C123.408 158.89 123.78 158.472 123.999 157.894L124.268 157.008L119.722 147.454H122.323L125.501 154.158L127.948 147.454ZM152.83 157.085H150.461L149.633 154.89H142.871L142.043 157.085H139.558L144.875 142.928H147.514L152.83 157.085ZM146.281 145.894L143.7 152.694H148.824L146.281 145.894ZM166.035 153.984C165.457 155.012 164.661 155.788 163.646 156.315C162.645 156.829 161.476 157.085 160.141 157.085C158.882 157.085 157.72 156.771 156.654 156.142C155.601 155.512 154.76 154.658 154.131 153.58C153.514 152.501 153.206 151.307 153.206 149.997C153.206 148.7 153.521 147.512 154.15 146.433C154.792 145.355 155.646 144.501 156.712 143.871C157.778 143.242 158.921 142.928 160.141 142.928C161.399 142.928 162.523 143.184 163.512 143.698C164.5 144.199 165.29 144.924 165.881 145.875L163.974 146.761C163.447 146.234 162.857 145.836 162.202 145.566C161.56 145.284 160.873 145.143 160.141 145.143C159.267 145.143 158.452 145.355 157.694 145.778C156.949 146.202 156.359 146.786 155.922 147.531C155.486 148.263 155.267 149.085 155.267 149.997C155.267 150.909 155.486 151.737 155.922 152.482C156.359 153.227 156.949 153.811 157.694 154.235C158.452 154.658 159.267 154.87 160.141 154.87C160.95 154.87 161.675 154.735 162.317 154.466C162.972 154.183 163.524 153.779 163.974 153.252L166.035 153.984ZM182.231 142.928V157.085H180.132V146.453L175.605 156.18H174.391L174.102 155.41L173.794 154.678L170.019 146.51V157.085H167.765V142.928H170.924L175.008 151.962L179.226 142.928H182.231ZM200.223 147.57H202.361V157.085H200.223V156.276C199.349 156.97 198.348 157.317 197.218 157.317C196.306 157.317 195.471 157.105 194.714 156.681C193.969 156.244 193.378 155.66 192.942 154.928C192.518 154.196 192.306 153.387 192.306 152.501C192.306 151.589 192.518 150.748 192.942 149.978C193.378 149.207 193.969 148.597 194.714 148.148C195.471 147.685 196.306 147.454 197.218 147.454C198.322 147.454 199.324 147.82 200.223 148.552V147.57ZM197.333 155.275C197.873 155.275 198.361 155.14 198.797 154.87C199.247 154.601 199.593 154.254 199.837 153.83C200.094 153.393 200.223 152.95 200.223 152.501C200.223 151.974 200.094 151.493 199.837 151.056C199.593 150.607 199.253 150.254 198.817 149.997C198.38 149.74 197.886 149.612 197.333 149.612C196.82 149.612 196.351 149.74 195.927 149.997C195.503 150.241 195.17 150.581 194.926 151.018C194.682 151.454 194.56 151.949 194.56 152.501C194.56 152.976 194.682 153.432 194.926 153.869C195.17 154.292 195.503 154.633 195.927 154.89C196.364 155.146 196.833 155.275 197.333 155.275ZM210.338 149.4H208.084V154.215C208.084 154.498 208.155 154.723 208.296 154.89C208.45 155.056 208.733 155.14 209.144 155.14H209.876V156.951C209.388 157.041 209.041 157.085 208.835 157.085C207.718 157.085 206.967 156.854 206.582 156.392C206.196 155.917 205.997 155.249 205.984 154.389V149.4H204.193V147.454H205.984V145.663L208.084 144.777V147.454H210.338V149.4ZM231.726 142.928V152.52C231.674 153.381 231.385 154.164 230.859 154.87C230.345 155.564 229.658 156.109 228.798 156.508C227.937 156.893 226.994 157.085 225.966 157.085C224.99 157.085 224.091 156.893 223.269 156.508C222.448 156.122 221.78 155.583 221.266 154.89C220.752 154.196 220.457 153.406 220.38 152.52H220.361V142.928H222.422V151.634C222.422 152.803 222.749 153.663 223.404 154.215C224.059 154.755 224.913 155.024 225.966 155.024C228.291 155.024 229.523 153.894 229.665 151.634V142.928H231.726ZM246.283 153.984C245.705 155.012 244.909 155.788 243.894 156.315C242.893 156.829 241.724 157.085 240.389 157.085C239.13 157.085 237.968 156.771 236.902 156.142C235.849 155.512 235.008 154.658 234.379 153.58C233.762 152.501 233.454 151.307 233.454 149.997C233.454 148.7 233.769 147.512 234.398 146.433C235.04 145.355 235.894 144.501 236.96 143.871C238.026 143.242 239.169 142.928 240.389 142.928C241.647 142.928 242.771 143.184 243.759 143.698C244.748 144.199 245.538 144.924 246.129 145.875L244.222 146.761C243.695 146.234 243.105 145.836 242.45 145.566C241.808 145.284 241.121 145.143 240.389 145.143C239.515 145.143 238.7 145.355 237.942 145.778C237.197 146.202 236.607 146.786 236.17 147.531C235.733 148.263 235.515 149.085 235.515 149.997C235.515 150.909 235.733 151.737 236.17 152.482C236.607 153.227 237.197 153.811 237.942 154.235C238.7 154.658 239.515 154.87 240.389 154.87C241.198 154.87 241.923 154.735 242.565 154.466C243.22 154.183 243.772 153.779 244.222 153.252L246.283 153.984ZM249.689 142.928V155.024H256.623V157.085H247.628V142.928H249.689ZM271.058 157.085H268.688L267.86 154.89H261.099L260.271 157.085H257.786L263.102 142.928H265.741L271.058 157.085ZM264.508 145.894L261.927 152.694H267.051L264.508 145.894Z" fill="#2D3D48"/>
<defs>
<filter id="filter0_f" x="76.198" y="-15.2952" width="228.038" height="228.038" filterUnits="userSpaceOnUse" color-interpolation-filters="sRGB">
<feFlood flood-opacity="0" result="BackgroundImageFix"/>
<feBlend mode="normal" in="SourceGraphic" in2="BackgroundImageFix" result="shape"/>
<feGaussianBlur stdDeviation="8.42735" result="effect1_foregroundBlur"/>
</filter>
<linearGradient id="paint0_linear" x1="260.025" y1="0" x2="260.025" y2="139.616" gradientUnits="userSpaceOnUse">
<stop stop-color="#8CFE66"/>
<stop offset="0.309998" stop-color="#63F9DB"/>
<stop offset="0.566234" stop-color="#74E5E1"/>
<stop offset="0.786458" stop-color="#A4A3FF"/>
<stop offset="1" stop-color="#FD92FF"/>
</linearGradient>
<linearGradient id="paint1_linear" x1="260.025" y1="0.00012207" x2="260.025" y2="139.616" gradientUnits="userSpaceOnUse">
<stop stop-color="#8CFE66"/>
<stop offset="0.309998" stop-color="#63F9DB"/>
<stop offset="0.566234" stop-color="#74E5E1"/>
<stop offset="0.786458" stop-color="#A4A3FF"/>
<stop offset="1" stop-color="#FD92FF"/>
</linearGradient>
</defs>
</svg>
