<svg width="1061" height="400" viewBox="0 0 1061 400" fill="none" xmlns="http://www.w3.org/2000/svg">
<rect x="240" width="282.843" height="282.843" rx="80" transform="rotate(45 240 0)" fill="#1E6CFF"/>
<rect x="172.725" y="171.504" width="16.2938" height="57.0077" fill="white"/>
<path fill-rule="evenodd" clip-rule="evenodd" d="M156.182 229.417C173.171 229.417 185.37 214.845 185.37 199.998C185.37 185.973 173.252 170.578 156.182 170.578C139.858 170.578 127.464 183.75 127.464 199.998C127.464 216.245 139.858 229.417 156.182 229.417ZM157.971 214.546C166.341 214.546 172.725 208.311 172.725 199.997C172.725 191.684 166.341 185.448 157.971 185.448C149.602 185.448 143.119 191.962 143.119 199.997C143.119 208.033 149.602 214.546 157.971 214.546Z" fill="white"/>
<path fill-rule="evenodd" clip-rule="evenodd" d="M254.472 187.397L239.552 194.328C237.648 190.041 233.635 186.59 228.208 186.59C220.491 186.59 214.515 192.595 214.515 200.003C214.515 207.411 220.491 213.416 228.208 213.416C233.759 213.416 237.831 210.308 239.679 205.805L254.568 212.826C249.994 222.649 240.179 229.422 227.943 229.422C211.468 229.422 198.523 216.251 198.523 200.003C198.523 183.755 212.056 170.583 227.943 170.583C239.419 170.583 249.666 177.456 254.472 187.397Z" fill="white"/>
<rect x="263.698" y="171.493" width="16.2938" height="57.028" fill="white"/>
<path d="M299.906 193.67L316.2 192.312V228.521H299.906V193.67Z" fill="white"/>
<path d="M336.115 193.67L352.409 192.312V228.521H336.115V193.67Z" fill="white"/>
<path d="M294.596 170.583C309.015 170.583 316.201 181.631 316.201 193.214L299.907 196.243C299.907 191.234 295.381 186.725 289.95 186.725C284.519 186.725 279.993 191.407 279.993 196.838L275.677 190.747C273.979 186.725 280.134 170.583 294.596 170.583Z" fill="white"/>
<path d="M330.804 170.583C345.223 170.583 352.409 181.631 352.409 193.214L336.115 196.243C336.115 191.234 331.589 186.725 326.158 186.725C320.727 186.725 316.201 191.407 316.201 196.838L311.885 190.747C310.187 186.725 316.342 170.583 330.804 170.583Z" fill="white"/>
<path d="M330.804 170.583C345.223 170.583 352.409 181.631 352.409 193.214L336.115 194.572C336.115 189.563 331.589 185.52 326.158 185.52C320.727 185.52 316.201 189.14 316.201 194.572L308.054 185.972C311.675 177.825 316.342 170.583 330.804 170.583Z" fill="white"/>
<rect x="579.937" y="119.145" width="36" height="125.954" fill="black"/>
<path fill-rule="evenodd" clip-rule="evenodd" d="M543.388 247.099C580.922 247.099 607.875 214.904 607.875 182.099C607.875 151.113 581.102 117.099 543.388 117.099C507.32 117.099 479.937 146.201 479.937 182.099C479.937 217.998 507.32 247.099 543.388 247.099ZM547.339 214.244C565.832 214.244 579.937 200.467 579.937 182.099C579.937 163.731 565.832 149.954 547.339 149.954C528.846 149.954 514.525 164.346 514.525 182.099C514.525 199.852 528.846 214.244 547.339 214.244Z" fill="black"/>
<path fill-rule="evenodd" clip-rule="evenodd" d="M760.55 154.259L727.585 169.573C723.38 160.1 714.512 152.476 702.521 152.476C685.472 152.476 672.269 165.744 672.269 182.111C672.269 198.478 685.472 211.746 702.521 211.746C714.786 211.746 723.783 204.879 727.866 194.931L760.764 210.443C750.656 232.147 728.97 247.111 701.937 247.111C665.537 247.111 636.937 218.009 636.937 182.111C636.937 146.212 666.837 117.111 701.937 117.111C727.291 117.111 749.932 132.296 760.55 154.259Z" fill="black"/>
<rect x="780.937" y="119.12" width="36" height="125.999" fill="black"/>
<path d="M860.937 168.12L896.937 165.12V245.12H860.937V168.12Z" fill="black"/>
<path d="M940.937 168.12L976.937 165.12V245.12H940.937V168.12Z" fill="black"/>
<path d="M849.2 117.111C881.058 117.111 896.936 141.519 896.936 167.111L860.936 173.804C860.936 162.737 850.936 152.775 838.936 152.775C826.936 152.775 816.936 163.118 816.936 175.118L807.401 161.662C803.649 152.775 817.249 117.111 849.2 117.111Z" fill="black"/>
<path d="M929.2 117.111C961.058 117.111 976.936 141.519 976.936 167.111L940.936 173.804C940.936 162.737 930.936 152.775 918.936 152.775C906.936 152.775 896.936 163.118 896.936 175.118L887.401 161.662C883.649 152.775 897.249 117.111 929.2 117.111Z" fill="black"/>
<path d="M929.201 117.111C961.059 117.111 976.937 141.519 976.937 167.111L940.937 170.111C940.937 159.044 930.937 150.111 918.937 150.111C906.937 150.111 896.937 158.111 896.937 170.111L878.937 151.111C886.937 133.111 897.249 117.111 929.201 117.111Z" fill="black"/>
<rect x="529.945" y="278.989" width="11.163" height="39.0562" fill="black"/>
<path fill-rule="evenodd" clip-rule="evenodd" d="M518.612 318.665C530.25 318.665 538.608 308.682 538.608 298.509C538.608 288.901 530.306 278.354 518.612 278.354C507.428 278.354 498.937 287.378 498.937 298.509C498.937 309.641 507.428 318.665 518.612 318.665ZM519.836 308.477C525.571 308.477 529.944 304.205 529.944 298.509C529.944 292.814 525.571 288.542 519.836 288.542C514.102 288.542 509.661 293.004 509.661 298.509C509.661 304.014 514.102 308.477 519.836 308.477Z" fill="black"/>
<path d="M557.464 306.383L568.627 304.808V267.741L557.464 272.302L557.464 306.383Z" fill="black"/>
<path d="M550.021 279H577.929V288.923H550.021V279Z" fill="black"/>
<path d="M570.487 318.045C558.839 318.045 557.464 310.851 557.464 306.273C560.65 304.356 566.394 303.795 568.627 303.795C568.627 305.975 570.177 308.155 573.278 308.155H577.929L577.929 317.827C575.139 318.045 574.043 318.045 570.487 318.045Z" fill="black"/>
<path fill-rule="evenodd" clip-rule="evenodd" d="M615.983 265.975H604.885V298.129V298.994H604.901C605.342 310.496 614.569 318 626.364 318V306.386C626.249 306.388 626.133 306.389 626.016 306.389V297.085H626.012V306.389C620.338 306.388 615.984 303.91 615.983 297.085V297.083V265.975ZM626.366 306.386C631.896 306.284 636.093 303.77 636.094 297.085H636.096V265.975H647.84V297.699C647.843 297.842 647.845 297.985 647.845 298.129C647.845 298.276 647.843 298.423 647.84 298.569V298.994H647.828C647.388 310.496 638.16 318 626.366 318V306.386Z" fill="black"/>
<path fill-rule="evenodd" clip-rule="evenodd" d="M656.733 291.882C656.733 306.727 668.051 318 682.618 318V307.146C674.163 307.111 667.683 300.615 667.683 291.987C667.683 283.36 674.463 276.864 682.618 276.828V265.974C668.571 265.974 656.733 277.036 656.733 291.882ZM682.62 307.146V318C692.397 318 700.398 314.045 704.602 306.233L694.92 301.528C692.101 305.082 687.661 307.138 682.687 307.146V307.146L682.659 307.146C682.646 307.146 682.633 307.146 682.62 307.146ZM704.381 277.547L695.096 282.786C692.23 279.017 687.618 276.828 682.659 276.828V276.828C682.646 276.828 682.633 276.828 682.62 276.828V265.974C691.97 265.974 700.033 269.864 704.381 277.547Z" fill="black"/>
<path d="M710.882 265.974H722.052V317.461H710.882V265.974Z" fill="black"/>
<path d="M710.882 307.482H743.555V318H710.882V307.482Z" fill="black"/>
<path d="M768.85 265.92L777.716 265.92L777.293 272.109L760.063 317.998L749.297 317.998L768.85 265.92Z" fill="black"/>
<path d="M780.014 265.92L771.148 265.92L771.572 272.109L788.801 317.998L799.567 317.998L780.014 265.92Z" fill="black"/>
<path d="M770.116 265.92L778.981 265.92L778.558 272.109L761.329 317.998L750.562 317.998L770.116 265.92Z" fill="black"/>
<path d="M781.38 265.92L772.515 265.92L792.068 317.998L800.934 317.998L781.38 265.92Z" fill="black"/>
<path d="M759.598 300.861H790.192V310.284H759.598V300.861Z" fill="black"/>
</svg>
