<?xml version="1.0" encoding="UTF-8" standalone="no"?>
<!-- Created with Inkscape (http://www.inkscape.org/) -->

<svg
   width="338.86172mm"
   height="88.336906mm"
   viewBox="0 0 338.86173 88.336906"
   version="1.1"
   id="svg5"
   xmlns="http://www.w3.org/2000/svg"
   xmlns:svg="http://www.w3.org/2000/svg">
  <defs
     id="defs2" />
  <g
     id="layer1"
     transform="translate(-64.659005,-123.70112)">
    <g
       aria-label="chapter"
       id="text1719"
       style="font-size:27.7532px;line-height:1.25;font-family:'Seven Segment';-inkscape-font-specification:'Seven Segment';stroke:#000000;stroke-width:0.7">
      <path
         d="m 169.32266,177.3305 q -1.91497,0 -3.55241,-0.94361 -1.60968,-0.97136 -2.58104,-2.6088 -0.94361,-1.63744 -0.94361,-3.58016 0,-1.91497 0.97136,-3.55241 0.97136,-1.63744 2.6088,-2.58105 1.63744,-0.97136 3.4969,-0.97136 2.08149,0 3.80219,1.11013 1.74845,1.11013 2.66431,2.94184 l -2.83083,1.38766 q -1.16563,-2.33127 -3.63567,-2.33127 -1.74845,0 -2.83082,1.13788 -1.05462,1.11013 -1.05462,2.85858 0,1.74845 1.05462,2.88633 1.08237,1.13788 2.83082,1.13788 1.2489,0 2.24801,-0.55506 0.99912,-0.55506 1.41542,-1.58193 l 2.77532,1.33215 q -0.88811,1.77621 -2.58105,2.85858 -1.69295,1.05462 -3.8577,1.05462 z"
         style="font-family:'Westwood Sans';-inkscape-font-specification:'Westwood Sans'"
         id="path1071" />
      <path
         d="m 186.17016,163.25963 q 1.63744,0 2.88634,0.72158 1.27664,0.69383 1.97047,1.88722 0.69383,1.19339 0.69383,2.6088 v 8.659 h -3.19161 v -7.99292 q 0,-1.08238 -0.74934,-1.99823 -0.72158,-0.91586 -2.47003,-0.91586 -1.6652,0 -2.47004,1.02687 -0.80484,0.99912 -0.80484,2.33127 v 7.54887 h -3.19162 v -20.3986 h 3.19162 v 7.65988 q 1.41541,-1.13788 4.13522,-1.13788 z"
         style="font-family:'Westwood Sans';-inkscape-font-specification:'Westwood Sans'"
         id="path1073" />
      <path
         d="m 206.51412,163.25963 h 3.19162 v 13.8766 h -3.19162 v -1.27665 q -0.91585,0.69383 -2.02598,1.08238 -1.11013,0.36079 -2.33127,0.36079 -1.99823,0 -3.66342,-0.8881 -1.63744,-0.91586 -2.58105,-2.47004 -0.94361,-1.58193 -0.94361,-3.52465 0,-1.97048 0.94361,-3.63567 0.97136,-1.69295 2.6088,-2.69206 1.63744,-0.99912 3.63567,-0.99912 1.19339,0 2.30352,0.4163 1.13788,0.4163 2.05373,1.19339 z m -4.21848,10.96251 q 1.19339,0 2.13699,-0.52731 0.97137,-0.52731 1.52643,-1.38766 0.55506,-0.8881 0.55506,-1.88721 0,-1.13789 -0.55506,-2.10925 -0.55506,-0.97136 -1.52643,-1.52642 -0.9436,-0.58282 -2.13699,-0.58282 -1.16564,0 -2.10924,0.55506 -0.94361,0.52731 -1.49868,1.49868 -0.52731,0.97136 -0.52731,2.16475 0,1.02686 0.52731,1.91497 0.55507,0.86035 1.49868,1.38766 0.97136,0.49955 2.10924,0.49955 z"
         style="font-family:'Westwood Sans';-inkscape-font-specification:'Westwood Sans'"
         id="path1075" />
      <path
         d="m 221.44664,163.0376 q 1.91497,0 3.58016,0.97137 1.66519,0.94361 2.63656,2.58104 0.97136,1.63744 0.97136,3.58017 0,1.91497 -0.99912,3.55241 -0.97136,1.63744 -2.63655,2.6088 -1.63744,0.94361 -3.58016,0.94361 -2.5533,0 -4.52378,-1.60969 v 7.85416 h -3.19161 l -0.0278,-20.25984 h 3.19162 v 1.41541 q 0.94361,-0.77709 2.10924,-1.19338 1.16564,-0.44406 2.47004,-0.44406 z m -0.24978,11.24005 q 1.19339,0 2.16475,-0.52731 0.97136,-0.55506 1.52643,-1.49867 0.55506,-0.94361 0.55506,-2.08149 0,-1.11013 -0.55506,-2.05374 -0.55507,-0.97136 -1.52643,-1.52643 -0.97136,-0.55506 -2.16475,-0.55506 -1.16563,0 -2.16475,0.58282 -0.97136,0.58281 -1.55418,1.55418 -0.58282,0.94361 -0.58282,1.99823 0,1.08237 0.58282,2.02598 0.58282,0.94361 1.55418,1.52643 0.99912,0.55506 2.16475,0.55506 z"
         style="font-family:'Westwood Sans';-inkscape-font-specification:'Westwood Sans'"
         id="path1077" />
      <path
         d="m 239.87565,166.17372 h -3.16387 v 6.82728 q 0,0.63833 0.27753,0.99912 0.27753,0.33304 1.16564,0.33304 h 1.05462 v 2.6088 q -1.05462,0.19427 -1.49867,0.19427 -1.74846,0 -2.66431,-0.4718 -0.91586,-0.49956 -1.22114,-1.33216 -0.30529,-0.83259 -0.30529,-2.08149 v -7.07706 h -2.49779 v -2.91409 h 2.49779 v -2.58105 l 3.19162,-1.27664 v 3.85769 h 3.16387 z"
         style="font-family:'Westwood Sans';-inkscape-font-specification:'Westwood Sans'"
         id="path1079" />
      <path
         d="m 245.7324,171.55784 q 0.33304,1.24889 1.38766,2.08149 1.05462,0.80484 2.44228,0.80484 1.38766,0 2.16475,-0.4163 0.80484,-0.44405 1.33215,-1.24889 l 2.52555,1.27665 q -0.80485,1.3599 -2.47004,2.35902 -1.66519,0.99911 -3.60791,0.99911 -2.02599,0 -3.63567,-0.97136 -1.58194,-0.99911 -2.49779,-2.63655 -0.8881,-1.63744 -0.8881,-3.49691 0,-1.85946 0.8881,-3.4969 0.91585,-1.63744 2.52554,-2.63655 1.60968,-0.99912 3.66342,-1.02687 1.69295,0 3.19162,0.8881 1.52643,0.8881 2.44228,2.49779 0.94361,1.58193 0.94361,3.60791 0,0.77709 -0.11101,1.41542 z m 3.82994,-5.43963 q -1.35991,0 -2.38677,0.80484 -0.99912,0.77709 -1.49868,2.08149 l 7.38235,0.0278 q -0.33303,-1.19339 -1.27664,-2.05374 -0.91586,-0.86035 -2.22026,-0.86035 z"
         style="font-family:'Westwood Sans';-inkscape-font-specification:'Westwood Sans'"
         id="path1081" />
      <path
         d="m 267.46446,162.92659 v 3.0251 h -1.33215 q -1.97048,0 -2.69206,1.19339 -0.69383,1.19339 -0.69383,2.74757 v 7.24358 h -3.19162 v -13.8766 h 3.19162 v 1.24889 q 1.44316,-1.63743 4.05197,-1.63743 z"
         style="font-family:'Westwood Sans';-inkscape-font-specification:'Westwood Sans'"
         id="path1083" />
    </g>
    <g
       style="display:none;fill:none"
       id="g1163"
       transform="matrix(0.26458333,0,0,0.26458333,45.327459,114.95285)">
      <rect
         x="240"
         width="282.84299"
         height="282.84299"
         rx="80"
         transform="rotate(45,240,0)"
         fill="#1e6cff"
         id="rect1088"
         y="0" />
      <rect
         x="167.98801"
         y="172.854"
         width="17.457199"
         height="61.078098"
         fill="#ffffff"
         id="rect1090" />
      <path
         fill-rule="evenodd"
         clip-rule="evenodd"
         d="m 150.265,234.902 c 18.202,0 31.271,-15.612 31.271,-31.52 0,-15.025 -12.982,-31.52 -31.271,-31.52 -17.49,0 -30.769,14.112 -30.769,31.52 0,17.408 13.279,31.52 30.769,31.52 z m 1.917,-15.932 c 8.967,0 15.807,-6.681 15.807,-15.588 0,-8.907 -6.84,-15.588 -15.807,-15.588 -8.968,0 -15.913,6.979 -15.913,15.588 0,8.609 6.945,15.588 15.913,15.588 z"
         fill="#ffffff"
         id="path1092" />
      <path
         fill-rule="evenodd"
         clip-rule="evenodd"
         d="m 255.572,189.882 -15.986,7.426 c -2.039,-4.593 -6.339,-8.29 -12.154,-8.29 -8.267,0 -14.67,6.434 -14.67,14.37 0,7.937 6.403,14.371 14.67,14.371 5.948,0 10.311,-3.33 12.291,-8.154 l 15.952,7.522 c -4.901,10.525 -15.417,17.781 -28.526,17.781 -17.651,0 -31.52,-14.112 -31.52,-31.52 0,-17.408 14.499,-31.52 31.52,-31.52 12.295,0 23.274,7.364 28.423,18.014 z"
         fill="#ffffff"
         id="path1094" />
      <rect
         x="265.45801"
         y="172.842"
         width="17.457199"
         height="61.099899"
         fill="#ffffff"
         id="rect1096" />
      <path
         d="m 304.252,196.603 17.457,-1.454 v 38.794 h -17.457 z"
         fill="#ffffff"
         id="path1098" />
      <path
         d="m 343.045,196.603 17.458,-1.454 v 38.794 h -17.458 z"
         fill="#ffffff"
         id="path1100" />
      <path
         d="m 298.561,171.868 c 15.449,0 23.149,11.836 23.149,24.246 l -17.458,3.246 c 0,-5.367 -4.849,-10.198 -10.668,-10.198 -5.819,0 -10.668,5.016 -10.668,10.835 l -4.624,-6.525 c -1.82,-4.31 4.775,-21.604 20.269,-21.604 z"
         fill="#ffffff"
         id="path1102" />
      <path
         d="m 337.355,171.868 c 15.449,0 23.148,11.836 23.148,24.246 l -17.457,3.246 c 0,-5.367 -4.849,-10.198 -10.668,-10.198 -5.819,0 -10.669,5.016 -10.669,10.835 l -4.623,-6.525 c -1.82,-4.31 4.775,-21.604 20.269,-21.604 z"
         fill="#ffffff"
         id="path1104" />
      <path
         d="m 337.355,171.868 c 15.449,0 23.149,11.836 23.149,24.246 l -17.458,1.455 c 0,-5.367 -4.849,-9.698 -10.668,-9.698 -5.819,0 -10.668,3.879 -10.668,9.698 l -8.729,-9.214 c 3.879,-8.728 8.88,-16.487 24.374,-16.487 z"
         fill="#ffffff"
         id="path1106" />
      <path
         d="m 487.842,230.588 c -5.244,0 -10.07,-1.292 -14.478,-3.876 -4.408,-2.584 -7.904,-6.08 -10.488,-10.488 -2.584,-4.484 -3.876,-9.348 -3.876,-14.592 0,-5.168 1.33,-9.956 3.99,-14.364 2.66,-4.408 6.194,-7.904 10.602,-10.488 4.408,-2.66 9.158,-3.99 14.25,-3.99 5.624,0 10.792,1.52 15.504,4.56 4.712,2.964 8.322,6.954 10.83,11.97 l -11.172,5.244 c -1.292,-2.964 -3.192,-5.358 -5.7,-7.182 -2.508,-1.9 -5.358,-2.85 -8.55,-2.85 -3.268,0 -6.27,0.798 -9.006,2.394 -2.66,1.52 -4.75,3.61 -6.27,6.27 -1.52,2.584 -2.28,5.472 -2.28,8.664 0,3.192 0.76,6.118 2.28,8.778 1.52,2.584 3.61,4.636 6.27,6.156 2.736,1.52 5.738,2.28 9.006,2.28 3.344,0 6.27,-0.874 8.778,-2.622 2.508,-1.748 4.37,-4.066 5.586,-6.954 l 10.944,5.13 c -2.432,4.864 -5.966,8.74 -10.602,11.628 -4.56,2.888 -9.766,4.332 -15.618,4.332 z"
         fill="#000000"
         id="path1108" />
      <path
         d="m 550.671,172.79 c 4.864,0 8.93,0.988 12.198,2.964 3.344,1.9 5.852,4.484 7.524,7.752 1.672,3.192 2.508,6.764 2.508,10.716 v 35.568 h -12.54 v -32.832 c 0,-2.964 -1.026,-5.7 -3.078,-8.208 -1.976,-2.508 -5.358,-3.762 -10.146,-3.762 -4.56,0 -7.942,1.406 -10.146,4.218 -2.204,2.736 -3.306,5.928 -3.306,9.576 V 229.79 H 521.259 V 146 h 12.426 v 31.464 c 3.876,-3.116 9.538,-4.674 16.986,-4.674 z"
         fill="#000000"
         id="path1110" />
      <path
         d="m 629.985,173.474 h 12.654 v 56.316 h -12.654 v -4.788 c -5.168,4.104 -11.096,6.156 -17.784,6.156 -5.396,0 -10.336,-1.254 -14.82,-3.762 -4.408,-2.584 -7.904,-6.042 -10.488,-10.374 -2.508,-4.332 -3.762,-9.12 -3.762,-14.364 0,-5.396 1.254,-10.374 3.762,-14.934 2.584,-4.56 6.08,-8.17 10.488,-10.83 4.484,-2.736 9.424,-4.104 14.82,-4.104 6.536,0 12.464,2.166 17.784,6.498 z m -17.1,45.6 c 3.192,0 6.08,-0.798 8.664,-2.394 2.66,-1.596 4.712,-3.648 6.156,-6.156 1.52,-2.584 2.28,-5.206 2.28,-7.866 0,-3.116 -0.76,-5.966 -2.28,-8.55 -1.444,-2.66 -3.458,-4.75 -6.042,-6.27 -2.584,-1.52 -5.51,-2.28 -8.778,-2.28 -3.04,0 -5.814,0.76 -8.322,2.28 -2.508,1.444 -4.484,3.458 -5.928,6.042 -1.444,2.584 -2.166,5.51 -2.166,8.778 0,2.812 0.722,5.51 2.166,8.094 1.444,2.508 3.42,4.522 5.928,6.042 2.584,1.52 5.358,2.28 8.322,2.28 z"
         fill="#000000"
         id="path1112" />
      <path
         d="m 686.998,172.79 c 5.168,0 9.956,1.292 14.364,3.876 4.484,2.584 8.018,6.118 10.602,10.602 2.66,4.408 3.99,9.234 3.99,14.478 0,5.168 -1.33,9.956 -3.99,14.364 -2.584,4.408 -6.118,7.942 -10.602,10.602 -4.484,2.584 -9.31,3.876 -14.478,3.876 -6.992,0 -13.072,-2.166 -18.24,-6.498 v 31.92 h -12.54 v -82.422 h 12.54 v 5.7 c 2.508,-2.052 5.32,-3.648 8.436,-4.788 3.116,-1.14 6.422,-1.71 9.918,-1.71 z m -1.596,45.6 c 3.192,0 6.08,-0.722 8.664,-2.166 2.584,-1.52 4.636,-3.534 6.156,-6.042 1.52,-2.584 2.28,-5.396 2.28,-8.436 0,-3.04 -0.76,-5.852 -2.28,-8.436 -1.52,-2.66 -3.572,-4.75 -6.156,-6.27 -2.584,-1.52 -5.472,-2.28 -8.664,-2.28 -3.116,0 -5.966,0.798 -8.55,2.394 -2.508,1.596 -4.522,3.724 -6.042,6.384 -1.444,2.584 -2.166,5.32 -2.166,8.208 0,2.888 0.722,5.624 2.166,8.208 1.52,2.584 3.534,4.636 6.042,6.156 2.584,1.52 5.434,2.28 8.55,2.28 z"
         fill="#000000"
         id="path1114" />
      <path
         d="m 759.206,184.304 h -13.338 v 28.5 c 0,1.672 0.418,3.002 1.254,3.99 0.912,0.988 2.584,1.482 5.016,1.482 h 4.332 v 10.716 c -2.888,0.532 -4.94,0.798 -6.156,0.798 -6.612,0 -11.058,-1.368 -13.338,-4.104 -2.28,-2.812 -3.458,-6.764 -3.534,-11.856 V 184.304 H 722.84 V 172.79 h 10.602 v -10.602 l 12.426,-5.244 v 15.846 h 13.338 z"
         fill="#000000"
         id="path1116" />
      <path
         d="m 777.949,206.99 c 0.912,3.42 2.774,6.194 5.586,8.322 2.812,2.128 6.232,3.382 10.26,3.762 3.876,0 6.916,-0.57 9.12,-1.71 2.204,-1.216 4.066,-2.964 5.586,-5.244 l 10.602,5.358 c -2.28,3.724 -5.7,6.84 -10.26,9.348 -4.56,2.508 -9.576,3.762 -15.048,3.762 -5.168,0 -9.918,-1.292 -14.25,-3.876 -4.256,-2.66 -7.638,-6.194 -10.146,-10.602 -2.432,-4.484 -3.648,-9.31 -3.648,-14.478 0,-5.092 1.292,-9.842 3.876,-14.25 2.584,-4.484 6.042,-8.018 10.374,-10.602 4.332,-2.66 8.93,-3.99 13.794,-3.99 4.788,0 9.272,1.178 13.452,3.534 4.256,2.28 7.676,5.586 10.26,9.918 2.584,4.332 3.876,9.31 3.876,14.934 0,2.052 -0.152,3.99 -0.456,5.814 z m 30.552,-10.602 c -0.836,-3.344 -2.584,-6.194 -5.244,-8.55 -2.66,-2.432 -5.814,-3.648 -9.462,-3.648 -3.876,0 -7.296,1.14 -10.26,3.42 -2.888,2.204 -5.016,5.13 -6.384,8.778 z"
         fill="#000000"
         id="path1118" />
      <path
         d="m 863.589,172.904 v 12.084 h -5.13 c -5.092,0 -8.55,1.596 -10.374,4.788 -1.824,3.192 -2.736,6.878 -2.736,11.058 v 28.956 h -13.224 v -55.518 h 13.224 v 4.902 c 3.648,-4.332 8.854,-6.498 15.618,-6.498 z"
         fill="#000000"
         id="path1120" />
      <path
         d="m 967.086,173.474 h 12.654 v 56.316 h -12.654 v -4.788 c -5.168,4.104 -11.096,6.156 -17.784,6.156 -5.396,0 -10.336,-1.254 -14.82,-3.762 -4.408,-2.584 -7.904,-6.042 -10.488,-10.374 -2.508,-4.332 -3.762,-9.12 -3.762,-14.364 0,-5.396 1.254,-10.374 3.762,-14.934 2.584,-4.56 6.08,-8.17 10.488,-10.83 4.484,-2.736 9.424,-4.104 14.82,-4.104 6.536,0 12.464,2.166 17.784,6.498 z m -17.1,45.6 c 3.192,0 6.08,-0.798 8.664,-2.394 2.66,-1.596 4.712,-3.648 6.156,-6.156 1.52,-2.584 2.28,-5.206 2.28,-7.866 0,-3.116 -0.76,-5.966 -2.28,-8.55 -1.444,-2.66 -3.458,-4.75 -6.042,-6.27 -2.584,-1.52 -5.51,-2.28 -8.778,-2.28 -3.04,0 -5.814,0.76 -8.322,2.28 -2.508,1.444 -4.484,3.458 -5.928,6.042 -1.444,2.584 -2.166,5.51 -2.166,8.778 0,2.812 0.722,5.51 2.166,8.094 1.444,2.508 3.42,4.522 5.928,6.042 2.584,1.52 5.358,2.28 8.322,2.28 z"
         fill="#000000"
         id="path1122" />
      <path
         d="m 1026.95,184.304 h -13.34 v 28.5 c 0,1.672 0.42,3.002 1.26,3.99 0.91,0.988 2.58,1.482 5.01,1.482 h 4.33 v 10.716 c -2.88,0.532 -4.94,0.798 -6.15,0.798 -6.61,0 -11.06,-1.368 -13.34,-4.104 -2.28,-2.812 -3.46,-6.764 -3.53,-11.856 V 184.304 H 990.584 V 172.79 h 10.606 v -10.602 l 12.42,-5.244 v 15.846 h 13.34 z"
         fill="#000000"
         id="path1124" />
      <path
         d="m 1153.53,146 v 56.772 c -0.31,5.092 -2.02,9.728 -5.13,13.908 -3.04,4.104 -7.11,7.334 -12.2,9.69 -5.09,2.28 -10.68,3.42 -16.76,3.42 -5.77,0 -11.09,-1.14 -15.96,-3.42 -4.86,-2.28 -8.81,-5.472 -11.85,-9.576 -3.04,-4.104 -4.79,-8.778 -5.25,-14.022 h -0.11 V 146 h 12.2 v 51.528 c 0,6.916 1.93,12.008 5.81,15.276 3.88,3.192 8.93,4.788 15.16,4.788 13.76,0 21.05,-6.688 21.89,-20.064 V 146 Z"
         fill="#000000"
         id="path1126" />
      <path
         d="m 1239.68,211.436 c -3.42,6.08 -8.13,10.678 -14.14,13.794 -5.92,3.04 -12.84,4.56 -20.74,4.56 -7.45,0 -14.33,-1.862 -20.64,-5.586 -6.23,-3.724 -11.21,-8.778 -14.93,-15.162 -3.65,-6.384 -5.47,-13.452 -5.47,-21.204 0,-7.676 1.86,-14.706 5.58,-21.09 3.8,-6.384 8.86,-11.438 15.16,-15.162 6.31,-3.724 13.08,-5.586 20.3,-5.586 7.44,0 14.09,1.52 19.95,4.56 5.85,2.964 10.52,7.258 14.02,12.882 l -11.29,5.244 c -3.11,-3.116 -6.61,-5.472 -10.49,-7.068 -3.8,-1.672 -7.86,-2.508 -12.19,-2.508 -5.17,0 -10,1.254 -14.48,3.762 -4.41,2.508 -7.91,5.966 -10.49,10.374 -2.58,4.332 -3.88,9.196 -3.88,14.592 0,5.396 1.3,10.298 3.88,14.706 2.58,4.408 6.08,7.866 10.49,10.374 4.48,2.508 9.31,3.762 14.48,3.762 4.78,0 9.08,-0.798 12.88,-2.394 3.87,-1.672 7.14,-4.066 9.8,-7.182 z"
         fill="#000000"
         id="path1128" />
      <path
         d="m 1259.84,146 v 71.592 h 41.04 v 12.198 h -53.24 V 146 Z"
         fill="#000000"
         id="path1130" />
      <path
         d="m 1386.3,229.79 h -14.02 l -4.9,-12.996 h -40.01 l -4.91,12.996 h -14.7 L 1339.22,146 h 15.62 z m -38.76,-66.234 -15.27,40.242 h 30.32 z"
         fill="#000000"
         id="path1132" />
    </g>
    <path
       fill-rule="evenodd"
       clip-rule="evenodd"
       d="m 322.10474,157.04277 h -4.88315 v 13.90544 0.37359 h 0.007 c 0.20399,4.97443 4.47992,8.21981 9.94542,8.21981 v -4.83288 c -0.0534,7.9e-4 -0.10742,0.001 -0.1614,0.001 v -4.21322 h -0.002 v 4.21322 c -2.77681,-5.3e-4 -4.90723,-1.07235 -4.90723,-4.02457 0,-0.0638 10e-4,-0.12674 0.003,-0.18865 h -0.002 z m 9.83906,0 v 13.45406 h -0.003 c 0.002,0.0619 0.003,0.12488 0.003,0.18865 0,2.8948 -2.0582,3.98145 -4.76832,4.02325 v 4.83288 c 5.46549,0 9.74143,-3.24538 9.94542,-8.21981 h 0.006 v -0.17754 c 0.001,-0.0651 0.002,-0.13044 0.002,-0.19605 0,-0.0643 -7.9e-4,-0.12806 -0.002,-0.19183 v -13.71361 z"
       fill="#000000"
       id="path956"
       style="stroke-width:0.264583" />
    <path
       fill-rule="evenodd"
       clip-rule="evenodd"
       d="m 341.16056,168.24655 c 0,6.41985 4.89426,11.2948 11.19399,11.2948 v -4.69371 c -3.66236,-0.009 -6.47039,-2.82046 -6.47039,-6.55558 0,-3.73486 2.9382,-6.54606 6.47039,-6.55559 v -4.6937 c -6.07483,0 -11.19399,4.78366 -11.19399,11.20378 z m 11.19478,6.60109 c 0.006,0 0.0114,0 0.0169,0 v -13.11117 c -0.006,0 -0.0114,0 -0.0169,0 v -4.6937 c 4.04337,0 7.53031,1.68222 9.41044,5.00485 l -4.01505,2.26537 c -1.23931,-1.62984 -3.23401,-2.57652 -5.37819,-2.57652 v 13.11117 c 2.15583,0 4.08041,-0.8898 5.30199,-2.42941 l 4.18703,2.03465 c -1.81822,3.37793 -5.27818,5.08847 -9.50622,5.08847 z"
       fill="#000000"
       id="path958"
       style="stroke-width:0.264583" />
    <path
       d="m 364.57724,157.04277 h 4.8305 v 22.26574 h -4.8305 z"
       fill="#000000"
       id="path960"
       style="stroke-width:0.264583" />
    <path
       d="m 364.57724,174.99289 h 14.12954 v 4.54846 h -14.12954 z"
       fill="#000000"
       id="path962"
       style="stroke-width:0.264583" />
    <path
       d="m 389.64572,157.01948 h 3.83407 l -0.18309,2.67626 -7.45093,19.84481 h -4.65587 z"
       fill="#000000"
       id="path964"
       style="stroke-width:0.264583" />
    <path
       d="m 394.47357,157.01948 h -3.83408 l 0.18309,2.67626 7.45094,19.84481 h 4.65587 z"
       fill="#000000"
       id="path966"
       style="stroke-width:0.264583" />
    <path
       d="m 390.19314,157.01948 h 3.83381 l -0.18282,2.67626 -7.4512,19.84481 h -4.65561 z"
       fill="#000000"
       id="path968"
       style="stroke-width:0.264583" />
    <path
       d="m 395.06465,157.01948 h -3.83381 l 8.45582,22.52107 h 3.83407 z"
       fill="#000000"
       id="path970"
       style="stroke-width:0.264583" />
    <path
       d="m 385.64442,172.12957 h 13.23076 v 4.07511 h -13.23076 z"
       fill="#000000"
       id="path972"
       style="stroke-width:0.264583" />
    <rect
       x="158.23657"
       width="74.835541"
       height="74.835541"
       rx="21.166666"
       transform="rotate(45)"
       fill="#1e6cff"
       id="rect974"
       y="4.3313065"
       style="stroke-width:0.264583" />
    <rect
       x="89.774284"
       y="160.68713"
       width="4.6188841"
       height="16.160246"
       fill="#ffffff"
       id="rect976"
       style="stroke-width:0.264583" />
    <path
       fill-rule="evenodd"
       clip-rule="evenodd"
       d="m 85.085073,177.104 c 4.815946,0 8.273785,-4.13067 8.273785,-8.33966 0,-3.97537 -3.43482,-8.33967 -8.273785,-8.33967 -4.627562,0 -8.140964,3.7338 -8.140964,8.33967 0,4.60586 3.513402,8.33966 8.140964,8.33966 z m 0.507206,-4.21534 c 2.372519,0 4.182269,-1.76768 4.182269,-4.12432 0,-2.35665 -1.80975,-4.12433 -4.182269,-4.12433 -2.372783,0 -4.210314,1.84653 -4.210314,4.12433 0,2.27779 1.837531,4.12432 4.210314,4.12432 z"
       fill="#ffffff"
       id="path978"
       style="stroke-width:0.264583" />
    <path
       fill-rule="evenodd"
       clip-rule="evenodd"
       d="m 112.94755,165.19246 -4.22963,1.9648 c -0.53948,-1.21523 -1.67719,-2.1934 -3.21575,-2.1934 -2.18731,0 -3.88143,1.70233 -3.88143,3.80206 0,2.1 1.69412,3.80233 3.88143,3.80233 1.57375,0 2.72812,-0.88106 3.252,-2.15741 l 4.2209,1.99019 c -1.29699,2.78474 -4.07935,4.70456 -7.54777,4.70456 -4.67016,0 -8.339669,-3.7338 -8.339669,-8.33967 0,-4.60586 3.836189,-8.33966 8.339669,-8.33966 3.25305,0 6.15791,1.94839 7.52025,4.7662 z"
       fill="#ffffff"
       id="path980"
       style="stroke-width:0.264583" />
    <rect
       x="115.56322"
       y="160.68396"
       width="4.6188841"
       height="16.166016"
       fill="#ffffff"
       id="rect982"
       style="stroke-width:0.264583" />
    <path
       d="m 125.82747,166.97099 4.61883,-0.38497 v 10.26425 h -4.61883 z"
       fill="#ffffff"
       id="path984"
       style="stroke-width:0.264583" />
    <path
       d="m 136.09171,166.97099 4.61883,-0.38497 v 10.26425 h -4.61883 z"
       fill="#ffffff"
       id="path986"
       style="stroke-width:0.264583" />
    <path
       d="m 124.32199,160.42626 c 4.08755,0 6.12457,3.13161 6.12457,6.41509 l -4.61883,0.85883 c 0,-1.42002 -1.28296,-2.69822 -2.82284,-2.69822 -1.53961,0 -2.82257,1.32715 -2.82257,2.86676 l -1.22317,-1.7264 c -0.48154,-1.14036 1.26338,-5.71606 5.36284,-5.71606 z"
       fill="#ffffff"
       id="path988"
       style="stroke-width:0.264583" />
    <path
       d="m 134.58623,160.42626 c 4.08755,0 6.12458,3.13161 6.12458,6.41509 l -4.61883,0.85883 c 0,-1.42002 -1.28323,-2.69822 -2.82284,-2.69822 -1.53961,0 -2.82258,1.32715 -2.82258,2.86676 l -1.22343,-1.7264 c -0.48128,-1.14036 1.26365,-5.71606 5.3631,-5.71606 z"
       fill="#ffffff"
       id="path990"
       style="stroke-width:0.264583" />
    <path
       d="m 134.58623,160.42626 c 4.08755,0 6.12458,3.13161 6.12458,6.41509 l -4.61883,0.38496 c 0,-1.41975 -1.28323,-2.56593 -2.82284,-2.56593 -1.53961,0 -2.82258,1.02632 -2.82258,2.56593 l -2.30955,-2.4376 c 1.02659,-2.30955 2.34977,-4.36245 6.44922,-4.36245 z"
       fill="#ffffff"
       id="path992"
       style="stroke-width:0.264583" />
    <rect
       x="288.43094"
       y="162.66728"
       width="4.2179346"
       height="14.757426"
       fill="#000000"
       id="rect994"
       style="stroke-width:0.264583" />
    <path
       fill-rule="evenodd"
       clip-rule="evenodd"
       d="m 284.14841,177.6591 c 4.39764,0 7.5557,-3.77217 7.5557,-7.6155 0,-3.63062 -3.1369,-7.61577 -7.5557,-7.61577 -4.22593,0 -7.43427,3.40969 -7.43427,7.61577 0,4.20581 3.20834,7.6155 7.43427,7.6155 z m 0.46275,-3.84942 c 2.16668,0 3.81926,-1.61423 3.81926,-3.76635 0,-2.15212 -1.65258,-3.76608 -3.81926,-3.76608 -2.16667,0 -3.84466,1.68619 -3.84466,3.76608 0,2.08016 1.67799,3.76635 3.84466,3.76635 z"
       fill="#000000"
       id="path996"
       style="stroke-width:0.264583" />
    <path
       d="m 298.82881,173.01831 4.21799,-0.59505 v -14.00598 l -4.21799,1.72349 z"
       fill="#000000"
       id="path998"
       style="stroke-width:0.264583" />
    <path
       d="m 296.01656,162.67178 h 10.54497 v 3.74941 h -10.54497 z"
       fill="#000000"
       id="path1000"
       style="stroke-width:0.264583" />
    <path
       d="m 303.7498,177.42494 c -4.40161,0 -4.92099,-2.71833 -4.92099,-4.44817 1.20386,-0.72443 3.37423,-0.93636 4.21799,-0.93636 0,0.82365 0.58579,1.64756 1.75736,1.64756 h 1.75763 v 3.65442 c -1.05463,0.0825 -1.46844,0.0825 -2.81199,0.0825 z"
       fill="#000000"
       id="path1002"
       style="stroke-width:0.264583" />
    <g
       style="fill:none"
       id="g1227"
       transform="matrix(0.26458333,0,0,0.26458333,55.910792,114.95285)">
      <rect
         x="200"
         width="282.84299"
         height="282.84299"
         rx="80"
         transform="rotate(45,200,0)"
         fill="#1e6cff"
         id="rect1191"
         y="0" />
      <rect
         x="132.72501"
         y="171.504"
         width="16.2938"
         height="57.007702"
         fill="#ffffff"
         id="rect1193" />
      <path
         fill-rule="evenodd"
         clip-rule="evenodd"
         d="m 116.182,229.417 c 16.989,0 29.188,-14.572 29.188,-29.419 0,-14.025 -12.118,-29.42 -29.188,-29.42 -16.324,0 -28.7181,13.172 -28.7181,29.42 0,16.247 12.3941,29.419 28.7181,29.419 z m 1.789,-14.871 c 8.37,0 14.754,-6.235 14.754,-14.549 0,-8.313 -6.384,-14.549 -14.754,-14.549 -8.369,0 -14.852,6.514 -14.852,14.549 0,8.036 6.483,14.549 14.852,14.549 z"
         fill="#ffffff"
         id="path1195" />
      <path
         fill-rule="evenodd"
         clip-rule="evenodd"
         d="m 214.472,187.397 -14.92,6.931 c -1.904,-4.287 -5.917,-7.738 -11.344,-7.738 -7.717,0 -13.693,6.005 -13.693,13.413 0,7.408 5.976,13.413 13.693,13.413 5.551,0 9.623,-3.108 11.471,-7.611 l 14.889,7.021 c -4.574,9.823 -14.389,16.596 -26.625,16.596 -16.475,0 -29.42,-13.171 -29.42,-29.419 0,-16.248 13.533,-29.42 29.42,-29.42 11.476,0 21.723,6.873 26.529,16.814 z"
         fill="#ffffff"
         id="path1197" />
      <rect
         x="223.698"
         y="171.493"
         width="16.2938"
         height="57.028"
         fill="#ffffff"
         id="rect1199" />
      <path
         d="m 259.906,193.67 16.294,-1.358 v 36.209 h -16.294 z"
         fill="#ffffff"
         id="path1201" />
      <path
         d="m 296.115,193.67 16.294,-1.358 v 36.209 h -16.294 z"
         fill="#ffffff"
         id="path1203" />
      <path
         d="m 254.596,170.583 c 14.419,0 21.605,11.048 21.605,22.631 l -16.294,3.029 c 0,-5.009 -4.526,-9.518 -9.957,-9.518 -5.431,0 -9.957,4.682 -9.957,10.113 l -4.316,-6.091 c -1.698,-4.022 4.457,-20.164 18.919,-20.164 z"
         fill="#ffffff"
         id="path1205" />
      <path
         d="m 290.804,170.583 c 14.419,0 21.605,11.048 21.605,22.631 l -16.294,3.029 c 0,-5.009 -4.526,-9.518 -9.957,-9.518 -5.431,0 -9.957,4.682 -9.957,10.113 l -4.316,-6.091 c -1.698,-4.022 4.457,-20.164 18.919,-20.164 z"
         fill="#ffffff"
         id="path1207" />
      <path
         d="m 290.804,170.583 c 14.419,0 21.605,11.048 21.605,22.631 l -16.294,1.358 c 0,-5.009 -4.526,-9.052 -9.957,-9.052 -5.431,0 -9.957,3.62 -9.957,9.052 l -8.147,-8.6 c 3.621,-8.147 8.288,-15.389 22.75,-15.389 z"
         fill="#ffffff"
         id="path1209" />
    </g>
  </g>
</svg>
