<svg width="999" height="400" viewBox="0 0 999 400" fill="none" xmlns="http://www.w3.org/2000/svg">
<path fill-rule="evenodd" clip-rule="evenodd" d="M611.555 159.08H593.099V211.636V213.048H593.127C593.898 231.849 610.059 244.115 630.716 244.115V225.849C630.514 225.852 630.31 225.854 630.106 225.854V209.93H630.098V225.854C619.603 225.852 611.551 221.801 611.551 210.643C611.551 210.402 611.555 210.164 611.563 209.93H611.555V159.08ZM648.742 159.08V209.93H648.73C648.738 210.164 648.742 210.402 648.742 210.643C648.742 221.584 640.963 225.691 630.72 225.849V244.115C651.377 244.115 667.538 231.849 668.309 213.048H668.33V212.377C668.335 212.131 668.338 211.884 668.338 211.636C668.338 211.393 668.335 211.152 668.33 210.911V159.08H648.742Z" fill="black"/>
<path fill-rule="evenodd" clip-rule="evenodd" d="M683.577 201.425C683.577 225.689 702.075 244.114 725.885 244.114V226.374C712.043 226.339 701.43 215.714 701.43 201.597C701.43 187.481 712.535 176.856 725.885 176.82V159.08C702.925 159.08 683.577 177.16 683.577 201.425ZM725.888 226.374C725.909 226.374 725.931 226.374 725.952 226.374V176.82C725.931 176.82 725.909 176.82 725.888 176.82V159.08C741.17 159.08 754.349 165.438 761.455 177.996L746.28 186.558C741.596 180.398 734.057 176.82 725.953 176.82V226.374C734.101 226.374 741.375 223.011 745.992 217.192L761.817 224.882C754.945 237.649 741.868 244.114 725.888 244.114V226.374Z" fill="black"/>
<path d="M772.081 159.08H790.338V243.234H772.081V159.08Z" fill="black"/>
<path d="M772.081 226.923H825.484V244.114H772.081V226.923Z" fill="black"/>
<path d="M866.828 158.992L881.319 158.992L880.627 169.107L852.466 244.111L834.869 244.111L866.828 158.992Z" fill="black"/>
<path d="M885.075 158.992L870.584 158.992L871.276 169.107L899.437 244.111L917.034 244.111L885.075 158.992Z" fill="black"/>
<path d="M868.897 158.992L883.387 158.992L882.696 169.107L854.534 244.111L836.938 244.111L868.897 158.992Z" fill="black"/>
<path d="M887.309 158.992L872.819 158.992L904.778 244.111L919.269 244.111L887.309 158.992Z" fill="black"/>
<path d="M851.705 216.101H901.711V231.503H851.705V216.101Z" fill="black"/>
<rect x="240" width="282.843" height="282.843" rx="80" transform="rotate(45 240 0)" fill="#1E6CFF"/>
<rect x="167.988" y="172.854" width="17.4572" height="61.0781" fill="white"/>
<path fill-rule="evenodd" clip-rule="evenodd" d="M150.265 234.902C168.467 234.902 181.536 219.29 181.536 203.382C181.536 188.357 168.554 171.862 150.265 171.862C132.775 171.862 119.496 185.974 119.496 203.382C119.496 220.79 132.775 234.902 150.265 234.902ZM152.182 218.97C161.149 218.97 167.989 212.289 167.989 203.382C167.989 194.475 161.149 187.794 152.182 187.794C143.214 187.794 136.269 194.773 136.269 203.382C136.269 211.991 143.214 218.97 152.182 218.97Z" fill="white"/>
<path fill-rule="evenodd" clip-rule="evenodd" d="M255.572 189.882L239.586 197.308C237.547 192.715 233.247 189.018 227.432 189.018C219.165 189.018 212.762 195.452 212.762 203.388C212.762 211.325 219.165 217.759 227.432 217.759C233.38 217.759 237.743 214.429 239.723 209.605L255.676 217.127C250.774 227.652 240.258 234.908 227.149 234.908C209.498 234.908 195.629 220.796 195.629 203.388C195.629 185.98 210.128 171.868 227.149 171.868C239.444 171.868 250.423 179.232 255.572 189.882Z" fill="white"/>
<rect x="265.458" y="172.842" width="17.4572" height="61.0999" fill="white"/>
<path d="M304.252 196.604L321.709 195.149V233.943H304.252V196.604Z" fill="white"/>
<path d="M343.046 196.604L360.503 195.149V233.943H343.046V196.604Z" fill="white"/>
<path d="M298.562 171.868C314.011 171.868 321.71 183.704 321.71 196.114L304.253 199.36C304.253 193.993 299.404 189.162 293.584 189.162C287.765 189.162 282.916 194.178 282.916 199.997L278.293 193.472C276.473 189.162 283.068 171.868 298.562 171.868Z" fill="white"/>
<path d="M337.356 171.868C352.805 171.868 360.504 183.704 360.504 196.114L343.047 199.36C343.047 193.993 338.197 189.162 332.378 189.162C326.559 189.162 321.71 194.178 321.71 199.997L317.086 193.472C315.267 189.162 321.862 171.868 337.356 171.868Z" fill="white"/>
<path d="M337.356 171.868C352.805 171.868 360.504 183.704 360.504 196.114L343.047 197.569C343.047 192.203 338.197 187.871 332.378 187.871C326.559 187.871 321.71 191.75 321.71 197.569L312.981 188.356C316.861 179.627 321.862 171.868 337.356 171.868Z" fill="white"/>
<rect x="484.284" y="180.338" width="15.9418" height="55.7761" fill="black"/>
<path fill-rule="evenodd" clip-rule="evenodd" d="M468.098 237C484.719 237 496.655 222.743 496.655 208.217C496.655 194.495 484.799 179.433 468.098 179.433C452.126 179.433 440 192.32 440 208.217C440 224.113 452.126 237 468.098 237ZM469.847 222.451C478.036 222.451 484.282 216.35 484.282 208.216C484.282 200.082 478.036 193.982 469.847 193.982C461.658 193.982 455.316 200.355 455.316 208.216C455.316 216.078 461.658 222.451 469.847 222.451Z" fill="black"/>
<path d="M523.583 219.46L539.525 217.211V164.275L523.583 170.789L523.583 219.46Z" fill="black"/>
<path d="M512.954 180.355H552.809V194.526H512.954V180.355Z" fill="black"/>
<path d="M542.182 236.115C525.546 236.115 523.583 225.841 523.583 219.303C528.133 216.565 536.336 215.764 539.525 215.764C539.525 218.877 541.739 221.991 546.167 221.991H552.81L552.81 235.803C548.824 236.115 547.26 236.115 542.182 236.115Z" fill="black"/>
</svg>
