<svg width="1415" height="400" viewBox="0 0 1415 400" fill="none" xmlns="http://www.w3.org/2000/svg">
<rect x="240" width="282.843" height="282.843" rx="80" transform="rotate(45 240 0)" fill="#1E6CFF"/>
<rect x="167.988" y="172.854" width="17.4572" height="61.0781" fill="white"/>
<path fill-rule="evenodd" clip-rule="evenodd" d="M150.265 234.902C168.467 234.902 181.536 219.29 181.536 203.382C181.536 188.357 168.554 171.862 150.265 171.862C132.775 171.862 119.496 185.974 119.496 203.382C119.496 220.79 132.775 234.902 150.265 234.902ZM152.182 218.97C161.149 218.97 167.989 212.289 167.989 203.382C167.989 194.475 161.149 187.794 152.182 187.794C143.214 187.794 136.269 194.773 136.269 203.382C136.269 211.991 143.214 218.97 152.182 218.97Z" fill="white"/>
<path fill-rule="evenodd" clip-rule="evenodd" d="M255.572 189.882L239.586 197.308C237.547 192.715 233.247 189.018 227.432 189.018C219.165 189.018 212.762 195.452 212.762 203.388C212.762 211.325 219.165 217.759 227.432 217.759C233.38 217.759 237.743 214.429 239.723 209.605L255.675 217.127C250.774 227.652 240.258 234.908 227.149 234.908C209.498 234.908 195.629 220.796 195.629 203.388C195.629 185.98 210.128 171.868 227.149 171.868C239.444 171.868 250.423 179.232 255.572 189.882Z" fill="white"/>
<rect x="265.458" y="172.842" width="17.4572" height="61.0999" fill="white"/>
<path d="M304.252 196.603L321.709 195.149V233.943H304.252V196.603Z" fill="white"/>
<path d="M343.045 196.603L360.503 195.149V233.943H343.045V196.603Z" fill="white"/>
<path d="M298.561 171.868C314.01 171.868 321.71 183.704 321.71 196.114L304.252 199.36C304.252 193.993 299.403 189.162 293.584 189.162C287.765 189.162 282.916 194.178 282.916 199.997L278.292 193.472C276.472 189.162 283.067 171.868 298.561 171.868Z" fill="white"/>
<path d="M337.355 171.868C352.804 171.868 360.503 183.704 360.503 196.114L343.046 199.36C343.046 193.993 338.197 189.162 332.378 189.162C326.559 189.162 321.709 194.178 321.709 199.997L317.086 193.472C315.266 189.162 321.861 171.868 337.355 171.868Z" fill="white"/>
<path d="M337.355 171.868C352.804 171.868 360.504 183.704 360.504 196.114L343.046 197.569C343.046 192.202 338.197 187.871 332.378 187.871C326.559 187.871 321.71 191.75 321.71 197.569L312.981 188.355C316.86 179.627 321.861 171.868 337.355 171.868Z" fill="white"/>
<path d="M487.842 230.588C482.598 230.588 477.772 229.296 473.364 226.712C468.956 224.128 465.46 220.632 462.876 216.224C460.292 211.74 459 206.876 459 201.632C459 196.464 460.33 191.676 462.99 187.268C465.65 182.86 469.184 179.364 473.592 176.78C478 174.12 482.75 172.79 487.842 172.79C493.466 172.79 498.634 174.31 503.346 177.35C508.058 180.314 511.668 184.304 514.176 189.32L503.004 194.564C501.712 191.6 499.812 189.206 497.304 187.382C494.796 185.482 491.946 184.532 488.754 184.532C485.486 184.532 482.484 185.33 479.748 186.926C477.088 188.446 474.998 190.536 473.478 193.196C471.958 195.78 471.198 198.668 471.198 201.86C471.198 205.052 471.958 207.978 473.478 210.638C474.998 213.222 477.088 215.274 479.748 216.794C482.484 218.314 485.486 219.074 488.754 219.074C492.098 219.074 495.024 218.2 497.532 216.452C500.04 214.704 501.902 212.386 503.118 209.498L514.062 214.628C511.63 219.492 508.096 223.368 503.46 226.256C498.9 229.144 493.694 230.588 487.842 230.588Z" fill="black"/>
<path d="M550.671 172.79C555.535 172.79 559.601 173.778 562.869 175.754C566.213 177.654 568.721 180.238 570.393 183.506C572.065 186.698 572.901 190.27 572.901 194.222V229.79H560.361V196.958C560.361 193.994 559.335 191.258 557.283 188.75C555.307 186.242 551.925 184.988 547.137 184.988C542.577 184.988 539.195 186.394 536.991 189.206C534.787 191.942 533.685 195.134 533.685 198.782V229.79H521.259V146H533.685V177.464C537.561 174.348 543.223 172.79 550.671 172.79Z" fill="black"/>
<path d="M629.985 173.474H642.639V229.79H629.985V225.002C624.817 229.106 618.889 231.158 612.201 231.158C606.805 231.158 601.865 229.904 597.381 227.396C592.973 224.812 589.477 221.354 586.893 217.022C584.385 212.69 583.131 207.902 583.131 202.658C583.131 197.262 584.385 192.284 586.893 187.724C589.477 183.164 592.973 179.554 597.381 176.894C601.865 174.158 606.805 172.79 612.201 172.79C618.737 172.79 624.665 174.956 629.985 179.288V173.474ZM612.885 219.074C616.077 219.074 618.965 218.276 621.549 216.68C624.209 215.084 626.261 213.032 627.705 210.524C629.225 207.94 629.985 205.318 629.985 202.658C629.985 199.542 629.225 196.692 627.705 194.108C626.261 191.448 624.247 189.358 621.663 187.838C619.079 186.318 616.153 185.558 612.885 185.558C609.845 185.558 607.071 186.318 604.563 187.838C602.055 189.282 600.079 191.296 598.635 193.88C597.191 196.464 596.469 199.39 596.469 202.658C596.469 205.47 597.191 208.168 598.635 210.752C600.079 213.26 602.055 215.274 604.563 216.794C607.147 218.314 609.921 219.074 612.885 219.074Z" fill="black"/>
<path d="M686.998 172.79C692.166 172.79 696.954 174.082 701.362 176.666C705.846 179.25 709.38 182.784 711.964 187.268C714.624 191.676 715.954 196.502 715.954 201.746C715.954 206.914 714.624 211.702 711.964 216.11C709.38 220.518 705.846 224.052 701.362 226.712C696.878 229.296 692.052 230.588 686.884 230.588C679.892 230.588 673.812 228.422 668.644 224.09V256.01H656.104V173.588H668.644V179.288C671.152 177.236 673.964 175.64 677.08 174.5C680.196 173.36 683.502 172.79 686.998 172.79ZM685.402 218.39C688.594 218.39 691.482 217.668 694.066 216.224C696.65 214.704 698.702 212.69 700.222 210.182C701.742 207.598 702.502 204.786 702.502 201.746C702.502 198.706 701.742 195.894 700.222 193.31C698.702 190.65 696.65 188.56 694.066 187.04C691.482 185.52 688.594 184.76 685.402 184.76C682.286 184.76 679.436 185.558 676.852 187.154C674.344 188.75 672.33 190.878 670.81 193.538C669.366 196.122 668.644 198.858 668.644 201.746C668.644 204.634 669.366 207.37 670.81 209.954C672.33 212.538 674.344 214.59 676.852 216.11C679.436 217.63 682.286 218.39 685.402 218.39Z" fill="black"/>
<path d="M759.206 184.304H745.868V212.804C745.868 214.476 746.286 215.806 747.122 216.794C748.034 217.782 749.706 218.276 752.138 218.276H756.47V228.992C753.582 229.524 751.53 229.79 750.314 229.79C743.702 229.79 739.256 228.422 736.976 225.686C734.696 222.874 733.518 218.922 733.442 213.83V184.304H722.84V172.79H733.442V162.188L745.868 156.944V172.79H759.206V184.304Z" fill="black"/>
<path d="M777.949 206.99C778.861 210.41 780.723 213.184 783.535 215.312C786.347 217.44 789.767 218.694 793.795 219.074C797.671 219.074 800.711 218.504 802.915 217.364C805.119 216.148 806.981 214.4 808.501 212.12L819.103 217.478C816.823 221.202 813.403 224.318 808.843 226.826C804.283 229.334 799.267 230.588 793.795 230.588C788.627 230.588 783.877 229.296 779.545 226.712C775.289 224.052 771.907 220.518 769.399 216.11C766.967 211.626 765.751 206.8 765.751 201.632C765.751 196.54 767.043 191.79 769.627 187.382C772.211 182.898 775.669 179.364 780.001 176.78C784.333 174.12 788.931 172.79 793.795 172.79C798.583 172.79 803.067 173.968 807.247 176.324C811.503 178.604 814.923 181.91 817.507 186.242C820.091 190.574 821.383 195.552 821.383 201.176C821.383 203.228 821.231 205.166 820.927 206.99H777.949ZM808.501 196.388C807.665 193.044 805.917 190.194 803.257 187.838C800.597 185.406 797.443 184.19 793.795 184.19C789.919 184.19 786.499 185.33 783.535 187.61C780.647 189.814 778.519 192.74 777.151 196.388H808.501Z" fill="black"/>
<path d="M863.589 172.904V184.988H858.459C853.367 184.988 849.909 186.584 848.085 189.776C846.261 192.968 845.349 196.654 845.349 200.834V229.79H832.125V174.272H845.349V179.174C848.997 174.842 854.203 172.676 860.967 172.676L863.589 172.904Z" fill="black"/>
<path d="M967.086 173.474H979.74V229.79H967.086V225.002C961.918 229.106 955.99 231.158 949.302 231.158C943.906 231.158 938.966 229.904 934.482 227.396C930.074 224.812 926.578 221.354 923.994 217.022C921.486 212.69 920.232 207.902 920.232 202.658C920.232 197.262 921.486 192.284 923.994 187.724C926.578 183.164 930.074 179.554 934.482 176.894C938.966 174.158 943.906 172.79 949.302 172.79C955.838 172.79 961.766 174.956 967.086 179.288V173.474ZM949.986 219.074C953.178 219.074 956.066 218.276 958.65 216.68C961.31 215.084 963.362 213.032 964.806 210.524C966.326 207.94 967.086 205.318 967.086 202.658C967.086 199.542 966.326 196.692 964.806 194.108C963.362 191.448 961.348 189.358 958.764 187.838C956.18 186.318 953.254 185.558 949.986 185.558C946.946 185.558 944.172 186.318 941.664 187.838C939.156 189.282 937.18 191.296 935.736 193.88C934.292 196.464 933.57 199.39 933.57 202.658C933.57 205.47 934.292 208.168 935.736 210.752C937.18 213.26 939.156 215.274 941.664 216.794C944.248 218.314 947.022 219.074 949.986 219.074Z" fill="black"/>
<path d="M1026.95 184.304H1013.61V212.804C1013.61 214.476 1014.03 215.806 1014.87 216.794C1015.78 217.782 1017.45 218.276 1019.88 218.276H1024.21V228.992C1021.33 229.524 1019.27 229.79 1018.06 229.79C1011.45 229.79 1007 228.422 1004.72 225.686C1002.44 222.874 1001.26 218.922 1001.19 213.83V184.304H990.584V172.79H1001.19V162.188L1013.61 156.944V172.79H1026.95V184.304Z" fill="black"/>
<path d="M1153.53 146V202.772C1153.22 207.864 1151.51 212.5 1148.4 216.68C1145.36 220.784 1141.29 224.014 1136.2 226.37C1131.11 228.65 1125.52 229.79 1119.44 229.79C1113.67 229.79 1108.35 228.65 1103.48 226.37C1098.62 224.09 1094.67 220.898 1091.63 216.794C1088.59 212.69 1086.84 208.016 1086.38 202.772H1086.27V146H1098.47V197.528C1098.47 204.444 1100.4 209.536 1104.28 212.804C1108.16 215.996 1113.21 217.592 1119.44 217.592C1133.2 217.592 1140.49 210.904 1141.33 197.528V146H1153.53Z" fill="black"/>
<path d="M1239.68 211.436C1236.26 217.516 1231.55 222.114 1225.54 225.23C1219.62 228.27 1212.7 229.79 1204.8 229.79C1197.35 229.79 1190.47 227.928 1184.16 224.204C1177.93 220.48 1172.95 215.426 1169.23 209.042C1165.58 202.658 1163.76 195.59 1163.76 187.838C1163.76 180.162 1165.62 173.132 1169.34 166.748C1173.14 160.364 1178.2 155.31 1184.5 151.586C1190.81 147.862 1197.58 146 1204.8 146C1212.24 146 1218.89 147.52 1224.75 150.56C1230.6 153.524 1235.27 157.818 1238.77 163.442L1227.48 168.686C1224.37 165.57 1220.87 163.214 1216.99 161.618C1213.19 159.946 1209.13 159.11 1204.8 159.11C1199.63 159.11 1194.8 160.364 1190.32 162.872C1185.91 165.38 1182.41 168.838 1179.83 173.246C1177.25 177.578 1175.95 182.442 1175.95 187.838C1175.95 193.234 1177.25 198.136 1179.83 202.544C1182.41 206.952 1185.91 210.41 1190.32 212.918C1194.8 215.426 1199.63 216.68 1204.8 216.68C1209.58 216.68 1213.88 215.882 1217.68 214.286C1221.55 212.614 1224.82 210.22 1227.48 207.104L1239.68 211.436Z" fill="black"/>
<path d="M1259.84 146V217.592H1300.88V229.79H1247.64V146H1259.84Z" fill="black"/>
<path d="M1386.3 229.79H1372.28L1367.38 216.794H1327.37L1322.46 229.79H1307.76L1339.22 146H1354.84L1386.3 229.79ZM1347.54 163.556L1332.27 203.798H1362.59L1347.54 163.556Z" fill="black"/>
</svg>
