<svg width="405" height="196" viewBox="0 0 405 196" version="1.1" xmlns="http://www.w3.org/2000/svg" xmlns:xlink="http://www.w3.org/1999/xlink">
<title>committee-diagram</title>
<desc>Created using Figma</desc>
<g id="Canvas" transform="translate(-3069 -310)">
<g id="committee-diagram">
<g id="logo-acm">
<g id="Vector">
<use xlink:href="#path0_fill" transform="translate(3069 310)" fill="#3B59ED"/>
</g>
<g id="acm">
<use xlink:href="#path1_fill" transform="matrix(1 -2.74738e-17 2.80402e-17 1 3109.11 394.605)" fill="#FFFFFF"/>
<use xlink:href="#path2_fill" transform="matrix(1 -2.74738e-17 2.80402e-17 1 3109.11 394.605)" fill="#FFFFFF"/>
<use xlink:href="#path3_fill" transform="matrix(1 -2.74738e-17 2.80402e-17 1 3109.11 394.605)" fill="#FFFFFF"/>
</g>
</g>
<g id="logo-hack">
<g id="Vector">
<use xlink:href="#path4_fill" transform="translate(3234 310)" fill="#C960FF"/>
</g>
<g id="Union">
<use xlink:href="#path5_fill" transform="translate(3261.08 331.116)" fill="#FFFFFF"/>
</g>
</g>
<g id="logo-icpc">
<g id="Vector">
<use xlink:href="#path6_fill" transform="translate(3337 310)" fill="#FF6B6B"/>
</g>
<g id="Union">
<use xlink:href="#path7_fill" transform="translate(3356.5 329.196)" fill="#FFFFFF"/>
</g>
</g>
<g id="logo-cyber">
<g id="Canvas">
<g id="logo cyber">
<g id="Vector">
<g id="Vector">
<use xlink:href="#path8_fill" transform="translate(3389 366)" fill="#FFBA44"/>
</g>
</g>
<g id="Group">
<g id="Group">
<g id="Rectangle 5">
<g id="Vector">
<use xlink:href="#path9_fill" transform="matrix(0.999996 -0.00290966 0.00294411 0.999996 3418.87 400.163)" fill="#FFFFFF"/>
</g>
</g>
</g>
<g id="Group">
<g id="Ellipse 7">
<g id="Vector">
<use xlink:href="#path10_fill" transform="matrix(1 2.83083e-09 9.39108e-09 1 3422.83 390.043)" fill="#FFFFFF"/>
</g>
</g>
<g id="Ellipse 5">
<g id="Vector">
<use xlink:href="#path11_fill" transform="matrix(0.924481 -0.385018 0.390996 0.918828 3423.76 395.514)" fill="#FFBA44"/>
</g>
</g>
<g id="Ellipse 6">
<g id="Vector">
<use xlink:href="#path12_fill" transform="matrix(0.789408 -0.613869 0.618368 0.785888 3428.39 396.785)" fill="#FFFFFF"/>
</g>
</g>
</g>
<g id="Rectangle 10">
<g id="Vector">
<use xlink:href="#path13_fill" transform="translate(3430.12 403.643)" fill="#FFBA44"/>
</g>
</g>
<g id="Rectangle 11">
<g id="Vector">
<use xlink:href="#path14_fill" transform="translate(3430.12 418.7)" fill="#FFBA44"/>
</g>
</g>
<g id="Rectangle 11">
<g id="Vector">
<use xlink:href="#path14_fill" transform="translate(3430.12 413.357)" fill="#FFBA44"/>
</g>
</g>
</g>
</g>
</g>
</g>
<g id="logo-studio">
<g id="path0 fill 1">
<use xlink:href="#path15_fill" transform="translate(3337 420)" fill="#ED3266"/>
</g>
<g id="Union">
<use xlink:href="#path16_fill" transform="translate(3357.23 443.089)" fill="#FFFFFF"/>
</g>
</g>
<g id="logo-w">
<g id="Vector">
<use xlink:href="#path4_fill" transform="translate(3286 366)" fill="#1BC3A9"/>
</g>
<g id="Union">
<use xlink:href="#path17_fill" transform="translate(3305.01 399.533)" fill="#FFFFFF"/>
</g>
</g>
<g id="logo-ai">
<g id="Vector">
<use xlink:href="#path18_fill" transform="translate(3234 420)" fill="#1EBDF4"/>
</g>
<g id="Subtract">
<use xlink:href="#path19_fill" transform="translate(3256.67 443.327)" fill="#FFFFFF"/>
</g>
</g>
</g>
</g>
<defs>
<path id="path0_fill" d="M 192.718 107.747L 108.852 190.761C 103.143 196.413 93.8571 196.413 88.1475 190.761L 4.28215 107.747C -1.42738 102.096 -1.42738 92.9042 4.28215 87.2526L 88.1475 4.23868C 93.8571 -1.41289 103.143 -1.41289 108.852 4.23868L 192.718 87.2526C 198.427 92.9042 198.427 102.096 192.718 107.747Z"/>
<path id="path1_fill" d="M 20.5871 20.699C 21.9199 19.4153 22.5863 17.5968 22.5863 15.2434C 22.5863 12.8901 21.9199 11.0894 20.5871 9.84137C 19.2542 8.55771 17.7232 7.91589 15.9942 7.91589C 14.2651 7.91589 12.7341 8.55771 11.4012 9.84137C 10.0684 11.125 9.40197 12.9435 9.40197 15.2969C 9.40197 17.6503 10.0684 19.4688 11.4012 20.7525C 12.7341 22.0005 14.2651 22.6245 15.9942 22.6245C 17.7232 22.6245 19.2542 21.9826 20.5871 20.699ZM 3.99854 26.2615C 1.33285 23.4089 0 19.7541 0 15.2969C 0 10.8398 1.33285 7.18492 3.99854 4.33234C 6.66423 1.44412 9.90629 0 13.7247 0C 17.5792 0 20.533 1.40846 22.5863 4.22537L 22.5863 0.320914L 31.8262 0.320914L 31.8262 30.1659L 22.5863 30.1659L 22.5863 25.8336C 20.3529 28.9714 17.363 30.5403 13.6166 30.5403C 9.87026 30.5403 6.66423 29.1141 3.99854 26.2615Z"/>
<path id="path2_fill" d="M 39.1879 26.3685C 36.4142 23.5872 35.0273 19.8789 35.0273 15.2434C 35.0273 10.608 36.4142 6.91749 39.1879 4.17189C 41.9977 1.39063 45.618 0 50.0488 0C 53.7232 0 56.8392 0.909257 59.3968 2.72777C 61.9544 4.51063 63.6475 7.07794 64.476 10.4297L 54.4797 10.4297C 53.6151 8.64686 52.1922 7.75543 50.2109 7.75543C 48.2657 7.75543 46.8068 8.45074 45.8342 9.84137C 44.8976 11.1963 44.4293 12.997 44.4293 15.2434C 44.4293 17.4898 44.8976 19.3083 45.8342 20.699C 46.8068 22.0539 48.2117 22.7314 50.0488 22.7314C 51.2016 22.7314 52.1021 22.5353 52.7506 22.1431C 53.399 21.7509 53.9753 21.0555 54.4797 20.0571L 64.476 20.0571C 63.6475 23.2663 61.9364 25.8158 59.3427 27.7056C 56.7491 29.5954 53.6511 30.5403 50.0488 30.5403C 45.618 30.5403 41.9977 29.1497 39.1879 26.3685Z"/>
<path id="path3_fill" d="M 76.1803 0.320914L 76.1803 4.70674C 78.0896 1.56892 81.1335 0 85.3121 0C 87.5456 0 89.5268 0.4992 91.2559 1.4976C 93.021 2.496 94.3899 3.92229 95.3625 5.77646C 96.4792 4.02926 97.9201 2.63863 99.6852 1.60457C 101.486 0.534858 103.486 0 105.683 0C 109.357 0 112.275 1.1232 114.437 3.3696C 116.598 5.616 117.679 8.736 117.679 12.7296L 117.679 30.1659L 108.493 30.1659L 108.493 13.9598C 108.493 12.0343 107.971 10.5545 106.926 9.52046C 105.917 8.45074 104.512 7.91589 102.711 7.91589C 100.91 7.91589 99.4871 8.45074 98.4425 9.52046C 97.4338 10.5545 96.9295 12.0343 96.9295 13.9598L 96.9295 30.1659L 87.7437 30.1659L 87.7437 13.9598C 87.7437 12.0343 87.2213 10.5545 86.1767 9.52046C 85.168 8.45074 83.7631 7.91589 81.962 7.91589C 80.1608 7.91589 78.738 8.45074 77.6933 9.52046C 76.6847 10.5545 76.1803 12.0343 76.1803 13.9598L 76.1803 30.1659L 66.9405 30.1659L 66.9405 0.320914L 76.1803 0.320914Z"/>
<path id="path4_fill" d="M 83.4232 47.0601L 47.2033 83.1701C 44.6925 85.6732 40.6137 85.6732 38.103 83.1701L 1.88306 47.0601C -0.627685 44.5569 -0.627685 40.4905 1.88306 37.9874L 38.103 1.87734C 40.6137 -0.625781 44.6925 -0.625781 47.2033 1.87734L 83.4232 37.9874C 85.9339 40.4905 85.9339 44.5569 83.4232 47.0601Z"/>
<path id="path5_fill" fill-rule="evenodd" d="M 24.2734 33.9684C 24.2734 38.6403 20.376 40.6283 15.572 40.6283C 10.7681 40.6283 6.87061 38.2336 6.87061 33.9684C 6.87061 30.9789 5.45557 28.8696 3.90991 26.5654C 2.04956 23.7923 0 20.7368 0 15.5248C 0 6.9491 6.97021 0 15.572 0C 24.1738 0 31.144 6.9491 31.144 15.5248C 31.144 21.4375 28.8767 24.7796 26.947 27.6241C 25.5176 29.7311 24.2734 31.565 24.2734 33.9684ZM 19.3337 25.2843C 21.3096 24.0372 22.6147 21.8504 22.6147 19.3473C 22.6147 17.1966 21.645 15.2628 20.104 13.9796C 19.4417 13.422 19.3345 14.7598 19.2144 16.2564C 19.1125 17.525 19.0017 18.9078 18.5359 19.3473C 17.4573 20.3594 13.7229 20.3232 12.6082 19.3473C 12.0779 18.8779 11.8933 17.3399 11.7351 16.0197C 11.5793 14.722 11.449 13.6346 11.04 13.9796C 9.5083 15.2628 8.5293 17.1966 8.5293 19.3473C 8.5293 21.8414 9.83447 24.0372 11.8105 25.2843L 11.8105 34.1853C 11.8105 35.6853 13.1973 36.345 15.572 36.345C 17.9468 36.345 19.3337 35.8209 19.3337 34.1853L 19.3337 25.2843ZM 15.572 45.7972C 18.6719 45.7972 21.1826 44.6947 21.1826 42.2187C 21.1826 41.0302 20.8042 41.1374 19.6792 41.4562C 18.811 41.7022 17.4985 42.0741 15.572 42.0741C 13.6421 42.0741 12.3281 41.6784 11.4602 41.417C 10.3386 41.0793 9.96143 40.9657 9.96143 42.2187C 9.96143 44.6947 12.4722 45.7972 15.572 45.7972Z"/>
<path id="path6_fill" d="M 83.452 46.993L 47.136 83.1988C 44.6636 85.6637 40.6426 85.6637 38.1702 83.1988L 1.85429 46.993C -0.618096 44.5281 -0.618096 40.5193 1.85429 38.0544L 38.1702 1.84866C 40.6426 -0.61622 44.6636 -0.61622 47.136 1.84866L 83.452 38.0544C 85.9244 40.5193 85.9244 44.5281 83.452 46.993Z"/>
<path id="path7_fill" fill-rule="evenodd" d="M 25.8481 11.6294C 25.5187 11.8047 25.1769 11.9483 24.8271 12.0602L 24.8271 34.8406C 25.6774 35.1242 26.477 35.6041 27.1552 36.2803C 29.4828 38.6007 29.4828 42.3748 27.1552 44.7042C 24.8188 47.0337 21.0422 47.0337 18.7057 44.7042C 16.8134 42.8178 16.4538 39.99 17.6262 37.7455L 8.24969 28.3764C 6.1142 29.4368 3.45038 29.0799 1.67084 27.3056C -0.556946 25.0845 -0.556946 21.482 1.67084 19.2609C 3.45184 17.4851 6.11884 17.1291 8.25507 18.1927L 17.444 9.06513C 16.2084 6.73124 16.5746 3.77021 18.5427 1.80805C 20.9609 -0.602684 24.8913 -0.602684 27.3093 1.80805C 29.2875 3.77314 29.6535 6.73414 28.4064 9.0723L 37.1987 17.8241C 39.5429 16.5793 42.5244 16.9408 44.4982 18.9087C 46.9162 21.3194 46.9162 25.2379 44.4982 27.6486C 42.0803 30.0593 38.1498 30.0593 35.7316 27.6486C 35.0024 26.9215 34.4931 26.0574 34.2038 25.1387L 27.2978 25.1387L 27.2978 21.5272L 34.1706 21.5272C 34.2868 21.1333 34.4428 20.7488 34.6391 20.38L 25.8481 11.6294ZM 10.8122 25.8236L 20.1916 35.1956C 20.5185 35.0271 20.8576 34.8907 21.2045 34.7865L 21.2045 12.1146C 20.79 11.9957 20.3854 11.833 19.9982 11.6264L 10.8149 20.7482C 10.9411 21.0012 11.0473 21.2617 11.1335 21.5272L 18.7673 21.5272L 18.7673 25.1387L 11.1003 25.1387C 11.02 25.3717 10.9238 25.6006 10.8122 25.8236Z"/>
<path id="path8_fill" d="M 83.1237 47.0339L 47.0339 83.1237C 44.532 85.6254 40.468 85.6254 37.9661 83.1237L 1.8763 47.0339C -0.625432 44.532 -0.625432 40.468 1.8763 37.9661L 37.9661 1.8763C 40.468 -0.625432 44.532 -0.625432 47.0339 1.8763L 83.1237 37.9661C 85.6254 40.468 85.6254 44.532 83.1237 47.0339Z"/>
<path id="path9_fill" d="M 0 2.42857C 0 1.08731 1.08731 0 2.42857 0L 22.5703 0C 23.9115 0 24.9988 1.08731 24.9988 2.42857L 24.9988 22.4236C 24.9988 23.7648 23.9115 24.8521 22.5703 24.8521L 2.42857 24.8521C 1.08731 24.8521 0 23.7648 0 22.4236L 0 2.42857Z"/>
<path id="path10_fill" d="M 17.2429 8.62143C 17.2429 13.3829 13.3829 17.2429 8.62143 17.2429C 3.85995 17.2429 0 13.3829 0 8.62143C 0 3.85995 3.85995 0 8.62143 0C 13.3829 0 17.2429 3.85995 17.2429 8.62143Z"/>
<path id="path11_fill" d="M 11.7006 5.88436C 11.7006 9.1342 9.08138 11.7687 5.85034 11.7687C 2.61929 11.7687 0 9.1342 0 5.88436C 0 2.63452 2.61929 0 5.85034 0C 9.08138 0 11.7006 2.63452 11.7006 5.88436Z"/>
<path id="path12_fill" d="M 4.43511 2.22976C 4.43511 3.46123 3.44228 4.45952 2.21756 4.45952C 0.992835 4.45952 0 3.46123 0 2.22976C 0 0.998296 0.992835 0 2.21756 0C 3.44228 0 4.43511 0.998296 4.43511 2.22976Z"/>
<path id="path13_fill" d="M 0 0.485715C 0 0.217462 0.217462 0 0.485715 0L 2.18572 0C 2.45398 0 2.67143 0.217462 2.67143 0.485715L 2.67143 16.656C 2.67143 16.9242 2.45398 17.1417 2.18572 17.1417L 0.485715 17.1417C 0.217462 17.1417 0 16.9242 0 16.656L 0 0.485715Z"/>
<path id="path14_fill" d="M 0 0.485715C 0 0.217462 0.217462 0 0.485715 0L 4.85715 0C 5.12541 0 5.34286 0.217462 5.34286 0.485715L 5.34286 2.18572C 5.34286 2.45398 5.12541 2.67143 4.85715 2.67143L 0.485715 2.67143C 0.217462 2.67143 0 2.45398 0 2.18572L 0 0.485715Z"/>
<path id="path15_fill" d="M 83.4213 47.0553L 47.1985 83.1682C 44.6852 85.6739 40.6117 85.6739 38.0984 83.1682L 1.88495 47.0553C -0.628317 44.5497 -0.628317 40.4885 1.88495 37.9828L 38.0984 1.87923C 40.6117 -0.62641 44.6852 -0.62641 47.1985 1.87923L 83.4213 37.9921C 85.9346 40.4885 85.9346 44.5497 83.4213 47.0553Z"/>
<path id="path16_fill" fill-rule="evenodd" d="M 20.4705 0C 19.938 0 19.4988 0.428467 19.4988 0.968719L 19.5081 0.968719L 19.5081 10.6839C 19.5081 11.2148 19.938 11.6526 20.4797 11.6526L 24.6187 11.6526C 25.1514 11.6526 25.5903 11.2242 25.5903 10.6839L 25.5903 0.968719C 25.5903 0.437775 25.1606 0 24.6187 0L 20.4705 0ZM 0.97168 16.2727C 0.439209 16.2727 0 16.7011 0 17.2414L 0.00927734 17.2414L 0.00927734 26.23C 0.00927734 26.761 0.439209 27.1988 0.980957 27.1988L 1.70044 27.1988C 2.23291 27.1988 2.67212 26.7703 2.67212 26.23L 2.67212 17.2414C 2.67212 16.7104 2.24243 16.2727 1.70044 16.2727L 0.97168 16.2727ZM 42.1648 17.2414C 42.1648 16.7011 42.604 16.2727 43.1365 16.2727L 43.8652 16.2727C 44.4072 16.2727 44.8369 16.7104 44.8369 17.2414L 44.8369 26.23C 44.8369 26.7703 44.3977 27.1988 43.8652 27.1988L 43.1365 27.1988C 42.5945 27.1988 42.1648 26.761 42.1648 26.23L 42.1648 17.2414ZM 6.33447 12.7238L 38.5117 12.7238C 39.717 12.7238 40.7075 13.7111 40.7075 14.9127L 40.7075 28.2233C 40.7075 29.1176 40.1655 29.9186 39.334 30.2539L 31.1494 33.5606C 30.1125 33.9705 28.9165 33.5513 28.3652 32.5733C 26.3379 28.9872 23.9927 27.711 22.47 27.711L 22.4604 27.711C 20.0688 27.7203 18.0601 30.4123 16.7893 32.6758C 16.3877 33.393 15.6309 33.8214 14.8459 33.8214C 14.6499 33.8214 14.4629 33.7935 14.2761 33.7469L 5.76465 31.4648C 4.81152 31.204 4.13892 30.3378 4.13892 29.3504L 4.13892 14.9127C 4.13892 13.7018 5.12939 12.7238 6.33447 12.7238ZM 17.7983 23.6591C 18.3311 23.6591 18.77 23.2307 18.77 22.6904L 18.77 21.5168C 18.77 20.9858 18.3403 20.5481 17.7983 20.5481L 14.958 20.5481L 14.958 17.735C 14.958 17.2041 14.5283 16.7663 13.9863 16.7663L 12.8093 16.7663C 12.2766 16.7663 11.8376 17.1948 11.8376 17.735L 11.8376 20.5481L 9.01587 20.5481C 8.4834 20.5481 8.04419 20.9765 8.04419 21.5168L 8.04419 22.6904C 8.04419 23.2214 8.47412 23.6591 9.01587 23.6591L 11.8562 23.6591L 11.8562 26.4722C 11.8562 27.0031 12.2861 27.4409 12.8279 27.4409L 14.0051 27.4409C 14.5376 27.4409 14.9768 27.0124 14.9768 26.4722L 14.9768 23.6591L 17.7983 23.6591ZM 28.0291 24.9725C 28.0291 26.1555 28.9912 27.1149 30.178 27.1149C 31.3645 27.1149 32.3174 26.1555 32.3267 24.9725C 32.3267 23.7896 31.3645 22.8301 30.178 22.8301C 28.9912 22.8301 28.0291 23.7896 28.0291 24.9725ZM 31.5327 19.1322C 31.5327 20.3152 32.4949 21.2746 33.6814 21.2746C 34.8682 21.2746 35.8303 20.3245 35.8303 19.1322C 35.8303 17.9493 34.8682 16.9899 33.6814 16.9899C 32.4949 16.9899 31.5327 17.9493 31.5327 19.1322Z"/>
<path id="path17_fill" fill-rule="evenodd" d="M 13.8838 12.7804L 19.8708 2.44702C 20.2099 1.67581 20.7903 1.00192 21.5791 0.548951C 22.2317 0.174225 22.9441 -0.0025935 23.6462 3.10145e-05C 24.3484 -0.0025935 25.0596 0.174225 25.7121 0.548951C 26.5007 1.00183 27.081 1.67554 27.4202 2.44656L 33.4077 12.7804L 39.6255 2.04904C 40.7585 0.0881047 43.2693 -0.580596 45.2361 0.548951C 47.2031 1.67853 47.8738 4.18164 46.7407 6.14258L 36.9971 22.9596C 36.2317 24.2841 34.8384 25.0191 33.4079 25.0085C 31.9778 25.0191 30.5837 24.2841 29.8183 22.9596L 23.6457 12.3062L 17.4731 22.9596C 16.7078 24.2841 15.3144 25.0191 13.884 25.0085C 12.4538 25.0191 11.0598 24.2841 10.2944 22.9596L 0.550526 6.14258C -0.582287 4.18164 0.0883676 1.67853 2.05516 0.548951C 4.02221 -0.580596 6.53295 0.0881047 7.666 2.04904L 13.8838 12.7804Z"/>
<path id="path18_fill" d="M 83.4232 47.0601L 47.2033 83.1701C 44.6925 85.6732 40.6137 85.6732 38.103 83.1701L 1.88306 47.0601C -0.627685 44.5569 -0.627685 40.4905 1.88306 37.9874L 38.103 1.87734C 40.6137 -0.625781 44.6925 -0.625781 47.2033 1.87734L 83.4232 37.9874C 85.9339 40.4905 85.9339 44.5569 83.4232 47.0601Z"/>
<path id="path19_fill" fill-rule="evenodd" d="M 10.8408 34.6642C 10.8408 36.7426 12.5449 38.4415 14.6296 38.4415C 16.7144 38.4415 18.4185 36.7426 18.4185 34.6642L 18.4182 33.3177L 18.4185 33.2895C 18.4336 32.4077 19.1619 31.6911 20.0498 31.6911C 20.947 31.6911 21.6812 32.4231 21.6812 33.3177L 21.6812 34.7003C 21.6812 36.7787 23.3853 38.4775 25.47 38.4775C 27.5547 38.4775 29.2588 36.7787 29.2588 34.7003L 29.2588 26.3777C 29.2588 25.4831 29.9929 24.7511 30.8904 24.7511C 31.7876 24.7511 32.5217 25.4831 32.5217 26.3777L 32.522 29.0073C 32.522 31.0857 34.2261 32.7845 36.3108 32.7845C 38.3955 32.7845 40.0996 31.0857 40.0996 29.0073L 40.0996 12.0999C 40.0996 10.0215 38.3955 8.32263 36.3108 8.32263C 34.2261 8.32263 32.522 10.0215 32.522 12.0999L 32.5217 14.6573C 32.5217 15.5519 31.7876 16.2839 30.8904 16.2839C 29.9929 16.2839 29.2588 15.5519 29.2588 14.6573L 29.2588 3.81335C 29.2588 1.73495 27.5547 0.0360718 25.47 0.0360718C 23.3853 0.0360718 21.6812 1.73495 21.6812 3.81335L 21.6812 9.28049C 21.6812 10.1751 20.947 10.9071 20.0498 10.9071C 19.1619 10.9071 18.4333 10.1905 18.4182 9.30872L 18.4182 9.28049L 18.4185 3.77728C 18.4185 1.69888 16.7144 0 14.6296 0C 12.5449 0 10.8408 1.69888 10.8408 3.77728L 10.8406 14.6934C 10.8406 15.588 10.1064 16.3199 9.20923 16.3199C 8.31177 16.3199 7.57764 15.588 7.57764 14.6934L 7.57764 12.0638C 7.57764 9.98535 5.87354 8.28647 3.78882 8.28647C 1.7041 8.28647 0 9.98535 0 12.0638L 0 28.9711C 0 31.0495 1.7041 32.7484 3.78882 32.7484C 5.87354 32.7484 7.57764 31.0495 7.57764 28.9711L 7.57764 26.4138C 7.57764 25.5191 8.31177 24.7872 9.20923 24.7872C 10.1064 24.7872 10.8406 25.5191 10.8406 26.4138L 10.8408 34.6642ZM 26.3765 5.78375C 27.1152 5.44238 27.6274 4.69659 27.6274 3.83148C 27.6274 2.64368 26.6616 1.68079 25.4702 1.68079C 24.2788 1.68079 23.313 2.64368 23.313 3.83148C 23.313 4.6965 23.8252 5.44223 24.5637 5.78366L 24.5637 14.2112L 24.5637 14.2136L 24.5637 14.2166L 24.5637 14.2191L 24.5637 14.2257L 24.563 14.2349C 24.562 14.2638 24.5605 14.2962 24.5562 14.3487C 24.5471 14.4652 24.532 14.6055 24.4958 14.7974C 24.4209 15.2068 24.2991 15.6653 24.0132 16.1669C 23.5027 17.0859 22.4719 18.0912 20.1587 18.0912C 18.5623 18.0912 17.3154 18.6108 16.3716 19.4192C 15.4878 20.1925 14.8496 21.2664 14.4756 22.2193C 14.4524 22.2798 14.4297 22.3403 14.4077 22.4009C 13.4827 20.9868 11.8298 19.7448 9.00977 19.7448C 6.78271 19.7448 5.76782 18.6942 5.24976 17.6774C 4.96387 17.1284 4.83887 16.6189 4.76416 16.1745C 4.72803 15.964 4.7124 15.8066 4.70312 15.6795C 4.69897 15.6213 4.69727 15.5837 4.69604 15.5517L 4.69531 15.5246L 4.69531 15.522L 4.69531 14.0161C 5.43408 13.6747 5.94629 12.9289 5.94629 12.0638C 5.94629 10.876 4.98047 9.91312 3.78906 9.91312C 2.59766 9.91312 1.63184 10.876 1.63184 12.0638C 1.63184 12.9288 2.14404 13.6746 2.88257 14.016L 2.88257 15.5247L 3.78687 15.5247C 2.88257 15.5247 2.88257 15.5252 2.88257 15.5268L 2.88257 15.5293L 2.88257 15.5357L 2.88281 15.5543L 2.88428 15.6129C 2.88574 15.6559 2.88916 15.7284 2.89526 15.8103C 2.90649 15.9634 2.93164 16.2063 2.97681 16.4762C 3.06519 16.9925 3.26685 17.7639 3.63354 18.4958C 4.42065 20.0409 6.01611 21.5521 9.00977 21.5521C 11.4424 21.5521 12.5557 22.6901 13.1211 23.7862C 13.4312 24.3752 13.5676 24.9242 13.6484 25.3987C 13.6877 25.6241 13.7046 25.7937 13.7146 25.9296C 13.7192 25.9921 13.7212 26.033 13.7224 26.0673L 13.7231 26.0869L 13.7231 26.0935L 13.7231 26.0969L 13.7231 26.0998L 13.7231 32.5675C 12.9846 32.9089 12.4724 33.6546 12.4724 34.5197C 12.4724 35.7075 13.4382 36.6703 14.6296 36.6703C 15.821 36.6703 16.7869 35.7075 16.7869 34.5197C 16.7869 33.6545 16.2747 32.9088 15.5359 32.5674L 15.5359 26.0975L 15.5359 26.0954L 15.5359 26.0929L 15.5361 26.0885L 15.5359 26.0862L 15.5371 26.0412C 15.5383 25.9934 15.5405 25.9305 15.5454 25.8424C 15.5557 25.6581 15.5745 25.4137 15.6147 25.1037C 15.697 24.466 15.8459 23.6846 16.1658 22.8731C 16.4829 22.0503 16.8813 21.3486 17.5527 20.7901C 18.1638 20.2668 18.9902 19.8985 20.1587 19.8985C 22.9214 19.8985 24.5178 18.7228 25.3911 17.3873C 26.2285 18.9669 27.8911 20.4859 30.9719 20.4859C 33.4043 20.4859 34.4392 21.3153 34.9065 21.9656C 35.1743 22.3231 35.2751 22.6255 35.3457 22.9259C 35.3787 23.0593 35.3901 23.1452 35.3987 23.2287C 35.4023 23.2628 35.4031 23.2783 35.4041 23.2977L 35.4043 23.304L 35.4043 26.6214C 34.6658 26.9628 34.1536 27.7085 34.1536 28.5735C 34.1536 29.7614 35.1194 30.7242 36.3108 30.7242C 37.5022 30.7242 38.468 29.7614 38.468 28.5735C 38.468 27.7084 37.9558 26.9626 37.217 26.6213L 37.217 23.2963L 36.3108 23.2963C 37.217 23.2963 37.217 23.2956 37.217 23.2935L 37.217 23.2905L 37.217 23.2833L 37.2168 23.2647L 37.2148 23.2114C 37.2131 23.1764 37.2087 23.1121 37.2019 23.0446C 37.1895 22.925 37.1594 22.7208 37.1089 22.506C 37.0127 22.11 36.7798 21.4839 36.3801 20.9129C 35.5129 19.7061 33.8784 18.6786 30.9719 18.6786C 28.6013 18.6786 27.5168 17.564 26.9651 16.4872C 26.6619 15.9081 26.5286 15.3686 26.4497 14.9015C 26.4111 14.6797 26.3945 14.5131 26.3848 14.3794C 26.3804 14.3179 26.3784 14.2778 26.3774 14.244L 26.3765 14.226L 26.3765 14.2193L 26.3765 14.215L 26.3765 14.2122L 26.3765 5.78375Z"/>
</defs>
</svg>
