<?xml version="1.0" encoding="UTF-8" standalone="no"?><!DOCTYPE svg PUBLIC "-//W3C//DTD SVG 1.1//EN" "http://www.w3.org/Graphics/SVG/1.1/DTD/svg11.dtd"><svg width="100%" height="100%" viewBox="0 0 7000 2500" version="1.1" xmlns="http://www.w3.org/2000/svg" xmlns:xlink="http://www.w3.org/1999/xlink" xml:space="preserve" xmlns:serif="http://www.serif.com/" style="fill-rule:evenodd;clip-rule:evenodd;"><g><path d="M4647.76,1377.72l-1034.77,1034.65c-70.456,70.432 -185.023,70.432 -255.47,0l-1034.77,-1034.65c-70.447,-70.432 -70.447,-184.995 0,-255.433l1034.77,-1034.64c70.447,-70.438 185.014,-70.438 255.47,0l1034.77,1034.64c70.444,70.438 70.444,185.001 0,255.433Z" style="fill:#3b59ed;fill-rule:nonzero;"/><path d="M3018.84,1347.28c16.445,-16.004 24.667,-38.668 24.667,-68.002c0,-29.33 -8.222,-51.773 -24.667,-67.328c-16.445,-15.997 -35.335,-23.997 -56.67,-23.997c-21.334,0 -40.224,8 -56.669,23.997c-16.445,16 -24.667,38.662 -24.667,67.996c0,29.335 8.222,51.998 24.667,67.99c16.445,15.554 35.335,23.331 56.669,23.331c21.335,0 40.225,-7.995 56.67,-23.987Zm-204.676,69.326c-32.892,-35.556 -49.337,-81.114 -49.337,-136.66c0,-55.552 16.445,-101.103 49.337,-136.656c32.89,-35.997 72.891,-53.997 120.005,-53.997c47.558,0 84.004,17.555 109.338,52.663l0,-48.662l114.006,0l0,371.968l-114.006,0l0,-53.991c-27.557,39.105 -64.447,58.657 -110.672,58.657c-46.224,0 -85.781,-17.778 -118.671,-53.322Z" style="fill:#fff;fill-rule:nonzero;"/><path d="M3248.35,1417.93c-34.223,-34.658 -51.336,-80.883 -51.336,-138.653c0,-57.773 17.113,-103.769 51.336,-137.988c34.669,-34.665 79.337,-51.997 134.007,-51.997c45.335,0 83.781,11.333 115.339,33.997c31.559,22.221 52.448,54.22 62.667,95.994l-123.337,0c-10.667,-22.221 -28.224,-33.331 -52.669,-33.331c-24.001,0 -42.003,8.666 -54.003,25.997c-11.556,16.889 -17.334,39.33 -17.334,67.328c0,27.998 5.778,50.661 17.334,68.002c12,16.879 29.335,25.324 52.003,25.324c14.222,0 25.334,-2.442 33.335,-7.327c7.999,-4.898 15.112,-13.562 21.334,-26.005l123.337,0c-10.219,40.004 -31.327,71.781 -63.335,95.331c-32.001,23.55 -70.224,35.325 -114.671,35.325c-54.67,0 -99.338,-17.328 -134.007,-51.997Z" style="fill:#fff;fill-rule:nonzero;"/><path d="M3704.78,1093.29l0,54.662c23.563,-39.108 61.112,-58.663 112.672,-58.663c27.561,0 52.01,6.222 73.337,18.665c21.776,12.444 38.667,30.221 50.673,53.33c13.78,-21.776 31.558,-39.108 53.335,-51.997c22.225,-13.331 46.894,-19.998 74.004,-19.998c45.339,0 81.333,13.999 108.006,41.997c26.661,27.998 40.004,66.884 40.004,116.658l0,217.314l-113.34,0l0,-201.976c0,-24.004 -6.453,-42.446 -19.334,-55.335c-12.443,-13.332 -29.784,-19.998 -52.01,-19.998c-22.213,0 -39.773,6.666 -52.666,19.998c-12.444,12.889 -18.665,31.331 -18.665,55.335l0,201.976l-113.341,0l0,-201.976c0,-24.004 -6.44,-42.446 -19.333,-55.335c-12.444,-13.332 -29.785,-19.998 -51.998,-19.998c-22.226,0 -39.785,6.666 -52.678,19.998c-12.444,12.889 -18.666,31.331 -18.666,55.335l0,201.976l-114.009,0l0,-371.968l114.009,0Z" style="fill:#fff;fill-rule:nonzero;"/><g><clipPath id="_clip1"><rect x="26.472" y="1295.66" width="1170.98" height="1170.98"/></clipPath><g clip-path="url(#_clip1)"><path d="M549.27,2440.85l-496.723,-496.683c-34.767,-34.766 -34.767,-90.978 0,-125.373l496.723,-497.054c34.767,-34.764 90.988,-34.764 125.386,0l496.718,496.684c34.766,34.765 34.766,90.977 0,125.374l-496.349,497.052c-34.767,34.398 -90.988,34.398 -125.755,0Z" style="fill:#fe823c;fill-rule:nonzero;"/><path d="M700.172,1793.27c0,-97.266 -78.778,-176.04 -176.052,-176.04c-97.274,0 -176.054,78.774 -176.054,176.04c0,97.266 78.78,176.038 176.054,176.038c0,-97.264 78.78,-176.038 176.052,-176.038Z" style="fill:#fff;fill-rule:nonzero;"/><path d="M700.172,1793.27c0,97.267 -78.778,176.039 -176.053,176.039c0,97.268 78.781,176.039 176.053,176.039c97.273,0 176.056,-78.771 176.056,-176.039c0,-97.264 -78.783,-176.039 -176.056,-176.039Z" style="fill:#fff;fill-rule:nonzero;"/></g><clipPath id="_clip2"><rect x="26.472" y="34.814" width="1170.98" height="1165.15"/></clipPath><g clip-path="url(#_clip2)"><path d="M1166.05,679.54l-494.771,494.707c-34.297,34.296 -90.012,34.296 -124.309,0l-494.77,-494.707c-34.298,-34.296 -34.298,-90.005 0,-124.297l494.77,-494.71c34.297,-34.293 90.012,-34.293 124.309,0l494.771,494.71c34.296,34.292 34.296,90.001 0,124.297Z" style="fill:#ffba44;fill-rule:nonzero;"/><path d="M726.723,482.565c0,6.773 -0.57,13.412 -1.66,19.873c30.026,2.264 53.725,27.299 53.813,57.921l0.664,224.15c0.093,32.175 -25.913,58.333 -58.089,58.426l-226.201,0.659c-32.175,0.093 -58.334,-25.913 -58.429,-58.089l-0.66,-224.148c-0.092,-31.454 24.758,-57.158 55.932,-58.382c-1.155,-6.63 -1.756,-13.45 -1.756,-20.41c0,-65.269 52.917,-118.179 118.194,-118.179c65.277,0 118.192,52.91 118.192,118.179Zm-86.442,74.177c40.949,-17.053 60.028,-64.058 42.604,-104.99c-17.419,-40.932 -64.736,-60.289 -105.688,-43.237c-40.95,17.052 -60.025,64.058 -42.605,104.989c10.446,24.543 31.639,41.33 55.765,47.162c-0.091,0.585 -0.137,1.185 -0.137,1.795l0,219.717c0,6.432 5.216,11.652 11.651,11.652l49.945,0c6.431,0 11.651,-5.22 11.651,-11.652l0,-13.317c0,-6.438 -5.22,-11.652 -11.651,-11.652l-24.975,0l0,-36.621l24.975,0c6.431,0 11.651,-5.214 11.651,-11.651l0,-13.318c0,-6.432 -5.22,-11.651 -11.651,-11.651l-24.975,0l0,-121.507c0,-0.484 -0.029,-0.962 -0.088,-1.432c4.556,-1.012 9.077,-2.435 13.528,-4.287Zm-12.031,-70.551c13.26,-10.306 15.538,-29.415 5.098,-42.681c-10.44,-13.266 -29.646,-15.666 -42.9,-5.36c-13.255,10.306 -15.537,29.415 -5.097,42.681c10.44,13.266 29.646,15.666 42.899,5.36Z" style="fill:#fff;"/></g><clipPath id="_clip3"><rect x="1288.78" y="34.814" width="1170.98" height="1165.15"/></clipPath><g clip-path="url(#_clip3)"><path d="M2428.35,679.54l-494.771,494.707c-34.297,34.296 -90.013,34.296 -124.31,0l-494.77,-494.707c-34.297,-34.296 -34.297,-90.005 0,-124.297l494.77,-494.71c34.297,-34.293 90.013,-34.293 124.31,0l494.771,494.71c34.296,34.292 34.296,90.001 0,124.297Z" style="fill:#1ebdf4;fill-rule:nonzero;"/><path d="M1746.5,829.297c0,28.477 23.277,51.751 51.755,51.751c28.478,0 51.755,-23.274 51.755,-51.751l0,-18.572c0.069,-12.199 10.071,-22.156 22.285,-22.156c12.263,0 22.289,10.026 22.289,22.284l0,18.939c0,28.477 23.28,51.751 51.756,51.751c28.476,0 51.756,-23.274 51.756,-51.751l0,-114.144c0.064,-12.199 10.067,-22.155 22.284,-22.155c12.257,0 22.289,10.026 22.289,22.283l0,36.021c0,28.476 23.274,51.75 51.756,51.75c28.477,0 51.756,-23.274 51.756,-51.75l0,-231.629c0,-28.474 -23.279,-51.749 -51.756,-51.749c-28.482,0 -51.756,23.275 -51.756,51.749l0,35.036c0,12.256 -10.032,22.284 -22.289,22.284c-12.217,0 -22.214,-9.959 -22.284,-22.158l0,-148.688c0,-28.474 -23.28,-51.749 -51.756,-51.749c-28.476,0 -51.756,23.275 -51.756,51.749l0,74.9c0,12.256 -10.026,22.284 -22.289,22.284c-12.214,0 -22.216,-9.959 -22.285,-22.158l0,-75.52c0,-28.474 -23.277,-51.75 -51.755,-51.75c-28.478,0 -51.755,23.276 -51.755,51.75l0,149.55l0,0.126c-0.068,12.2 -10.071,22.158 -22.287,22.158c-12.258,0 -22.287,-10.028 -22.287,-22.284l0,-36.026c0,-28.474 -23.277,-51.749 -51.755,-51.749c-28.478,0 -51.755,23.275 -51.755,51.749l0,231.63c0,28.476 23.277,51.75 51.755,51.75c28.478,0 51.755,-23.274 51.755,-51.75l0,-35.036c0,-12.252 10.029,-22.284 22.287,-22.284c12.216,0 22.219,9.962 22.287,22.161l0,0.123l0,113.031Zm212.22,-395.662c10.09,-4.677 17.087,-14.894 17.087,-26.745c0,-16.273 -13.196,-29.465 -29.467,-29.465c-16.277,0 -29.467,13.192 -29.467,29.465c0,11.851 6.997,22.068 17.087,26.745l0,115.47c-0.006,0.086 -0.006,0.152 -0.011,0.312c-0.012,0.396 -0.035,0.84 -0.094,1.559c-0.128,1.597 -0.332,3.518 -0.827,6.148c-1.019,5.608 -2.686,11.889 -6.589,18.761c-6.973,12.591 -21.054,26.364 -52.653,26.364c-21.808,0 -38.841,7.118 -51.735,18.194c-12.071,10.592 -20.791,25.308 -25.898,38.363c-0.318,0.827 -0.627,1.655 -0.926,2.488c-12.637,-19.377 -35.216,-36.388 -73.738,-36.388c-30.424,0 -44.287,-14.397 -51.364,-28.327c-3.905,-7.521 -5.611,-14.501 -6.631,-20.589c-0.496,-2.884 -0.709,-5.04 -0.835,-6.781c-0.058,-0.798 -0.081,-1.314 -0.096,-1.752c-0.007,-0.184 -0.008,-0.273 -0.01,-0.37l0,-0.036l0,-20.632c10.089,-4.678 17.086,-14.894 17.086,-26.746c0,-16.272 -13.193,-29.464 -29.468,-29.464c-16.275,0 -29.468,13.192 -29.468,29.464c0,11.852 6.997,22.068 17.087,26.746l0,20.669l12.354,0c-12.354,0 -12.354,0.006 -12.354,0.013l0,0.138l0.003,0.253c0.003,0.169 0.01,0.473 0.021,0.804c0.02,0.59 0.067,1.583 0.147,2.705c0.154,2.096 0.498,5.425 1.117,9.122c1.208,7.073 3.96,17.642 8.969,27.669c10.753,21.169 32.548,41.873 73.442,41.873c33.228,0 48.438,15.59 56.159,30.603c4.236,8.069 6.101,15.596 7.204,22.092c0.537,3.087 0.77,5.412 0.905,7.276c0.064,0.856 0.089,1.416 0.105,1.887c0.007,0.199 0.01,0.298 0.011,0.402l0.001,0.041l0,88.61c-10.09,4.672 -17.087,14.891 -17.087,26.74c0,16.278 13.193,29.467 29.468,29.467c16.275,0 29.468,-13.189 29.468,-29.467c0,-11.849 -6.997,-22.062 -17.086,-26.74l0,-88.633l0,-0.07l0.001,-0.058c0.002,-0.158 0.005,-0.35 0.013,-0.653c0.017,-0.652 0.046,-1.514 0.114,-2.72c0.139,-2.523 0.396,-5.873 0.95,-10.12c1.123,-8.738 3.157,-19.446 7.524,-30.562c4.334,-11.273 9.775,-20.885 18.947,-28.534c8.348,-7.172 19.638,-12.217 35.6,-12.217c37.733,0 59.545,-16.108 71.476,-34.406c11.436,21.641 34.151,42.451 76.236,42.451c33.225,0 47.364,11.366 53.743,20.274c3.659,4.9 5.039,9.042 6.001,13.155c0.448,1.829 0.605,3.006 0.722,4.148c0.052,0.471 0.064,0.681 0.076,0.949l0,45.534c-10.085,4.673 -17.087,14.891 -17.087,26.747c0,16.271 13.195,29.46 29.472,29.46c16.272,0 29.467,-13.189 29.467,-29.46c0,-11.856 -6.997,-22.068 -17.087,-26.747l0,-45.557l-12.38,0c12.38,0 12.38,-0.006 12.38,-0.018l0,-0.157l-0.006,-0.256c0,-0.146 -0.011,-0.443 -0.023,-0.728c-0.023,-0.484 -0.087,-1.364 -0.175,-2.284c-0.175,-1.643 -0.582,-4.439 -1.276,-7.381c-1.31,-5.424 -4.491,-14.006 -9.95,-21.83c-11.85,-16.527 -34.174,-30.607 -73.877,-30.607c-32.385,0 -47.2,-15.27 -54.739,-30.022c-4.142,-7.935 -5.959,-15.325 -7.037,-21.724c-0.524,-3.038 -0.752,-5.321 -0.886,-7.153c-0.064,-0.842 -0.087,-1.392 -0.105,-1.854c-0.005,-0.196 -0.005,-0.294 -0.011,-0.398l0,-115.51Z" style="fill:#fff;"/></g><clipPath id="_clip4"><rect x="1288.78" y="1295.66" width="1170.98" height="1165.15"/></clipPath><g clip-path="url(#_clip4)"><path d="M2428.35,1940.39l-494.771,494.707c-34.297,34.297 -90.013,34.297 -124.31,0l-494.77,-494.707c-34.297,-34.296 -34.297,-90.004 0,-124.297l494.77,-494.709c34.297,-34.293 90.013,-34.293 124.31,0l494.771,494.709c34.296,34.293 34.296,90.001 0,124.297Z" style="fill:#1bc3a9;fill-rule:nonzero;"/><path d="M1738.13,1930.16l81.777,-141.549c4.631,-10.574 12.562,-19.813 23.343,-26.023c8.912,-5.133 18.641,-7.555 28.229,-7.52c9.589,-0.035 19.318,2.387 28.232,7.52c10.783,6.21 18.712,15.45 23.343,26.024l81.777,141.548l84.94,-147.021c15.473,-26.865 49.769,-36.026 76.638,-20.551c26.868,15.475 36.032,49.768 20.553,76.633l-133.102,230.397c-10.451,18.141 -29.49,28.214 -49.029,28.068c-19.54,0.146 -38.578,-9.927 -49.03,-28.068l-84.322,-145.953l-84.318,145.953c-10.453,18.141 -29.494,28.214 -49.031,28.068c-19.538,0.146 -38.578,-9.927 -49.032,-28.068l-133.102,-230.397c-15.477,-26.865 -6.315,-61.158 20.553,-76.633c26.869,-15.475 61.166,-6.314 76.643,20.551l84.938,147.021Z" style="fill:#fff;"/></g></g><g><clipPath id="_clip5"><rect x="4540.24" y="34.814" width="1170.98" height="1165.15"/></clipPath><g clip-path="url(#_clip5)"><path d="M5684.65,679.54l-494.771,494.707c-34.296,34.296 -90.014,34.296 -124.311,0l-494.77,-494.707c-34.297,-34.296 -34.297,-90.005 0,-124.297l494.77,-494.71c34.297,-34.293 90.015,-34.293 124.311,0l494.771,494.71c34.297,34.292 34.297,90.001 0,124.297Z" style="fill:#c960ff;fill-rule:nonzero;"/><path d="M5246.58,789.472c0,64.008 -53.241,91.243 -118.863,91.243c-65.624,0 -118.864,-32.804 -118.864,-91.243c0,-40.955 -19.329,-69.851 -40.443,-101.421c-25.412,-37.989 -53.41,-79.849 -53.41,-151.255c0,-117.487 95.215,-212.69 212.717,-212.69c117.5,0 212.716,95.203 212.716,212.69c0,81.002 -30.975,126.793 -57.331,165.762c-19.528,28.866 -36.522,53.993 -36.522,86.914Zm-67.48,-118.968c26.991,-17.087 44.824,-47.049 44.824,-81.34c0,-29.464 -13.254,-55.958 -34.302,-73.538c-9.048,-7.639 -10.51,10.691 -12.153,31.197c-1.386,17.379 -2.901,36.321 -9.263,42.341c-14.739,13.866 -65.748,13.371 -80.978,0c-7.243,-6.43 -9.762,-27.498 -11.925,-45.584l-0.001,-0.001c-2.126,-17.781 -3.908,-32.678 -9.494,-27.953c-20.925,17.58 -34.297,44.074 -34.297,73.538c0,34.169 17.829,64.253 44.822,81.34l0,121.939c0,20.554 18.943,29.589 51.384,29.589c32.438,0 51.383,-7.177 51.383,-29.589l0,-121.939Zm-51.383,281.024c42.342,0 76.644,-15.101 76.644,-49.024c0,-16.283 -5.173,-14.815 -20.542,-10.446c-11.855,3.368 -29.787,8.465 -56.102,8.465c-26.366,0 -44.314,-5.424 -56.172,-9.001c-15.318,-4.625 -20.471,-6.187 -20.471,10.982c0,33.923 34.297,49.024 76.643,49.024Z" style="fill:#fff;"/></g><clipPath id="_clip6"><rect x="4540.24" y="1294.21" width="1170.98" height="1170.98"/></clipPath><g clip-path="url(#_clip6)"><path d="M5685.77,1941.23l-498.503,498.504c-33.935,33.935 -89.134,33.935 -123.072,0l-498.5,-498.504c-33.938,-33.935 -33.938,-89.132 0,-123.071l498.5,-498.5c33.938,-33.938 89.137,-33.938 123.072,0l498.503,498.5c33.935,33.939 33.935,89.136 0,123.071Z" style="fill:#a1d900;fill-rule:nonzero;"/><path d="M5069.69,2127.9c10.422,-61.014 24.33,-191.233 -3.425,-224.008" style="fill:none;fill-rule:nonzero;stroke:#fff;stroke-width:23.42px;"/><path d="M5065.29,1897.15l-0.037,5.919l-6.013,0.597c-40.927,4.052 -100.58,-1.223 -145.766,-31.148c-22.741,-15.06 -41.791,-36.36 -52.759,-65.671c-10.948,-29.258 -13.673,-66.038 -4.592,-111.854l1.12,-5.657l5.87,0.334c79.257,4.515 130.673,22.398 161.854,57.233c31.102,34.746 40.694,84.853 40.323,150.247Z" style="fill:#fff;fill-rule:nonzero;stroke:#fff;stroke-width:23.42px;"/><path d="M5042.46,1880.62c-17.725,-71.519 -88.386,-146.766 -157.276,-165.895" style="fill:none;fill-rule:nonzero;stroke:#a1d900;stroke-width:23.42px;"/><path d="M5079.64,2127.91c13.543,-62.173 50.903,-191.941 91.993,-213.64" style="fill:none;fill-rule:nonzero;stroke:#fff;stroke-width:23.42px;"/><path d="M5170.14,1905.49l-2.125,5.597l5.427,2.653c35.727,17.471 91.746,32.74 143.299,20.662c25.943,-6.078 50.738,-19.099 71.002,-42.15c20.235,-23.011 35.639,-55.654 43.49,-100.494l1.002,-5.727l-5.615,-1.72c-73.514,-22.556 -126.49,-23.568 -167.064,-2.285c-40.469,21.229 -66.787,63.723 -89.416,123.464Z" style="fill:#fff;fill-rule:nonzero;stroke:#fff;stroke-width:23.42px;"/><path d="M5190.7,1900.05c44.673,-60.995 141.993,-107.156 215.993,-101.242" style="fill:none;fill-rule:nonzero;stroke:#a1d900;stroke-width:23.42px;"/></g><clipPath id="_clip7"><rect x="5802.55" y="34.814" width="1170.98" height="1165.15"/></clipPath><g clip-path="url(#_clip7)"><path d="M6942.1,679.476l-494.812,494.748c-34.331,34.325 -89.976,34.325 -124.307,0l-494.682,-494.748c-34.331,-34.331 -34.331,-89.969 0,-124.296l494.682,-494.621c34.331,-34.327 89.976,-34.327 124.307,0l494.812,494.749c34.332,34.199 34.332,89.837 0,124.168Z" style="fill:#ed3266;fill-rule:nonzero;"/><path d="M6358.46,351.13c-7.274,0 -13.273,5.87 -13.273,13.271l0.128,0l0,133.099c0,7.274 5.871,13.271 13.273,13.271l56.541,0c7.271,0 13.271,-5.87 13.271,-13.271l0,-133.099c0,-7.273 -5.872,-13.271 -13.271,-13.271l-56.669,0Zm-266.358,222.936c-7.274,0 -13.272,5.87 -13.272,13.272l0.127,0l0,123.143c0,7.276 5.871,13.271 13.274,13.271l9.827,0c7.275,0 13.273,-5.867 13.273,-13.271l0,-123.143c0,-7.274 -5.871,-13.272 -13.273,-13.272l-9.956,0Zm562.705,13.272c0,-7.402 6.001,-13.272 13.277,-13.272l9.956,0c7.399,0 13.271,5.998 13.271,13.272l0,123.143c0,7.404 -6,13.271 -13.271,13.271l-9.956,0c-7.404,0 -13.277,-5.995 -13.277,-13.271l0,-123.143Zm-489.447,-61.892l439.549,0c16.464,0 29.992,13.527 29.992,29.989l0,182.357c0,12.251 -7.405,23.227 -18.765,27.818l-111.797,45.301c-14.168,5.616 -30.504,-0.128 -38.036,-13.527c-27.696,-49.129 -59.726,-66.612 -80.53,-66.612l-0.128,0c-32.673,0.128 -60.113,37.005 -77.471,68.016c-5.487,9.828 -15.825,15.7 -26.546,15.7c-2.68,0 -5.233,-0.384 -7.785,-1.025l-116.268,-31.261c-13.018,-3.577 -22.207,-15.444 -22.207,-28.972l0,-197.795c0,-16.59 13.528,-29.989 29.992,-29.989Zm156.598,149.818c7.275,0 13.273,-5.873 13.273,-13.271l0,-16.079c0,-7.277 -5.871,-13.271 -13.273,-13.271l-38.798,0l0,-38.542c0,-7.274 -5.871,-13.272 -13.273,-13.272l-16.082,0c-7.274,0 -13.272,5.87 -13.272,13.272l0,38.542l-38.544,0c-7.274,0 -13.273,5.866 -13.273,13.271l0,16.079c0,7.27 5.871,13.271 13.273,13.271l38.799,0l0,38.537c0,7.271 5.87,13.271 13.273,13.271l16.081,0c7.275,0 13.273,-5.872 13.273,-13.271l0,-38.537l38.543,0Zm139.754,17.99c0,16.207 13.143,29.35 29.35,29.35c16.213,0 29.228,-13.143 29.356,-29.35c0,-16.207 -13.143,-29.35 -29.356,-29.35c-16.207,0 -29.35,13.143 -29.35,29.35Zm47.859,-80.011c0,16.207 13.143,29.35 29.356,29.35c16.207,0 29.35,-13.015 29.35,-29.35c0,-16.207 -13.143,-29.351 -29.35,-29.351c-16.213,0 -29.356,13.144 -29.356,29.351Z" style="fill:#fff;"/></g><path d="M6942.52,1943.84l-496.082,496.024c-33.778,33.766 -88.703,33.766 -122.476,0l-496.082,-496.024c-33.773,-33.766 -33.773,-88.689 0,-122.458l496.082,-496.021c33.773,-33.769 88.698,-33.769 122.476,0l496.082,496.021c33.772,33.769 33.772,88.692 0,122.458Z" style="fill:#ff6b6b;fill-rule:nonzero;"/><path d="M6422,1722.35c-4.504,2.401 -9.17,4.369 -13.953,5.902l0,312.093c11.617,3.886 22.54,10.463 31.803,19.726c31.797,31.786 31.797,83.495 0,115.409c-31.914,31.913 -83.502,31.913 -115.42,0c-25.846,-25.843 -30.762,-64.585 -14.748,-95.339l-128.083,-128.353c-29.17,14.523 -65.559,9.635 -89.869,-14.676c-30.433,-30.428 -30.433,-79.781 0,-110.21c24.33,-24.328 60.758,-29.206 89.94,-14.635l125.525,-125.047c-16.879,-31.975 -11.877,-72.541 15.008,-99.423c33.031,-33.026 86.724,-33.026 119.75,0c27.026,26.923 32.024,67.488 14.99,99.522l120.104,119.899c32.018,-17.054 72.752,-12.101 99.714,14.859c33.032,33.026 33.032,86.711 0,119.737c-33.032,33.026 -86.723,33.026 -119.755,0c-9.962,-9.962 -16.918,-21.8 -20.874,-34.384l-94.33,0l0,-49.48l93.882,0c1.584,-5.396 3.717,-10.665 6.402,-15.718l-120.086,-119.882Zm-205.398,194.46l128.124,128.4c4.466,-2.307 9.101,-4.177 13.838,-5.605l0,-310.607c-5.665,-1.629 -11.192,-3.859 -16.48,-6.69l-125.446,124.969c1.726,3.467 3.177,7.035 4.355,10.673l104.277,0l0,49.48l-104.732,0c-1.099,3.193 -2.41,6.327 -3.936,9.38Z" style="fill:#fff;"/></g></g></svg>