<svg width="334" height="336" viewBox="0 0 334 336" fill="none" xmlns="http://www.w3.org/2000/svg">
<path d="M110.431 24.86C141.673 -6.38197 192.326 -6.38194 223.568 24.86L310.431 111.723C341.673 142.965 341.673 193.618 310.431 224.86L223.568 311.723C192.326 342.965 141.673 342.965 110.431 311.723L23.5679 224.86C-7.67409 193.618 -7.67405 142.965 23.5679 111.723L110.431 24.86Z" fill="#28B2FF"/>
<path fill-rule="evenodd" clip-rule="evenodd" d="M128.48 157.512C128.437 160.026 126.386 162.051 123.861 162.051C121.309 162.051 119.241 159.983 119.241 157.432H119.24V199.012H119.241C119.241 199.011 119.241 199.011 119.241 199.011C119.241 196.46 121.309 194.391 123.861 194.391C126.391 194.391 128.446 196.425 128.48 198.947V157.512Z" fill="white"/>
<path fill-rule="evenodd" clip-rule="evenodd" d="M214.72 143.572C214.72 146.123 212.652 148.191 210.1 148.191C207.549 148.191 205.48 146.123 205.48 143.572V185.129C205.492 182.588 207.556 180.531 210.1 180.531C212.652 180.531 214.72 182.6 214.72 185.151C214.72 185.151 214.72 185.151 214.72 185.152H214.72V143.572Z" fill="white"/>
<path fill-rule="evenodd" clip-rule="evenodd" d="M171.6 132.901C171.542 135.402 169.496 137.412 166.981 137.412C164.429 137.412 162.361 135.343 162.361 132.792C162.361 132.792 162.361 132.792 162.361 132.791H162.36V208.251L162.36 208.251C162.36 205.7 164.428 203.631 166.98 203.631C169.521 203.631 171.584 205.684 171.6 208.222V132.901Z" fill="white"/>
<path d="M85.3596 149.731C85.3596 140.376 92.9439 132.791 102.3 132.791C111.655 132.791 119.24 140.376 119.24 149.731V199.011C119.24 208.367 111.655 215.951 102.3 215.951C92.9439 215.951 85.3596 208.367 85.3596 199.011V149.731Z" fill="white"/>
<path d="M128.479 111.231C128.479 101.876 136.063 94.2914 145.419 94.2914C154.775 94.2914 162.359 101.876 162.359 111.231V231.351C162.359 240.707 154.775 248.291 145.419 248.291C136.063 248.291 128.479 240.707 128.479 231.351V111.231Z" fill="white"/>
<path d="M109.999 149.731C109.999 153.984 106.551 157.431 102.299 157.431C98.0461 157.431 94.5987 153.984 94.5987 149.731C94.5987 145.479 98.0461 142.031 102.299 142.031C106.551 142.031 109.999 145.479 109.999 149.731Z" fill="#28B2FF"/>
<path d="M153.12 231.351C153.12 235.604 149.673 239.051 145.42 239.051C141.167 239.051 137.72 235.604 137.72 231.351C137.72 227.099 141.167 223.651 145.42 223.651C149.673 223.651 153.12 227.099 153.12 231.351Z" fill="#28B2FF"/>
<path fill-rule="evenodd" clip-rule="evenodd" d="M98.9794 158.202V152.812H105.619V158.202C105.619 168.275 113.786 176.442 123.859 176.442C137.6 176.442 148.739 187.581 148.739 201.322V234.432H142.099V201.322C142.099 191.248 133.933 183.082 123.859 183.082C110.119 183.082 98.9794 171.942 98.9794 158.202Z" fill="#28B2FF"/>
<path d="M248.599 192.851C248.599 202.207 241.014 209.791 231.659 209.791C222.303 209.791 214.719 202.207 214.719 192.851V143.571C214.719 134.216 222.303 126.631 231.659 126.631C241.014 126.631 248.599 134.216 248.599 143.571V192.851Z" fill="white"/>
<path d="M205.479 231.351C205.479 240.707 197.895 248.291 188.539 248.291C179.183 248.291 171.599 240.707 171.599 231.351V111.231C171.599 101.876 179.183 94.2914 188.539 94.2914C197.895 94.2914 205.479 101.876 205.479 111.231V231.351Z" fill="white"/>
<path d="M223.96 192.851C223.96 188.599 227.407 185.151 231.66 185.151C235.912 185.151 239.36 188.599 239.36 192.851C239.36 197.104 235.912 200.551 231.66 200.551C227.407 200.551 223.96 197.104 223.96 192.851Z" fill="#28B2FF"/>
<path d="M180.84 111.232C180.84 106.979 184.288 103.532 188.54 103.532C192.793 103.532 196.24 106.979 196.24 111.232C196.24 115.484 192.793 118.932 188.54 118.932C184.288 118.932 180.84 115.484 180.84 111.232Z" fill="#28B2FF"/>
<path fill-rule="evenodd" clip-rule="evenodd" d="M234.98 182.841V189.771H228.34V182.841C228.34 172.768 220.173 164.601 210.1 164.601C196.359 164.601 185.22 153.462 185.22 139.721V108.151H191.86V139.721C191.86 149.795 200.026 157.961 210.1 157.961C223.841 157.961 234.98 169.101 234.98 182.841Z" fill="#28B2FF"/>
<path fill-rule="evenodd" clip-rule="evenodd" d="M191.859 149.347V111.232H185.219V149.347C185.219 159.421 177.053 167.587 166.979 167.587C153.239 167.587 142.099 178.726 142.099 192.467V231.352H148.739V192.467C148.739 182.393 156.906 174.227 166.979 174.227C180.72 174.227 191.859 163.088 191.859 149.347Z" fill="#28B2FF"/>
</svg>
