<svg width="400" height="400" viewBox="0 0 400 400" fill="none" xmlns="http://www.w3.org/2000/svg">
<rect x="200" width="282.843" height="282.843" rx="80" transform="rotate(45 200 0)" fill="#28B2FF"/>
<path fill-rule="evenodd" clip-rule="evenodd" d="M161.481 189.22C161.438 191.735 159.386 193.76 156.861 193.76C154.31 193.76 152.241 191.692 152.241 189.14H152.241V230.72H152.241C152.241 230.72 152.241 230.72 152.241 230.72C152.241 228.168 154.31 226.1 156.861 226.1C159.391 226.1 161.446 228.134 161.481 230.656V189.22Z" fill="white"/>
<path fill-rule="evenodd" clip-rule="evenodd" d="M247.721 175.28C247.721 177.832 245.652 179.9 243.101 179.9C240.549 179.9 238.481 177.832 238.481 175.28V216.837C238.493 214.296 240.557 212.24 243.101 212.24C245.652 212.24 247.721 214.308 247.721 216.86C247.721 216.86 247.721 216.86 247.721 216.86H247.721V175.28Z" fill="white"/>
<path fill-rule="evenodd" clip-rule="evenodd" d="M204.6 164.609C204.543 167.111 202.497 169.12 199.982 169.12C197.43 169.12 195.362 167.052 195.362 164.5C195.362 164.5 195.362 164.5 195.362 164.5H195.36V239.96L195.36 239.96C195.36 237.408 197.429 235.34 199.98 235.34C202.522 235.34 204.584 237.392 204.6 239.93V164.609Z" fill="white"/>
<rect x="118.36" y="164.5" width="33.88" height="83.16" rx="16.94" fill="white"/>
<rect x="161.48" y="126" width="33.88" height="154" rx="16.94" fill="white"/>
<circle cx="135.3" cy="181.44" r="7.7" fill="#28B2FF"/>
<circle cx="178.421" cy="263.06" r="7.7" fill="#28B2FF"/>
<path d="M135.3 184.52V189.91C135.3 201.817 144.953 211.47 156.86 211.47V211.47C168.768 211.47 178.42 221.123 178.42 233.03V266.14" stroke="#28B2FF" stroke-width="6.64"/>
<rect x="281.6" y="241.5" width="33.88" height="83.16" rx="16.94" transform="rotate(-180 281.6 241.5)" fill="white"/>
<rect x="238.48" y="280" width="33.88" height="154" rx="16.94" transform="rotate(-180 238.48 280)" fill="white"/>
<path d="M256.96 224.56C256.96 220.307 260.408 216.86 264.66 216.86C268.913 216.86 272.36 220.307 272.36 224.56C272.36 228.813 268.913 232.26 264.66 232.26C260.408 232.26 256.96 228.813 256.96 224.56Z" fill="#28B2FF"/>
<circle cx="221.541" cy="142.94" r="7.7" transform="rotate(-180 221.541 142.94)" fill="#28B2FF"/>
<path d="M264.661 221.48V214.55C264.661 202.643 255.008 192.99 243.101 192.99V192.99C231.193 192.99 221.541 183.337 221.541 171.43V139.86" stroke="#28B2FF" stroke-width="6.64"/>
<path d="M221.54 142.94V181.056C221.54 192.963 211.887 202.616 199.98 202.616V202.616C188.073 202.616 178.42 212.268 178.42 224.176V263.06" stroke="#28B2FF" stroke-width="6.64"/>
</svg>
