<svg width="334" height="334" viewBox="0 0 334 334" fill="none" xmlns="http://www.w3.org/2000/svg">
<path d="M110.296 23.4317C141.538 -7.8106 192.192 -7.81057 223.434 23.4318L310.298 110.296C341.541 141.538 341.541 192.192 310.298 223.434L223.434 310.298C192.192 341.541 141.538 341.541 110.296 310.298L23.4317 223.434C-7.8106 192.192 -7.81056 141.538 23.4318 110.296L110.296 23.4317Z" fill="#9F97FF"/>
<path fill-rule="evenodd" clip-rule="evenodd" d="M243.598 142.883V165.095C243.598 169.214 240.258 172.554 236.139 172.554H216.434C215.098 168.374 211.181 165.348 206.559 165.348C200.834 165.348 196.193 169.989 196.193 175.714C196.193 181.439 200.834 186.08 206.559 186.08C211.181 186.08 215.098 183.054 216.434 178.874H236.139C243.749 178.874 249.918 172.705 249.918 165.095V152.252C258.601 158.34 264.301 168.589 264.301 180.207C264.301 198.883 249.57 214.023 231.398 214.023H102.178C98.5893 214.023 95.1352 213.433 91.9022 212.342V186.333C91.9022 182.213 95.2414 178.874 99.3605 178.874H117.296C118.632 183.054 122.549 186.08 127.171 186.08C132.896 186.08 137.537 181.439 137.537 175.714C137.537 169.989 132.896 165.348 127.171 165.348C122.549 165.348 118.632 168.374 117.296 172.554H99.3605C91.7506 172.554 85.5815 178.723 85.5815 186.333V209.413C75.8264 203.545 69.2743 192.662 69.2743 180.207C69.2743 161.531 84.0056 146.391 102.178 146.391C105.594 146.391 108.888 146.926 111.986 147.919C116.381 130.192 132.019 117.083 150.635 117.083C158.626 117.083 166.068 119.499 172.308 123.658C179.592 113.809 191.113 107.451 204.078 107.451C224.271 107.451 240.959 122.874 243.598 142.883ZM166.865 186.08C172.59 186.08 177.231 181.439 177.231 175.714C177.231 169.989 172.59 165.348 166.865 165.348C161.14 165.348 156.499 169.989 156.499 175.714C156.499 181.439 161.14 186.08 166.865 186.08Z" fill="white"/>
</svg>
