<svg width="334" height="336" viewBox="0 0 334 336" fill="none" xmlns="http://www.w3.org/2000/svg">
<path d="M110.431 24.8599C141.673 -6.38203 192.326 -6.382 223.568 24.8599L310.431 111.723C341.673 142.965 341.673 193.618 310.431 224.86L223.568 311.723C192.326 342.965 141.673 342.965 110.431 311.723L23.5683 224.86C-7.67366 193.618 -7.67363 142.965 23.5683 111.723L110.431 24.8599Z" fill="#FFBA44"/>
<path d="M106.038 147.066C106.017 139.886 111.82 134.049 119 134.028L214.56 133.752C221.74 133.731 227.578 139.535 227.599 146.715L227.837 227.08C227.858 234.259 222.055 240.097 214.875 240.117L119.315 240.394C112.135 240.414 106.298 234.611 106.276 227.431L106.038 147.066Z" fill="white"/>
<path d="M212.798 133.629C212.798 158.758 192.292 179.13 166.997 179.13C141.701 179.13 121.195 158.758 121.195 133.629C121.195 108.5 141.701 88.1288 166.997 88.1288C192.292 88.1288 212.798 108.5 212.798 133.629Z" fill="white"/>
<path d="M212.798 133.629C212.798 158.758 192.292 179.13 166.997 179.13L212.798 179.13L212.798 133.629Z" fill="white"/>
<path d="M166.997 179.13C141.701 179.13 121.195 158.758 121.195 133.629L121.195 179.13L166.997 179.13Z" fill="white"/>
<path d="M195.724 131.621C195.846 147.249 183.23 159.918 167.544 159.918C151.858 159.918 139.043 147.249 138.921 131.621C138.798 115.993 151.415 103.324 167.1 103.324C182.786 103.324 195.601 115.993 195.724 131.621Z" fill="#FFBA44"/>
<path d="M159.181 136.247C159.181 132.051 162.583 128.649 166.779 128.649C170.975 128.649 174.377 132.051 174.377 136.247V217.288C174.377 221.484 170.975 224.885 166.779 224.885C162.583 224.885 159.181 221.484 159.181 217.288V136.247Z" fill="#FFBA44"/>
<path d="M161.715 192.097C161.715 189.226 164.043 186.897 166.915 186.897H184.372C187.244 186.897 189.572 189.226 189.572 192.097V194.36C189.572 197.232 187.244 199.56 184.372 199.56H166.915C164.043 199.56 161.715 197.232 161.715 194.36V192.097Z" fill="#FFBA44"/>
<path d="M161.715 217.423C161.715 214.551 164.043 212.223 166.915 212.223H184.372C187.244 212.223 189.572 214.551 189.572 217.423V219.685C189.572 222.557 187.244 224.885 184.372 224.885H166.915C164.043 224.885 161.715 222.557 161.715 219.685V217.423Z" fill="#FFBA44"/>
<path d="M177.538 123.487C177.571 129.079 173.062 133.613 167.467 133.613C161.873 133.613 157.311 129.079 157.278 123.487C157.245 117.894 161.754 113.36 167.349 113.36C172.943 113.36 177.505 117.894 177.538 123.487Z" fill="white"/>
</svg>
