<svg width="334" height="336" viewBox="0 0 334 336" fill="none" xmlns="http://www.w3.org/2000/svg">
<path d="M110.431 24.86C141.673 -6.38197 192.326 -6.38194 223.568 24.86L310.431 111.723C341.673 142.965 341.673 193.618 310.431 224.86L223.568 311.723C192.326 342.965 141.673 342.965 110.431 311.723L23.5683 224.86C-7.6736 193.618 -7.67356 142.965 23.5684 111.723L110.431 24.86Z" fill="#FE823C"/>
<path d="M192 143.129C192 115.503 169.626 93.1289 142 93.1289C114.374 93.1289 91.9998 115.503 91.9998 143.129C91.9998 170.755 114.374 193.129 142 193.129C142 165.503 164.374 143.129 192 143.129Z" fill="white"/>
<path d="M192 143.129C192 170.755 169.626 193.129 142 193.129C142 220.755 164.374 243.129 192 243.129C219.626 243.129 242 220.755 242 193.129C242 165.503 219.626 143.129 192 143.129Z" fill="white"/>
</svg>
