<svg width="335" height="336" viewBox="0 0 335 336" fill="none" xmlns="http://www.w3.org/2000/svg">
<path d="M111.161 24.8599C142.403 -6.38203 193.056 -6.38201 224.298 24.8599L311.161 111.723C342.403 142.965 342.403 193.618 311.161 224.86L224.298 311.723C193.056 342.965 142.403 342.965 111.161 311.723L24.2978 224.86C-6.94417 193.618 -6.94414 142.965 24.2978 111.723L111.161 24.8599Z" fill="#C960FF"/>
<path d="M190.729 255.528C190.729 265.743 180.213 270.291 167.229 270.291C154.245 270.291 143.729 265.743 143.729 255.528C143.729 246.357 148.703 254.932 167.229 254.932C185.756 254.932 190.729 246.842 190.729 255.528Z" fill="white"/>
<path d="M204.051 220.424C204.051 239.973 187.782 248.291 167.729 248.291C147.677 248.291 131.408 238.271 131.408 220.424C131.408 192.86 102.729 183.18 102.729 143.251C102.729 107.368 131.824 78.2914 167.729 78.2914C203.634 78.2914 232.729 107.368 232.729 143.251C232.729 186.319 204.051 196.792 204.051 220.424Z" fill="white"/>
<path d="M182.985 184.071C191.262 178.86 196.729 169.722 196.729 159.262C196.729 150.274 192.667 142.193 186.213 136.831C181.087 132.526 183.897 155.259 179.644 159.262C175.126 163.491 159.484 163.34 154.814 159.262C150.41 155.372 151.701 133.924 148.246 136.831C141.83 142.193 137.729 150.274 137.729 159.262C137.729 169.684 143.196 178.86 151.473 184.071V221.266C151.473 227.535 157.282 230.291 167.229 230.291C177.176 230.291 182.985 228.101 182.985 221.266V184.071Z" fill="#C960FF"/>
</svg>
