<svg width="400" height="401" viewBox="0 0 400 401" fill="none" xmlns="http://www.w3.org/2000/svg">
<g clip-path="url(#clip0)">
<rect x="200" y="2.39615" width="280.843" height="280.843" rx="79" transform="rotate(45 200 2.39615)" stroke="#111111" stroke-width="2"/>
<rect x="200" y="0.981934" width="282.843" height="282.843" rx="80" transform="rotate(45 200 0.981934)" fill="#C960FF"/>
<path d="M223 288.219C223 298.434 212.484 302.982 199.5 302.982C186.516 302.982 176 298.434 176 288.219C176 279.047 180.973 287.622 199.5 287.622C218.027 287.622 223 279.532 223 288.219Z" fill="white"/>
<path d="M236.321 253.115C236.321 272.663 220.052 280.982 200 280.982C179.948 280.982 163.679 270.962 163.679 253.115C163.679 225.55 135 215.871 135 175.942C135 140.059 164.095 110.982 200 110.982C235.905 110.982 265 140.059 265 175.942C265 219.009 236.321 229.483 236.321 253.115Z" fill="white"/>
<path d="M215.256 216.762C223.533 211.551 229 202.412 229 191.952C229 182.965 224.938 174.884 218.483 169.522C213.358 165.217 216.167 187.949 211.915 191.952C207.397 196.182 191.755 196.03 187.085 191.952C182.681 188.063 183.972 166.614 180.517 169.522C174.1 174.884 170 182.965 170 191.952C170 202.374 175.467 211.551 183.744 216.762V253.957C183.744 260.225 189.553 262.982 199.5 262.982C209.447 262.982 215.256 260.792 215.256 253.957V216.762Z" fill="#C960FF"/>
</g>
<defs>
<clipPath id="clip0">
<rect width="400" height="400" fill="white" transform="translate(0 0.981934)"/>
</clipPath>
</defs>
</svg>
