<svg width="334" height="336" viewBox="0 0 334 336" fill="none" xmlns="http://www.w3.org/2000/svg">
<path d="M110.431 24.86C141.673 -6.38197 192.326 -6.38194 223.568 24.86L310.431 111.723C341.673 142.965 341.673 193.618 310.431 224.86L223.568 311.723C192.326 342.965 141.673 342.965 110.431 311.723L23.5685 224.86C-7.67348 193.618 -7.67344 142.965 23.5685 111.723L110.431 24.86Z" fill="#FF6B6B"/>
<path d="M189.788 103.077C189.788 115.661 179.586 125.863 167.002 125.863C154.418 125.863 144.216 115.661 144.216 103.077C144.216 90.493 154.418 80.2915 167.002 80.2915C179.586 80.2915 189.788 90.493 189.788 103.077Z" fill="white"/>
<path d="M189.788 233.506C189.788 246.09 179.586 256.292 167.002 256.292C154.418 256.292 144.216 246.09 144.216 233.506C144.216 220.922 154.418 210.72 167.002 210.72C179.586 210.72 189.788 220.922 189.788 233.506Z" fill="white"/>
<path d="M232.216 191.077C219.631 191.077 209.43 180.876 209.43 168.291C209.43 155.707 219.631 145.506 232.216 145.506C244.8 145.506 255.001 155.707 255.001 168.291C255.001 180.876 244.8 191.077 232.216 191.077Z" fill="white"/>
<path d="M101.787 191.077C89.2023 191.077 79.0008 180.876 79.0008 168.291C79.0008 155.707 89.2023 145.506 101.787 145.506C114.371 145.506 124.572 155.707 124.572 168.291C124.572 180.876 114.371 191.077 101.787 191.077Z" fill="white"/>
<path fill-rule="evenodd" clip-rule="evenodd" d="M172.28 108.356L107.065 173.57L96.5092 163.014L161.724 97.7995L172.28 108.356Z" fill="white"/>
<path fill-rule="evenodd" clip-rule="evenodd" d="M172.28 228.228L107.065 163.014L96.5092 173.57L161.724 238.784L172.28 228.228Z" fill="white"/>
<path fill-rule="evenodd" clip-rule="evenodd" d="M161.723 108.356L226.937 173.57L237.493 163.014L172.279 97.7995L161.723 108.356Z" fill="white"/>
<path fill-rule="evenodd" clip-rule="evenodd" d="M159.538 231.149V103.077H174.466V231.149H159.538Z" fill="white"/>
<path fill-rule="evenodd" clip-rule="evenodd" d="M103.358 160.042H152.858V174.97H103.358V160.042Z" fill="white"/>
<path fill-rule="evenodd" clip-rule="evenodd" d="M181.144 160.042H230.644V174.97H181.144V160.042Z" fill="white"/>
</svg>
