<svg width="400" height="400" viewBox="0 0 400 400" fill="none" xmlns="http://www.w3.org/2000/svg">
<g clip-path="url(#clip0)">
<rect x="199.998" width="282.843" height="282.843" rx="80" transform="rotate(45 199.998 0)" fill="#FF6B6B"/>
<path d="M222.786 134.786C222.786 147.37 212.585 157.571 200 157.571C187.416 157.571 177.215 147.37 177.215 134.786C177.215 122.202 187.416 112 200 112C212.585 112 222.786 122.202 222.786 134.786Z" fill="white"/>
<path d="M222.786 265.214C222.786 277.799 212.585 288 200 288C187.416 288 177.215 277.799 177.215 265.214C177.215 252.63 187.416 242.429 200 242.429C212.585 242.429 222.786 252.63 222.786 265.214Z" fill="white"/>
<path d="M265.214 222.786C252.63 222.786 242.428 212.584 242.428 200C242.428 187.416 252.63 177.214 265.214 177.214C277.798 177.214 288 187.416 288 200C288 212.584 277.798 222.786 265.214 222.786Z" fill="white"/>
<path d="M134.785 222.786C122.201 222.786 111.999 212.584 111.999 200C111.999 187.416 122.201 177.214 134.785 177.214C147.369 177.214 157.571 187.416 157.571 200C157.571 212.584 147.369 222.786 134.785 222.786Z" fill="white"/>
<path fill-rule="evenodd" clip-rule="evenodd" d="M205.278 140.064L140.064 205.279L129.508 194.722L194.722 129.508L205.278 140.064Z" fill="white"/>
<path fill-rule="evenodd" clip-rule="evenodd" d="M205.278 259.937L140.064 194.722L129.508 205.278L194.722 270.493L205.278 259.937Z" fill="white"/>
<path fill-rule="evenodd" clip-rule="evenodd" d="M194.721 140.064L259.936 205.279L270.492 194.722L205.277 129.508L194.721 140.064Z" fill="white"/>
<path fill-rule="evenodd" clip-rule="evenodd" d="M192.536 262.858V134.786H207.465V262.858H192.536Z" fill="white"/>
<path fill-rule="evenodd" clip-rule="evenodd" d="M136.356 191.75H185.857V206.679H136.356V191.75Z" fill="white"/>
<path fill-rule="evenodd" clip-rule="evenodd" d="M214.143 191.75H263.643V206.679H214.143V191.75Z" fill="white"/>
</g>
<defs>
<clipPath id="clip0">
<rect width="400" height="400" fill="white"/>
</clipPath>
</defs>
</svg>
