<svg width="334" height="336" viewBox="0 0 334 336" fill="none" xmlns="http://www.w3.org/2000/svg">
<path d="M110.432 24.86C141.673 -6.38197 192.327 -6.38194 223.569 24.86L310.431 111.723C341.673 142.965 341.673 193.618 310.431 224.86L223.569 311.723C192.327 342.965 141.673 342.965 110.432 311.723L23.5686 224.86C-7.6733 193.618 -7.67326 142.965 23.5687 111.723L110.432 24.86Z" fill="#ED3266"/>
<path fill-rule="evenodd" clip-rule="evenodd" d="M231.743 142.465C235.998 142.465 239.573 145.643 239.978 149.879C240.718 157.619 241.722 170.133 241.721 181.085C241.721 192.469 240.671 203.153 239.927 209.295C239.53 212.575 237.153 215.227 233.965 216.096L199.852 225.4C195.908 226.475 191.757 224.559 189.648 221.057C185.157 213.599 176.655 202.074 167 202.074V202.074C157.346 202.074 148.843 213.599 144.352 221.057C142.244 224.559 138.092 226.475 134.149 225.4L100.035 216.096C96.8479 215.227 94.4709 212.575 94.0736 209.295C93.3295 203.153 92.2794 192.469 92.2794 181.085C92.2786 170.133 93.2825 157.619 94.0229 149.879C94.4281 145.643 98.0031 142.465 102.258 142.465H167V142.465H231.743Z" fill="white"/>
<path fill-rule="evenodd" clip-rule="evenodd" d="M87.5721 160.203C87.8308 157.295 84.6438 155.575 82.7421 157.791C77.7457 163.612 74.7266 171.179 74.7266 179.452C74.7266 187.374 77.4954 194.65 82.118 200.364C83.9843 202.671 87.2481 200.948 87.0129 197.99C86.6454 193.37 86.4037 188.357 86.4037 183.163C86.4032 175.759 86.9103 167.643 87.5721 160.203Z" fill="white"/>
<path fill-rule="evenodd" clip-rule="evenodd" d="M246.428 160.203C246.169 157.295 249.356 155.575 251.258 157.791C256.254 163.612 259.273 171.179 259.273 179.452C259.273 187.374 256.505 194.65 251.882 200.364C250.016 202.671 246.752 200.948 246.987 197.99C247.355 193.37 247.596 188.357 247.596 183.163C247.597 175.759 247.09 167.643 246.428 160.203Z" fill="white"/>
<path d="M153.566 102.166C153.566 99.3842 155.822 97.1289 158.604 97.1289H175.395C178.177 97.1289 180.432 99.3842 180.432 102.166V137.428H153.566V102.166Z" fill="white"/>
<path d="M222.41 165.973C222.41 170.609 218.652 174.368 214.015 174.368C209.378 174.368 205.619 170.609 205.619 165.973C205.619 161.336 209.378 157.577 214.015 157.577C218.652 157.577 222.41 161.336 222.41 165.973Z" fill="#ED3266"/>
<path d="M205.619 191.16C205.619 195.796 201.861 199.555 197.224 199.555C192.587 199.555 188.828 195.796 188.828 191.16C188.828 186.523 192.587 182.764 197.224 182.764C201.861 182.764 205.619 186.523 205.619 191.16Z" fill="#ED3266"/>
<path d="M121 163.129C121 160.92 122.791 159.129 125 159.129H129C131.209 159.129 133 160.92 133 163.129V193.129C133 195.338 131.209 197.129 129 197.129H125C122.791 197.129 121 195.338 121 193.129V163.129Z" fill="#ED3266"/>
<path d="M142 172.129C144.209 172.129 146 173.92 146 176.129L146 180.129C146 182.338 144.209 184.129 142 184.129L112 184.129C109.791 184.129 108 182.338 108 180.129L108 176.129C108 173.92 109.791 172.129 112 172.129L142 172.129Z" fill="#ED3266"/>
</svg>
