<svg width="400" height="400" viewBox="0 0 400 400" fill="none" xmlns="http://www.w3.org/2000/svg">
<rect x="200" width="282.843" height="282.843" rx="80" transform="rotate(45 200 0)" fill="#ED3266"/>
<path fill-rule="evenodd" clip-rule="evenodd" d="M264.743 174.174C268.997 174.174 272.572 177.352 272.978 181.587C273.718 189.327 274.722 201.842 274.721 212.794C274.721 224.178 273.671 234.862 272.927 241.004C272.53 244.283 270.153 246.935 266.965 247.804L232.852 257.108C228.908 258.184 224.757 256.267 222.648 252.766C218.157 245.308 209.655 233.783 200 233.783V233.783C190.346 233.783 181.843 245.308 177.352 252.766C175.244 256.268 171.092 258.184 167.149 257.108L133.035 247.805C129.848 246.935 127.471 244.283 127.074 241.004C126.329 234.862 125.279 224.178 125.279 212.794C125.279 201.842 126.282 189.327 127.023 181.587C127.428 177.352 131.003 174.174 135.258 174.174H200V174.174H264.743Z" fill="white"/>
<path fill-rule="evenodd" clip-rule="evenodd" d="M120.572 191.912C120.831 189.003 117.644 187.284 115.742 189.499C110.746 195.32 107.727 202.888 107.727 211.16C107.727 219.083 110.495 226.358 115.118 232.073C116.984 234.379 120.248 232.657 120.013 229.699C119.645 225.079 119.404 220.066 119.404 214.872C119.403 207.468 119.91 199.351 120.572 191.912Z" fill="white"/>
<path fill-rule="evenodd" clip-rule="evenodd" d="M279.428 191.912C279.169 189.003 282.356 187.284 284.258 189.499C289.254 195.32 292.273 202.888 292.273 211.16C292.273 219.083 289.505 226.358 284.882 232.073C283.016 234.379 279.752 232.657 279.987 229.699C280.355 225.079 280.596 220.066 280.596 214.872C280.597 207.468 280.09 199.351 279.428 191.912Z" fill="white"/>
<path d="M186.566 133.875C186.566 131.093 188.822 128.837 191.604 128.837H208.395C211.177 128.837 213.432 131.093 213.432 133.875V169.136H186.566V133.875Z" fill="white"/>
<circle cx="247.015" cy="197.681" r="8.39562" fill="#ED3266"/>
<circle cx="230.224" cy="222.868" r="8.39562" fill="#ED3266"/>
<rect x="154" y="190.837" width="12" height="38" rx="4" fill="#ED3266"/>
<rect x="179" y="203.837" width="12" height="38" rx="4" transform="rotate(90 179 203.837)" fill="#ED3266"/>
</svg>
