<svg width="334" height="336" viewBox="0 0 334 336" fill="none" xmlns="http://www.w3.org/2000/svg">
<path d="M110.431 24.86C141.673 -6.38197 192.326 -6.38194 223.568 24.86L310.431 111.723C341.673 142.965 341.673 193.618 310.431 224.86L223.568 311.723C192.326 342.965 141.673 342.965 110.431 311.723L23.568 224.86C-7.67391 193.618 -7.67387 142.965 23.5681 111.723L110.431 24.86Z" fill="#5EDA12"/>
<path d="M199.566 194.028C231.664 194.028 257.725 168.184 258.078 136.17L198.909 194.024C199.128 194.026 199.347 194.028 199.566 194.028Z" fill="white"/>
<path d="M236.374 115.13C204.277 115.13 178.215 140.973 177.863 172.987L237.032 115.133C236.813 115.131 236.594 115.13 236.374 115.13Z" fill="white"/>
<path d="M258.078 115.129H237.039V136.168H258.078V115.129Z" fill="white"/>
<path d="M198.911 172.987H177.872V194.026H198.911V172.987Z" fill="white"/>
<path d="M237.039 115.129L258.078 136.168L198.905 194.026L177.866 172.986L237.039 115.129Z" fill="white"/>
<path fill-rule="evenodd" clip-rule="evenodd" d="M177.868 200.182V188.568H190.354V200.182C190.354 214.726 182.659 228.184 170.126 235.561L167.666 237.009L161.332 226.249L163.792 224.801L166.959 230.181L163.792 224.801C172.514 219.667 177.868 210.302 177.868 200.182Z" fill="white"/>
<path d="M140.93 196.224C109.16 196.224 83.3639 170.644 83.015 138.956L141.58 196.22C141.364 196.222 141.147 196.224 140.93 196.224Z" fill="white"/>
<path d="M104.467 118.134C136.237 118.134 162.033 143.714 162.382 175.402L103.817 118.138C104.033 118.135 104.25 118.134 104.467 118.134Z" fill="white"/>
<path d="M82.9999 118.133H103.824V138.957H82.9999V118.133Z" fill="white"/>
<path d="M141.573 175.402H162.398V196.226H141.573V175.402Z" fill="white"/>
<path d="M103.824 118.133L82.9995 138.958L141.568 196.225L162.393 175.401L103.824 118.133Z" fill="white"/>
<path fill-rule="evenodd" clip-rule="evenodd" d="M141.8 177.979C139.941 179.838 136.926 179.838 135.066 177.979L104.593 147.506C102.734 145.646 102.734 142.631 104.593 140.772C106.453 138.912 109.468 138.912 111.327 140.772L141.8 171.245C143.659 173.104 143.659 176.119 141.8 177.979Z" fill="#5EDA12"/>
<path fill-rule="evenodd" clip-rule="evenodd" d="M199.561 174.978C201.42 176.838 204.435 176.838 206.295 174.978L236.768 144.505C238.627 142.646 238.627 139.631 236.768 137.772C234.908 135.912 231.893 135.912 230.034 137.772L199.561 168.245C197.702 170.104 197.702 173.119 199.561 174.978Z" fill="#5EDA12"/>
<path fill-rule="evenodd" clip-rule="evenodd" d="M149.999 248.701C155.286 248.701 159.572 244.416 159.572 239.129C159.572 233.842 155.286 229.556 149.999 229.556C144.713 229.556 140.427 233.842 140.427 239.129C140.427 244.416 144.713 248.701 149.999 248.701ZM149.999 260.129C161.597 260.129 170.999 250.727 170.999 239.129C170.999 227.531 161.597 218.129 149.999 218.129C138.401 218.129 128.999 227.531 128.999 239.129C128.999 250.727 138.401 260.129 149.999 260.129Z" fill="white"/>
<path d="M176.999 207.129C171.499 219.129 162.399 218.129 149.999 218.129L173.999 231.129L176.999 207.129Z" fill="white"/>
<path d="M181.999 225.129C179.166 228.629 172.999 236.129 169.999 245.629L163.999 226.129L181.999 225.129Z" fill="white"/>
</svg>
