<svg width="334" height="336" viewBox="0 0 334 336" fill="none" xmlns="http://www.w3.org/2000/svg">
<path d="M110.431 24.86C141.673 -6.38197 192.326 -6.38194 223.568 24.86L310.431 111.723C341.673 142.965 341.673 193.618 310.431 224.86L223.568 311.723C192.326 342.965 141.673 342.965 110.431 311.723L23.568 224.86C-7.67391 193.618 -7.67387 142.965 23.5681 111.723L110.431 24.86Z" fill="#00D4CA"/>
<path fill-rule="evenodd" clip-rule="evenodd" d="M85.8952 126.457C95.2273 122.297 106.165 126.49 110.324 135.822L129.406 180.631L150.674 138.732C153.888 132.701 160.166 128.934 166.999 128.934C173.833 128.934 180.11 132.701 183.325 138.732L204.593 180.631L223.674 135.822C227.834 126.49 238.771 122.297 248.103 126.457C257.435 130.616 261.629 141.554 257.469 150.886L222.973 228.276C220.096 234.732 213.791 238.984 206.727 239.233C199.664 239.482 193.075 235.684 189.751 229.446L166.999 186.764L144.248 229.446C140.923 235.684 134.335 239.482 127.271 239.233C120.207 238.984 113.902 234.732 111.025 228.276L76.5295 150.886C72.3698 141.554 76.563 130.616 85.8952 126.457Z" fill="white"/>
</svg>
