<?xml version="1.0" encoding="utf-8"?>
<!-- Generator: Adobe Illustrator 21.1.0, SVG Export Plug-In . SVG Version: 6.00 Build 0)  -->
<svg version="1.1" id="Layer_1" xmlns="http://www.w3.org/2000/svg" xmlns:xlink="http://www.w3.org/1999/xlink" x="0px" y="0px"
	 viewBox="0 0 256 256" style="enable-background:new 0 0 256 256;" xml:space="preserve">
<style type="text/css">
	.st0{fill:#FFFFFF;}
</style>
<path class="st0" d="M241.9,0H14.1C6.3,0,0,6.3,0,14.1v227.7c0,7.8,6.3,14.1,14.1,14.1h122.6v-99.1h-33.4v-38.6h33.4V89.7
	c0-33.1,20.2-51.1,49.7-51.1c14.1,0,26.3,1.1,29.8,1.5v34.6l-20.5,0c-16,0-19.1,7.6-19.1,18.8v24.7h38.3l-5,38.6h-33.3V256h65.2
	c7.8,0,14.1-6.3,14.1-14.1V14.1C256,6.3,249.7,0,241.9,0z"/>
</svg>
