<?xml version="1.0" encoding="utf-8"?>
<!-- Generator: Adobe Illustrator 21.1.0, SVG Export Plug-In . SVG Version: 6.00 Build 0)  -->
<svg version="1.1" id="Layer_1" xmlns="http://www.w3.org/2000/svg" xmlns:xlink="http://www.w3.org/1999/xlink" x="0px" y="0px"
	 viewBox="0 0 589 589" style="enable-background:new 0 0 589 589;" xml:space="preserve">
<style type="text/css">
	.st0{fill:#FFFFFF;}
</style>
<g id="Icon">
	<path class="st0" d="M483.3,177.4c-13.9,6.2-28.8,10.3-44.5,12.2c16-9.6,28.3-24.8,34.1-42.9c-15,8.9-31.5,15.3-49.2,18.8
		c-14.1-15.1-34.3-24.5-56.6-24.5c-42.8,0-77.5,34.7-77.5,77.5c0,6.1,0.7,12,2,17.7c-64.4-3.2-121.5-34.1-159.7-80.9
		c-6.7,11.4-10.5,24.8-10.5,39c0,26.9,13.7,50.6,34.5,64.5c-12.7-0.4-24.6-3.9-35.1-9.7c0,0.3,0,0.6,0,1c0,37.5,26.7,68.8,62.1,76
		c-6.5,1.8-13.3,2.7-20.4,2.7c-5,0-9.8-0.5-14.6-1.4c9.9,30.8,38.5,53.2,72.4,53.8c-26.5,20.8-59.9,33.2-96.2,33.2
		c-6.2,0-12.4-0.4-18.5-1.1c34.3,22,75,34.8,118.8,34.8c142.5,0,220.4-118.1,220.4-220.4c0-3.4-0.1-6.7-0.2-10
		C459.8,206.5,472.9,192.9,483.3,177.4z"/>
</g>
</svg>
