<svg width="350" height="350" viewBox="0 0 350 350" version="1.1" xmlns="http://www.w3.org/2000/svg" xmlns:xlink="http://www.w3.org/1999/xlink">
<title>logo-w</title>
<desc>Created using Figma</desc>
<g id="Canvas" transform="translate(-1680 -4502)">
<g id="logo-w">
<g id="Group">
<g id="Vector">
<use xlink:href="#path0_fill" transform="translate(1680 4502)" fill="#1BC3A9"/>
</g>
</g>
<g id="Group">
<g id="Vector">
<use xlink:href="#path1_fill" transform="translate(1758 4640)" fill="#FFFFFF"/>
</g>
<g id="Vector">
<use xlink:href="#path2_fill" transform="translate(1838.1 4640)" fill="#FFFFFF"/>
</g>
<g id="Vector">
<use xlink:href="#path3_fill" transform="translate(1878.34 4640)" fill="#FFFFFF"/>
</g>
<g id="Vector">
<use xlink:href="#path4_fill" transform="translate(1798.24 4640)" fill="#FFFFFF"/>
</g>
</g>
</g>
</g>
<defs>
<path id="path0_fill" d="M 342.274 193.669L 193.669 342.274C 183.367 352.575 166.633 352.575 156.331 342.274L 7.72592 193.669C -2.57531 183.367 -2.57531 166.633 7.72592 156.331L 156.331 7.72592C 166.633 -2.57531 183.367 -2.57531 193.669 7.72592L 342.274 156.331C 352.575 166.633 352.575 183.367 342.274 193.669Z"/>
<path id="path1_fill" d="M 65.2566 100.66C 57.1867 105.309 46.8854 102.557 42.2369 94.4868L 2.25918 25.2789C -2.38938 17.209 0.362564 6.90775 8.43248 2.25918C 16.5024 -2.38939 26.8036 0.362569 31.4522 8.43248L 71.4299 77.6404C 76.0784 85.7103 73.3265 96.0115 65.2566 100.66Z"/>
<path id="path2_fill" d="M 65.2566 100.66C 57.1866 105.309 46.8854 102.557 42.2369 94.4868L 2.25919 25.2789C -2.38938 17.209 0.362561 6.90775 8.43248 2.25918C 16.5024 -2.38939 26.8036 0.362569 31.4522 8.43248L 71.4299 77.6404C 76.0784 85.7103 73.3265 96.0115 65.2566 100.66Z"/>
<path id="path3_fill" d="M 8.43248 100.66C 16.5024 105.309 26.8036 102.557 31.4522 94.4868L 71.4299 25.2789C 76.0785 17.209 73.3265 6.90775 65.2566 2.25918C 57.1867 -2.38939 46.8854 0.362569 42.2369 8.43248L 2.25919 77.6404C -2.38938 85.7103 0.362566 96.0115 8.43248 100.66Z"/>
<path id="path4_fill" d="M 8.43248 100.66C 16.5024 105.309 26.8036 102.557 31.4522 94.4868L 71.4299 25.2789C 76.0784 17.209 73.3265 6.90775 65.2566 2.25918C 57.1867 -2.38939 46.8854 0.362569 42.2369 8.43248L 2.25918 77.6404C -2.38939 85.7103 0.362569 96.0115 8.43248 100.66Z"/>
</defs>
</svg>
