<svg width="350" height="350" viewBox="0 0 350 350" version="1.1" xmlns="http://www.w3.org/2000/svg" xmlns:xlink="http://www.w3.org/1999/xlink">
<title>logo-ai</title>
<desc>Created using Figma</desc>
<g id="Canvas" transform="translate(-550 -4502)">
<g id="logo-ai">
<g id="Group">
<g id="Vector">
<use xlink:href="#path0_fill" transform="translate(550 4502)" fill="#1EBDF4"/>
</g>
</g>
<g id="Group">
<g id="Vector">
<use xlink:href="#path1_fill" transform="translate(643 4632.1)" fill="#FFFFFF"/>
</g>
<g id="Vector">
<use xlink:href="#path2_fill" transform="translate(687.478 4598)" fill="#FFFFFF"/>
</g>
<g id="Vector">
<use xlink:href="#path3_fill" transform="translate(674.09 4658.47)" fill="#FFFFFF"/>
</g>
<g id="Vector">
<use xlink:href="#path4_fill" transform="translate(776.432 4632.25)" fill="#FFFFFF"/>
</g>
<g id="Vector">
<use xlink:href="#path5_fill" transform="translate(731.955 4598.15)" fill="#FFFFFF"/>
</g>
<g id="Vector">
<use xlink:href="#path6_fill" transform="translate(763.045 4658.32)" fill="#FFFFFF"/>
</g>
<g id="Vector">
<use xlink:href="#path7_fill" transform="translate(718.567 4636.19)" fill="#FFFFFF"/>
</g>
</g>
<g id="Group">
<g id="Group">
<g id="Vector">
<use xlink:href="#path8_fill" transform="translate(783.126 4706.74)" fill="#1EBDF4"/>
</g>
</g>
<g id="Group">
<g id="Vector">
<use xlink:href="#path9_fill" transform="translate(738.649 4604.92)" fill="#1EBDF4"/>
</g>
</g>
<g id="Group">
<g id="Vector">
<use xlink:href="#path10_fill" transform="translate(694.171 4731.21)" fill="#1EBDF4"/>
</g>
</g>
<g id="Group">
<g id="Vector">
<use xlink:href="#path11_fill" transform="translate(649.694 4638.8)" fill="#1EBDF4"/>
</g>
</g>
<g id="Vector (Stroke)">
<use xlink:href="#path12_fill" transform="translate(654.826 4647.65)" fill="#1EBDF4"/>
</g>
<g id="Vector (Stroke)">
<use xlink:href="#path13_fill" transform="translate(699.303 4613.77)" fill="#1EBDF4"/>
</g>
<g id="Vector (Stroke)">
<use xlink:href="#path14_fill" transform="translate(743.781 4613.77)" fill="#1EBDF4"/>
</g>
</g>
</g>
</g>
<defs>
<path id="path0_fill" d="M 342.274 193.669L 193.669 342.274C 183.367 352.575 166.633 352.575 156.331 342.274L 7.72592 193.669C -2.57531 183.367 -2.57531 166.633 7.72592 156.331L 156.331 7.72592C 166.633 -2.57531 183.367 -2.57531 193.669 7.72592L 342.274 156.331C 352.575 166.633 352.575 183.367 342.274 193.669Z"/>
<path id="path1_fill" d="M 15.5448 100.669C 6.99145 100.669 -2.26981e-06 93.6779 -2.26981e-06 85.1246L -2.26981e-06 15.5448C -2.26981e-06 6.99145 6.99145 -2.26981e-06 15.5448 -2.26981e-06C 24.0982 -2.26981e-06 31.0896 6.99145 31.0896 15.5448L 31.0896 85.1246C 31.0896 93.6779 24.0982 100.669 15.5448 100.669Z"/>
<path id="path2_fill" d="M 15.5448 158.2C 6.99144 158.2 0 151.209 0 142.655L 0 15.5448C 0 6.99145 6.99144 4.53962e-06 15.5448 4.53962e-06C 24.0982 4.53962e-06 31.0896 6.99145 31.0896 15.5448L 31.0896 142.655C 31.0896 151.209 24.0982 158.2 15.5448 158.2Z"/>
<path id="path3_fill" d="M 13.3879 -4.53962e-06C 13.3879 3.68166 10.3756 6.69393 6.69394 6.69393C 3.01227 6.69393 0 3.68166 0 -4.53962e-06L 0 48.2335C 0 44.5519 3.01227 41.5396 6.69394 41.5396C 10.3756 41.5396 13.3879 44.5519 13.3879 48.2335L 13.3879 -4.53962e-06Z"/>
<path id="path4_fill" d="M 15.5448 -4.53962e-06C 24.0982 -4.53962e-06 31.0896 6.99145 31.0896 15.5448L 31.0896 85.1246C 31.0896 93.6779 24.0982 100.669 15.5448 100.669C 6.99145 100.669 4.53962e-06 93.6779 4.53962e-06 85.1246L 4.53962e-06 15.5448C 4.53962e-06 6.99145 6.99145 -4.53962e-06 15.5448 -4.53962e-06Z"/>
<path id="path5_fill" d="M 15.5448 2.26981e-06C 24.0982 2.26981e-06 31.0896 6.99145 31.0896 15.5448L 31.0896 142.655C 31.0896 151.209 24.0982 158.2 15.5448 158.2C 6.99146 158.2 2.26981e-06 151.209 2.26981e-06 142.655L 2.26981e-06 15.5448C 2.26981e-06 6.99145 6.99146 2.26981e-06 15.5448 2.26981e-06Z"/>
<path id="path6_fill" d="M 4.53962e-06 48.2335C 4.53962e-06 44.5519 3.01228 41.5396 6.69394 41.5396C 10.3756 41.5396 13.3879 44.5519 13.3879 48.2335L 13.3879 -2.26981e-06C 13.3879 3.68166 10.3756 6.69394 6.69394 6.69394C 3.01228 6.69394 4.53962e-06 3.68166 4.53962e-06 -2.26981e-06L 4.53962e-06 48.2335Z"/>
<path id="path7_fill" d="M 2.26981e-06 98.9215C 2.26981e-06 95.2399 3.01227 92.2276 6.69394 92.2276C 10.3756 92.2276 13.3879 95.2399 13.3879 98.9215L 13.3879 -2.26981e-06C 13.3879 3.68166 10.3756 6.69394 6.69394 6.69394C 3.01227 6.69394 2.26981e-06 3.68166 2.26981e-06 -2.26981e-06L 2.26981e-06 98.9215Z"/>
<path id="path8_fill" d="M 8.85087 17.7018C 13.7391 17.7018 17.7017 13.7391 17.7017 8.85089C 17.7017 3.96269 13.7391 0 8.85087 0C 3.96267 0 0 3.96269 0 8.85089C 0 13.7391 3.96267 17.7018 8.85087 17.7018Z"/>
<path id="path9_fill" d="M 8.85088 17.7017C 13.7391 17.7017 17.7017 13.7391 17.7017 8.85088C 17.7017 3.96268 13.7391 0 8.85088 0C 3.96268 0 0 3.96268 0 8.85088C 0 13.7391 3.96268 17.7017 8.85088 17.7017Z"/>
<path id="path10_fill" d="M 8.85087 17.7017C 13.7391 17.7017 17.7017 13.7391 17.7017 8.85087C 17.7017 3.96267 13.7391 0 8.85087 0C 3.96267 0 0 3.96267 0 8.85087C 0 13.7391 3.96267 17.7017 8.85087 17.7017Z"/>
<path id="path11_fill" d="M 8.85088 17.7017C 13.7391 17.7017 17.7017 13.7391 17.7017 8.85088C 17.7017 3.96268 13.7391 0 8.85088 0C 3.96268 0 0 3.96268 0 8.85088C 0 13.7391 3.96268 17.7017 8.85088 17.7017Z"/>
<path id="path12_fill" fill-rule="evenodd" d="M 0 14.2432L 0 0L 7.43771 0L 7.43771 14.232C 7.43774 14.235 7.43779 14.2389 7.43786 14.2428C 7.43833 14.2721 7.43887 14.2988 7.44081 14.3542C 7.44519 14.4858 7.45209 14.6406 7.46979 14.8801C 7.50737 15.4033 7.57148 16.0509 7.72022 16.9171C 8.02678 18.7459 8.53896 20.8427 9.71208 23.102C 11.8375 27.2865 16.0014 31.6103 25.1394 31.6103C 38.2164 31.6103 45.1764 38.1396 48.6216 44.8411C 50.2315 48.0233 51.1125 51.37 51.5015 53.6218C 51.7007 54.7966 51.8108 55.8507 51.8602 56.5179C 51.886 56.8738 51.9009 57.1872 51.9074 57.3746C 51.9109 57.4788 51.9131 57.5747 51.914 57.6278C 51.9145 57.6595 51.9149 57.6913 51.915 57.7072L 51.9152 57.7347L 51.9152 57.7453L 51.9152 57.7498C 51.9152 57.7519 51.9152 57.7538 48.1963 57.7538L 51.9152 57.7538L 51.9152 92.3763L 44.4775 92.3763L 44.4775 57.7633C 44.4775 57.7608 44.4774 57.7582 44.4773 57.7511C 44.4768 57.7194 44.4762 57.6893 44.474 57.6293C 44.4693 57.4882 44.4617 57.3199 44.4424 57.0626C 44.4018 56.5035 44.3317 55.8056 44.1707 54.8781C 43.8392 52.9253 43.2791 50.6658 42.0068 48.2418C 39.6879 43.731 35.1194 39.048 25.1394 39.048C 12.8569 39.048 6.3105 32.8288 3.08077 26.4703C 1.57631 23.4582 0.749714 20.2834 0.386879 18.1587C 0.200925 17.0481 0.0976862 16.0483 0.0515885 15.4184C 0.0274526 15.0813 0.013433 14.7832 0.00735985 14.6059C 0.00406863 14.5068 0.00199495 14.4151 0.00115264 14.3646C 0.000670303 14.3343 0.000328768 14.3037 0.000202509 14.2885L 3.97216e-05 14.2619L 8.51178e-06 14.2516L 1.77329e-06 14.2471C 3.54658e-07 14.2451 0 14.2432 3.71066 14.2432L 0 14.2432Z"/>
<path id="path13_fill" fill-rule="evenodd" d="M 44.4775 42.7157L 44.4775 0L 51.9152 0L 51.9152 42.7296L 48.1964 42.7296C 51.9152 42.7296 51.9152 42.7317 51.9152 42.7339L 51.9152 42.7386L 51.9152 42.7494L 51.915 42.7766C 51.9149 42.7916 51.9145 42.8226 51.914 42.8525C 51.9131 42.9013 51.9108 42.9919 51.9074 43.0878C 51.901 43.2568 51.8862 43.5462 51.8611 43.8683C 51.8134 44.4643 51.7052 45.424 51.5129 46.4787C 51.1393 48.4825 50.2768 51.5139 48.7255 54.3679C 45.3722 60.422 38.7053 66.1212 26.4039 66.1212C 21.6106 66.1212 18.2196 67.6368 15.7123 69.7905C 12.9574 72.0889 11.3231 74.9767 10.0215 78.3628C 8.70977 81.7022 8.09903 84.918 7.76144 87.5424C 7.59521 88.818 7.51812 89.8241 7.47632 90.5824C 7.45604 90.9447 7.44705 91.2039 7.442 91.4005C 7.43963 91.4908 7.43869 91.5481 7.43811 91.5953C 7.43786 91.615 7.43779 91.6241 7.43772 91.6343L 7.43771 91.6351C 7.43771 91.6339 7.43771 91.6326 3.71885 91.6326L 7.43771 91.6326L 7.43771 91.6374L 7.43771 126.255L 0 126.255L 0 91.6326L 3.71885 91.6326C 0 91.6326 3.54658e-07 91.6311 1.41863e-06 91.6294L 5.67452e-06 91.6256L 2.83726e-05 91.6159L 0.000157113 91.5885C 0.000269894 91.5705 0.000546882 91.5378 0.00098382 91.5022C 0.00178606 91.4388 0.00361822 91.3319 0.00678212 91.2081C 0.0128134 90.9766 0.0259719 90.6077 0.0500074 90.1708C 0.0968123 89.3305 0.196952 88.053 0.385178 86.5883C 0.756487 83.732 1.56357 79.6403 3.0875 75.6721C 4.62147 71.7507 7.24061 67.331 10.8659 64.1486C 14.7388 60.8217 19.8546 58.6835 26.4039 58.6835C 35.8949 58.6835 40.1242 54.5464 42.2191 50.7641C 43.3919 48.7 43.8914 46.8132 44.1988 45.1283C 44.3471 44.3387 44.409 43.7614 44.4465 43.2816C 44.464 43.0658 44.4704 42.9325 44.4747 42.8133C 44.4766 42.7651 44.477 42.7453 44.4774 42.7196C 44.4775 42.7182 44.4775 42.7169 44.4775 42.7157ZM 44.4776 42.7116C 44.4776 42.7126 44.4775 42.714 44.4775 42.7157L 44.4775 42.7258L 44.4775 42.7225L 44.4775 42.717L 44.4776 42.7116Z"/>
<path id="path14_fill" fill-rule="evenodd" d="M 0 42.7296L 0 0L 7.43771 0L 7.43771 42.7201C 7.43773 42.7225 7.43777 42.725 7.43789 42.7317C 7.43839 42.7629 7.43899 42.7922 7.44106 42.8511C 7.44572 42.9899 7.45314 43.1551 7.47193 43.4081C 7.51171 43.9584 7.58009 44.6442 7.73763 45.5568C 8.06188 47.4791 8.60852 49.699 9.85215 52.0826C 12.1163 56.5139 16.5662 61.1008 26.2923 61.1008C 38.2171 61.1008 44.9227 65.3296 48.4813 70.2958C 50.121 72.6456 51.0762 75.2223 51.4712 76.852C 51.6783 77.7359 51.8019 78.5762 51.8531 79.0687C 51.8808 79.3461 51.8986 79.6109 51.9056 79.755C 51.9096 79.8418 51.9125 79.9305 51.9135 79.9743C 51.9142 80.0034 51.9147 80.0362 51.9149 80.0508L 51.9151 80.0804L 51.9152 80.093L 51.9152 80.0987C 51.9152 80.1015 51.9152 80.1041 48.1963 80.1041L 51.9152 80.1041L 51.9152 101.822L 44.4775 101.822L 44.4775 80.136C 44.4772 80.1287 44.4769 80.1193 44.4764 80.1099C 44.4727 80.0301 44.4691 79.9666 44.454 79.8261C 44.4196 79.4827 44.3722 79.1289 44.237 78.5799C 43.9475 77.3437 43.5337 76.0992 42.4354 74.6279C 40.5179 71.9519 36.2715 68.5385 26.2923 68.5385C 13.445 68.5385 6.60811 62.0804 3.2289 55.4667C 1.65085 52.3278 0.786657 49.0252 0.405497 46.8056C 0.210322 45.6472 0.102354 44.6073 0.0539548 43.9495C 0.0286553 43.5985 0.014031 43.2891 0.00766628 43.1043C 0.00422645 43.0014 0.00207333 42.9067 0.00119378 42.8543C 0.000691937 42.823 0.000339407 42.7916 0.000208184 42.7758L 4.07856e-05 42.7486L 8.51178e-06 42.7381L 1.77329e-06 42.7336C 3.54658e-07 42.7316 0 42.7296 3.70261 42.7296L 0 42.7296Z"/>
</defs>
</svg>
