<svg width="350" height="350" viewBox="0 0 350 350" version="1.1" xmlns="http://www.w3.org/2000/svg" xmlns:xlink="http://www.w3.org/1999/xlink">
<title>logo-icpc</title>
<desc>Created using Figma</desc>
<g id="Canvas" transform="translate(-2840 -4502)">
<g id="logo-icpc">
<g id="Vector">
<use xlink:href="#path0_fill" transform="translate(2840 4502)" fill="#FF6B6B"/>
</g>
<g id="Group">
<g id="Vector">
<use xlink:href="#path1_fill" transform="translate(2920.61 4669.59)" fill="#FFFFFF"/>
</g>
<g id="Group">
<g id="Vector">
<use xlink:href="#path2_fill" transform="translate(3000.69 4601.19)" fill="#FFFFFF"/>
</g>
<g id="Vector">
<use xlink:href="#path3_fill" transform="translate(2995.11 4595.61)" fill="#FF6B6B"/>
</g>
</g>
<g id="Group">
<g id="Vector">
<use xlink:href="#path4_fill" transform="translate(2989.56 4723.12)" fill="#FFFFFF"/>
</g>
</g>
<g id="Group">
<g id="Vector">
<use xlink:href="#path5_fill" transform="translate(2920 4653.41)" fill="#FFFFFF"/>
</g>
</g>
<g id="Group">
<g id="Vector">
<use xlink:href="#path6_fill" transform="translate(2988.64 4581)" fill="#FFFFFF"/>
</g>
</g>
<g id="Group">
<g id="Vector">
<use xlink:href="#path7_fill" transform="translate(3059.16 4651.38)" fill="#FFFFFF"/>
</g>
</g>
<g id="Vector (Stroke)">
<use xlink:href="#path8_fill" transform="translate(3008.81 4601.13)" fill="#FFFFFF"/>
</g>
<g id="Vector (Stroke)">
<use xlink:href="#path9_fill" transform="translate(2938.15 4601.12)" fill="#FFFFFF"/>
</g>
<g id="Vector (Stroke)">
<use xlink:href="#path10_fill" transform="translate(2932.37 4665.75)" fill="#FFFFFF"/>
</g>
</g>
</g>
</g>
<defs>
<path id="path0_fill" d="M 342.392 193.393L 193.393 342.392C 183.249 352.536 166.751 352.536 156.607 342.392L 7.60789 193.393C -2.53596 183.249 -2.53596 166.751 7.60789 156.607L 156.607 7.60789C 166.751 -2.53596 183.249 -2.53596 193.393 7.60789L 342.392 156.607C 352.536 166.751 352.536 183.249 342.392 193.393Z"/>
<path id="path1_fill" d="M 186.565 0L 0 0L 0 14.8628L 186.565 14.8628L 186.565 0Z"/>
<path id="path2_fill" d="M 26.0099 0L 0 0L 0 152.009L 26.0099 152.009L 26.0099 0Z"/>
<path id="path3_fill" d="M 26.0099 11.1471L 26.0099 152.009L 11.1471 152.009L 11.1471 11.1471L 26.0099 11.1471ZM 37.157 1.13394e-06L 26.0099 1.13394e-06L 11.1471 1.13394e-06L 4.53576e-06 1.13394e-06L 4.53576e-06 11.1471L 4.53576e-06 152.009L 4.53576e-06 163.156L 11.1471 163.156L 26.0099 163.156L 37.157 163.156L 37.157 152.009L 37.157 11.1471L 37.157 1.13394e-06Z"/>
<path id="path4_fill" d="M 41.8573 41.8573C 32.2708 51.4438 16.7764 51.4438 7.18987 41.8573C -2.39662 32.2708 -2.39662 16.7764 7.18987 7.18987C 16.7764 -2.39663 32.2708 -2.39663 41.8573 7.18987C 51.4067 16.7392 51.4067 32.2708 41.8573 41.8573Z"/>
<path id="path5_fill" d="M 39.9623 39.9623C 30.8217 49.1029 15.9961 49.1029 6.85546 39.9623C -2.28515 30.8217 -2.28515 15.9961 6.85546 6.85545C 15.9961 -2.28516 30.8217 -2.28516 39.9623 6.85545C 49.1029 15.9961 49.1029 30.8217 39.9623 39.9623Z"/>
<path id="path6_fill" d="M 43.4086 43.4086C 33.4877 53.3295 17.3616 53.3295 7.44068 43.4086C -2.48023 33.4877 -2.48023 17.3616 7.44068 7.44068C 17.3616 -2.48023 33.4877 -2.48023 43.4086 7.44068C 53.3667 17.3616 53.3667 33.4506 43.4086 43.4086Z"/>
<path id="path7_fill" d="M 43.4086 43.4086C 33.4877 53.3295 17.3616 53.3295 7.44067 43.4086C -2.48024 33.4877 -2.48024 17.3616 7.44067 7.44068C 17.3616 -2.48023 33.4877 -2.48023 43.4086 7.44068C 53.3295 17.3616 53.3295 33.4877 43.4086 43.4086Z"/>
<path id="path8_fill" fill-rule="evenodd" d="M 10.5013 0L 81.0252 70.4124L 70.5239 80.9303L 0 10.5179L 10.5013 0Z"/>
<path id="path9_fill" fill-rule="evenodd" d="M 81.1627 10.5289L 10.4902 80.9414L 0 70.4124L 70.6725 0L 81.1627 10.5289Z"/>
<path id="path10_fill" fill-rule="evenodd" d="M 10.5214 0L 92.7498 82.4141L 82.2284 92.9118L 0 10.4977L 10.5214 0Z"/>
</defs>
</svg>
