<?xml version="1.0" encoding="UTF-8" standalone="no"?>
<!-- Created with Inkscape (http://www.inkscape.org/) -->
<svg
   xmlns:svg="http://www.w3.org/2000/svg"
   xmlns="http://www.w3.org/2000/svg"
   version="1.0"
   width="900"
   height="265.21652"
   id="svg31390">
  <defs
     id="defs31392" />
  <g
     transform="translate(-10718.49,2408.747)"
     id="layer1">
    <g
       transform="translate(7.076125,7.084304)"
       id="g43968">
      <path
         d="M 594.96875,0 C 586.6309,0.014909425 578.22343,0.93021871 570.375,2.8125 C 546.6,8.5175 539.75897,16.956301 532.5,25.875 C 532.5,25.875 530.86976,27.88415 530.84375,27.90625 C 520.16275,40.03875 518.88326,74.260549 528.65625,86.96875 C 537.61425,98.22925 546.62553,100.4204 558.0625,103.1875 C 558.0625,103.1875 561.78647,104.09375 561.8125,104.09375 C 561.8125,104.09375 572.28123,106.78125 572.28125,106.78125 C 581.96925,109.22915 592.93853,112.04195 601.4375,115.46875 C 603.6955,117.00135 604.87924,118.7877 605.03125,120.9375 C 605.03125,120.9375 605.03127,121.46875 605.03125,121.46875 C 605.03125,124.53395 603.26924,127.39724 601.65625,128.78125 C 598.37925,131.56955 586.70247,134.2769 573.3125,132.0625 C 564.0325,130.552 557.94499,126.06435 557.75,120.59375 C 557.75,120.59375 557.58847,115.11285 557.5625,114.21875 C 556.5695,114.21875 508.07524,114.21875 507.03125,114.21875 C 507.07325,115.85745 507.15626,120.9375 507.15625,120.9375 C 507.73425,149.4606 525.74024,174.2003 549.03125,178.5 C 569.91025,182.0339 598.698,183.20945 615.875,177.78125 C 633.077,172.05505 637.56378,166.4209 649.09375,149.5625 C 653.58575,142.8361 658.125,130.74855 658.125,117.59375 C 658.125,110.93105 656.96926,104.00645 654.03125,97.34375 C 648.87725,85.67905 636.25324,70.675797 605.40625,65.375 C 605.40625,65.375 605.48301,65.333703 605.5,65.3125 C 605.033,65.3125 604.00699,65.132899 601.875,64.75 C 575.316,60.0461 575.34302,60.0563 573,56.4375 C 573,56.4375 572.4375,55.6038 572.4375,55.625 C 571.4355,54.2419 571.33502,52.232399 572.125,50.125 C 573.526,46.3788 577.19674,43.412051 581.96875,42.15625 C 594.01675,39.26175 600.31927,40.795349 607.28125,43.09375 C 612.57925,44.77575 617.15874,50.545898 617.71875,56.25 C 617.71875,56.25 618.22752,61.357099 618.3125,62.1875 C 619.2555,62.1875 667.7505,62.187499 668.8125,62.1875 C 668.7695,61.251 668.53122,55.375 668.53125,55.375 C 667.85225,37.8568 658.84728,22.4914 643.15625,12.125 C 631.43506,4.2666688 613.31203,-0.032800736 594.96875,0 z M 161.8125,3.25 C 162.0085,4.4633 190.847,179.63716 191,180.53125 C 191.892,180.53125 264.38624,180.53126 265.03125,180.53125 C 265.32825,179.93525 331.65626,48.500001 331.65625,48.5 C 331.65625,48.5 308.01026,179.29676 307.78125,180.53125 C 309.01225,180.53125 358.34476,180.53126 359.21875,180.53125 C 359.37175,179.65845 384.67726,41.140852 384.90625,39.90625 C 383.67525,39.90625 335.96874,39.906252 335.96875,39.90625 C 335.96875,39.90625 337.87501,36.187501 337.875,36.1875 C 337.875,36.1875 384.71874,36.187501 385.59375,36.1875 C 385.72075,35.4845 386.67901,30.125301 386.875,29.125 C 385.635,29.125 341.4375,29.125001 341.4375,29.125 C 341.4375,29.125 343.62499,24.718749 343.625,24.71875 C 343.625,24.71875 386.80725,24.718749 387.65625,24.71875 C 387.78325,24.05905 388.43001,20.655251 388.625,19.71875 C 387.386,19.71875 346.18749,19.718751 346.1875,19.71875 C 346.1875,19.71875 348.90624,14.34375 348.90625,14.34375 C 348.90625,14.34375 388.7135,14.34375 389.5625,14.34375 C 389.6735,13.79015 390.06575,11.6822 390.21875,10.9375 C 388.97875,10.9375 350.62499,10.9375 350.625,10.9375 C 350.625,10.9375 353.5625,5.1250001 353.5625,5.125 C 353.5625,5.125 390.401,5.1250001 391.25,5.125 C 391.318,4.7632 391.50875,3.7390999 391.59375,3.25 C 390.35375,3.25 298.17625,3.2499999 297.53125,3.25 C 297.25925,3.8248 236.5,124.8125 236.5,124.8125 C 236.5,124.8125 218.37799,4.1440999 218.25,3.25 C 217.359,3.25 163.0275,3.2499999 161.8125,3.25 z M 816.9375,13.3125 C 815.3835,21.6777 791.15623,151.9155 791.15625,151.9375 C 790.19725,156.2373 789.56248,159.79655 789.5625,162.96875 C 789.5625,168.50305 791.54402,172.72675 797.25,177.28125 C 797.25,177.28125 797.42051,177.4375 797.4375,177.4375 C 797.4625,177.4587 797.65626,177.56251 797.65625,177.5625 C 803.57525,180.1598 810.25726,180.53126 816.03125,180.53125 C 816.03125,180.53125 848.01172,180.53126 848.84375,180.53125 C 849.01375,179.72215 854.8075,151.5471 855.0625,150.3125 C 853.5505,150.355 849.78672,150.43751 849.71875,150.4375 C 847.31575,150.5436 845.43102,150.58726 842.875,149.90625 C 838.485,148.84155 838.0645,148.0027 837.0625,144.9375 C 837.0625,144.9375 836.84377,144.25 836.84375,144.25 C 836.84375,144.25 849.65624,77.531252 849.65625,77.53125 C 849.65625,77.53125 867.44928,77.531252 868.28125,77.53125 C 868.42525,76.72205 873.1175,50.07715 873.3125,48.90625 C 872.1415,48.90625 855.03125,48.90625 855.03125,48.90625 C 855.03125,48.90625 861.95851,14.5471 862.1875,13.3125 C 860.9565,13.3125 817.78652,13.3125 816.9375,13.3125 z M 453.8125,42.6875 C 440.0405,42.4319 419.14174,46.89125 412.96875,50.53125 C 412.96875,50.53125 412.01699,51.072449 412,51.09375 C 406.167,54.62755 388.37874,65.408647 387.84375,88.78125 C 387.84375,88.78125 387.77501,91.347049 387.75,92.15625 C 388.82,92.13495 430.05199,91.843753 430.875,91.84375 C 431.045,91.01345 431.40626,89.218747 431.40625,89.21875 C 433.55525,78.38445 442.21999,76.358247 454.625,76.65625 C 459.524,76.76245 463.72699,78.522099 465.875,81.375 C 467.047,82.9288 467.43574,84.622448 466.96875,86.21875 C 465.39775,90.11435 462.57876,91.540803 455.34375,93.5625 C 452.77175,94.2655 448.182,94.818996 442.875,95.5 C 442.875,95.5 442.68226,95.500002 442.65625,95.5 C 419.71425,98.3308 381.30599,103.0953 372,130.9375 C 366.193,148.1364 370.4035,159.2002 374.9375,165.4375 C 382.6385,176.0807 396.22001,179.99681 406.375,180.125 C 416.232,180.3593 434.20875,180.11875 443.71875,176.03125 C 445.22975,175.54215 446.98049,174.53905 448.6875,173.21875 C 448.6875,173.21875 449.40626,172.6875 449.40625,172.6875 C 449.40625,172.6875 450.43451,179.33701 450.5625,180.125 C 451.4195,180.125 499.62474,180.12501 501.96875,180.125 C 500.69475,178.8046 496.6875,174.625 496.6875,174.625 C 495.2435,173.1136 494.09374,171.44715 494.09375,167.53125 C 494.09375,165.04005 494.55851,161.6446 495.6875,156.8125 C 495.8315,156.1315 509.77824,80.815953 509.90625,80.15625 C 510.67825,76.72845 510.96874,73.6814 510.96875,71 C 510.96875,57.3978 502.45274,52.642999 497.46875,49.875 C 490.27775,46.044 467.0925,43.198599 453.8125,42.6875 z M 742.5625,42.6875 C 728.7905,42.4319 707.89174,46.89125 701.71875,50.53125 C 701.71875,50.53125 700.74998,51.09375 700.75,51.09375 C 694.891,54.64885 677.12877,65.408647 676.59375,88.78125 C 676.59375,88.78125 676.52498,91.347049 676.5,92.15625 C 677.57,92.13495 718.77598,91.843753 719.625,91.84375 C 719.752,91.20525 720.15622,89.218747 720.15625,89.21875 C 722.27825,78.38445 730.97624,76.358247 743.40625,76.65625 C 748.25525,76.76245 752.45101,78.522099 754.625,81.375 C 755.431,82.4814 756.29674,84.197048 755.71875,86.21875 C 754.12275,90.11435 751.31075,91.540803 744.09375,93.5625 C 741.47775,94.2655 736.85726,94.819002 731.40625,95.5 C 708.43925,98.3308 670.01576,103.0953 660.71875,130.9375 C 654.92775,148.1364 659.14727,159.2002 663.65625,165.4375 C 671.38225,176.0807 684.97001,179.99681 695.125,180.125 C 704.983,180.3593 722.94449,180.11875 732.4375,176.03125 C 733.9655,175.54215 735.73052,174.53905 737.4375,173.21875 C 737.4375,173.21875 738.15625,172.6875 738.15625,172.6875 C 738.15625,172.6875 739.1845,179.33701 739.3125,180.125 C 740.1865,180.125 788.34449,180.12501 790.6875,180.125 C 789.0065,178.3793 785.40624,174.625 785.40625,174.625 C 783.94525,173.1136 782.81248,171.44715 782.8125,167.53125 C 782.8125,165.04005 783.28351,161.65385 784.4375,156.84375 C 784.5395,156.26895 798.52302,80.815953 798.625,80.15625 C 799.372,76.72845 799.71874,73.6814 799.71875,71 C 799.71875,57.3765 791.17774,52.642999 786.21875,49.875 C 779.02775,46.044 755.82553,43.198599 742.5625,42.6875 z M 459.84375,120 C 459.84375,120 459.62501,120.96875 459.625,120.96875 C 458.113,128.65295 454.65799,142.21026 448.375,146.53125 C 440.08475,152.05638 432.7695,152.16622 426.6875,151.53125 C 426.6875,151.53125 426.65626,151.53125 426.65625,151.53125 C 420.82325,151.08465 416.9895,148.93239 415.5625,145.25 C 415.1805,144.2914 414.96875,143.14969 414.96875,142 C 414.96875,139.2966 416.06701,136.60181 417.875,134.75 C 422.511,129.7268 432.4425,127.47365 442.0625,125.28125 C 447.7855,123.98305 453.82025,122.5249 458.90625,120.375 C 458.90625,120.375 459.84376,120 459.84375,120 z M 748.5625,120 C 748.5625,120 748.37498,120.96875 748.375,120.96875 C 746.847,128.65295 743.38301,142.21026 737.125,146.53125 C 728.804,152.06555 721.47726,152.16975 715.40625,151.53125 C 709.57325,151.08465 705.73853,148.91119 704.3125,145.25 C 703.9305,144.2701 703.71875,143.12849 703.71875,142 C 703.71875,139.2966 704.81075,136.58061 706.59375,134.75 C 711.25475,129.7268 721.1925,127.47365 730.8125,125.28125 C 736.5355,123.98305 742.57028,122.5249 747.65625,120.375 C 747.65625,120.375 748.56247,120 748.5625,120 z M 871.3125,153.03125 C 863.17749,153.03125 856.4375,159.06355 856.4375,167.34375 C 856.4375,175.62395 863.1775,181.59375 871.3125,181.59375 C 879.08149,181.59375 885.84375,175.62395 885.84375,167.34375 C 885.84376,159.06355 879.0815,153.03125 871.3125,153.03125 z M 871.3125,155.375 C 877.72249,155.375 882.78125,160.36175 882.78125,167.34375 C 882.78123,173.96405 877.7225,179.28125 871.3125,179.28125 C 864.54449,179.28126 859.46875,173.96405 859.46875,167.34375 C 859.46877,160.36175 864.5445,155.375 871.3125,155.375 z M 865.5625,159.0625 C 865.56251,159.06249 865.5625,175.625 865.5625,175.625 C 865.56251,175.625 868.28125,175.625 868.28125,175.625 C 868.28128,175.625 868.28125,168.34375 868.28125,168.34375 C 868.28128,168.34375 870.96875,168.34375 870.96875,168.34375 C 870.96877,168.34375 875.34375,175.625 875.34375,175.625 C 875.34375,175.625 878.40625,175.625 878.40625,175.625 C 878.40625,175.625 873.65625,168.34375 873.65625,168.34375 C 876.01622,168.00325 878.0625,166.6465 878.0625,163.6875 C 878.06249,160.3455 876.00975,159.0625 871.96875,159.0625 C 871.96875,159.06249 865.5625,159.0625 865.5625,159.0625 z M 868.28125,161 C 868.28128,161 871.625,161 871.625,161 C 873.30603,161 875.34375,161.6862 875.34375,163.6875 C 875.34375,165.986 873.3155,166.34375 871.3125,166.34375 C 871.31249,166.34374 868.28125,166.34375 868.28125,166.34375 C 868.28128,166.34374 868.28125,161 868.28125,161 z "
         transform="translate(10718.49,-2408.747)"
         style="font-size:6px;letter-spacing:0;word-spacing:0;fill:#1c4fa0;fill-rule:nonzero;stroke:none;font-family:fnt0, &quot;Futura&quot;, Arial"
         id="path43335" />
      <path
         d="M 10718.494,-2184.4135 C 10718.494,-2184.4135 10718.494,-2157.6989 10718.494,-2157.6989 C 10718.494,-2157.6989 11596.424,-2157.6989 11596.424,-2157.6989 C 11596.424,-2157.6989 11596.424,-2184.4135 11596.424,-2184.4135 C 11596.424,-2184.4135 10718.494,-2184.4135 10718.494,-2184.4135 z "
         style="font-size:6px;letter-spacing:0;word-spacing:0;fill:#979596;fill-rule:nonzero;stroke:none;font-family:fnt0, &quot;Futura&quot;, Arial"
         id="path43347" />
    </g>
  </g>
</svg>
