<?xml version="1.0" encoding="UTF-8"?>
<svg enable-background="new 0 0 500 500" version="1.1" viewBox="0 0 500 500" xml:space="preserve" xmlns="http://www.w3.org/2000/svg">
	<polygon points="0 0 500 0 500 500 0 500" fill="#fff"/>
	<path d="m22 460.9h-1.5c0-0.7-0.4-1.8-0.4-2.1 0-0.4 0-1.1-1.1-1.1h-2.1v3.2h-1.1v-7.5h3.2c1.5 0 2.5 0.4 2.5 1.8 0 1.1-0.4 1.5-0.7 1.8 0.4 0.4 0.7 0.7 0.7 1.5v1.5c0 0.4 0 0.4 0.4 0.4l0.1 0.5zm-1.5-5.3c0-1.1-0.7-1.1-1.1-1.1h-2.5v2.1h2.1c0.8 0 1.5-0.3 1.5-1zm6.2 1.4c0-4.3-3.6-7.9-8.2-7.9-4.3 0-7.9 3.6-7.9 7.9 0 4.7 3.6 8.2 7.9 8.2 4.5 0 8.2-3.5 8.2-8.2zm-1.1 0c0 3.9-3.2 6.8-7.1 6.8s-6.8-2.8-6.8-6.8c0-3.6 2.8-6.8 6.8-6.8 3.9 0 7.1 3.2 7.1 6.8z" fill="#0077A6"/>
	<path d="m466.4 312.5c0 10.7-6.8 15.7-18.9 15.7h-23.2v-10.7h23.2c2.1 0 3.9-0.4 4.7-1.1 0.7-0.7 1.5-1.8 1.5-3.2s-0.7-2.8-1.5-3.6c-0.7-0.7-2.1-1.1-4.3-1.1-11.1-0.4-25 0.4-25-15.4 0-7.1 4.7-15 17.2-15h23.9v10.7h-22.2c-2.1 0-3.6 0-4.7 0.7-1.1 1.1-1.8 2.1-1.8 3.9s1.1 2.8 2.5 3.6c1.5 0.4 2.8 0.7 4.7 0.7h6.4c6.8 0 11.1 1.5 14 3.9 2 2.6 3.5 5.8 3.5 10.9zm-50.5-10.7c-2.8-2.5-7.1-3.9-14-3.9h-6.4c-1.8 0-3.2-0.4-4.7-0.7-1.5-0.7-2.5-1.8-2.5-3.6 0-1.9 0.4-2.8 1.8-3.9 1.1-0.7 2.5-0.7 4.7-0.7h22.2v-10.7h-23.8c-12.9 0-17.2 7.9-17.2 15 0 15.7 14 15 25.1 15.4 2.1 0 3.6 0.4 4.3 1.1s1.5 2.1 1.5 3.6-0.7 2.5-1.5 3.2c-1.1 0.7-2.5 1.1-4.7 1.1h-23.2v10.7h23.2c12.2 0 18.9-5 18.9-15.7-0.1-5.3-1.5-8.5-3.7-10.9zm-45.8 16.1h-28.2v-10.1h27.5v-10.1h-27.5v-9.3h28.2v-10.4h-40v50.1h40v-10.2zm-52.9-37.2c-3.9-2.1-8.6-2.5-14.6-2.5h-27.6v50.1h12.2v-18.3h12.9c4.3 0 6.8 0.4 8.6 2.1 2.1 2.5 2.1 6.8 2.1 10.1v6.1h11.8v-9.7c0-4.7-0.4-6.8-1.8-9.3-1.1-1.5-3.2-3.2-6.1-4.3 3.2-1.1 8.6-5.4 8.6-13.3-0.1-5.8-2.2-9-6.1-11zm-68-2.6h-38.3l-15.4 16.5-14.6-16.5h-48.3v50.1h47.6l15.4-16.5 14.6 16.5h23.2v-16.8h15c10.4 0 20.8-2.8 20.8-16.8 0-13.6-10.7-16.5-20-16.5zm58.3 20.7c-1.8 0.7-3.6 0.7-5.8 0.7l-14.6 0.4v-11.4h14.6c2.1 0 4.3 0 5.8 1.1 1.5 0.7 2.5 2.1 2.5 4.3 0.1 2.1-1 3.9-2.5 4.9zm-58.3 2.6h-15.7v-12.9h15.7c4.3 0 7.1 1.8 7.1 6.1s-2.8 6.8-7.1 6.8zm-46.2 1.7l18.7-19.6v40.4l-18.7-20.8zm-29 14.8h-29.7v-10.1h26.5v-10.1h-26.5v-9.3h30.1l13.3 14.6-13.7 14.9zm259.1-75.9h-17.2l-22.6-37.6v37.6h-24.3l-4.6-11.1h-25.1l-4.7 11.1h-13.9c-5.8 0-13.3-1.5-17.6-5.8-3.9-4.3-6.1-10.1-6.1-18.9 0-7.5 1.1-14.4 6.4-19.7 3.6-3.9 10.1-5.8 18.3-5.8h11.4v10.7h-11.4c-4.3 0-6.8 0.7-9.3 2.8-2.1 2.1-3.2 6.1-3.2 11.4s1.1 9.3 3.2 11.8c1.8 1.8 5 2.5 8.2 2.5h5.4l17.2-39.3h17.9l20 47.3v-47.3h18.7l21.1 34.7v-34.7h12.2v50.3zm-142-50.1h-12.2v50.1h12.2v-50.1zm-25.5 2.1c-3.9-2.1-8.2-2.1-14.4-2.1h-27.5v50.1h11.8v-18.3h12.9c4.3 0 7.1 0.4 9 2.1 2.1 2.5 1.8 6.8 1.8 9.7v6.4h12.2v-10.1c0-4.3-0.4-6.4-2.1-9-1.1-1.5-3.2-3.2-5.8-4.3 3.2-1.5 8.6-5.4 8.6-13.3 0-5.5-2.5-8.7-6.5-11.2zm-50.4 37.6h-27.9v-10.1h27.5v-10.4h-27.5v-9h27.9v-10.4h-40v50.3h40v-10.4zm-49-39.7h-19.7l-14.6 34-15.7-34h-19.4v47.3l-20.4-47.3h-17.9l-21.5 50.1h12.9l4.7-11.1h25l4.7 11.1h24.3v-39.4l17.6 39.4h10.4l17.6-39.4v39.4h12.2l-0.2-50.1zm194 28.2l-8.2-19.7-8.3 19.7h16.5zm-103.9-7.8c-1.8 1.1-3.6 1.1-6.1 1.1h-14.6v-11.1h14.6c2.1 0 4.7 0 6.1 0.7 1.5 1.1 2.1 2.5 2.1 4.7s-0.6 3.8-2.1 4.6zm-197.4 7.8l8.2-19.7 8.2 19.7h-16.4zm404.7-185.3h-426.9v180.4l14.6-33.3h31.2l4.3 8.2v-8.2h36.5l8.2 17.9 7.9-17.9h116.3c5.4 0 10.1 1.1 13.6 3.9v-3.9h31.8v3.9c5.4-2.8 12.2-3.9 20-3.9h46.2l4.3 8.2v-8.2h34l5 8.2v-8.2h33.3v70.1h-33.6l-6.4-10.7v10.7h-42l-4.7-11.4h-10.4l-4.7 11.4h-21.8c-8.6 0-15-2.1-19.3-4.3v4.3h-51.9v-16.1c0-2.1-0.4-2.5-1.8-2.5h-1.8v18.6h-100v-9l-3.6 9h-21.2l-3.6-8.6v8.6h-40.3l-4.3-11.4h-10.4l-4.7 11.4h-20.8v211.5h426.9v-128.5c-4.7 2.1-11.1 3.2-17.6 3.2h-31.2v-4.3c-3.6 2.8-10.1 4.3-16.1 4.3h-97.9v-16.1c0-2.1-0.4-2.1-2.1-2.1h-1.8v18.3h-32.2v-18.9c-5.4 2.5-11.4 2.5-16.8 2.5h-3.6v16.5h-39.4l-9.3-10.7-10.4 10.7h-63.4v-70.1h64.5l9.3 10.7 10.1-10.7h43.3c5 0 13.3 0.7 16.8 4.3v-4.3h38.6c3.9 0 11.4 0.7 16.5 4.3v-4.3h58.3v4.3c3.2-2.8 9.3-4.3 14.6-4.3h32.6v4.3c3.6-2.5 8.6-4.3 15-4.3h22.2v-233.5h0.1z" fill="#0077A6"/>
</svg>
