<svg xmlns="http://www.w3.org/2000/svg" width="256" height="256" viewBox="0 0 256 256" preserveAspectRatio="xMidYMid"><path d="M241.9 256C249.7 256 256 249.7 256 241.9L256 14.1C256 6.3 249.7 0 241.9 0L14.1 0C6.3 0 0 6.3 0 14.1L0 241.9C0 249.7 6.3 256 14.1 256L241.9 256" fill="#395185"/><path d="M176.6 256L176.6 156.9 209.9 156.9 214.9 118.2 176.6 118.2 176.6 93.6C176.6 82.4 179.7 74.8 195.8 74.8L216.2 74.7 216.2 40.2C212.7 39.7 200.6 38.7 186.4 38.7 156.9 38.7 136.7 56.7 136.7 89.7L136.7 118.2 103.4 118.2 103.4 156.9 136.7 156.9 136.7 256 176.6 256" fill="#FFF"/></svg>