<svg xmlns="http://www.w3.org/2000/svg" viewBox="0 0 760 159.91"><path d="M721.98 28.65v-3.23h2.2c1.07 0 2.28.24 2.28 1.54 0 1.6-1.21 1.69-2.56 1.69zm6.11-1.6c0-2.06-1.21-2.97-3.69-2.97h-3.99v10.43h1.57v-4.52h1.85l2.77 4.52h1.78l-2.99-4.59c1.49-.2 2.7-1.01 2.7-2.87zm-4.19 9.78c-4.13 0-7.33-3.2-7.33-7.55 0-4.29 3.2-7.51 7.33-7.51 4.12 0 7.32 3.22 7.32 7.51 0 4.35-3.2 7.55-7.32 7.55zm0-16.57c-4.98 0-9.18 3.82-9.18 9.02 0 5.23 4.2 9.06 9.18 9.06 4.98 0 9.17-3.83 9.17-9.06 0-5.2-4.19-9.02-9.17-9.02m.92 67.7l-28.01-64.61c-1.71-3.11-4.56-4.55-8.61-4.55s-6.97 1.44-8.6 4.55l-20.63 47.38-20.55-47.38c-1.7-3.11-4.55-4.55-8.6-4.55-4.12 0-6.97 1.44-8.6 4.55l-20.63 47.49-20.55-47.49c-1.7-3.11-4.55-4.55-8.6-4.55-4.13 0-6.97 1.44-8.68 4.55l-20.55 47.38-20.55-47.38c-1.71-3.11-4.55-4.55-8.67-4.55-4.06 0-6.9 1.44-8.61 4.55l-28.02 64.61c-3.84 10.11 10.1 15.31 14.65 7.18l21.98-51.45 22.04 51.45c2.84 5.27 11.73 5.03 14.36 0l22.05-51.45 21.97 51.45c1.49 2.59 3.84 3.7 6.33 3.86.28 0 .57.1.85.1.29 0 .57 0 .93-.1 2.42-.16 4.83-1.27 6.26-3.86l22.04-51.45 21.97 51.45c2.63 5.03 11.52 5.27 14.37 0l22.04-51.45 21.97 51.45c4.55 8.13 18.49 2.93 14.65-7.18M238.5 67.38l12.3-27.96 12.3 27.96zm19.91-47.65h-15.15l-34.13 77.4h16.22l8.03-17.05h35.34l.71 1.64 6.83 15.41h16.21l-34.06-77.4M437.54 84.4c-14.37 0-25.96-11.55-25.96-25.92 0-14.37 11.59-26.13 25.96-26.13 14.36 0 26.02 11.65 26.02 26.02 0 14.38-11.66 26.03-26.02 26.03zm0-67.36c-22.83 0-41.32 18.61-41.32 41.44s18.49 41.22 41.32 41.22c22.82 0 41.31-18.5 41.31-41.33 0-22.82-18.49-41.33-41.31-41.33m-35.42 5.43a41.062 41.062 0 0 0-20.83-5.65c-22.83 0-41.39 18.51-41.39 41.33 0 22.84 18.56 41.35 41.39 41.35 7.11 0 13.94-1.87 19.77-5.04l-7.47-13.42a25.49 25.49 0 0 1-12.3 3.15c-14.44 0-26.03-11.67-26.03-26.04s11.59-26.02 26.03-26.02c4.84 0 9.39 1.38 13.3 3.69l7.53-13.35M196.83 97.54h-44.02c-2.98 0-6.54-3.49-6.54-6.51l-.1-71.43h15.29v61.83h26.52V19.6h15.29v71.43c0 3.02-3.48 6.51-6.47 6.51m-99.166 1.25V77.1L78.72 82.52v26.87c-3.627.99-7.467 1.6-11.378 1.6-24.107 0-43.662-19.54-43.662-43.63 0-24.1 19.555-43.63 43.662-43.63C91.448 23.73 111 43.26 111 67.36c0 12.33-5.12 23.48-13.366 31.43zm37.046-31.43C134.68 30.16 104.53 0 67.342 0 30.152 0 0 30.16 0 67.36s30.15 67.36 67.342 67.36c3.982 0 7.68-.37 11.448-1.03l-.07 26.22h18.915v-32.62c21.905-11.12 37.045-33.71 37.045-59.93M298.3 91.01c0 3.02 3.49 6.52 6.55 6.52h44.58l-9.95-16.08h-25.89V19.6H298.3v71.41"/></svg>