<svg xmlns="http://www.w3.org/2000/svg" viewBox="0 0 309.13 34.12"><defs><style>.cls-1{fill:#3284bf;}.cls-2{fill:#231f20;}</style></defs><title>Asset 1</title><g id="Layer_2" data-name="Layer 2"><g id="Layer_1-2" data-name="Layer 1"><path class="cls-1" d="M17.06,0A17.06,17.06,0,1,0,34.12,17.06,17.06,17.06,0,0,0,17.06,0ZM31.31,22.73a4.94,4.94,0,0,1-.24.67c-.2.39-.42.77-.64,1.15a.12.12,0,0,1-.07.06l-.41.05-.11,0c-.15,0-.33.11-.36.09a.31.31,0,0,1-.08-.07s0,0-.07,0l-.07,0a1.92,1.92,0,0,1-.32.06.62.62,0,0,1-.16-.1s0,0-.09,0-.21.18-.46,0h-.29c-.1,0-.23.07-.31-.08s-.07,0-.12,0-.11,0-.15,0,.2-.27.33-.37l.07-.06c.06-.07.11-.14.18-.2s.22-.14.28-.23a.77.77,0,0,0,0-.89.63.63,0,0,0-.17-.13.8.8,0,0,1-.17-.13A5.71,5.71,0,0,0,27.5,22c-.3-.31-.63-.59-.94-.88,0,0-.06-.12-.11-.14s-.21-.22-.37-.24l0,0-.24-.18L25.07,20l-.75-.53a.33.33,0,0,0-.16,0c-.17,0-.26.13-.33.25a3.5,3.5,0,0,0-.32.63c-.18.45-.34.9-.5,1.36a8.62,8.62,0,0,1-.32,1,.78.78,0,0,0,0,.41.45.45,0,0,1-.34.47l-1.11.08-.7,0c-.07,0-.17,0-.19.11s0,.18,0,.25-.05.16-.09.23-.06.09-.09.13-.11.15-.1.22-.07.1-.11.15a.51.51,0,0,1-.29.22c-.25.06-.5.13-.75.18a5.58,5.58,0,0,1-.6.08l-.6,0-.77,0-.35,0c-.06,0-.12,0-.19-.05s-.27,0-.45-.1-.11,0-.13,0l-.18,0s-.08-.06-.11-.06-.12-.09-.15-.12-.21,0-.22,0a.9.9,0,0,1,.5-.42.14.14,0,0,0,.13-.11.24.24,0,0,1,.19-.2c.19,0,.38,0,.56-.09a1,1,0,0,0,.42-.16,1,1,0,0,0,.19-1,5,5,0,0,0-.26-.77c-.15-.37-.3-.73-.46-1.1l-.18-.42a1.3,1.3,0,0,0-.08-.18,3.84,3.84,0,0,1-.47-.94.31.31,0,0,0-.32-.26l-.76,0a.31.31,0,0,0-.3.17c-.11.2-.21.41-.3.62-.17.41-.33.82-.49,1.24,0,.1-.12.18-.09.3s0,.07-.06.1a2.07,2.07,0,0,0-.39.65.24.24,0,0,1-.05.13c-.19.16-.13.41-.23.6s-.05.2-.1.28a3,3,0,0,0-.37.78.21.21,0,0,1-.13.11,5.71,5.71,0,0,1-1.26.13c-.23,0-.46,0-.69,0H9a1.81,1.81,0,0,0-.37,0,1.64,1.64,0,0,1-.85-.07c-.29-.09-.31-.15-.08-.37a6.24,6.24,0,0,1,.48-.41.41.41,0,0,1,.18-.06,1.7,1.7,0,0,1,.29,0,1.4,1.4,0,0,0,.79-.27,1,1,0,0,0,.4-.52A2.44,2.44,0,0,0,9.93,22c0-.13,0-.26,0-.39a3.48,3.48,0,0,0,0-.38c0-.13,0-.27,0-.4s0-.53,0-.8.09-.3,0-.45,0-.06,0-.1,0-.33,0-.49,0-.26,0-.39.06-.54.1-.81a.34.34,0,0,0-.09-.29A4.68,4.68,0,0,0,9.51,17a2.23,2.23,0,0,0-.84-.52c-.31-.08-.63-.15-.94-.25a2.19,2.19,0,0,0-.86-.06A.67.67,0,0,1,6.32,16a3.67,3.67,0,0,0-1.2-.71L4.28,15,4,14.86a2.29,2.29,0,0,1-.31-.21c-.09-.07-.08-.15,0-.22l.06,0a3.3,3.3,0,0,1-.1-.35.14.14,0,0,1,.06-.12.16.16,0,0,1,.13,0c.09.08.16.2.29.07h0a.86.86,0,0,0,.59-.24.22.22,0,0,0,0-.4c-.27-.11-.54-.28-.84-.1h0a2.94,2.94,0,0,0-.35,0H3.46a.13.13,0,0,0,0,.06c0,.08-.06.14-.15.12a.17.17,0,0,1-.15-.18,1.05,1.05,0,0,1,0-.14c0-.09,0-.14-.11-.17a.39.39,0,0,1-.25-.47c0-.12.05-.29,0-.37a.66.66,0,0,1-.11-.49.22.22,0,0,1,.09-.17,1.07,1.07,0,0,1,.36-.14c.36,0,.71-.06,1.07-.09s.3-.08.29-.32a.19.19,0,0,1,.11-.2l.78-.39a2.42,2.42,0,0,0,.58-.3,2.48,2.48,0,0,1,1.18-.59,4.82,4.82,0,0,1,1-.06.38.38,0,0,0,.17-.06L9,8.91A.36.36,0,0,1,9.38,9c.16.17.3.36.45.53a1.91,1.91,0,0,0,.24.09h.11a.66.66,0,0,1,.34,0,1.13,1.13,0,0,0,.26,0l.36,0a4.48,4.48,0,0,0,.64-.1c.46-.13.92-.31,1.38-.42a2.25,2.25,0,0,1,1.1,0l.56.17a3.1,3.1,0,0,1,.38.14,4.09,4.09,0,0,0,1.58.38l1.65,0a4.37,4.37,0,0,1,.7.05,9.58,9.58,0,0,0,1.64.2c.17,0,.35,0,.52,0s.43,0,.65.08.55.1.81.16l1.16.32c.23.06.46.11.67.19a6.83,6.83,0,0,1,1.76,1c.15.12.3.23.44.36a2.24,2.24,0,0,1,.33.37c.13.19.36.26.44.49a1,1,0,0,0,.19.25c0,.05.07.14.11.15s.17.13.23.21.12.23.19.33.27.35.37.55.22.49.33.74c0,.08.08.15.11.23s.18.28.16.47a.76.76,0,0,0,0,.25c0,.19.11.38.15.58s.13.64.2,1a.54.54,0,0,0,.1.22,4.3,4.3,0,0,1,.62,1.16c.13.34.29.66.44,1s.22.43.32.64.14.31.2.47a1,1,0,0,1,0,.18c0,.08,0,.16,0,.23a1.16,1.16,0,0,1,0,.64C31.39,22.45,31.35,22.59,31.31,22.73Z"/><path class="cls-2" d="M126.69,27.31h-3.41V7.5a35.45,35.45,0,0,1,4.94-.37c5.21,0,8,2.3,8,6.48a6,6,0,0,1-3.94,5.88l6,7.81h-4.11l-5.28-7h-2.24Zm0-9.85h1.67c2.71,0,4.44-1.17,4.44-3.74,0-2.27-1.57-3.61-4.58-3.61-.4,0-1.17,0-1.54.07Z"/><path class="cls-2" d="M141.79,20.66v.07a4.53,4.53,0,0,0,4.78,4.07,8.41,8.41,0,0,0,5-1.44v2.91a9.42,9.42,0,0,1-5.21,1.37c-4.61,0-7.75-2.94-7.75-7.62s3.07-7.85,7.15-7.85c4.31,0,6.34,2.77,6.34,6.81v1.67ZM149,18.53c-.07-2.3-1.2-3.57-3.34-3.57-1.9,0-3.31,1.34-3.74,3.57Z"/><path class="cls-2" d="M154.21,23.3A7.74,7.74,0,0,0,158.72,25c1.47,0,2.44-.5,2.44-1.67s-.87-1.63-2.77-2.14c-3.07-.7-4.37-1.94-4.37-4.51,0-3,2.27-4.48,5.28-4.48a7.69,7.69,0,0,1,4.24,1.13v3a6.85,6.85,0,0,0-4.14-1.5c-1.44,0-2.2.7-2.2,1.67s.63,1.47,2.34,1.94c3.37.73,4.84,2,4.84,4.68,0,3.11-2.37,4.51-5.58,4.51a8.68,8.68,0,0,1-4.58-1.2Z"/><path class="cls-2" d="M166.67,8a2.07,2.07,0,0,1,4.14,0,2.07,2.07,0,1,1-4.14,0m3.74,19.34H167.1V12.51h3.31Z"/><path class="cls-2" d="M187.14,27a23.63,23.63,0,0,1-5.58.63c-5.14,0-8.55-2.74-8.55-7.71,0-4.78,3.37-7.75,7.91-7.75a7,7,0,0,1,2.94.57V4.6h3.27Zm-3.27-11.36a5.77,5.77,0,0,0-2.74-.57,4.47,4.47,0,0,0-4.78,4.78c0,3.17,2.07,4.94,5.28,4.94a17.6,17.6,0,0,0,2.24-.13Z"/><path class="cls-2" d="M192.95,20.66v.07a4.53,4.53,0,0,0,4.78,4.07,8.4,8.4,0,0,0,5-1.44v2.91a9.42,9.42,0,0,1-5.21,1.37c-4.61,0-7.75-2.94-7.75-7.62s3.07-7.85,7.15-7.85c4.31,0,6.35,2.77,6.35,6.81v1.67Zm7.18-2.14c-.07-2.3-1.2-3.57-3.34-3.57-1.9,0-3.3,1.34-3.74,3.57Z"/><path class="cls-2" d="M205.94,13.45a19.86,19.86,0,0,1,6.78-1.27c3.77,0,6.18,1.44,6.18,5.61v9.52h-3.27V18.09c0-2.14-1.34-2.91-3.17-2.91a11.36,11.36,0,0,0-3.21.44V27.31h-3.31Z"/><path class="cls-2" d="M220.43,12.51h2.24V8.91h3.27v3.61h4.21v2.77h-4.21v7c0,1.77.77,2.37,2,2.37a5.13,5.13,0,0,0,2.71-.83v3a7.72,7.72,0,0,1-3.57.8c-2.41,0-4.44-1.2-4.44-4.57V15.29h-2.24Z"/><path class="cls-2" d="M232.62,8a2.07,2.07,0,0,1,4.14,0,2.07,2.07,0,1,1-4.14,0m3.74,19.34h-3.31V12.51h3.31Z"/><path class="cls-2" d="M247.52,17.39c0-1.6-1.2-2.34-2.84-2.34a8.33,8.33,0,0,0-4.27,1.2V13.38a9.83,9.83,0,0,1,4.81-1.2c3.24,0,5.54,1.34,5.54,5V27a22,22,0,0,1-5.08.6c-3.84,0-6.65-1.17-6.65-4.51,0-3,2.57-4.48,6.85-4.48h1.64Zm0,3.44h-1.4c-2.31,0-3.81.67-3.81,2.17s1.4,2.14,3.41,2.14a11.89,11.89,0,0,0,1.8-.17Z"/><rect class="cls-2" x="254.23" y="4.6" width="3.31" height="22.71"/><polygon class="cls-2" points="266.95 7.47 270.36 7.47 270.36 24.3 278.44 24.3 278.44 27.31 266.95 27.31 266.95 7.47"/><path class="cls-2" d="M280.18,8a2.07,2.07,0,0,1,4.14,0,2.07,2.07,0,1,1-4.14,0m3.74,19.34h-3.31V12.51h3.31Z"/><path class="cls-2" d="M291.4,27.31h-3.27v-12h-2.3V12.51h2.3V9.74c0-3.68,2-5.48,5.11-5.48a5.38,5.38,0,0,1,2.91.73V8a4.28,4.28,0,0,0-2.54-.84c-1.4,0-2.21.7-2.21,2.51v2.8h3.78v2.77H291.4Z"/><path class="cls-2" d="M298.85,20.66v.07a4.53,4.53,0,0,0,4.78,4.07,8.4,8.4,0,0,0,5-1.44v2.91a9.41,9.41,0,0,1-5.21,1.37c-4.61,0-7.75-2.94-7.75-7.62s3.07-7.85,7.15-7.85c4.31,0,6.35,2.77,6.35,6.81v1.67ZM306,18.53c-.07-2.3-1.2-3.57-3.34-3.57-1.9,0-3.31,1.34-3.74,3.57Z"/><path class="cls-1" d="M45.26,21.62a19.55,19.55,0,0,1-.05-2.36L46.33,6.51H50.5L49.36,19.37c-.25,2.78.84,4.77,3.62,4.77s4.34-2,4.59-4.49L58.76,6.51h4.17l-1.15,13c-.46,5-3.78,8.74-9.14,8.74a7.11,7.11,0,0,1-7.38-6.61"/><path class="cls-1" d="M63.74,17.3c.55-6.12,4.67-11.2,11.81-11.2A9.78,9.78,0,0,1,81,7.69l-.48,5.06a6.17,6.17,0,0,0-5.4-2.52c-4.44,0-6.87,3.08-7.22,7s1.63,6.89,5.92,6.89a8,8,0,0,0,6-2.62l-.46,5.19a12,12,0,0,1-5.82,1.6c-7.06,0-10.29-5.24-9.78-11"/><path class="cls-1" d="M83.76,6.51h4.16L86.41,23.82h6c.42,0,1.84,0,2.23,0,0,.21-.38,4-.38,4H81.88Z"/><path class="cls-1" d="M105.45,14.45a5.29,5.29,0,0,0,.31-.89h.07a5,5,0,0,0,.16.9c.23,1,1.85,6.35,1.85,6.35h-5.26l2.87-6.36m1.07-8.92h-.29L94.83,27.78h4.42l1.6-3.37h8l1,3.38h4.41L106.52,5.53"/></g></g></svg>