<svg width="1376" height="401" viewBox="0 0 1376 401" fill="none" xmlns="http://www.w3.org/2000/svg">
<rect width="1376" height="400" transform="translate(0 0.020752)" fill="#181818"/>
<rect x="580" y="140.055" width="36" height="125.954" fill="white"/>
<path fill-rule="evenodd" clip-rule="evenodd" d="M543.451 268.009C580.986 268.009 607.938 235.814 607.938 203.009C607.938 172.023 581.165 138.009 543.451 138.009C507.384 138.009 480 167.111 480 203.009C480 238.908 507.384 268.009 543.451 268.009ZM547.403 235.153C565.895 235.153 580 221.377 580 203.009C580 184.641 565.895 170.864 547.403 170.864C528.91 170.864 514.588 185.256 514.588 203.009C514.588 220.762 528.91 235.153 547.403 235.153Z" fill="white"/>
<path fill-rule="evenodd" clip-rule="evenodd" d="M760.614 175.169L727.649 190.483C723.443 181.01 714.576 173.386 702.584 173.386C685.535 173.386 672.332 186.654 672.332 203.021C672.332 219.388 685.535 232.656 702.584 232.656C714.85 232.656 723.846 225.788 727.929 215.841L760.827 231.353C750.72 253.057 729.034 268.021 702 268.021C665.6 268.021 637 238.919 637 203.021C637 167.122 666.9 138.021 702 138.021C727.355 138.021 749.996 153.206 760.614 175.169Z" fill="white"/>
<rect x="781" y="140.03" width="36" height="125.999" fill="white"/>
<path d="M861 189.03L897 186.03V266.03H861V189.03Z" fill="white"/>
<path d="M941 189.03L977 186.03V266.03H941V189.03Z" fill="white"/>
<path d="M849.264 138.021C881.122 138.021 896.999 162.429 896.999 188.021L860.999 194.714C860.999 183.647 850.999 173.685 838.999 173.685C826.999 173.685 816.999 184.028 816.999 196.028L807.465 182.571C803.712 173.685 817.312 138.021 849.264 138.021Z" fill="white"/>
<path d="M929.264 138.021C961.122 138.021 976.999 162.429 976.999 188.021L940.999 194.714C940.999 183.647 930.999 173.685 918.999 173.685C906.999 173.685 896.999 184.028 896.999 196.028L887.465 182.571C883.712 173.685 897.312 138.021 929.264 138.021Z" fill="white"/>
<path d="M929.264 138.021C961.122 138.021 977 162.429 977 188.021L941 191.021C941 179.954 931 171.021 919 171.021C907 171.021 897 179.021 897 191.021L879 172.021C887 154.021 897.313 138.021 929.264 138.021Z" fill="white"/>
<circle cx="1032.45" cy="242.475" r="23.4539" fill="white"/>
<path fill-rule="evenodd" clip-rule="evenodd" d="M296.569 56.6072C265.327 25.3653 214.674 25.3652 183.432 56.6072L96.569 143.47C65.3271 174.712 65.3271 225.365 96.569 256.607L183.432 343.47C214.674 374.712 265.327 374.712 296.569 343.47L383.432 256.607C414.674 225.365 414.674 174.712 383.432 143.47L296.569 56.6072ZM278.48 263.098C278.48 272.454 270.896 280.038 261.54 280.038C252.184 280.038 244.6 272.454 244.6 263.098V239.904C244.549 237.396 242.501 235.379 239.981 235.379C237.429 235.379 235.361 237.447 235.361 239.999V164.539H235.362V164.539C235.362 167.091 237.43 169.159 239.982 169.159C242.486 169.159 244.525 167.167 244.6 164.68V142.978C244.6 133.622 252.184 126.038 261.54 126.038C270.896 126.038 278.48 133.622 278.48 142.978V263.098ZM201.48 142.979C201.48 133.623 209.064 126.039 218.42 126.039C227.776 126.039 235.36 133.623 235.36 142.979V263.099C235.36 272.454 227.776 280.039 218.42 280.039C209.064 280.039 201.48 272.454 201.48 263.099V230.616C201.405 228.131 199.366 226.139 196.862 226.139C194.311 226.139 192.242 228.207 192.242 230.759V230.759H192.242V189.179H192.242C192.242 191.73 194.311 193.799 196.862 193.799C199.364 193.799 201.401 191.811 201.48 189.329V142.979ZM175.301 164.539C165.945 164.539 158.361 172.123 158.361 181.479V230.759C158.361 240.114 165.945 247.699 175.301 247.699C184.656 247.699 192.241 240.114 192.241 230.759V181.479C192.241 172.123 184.656 164.539 175.301 164.539ZM287.72 216.811V224.599C287.72 233.954 295.304 241.539 304.66 241.539C314.016 241.539 321.6 233.954 321.6 224.599V175.319C321.6 165.963 314.016 158.379 304.66 158.379C295.304 158.379 287.72 165.963 287.72 175.319V175.409C287.672 177.919 285.622 179.939 283.101 179.939C280.549 179.939 278.481 177.87 278.481 175.319V216.876C278.493 214.335 280.557 212.279 283.101 212.279C285.623 212.279 287.673 214.3 287.72 216.811Z" fill="white"/>
<path fill-rule="evenodd" clip-rule="evenodd" d="M261.541 135.279C257.289 135.279 253.841 138.726 253.841 142.979C253.841 146.042 255.63 148.688 258.22 149.928V181.095C258.22 191.168 250.054 199.335 239.98 199.335C228.649 199.335 219.088 206.909 216.082 217.271C211.519 211.725 204.603 208.189 196.86 208.189C186.787 208.189 178.62 200.023 178.62 189.949V188.428C181.211 187.188 183 184.542 183 181.479C183 177.226 179.552 173.779 175.3 173.779C171.047 173.779 167.6 177.226 167.6 181.479C167.6 184.543 169.389 187.189 171.98 188.428V189.949C171.98 203.69 183.12 214.829 196.86 214.829C206.912 214.829 215.065 222.96 215.1 233.004V256.149C212.51 257.389 210.721 260.035 210.721 263.099C210.721 267.351 214.168 270.799 218.421 270.799C222.673 270.799 226.121 267.351 226.121 263.099C226.121 260.035 224.331 257.389 221.74 256.149V233.069C221.74 233.043 221.74 233.018 221.74 232.993V224.215C221.74 214.141 229.907 205.975 239.98 205.975C251.521 205.975 261.227 198.117 264.039 187.459C268.603 192.894 275.448 196.349 283.1 196.349C293.174 196.349 301.34 204.515 301.34 214.589V217.65C298.75 218.889 296.96 221.535 296.96 224.599C296.96 228.852 300.408 232.299 304.66 232.299C308.913 232.299 312.36 228.852 312.36 224.599C312.36 221.535 310.571 218.89 307.98 217.65V214.589C307.98 200.848 296.841 189.709 283.1 189.709C273.027 189.709 264.86 181.542 264.86 171.469V149.929C267.452 148.689 269.241 146.043 269.241 142.979C269.241 138.726 265.794 135.279 261.541 135.279Z" fill="white"/>
<rect x="1188" y="140.055" width="36" height="125.954" fill="white"/>
<path fill-rule="evenodd" clip-rule="evenodd" d="M1151.45 268.009C1188.99 268.009 1215.94 235.814 1215.94 203.009C1215.94 172.023 1189.17 138.009 1151.45 138.009C1115.38 138.009 1088 167.111 1088 203.009C1088 238.908 1115.38 268.009 1151.45 268.009ZM1155.4 235.153C1173.9 235.153 1188 221.377 1188 203.009C1188 184.641 1173.9 170.864 1155.4 170.864C1136.91 170.864 1122.59 185.256 1122.59 203.009C1122.59 220.762 1136.91 235.153 1155.4 235.153Z" fill="white"/>
<rect x="1252" y="139.989" width="36" height="126.324" fill="white"/>
<circle cx="1270" cy="100.021" r="22" fill="white"/>
<g style="mix-blend-mode:darken">
<rect x="1088" y="54.0208" width="226" height="273" fill="url(#paint0_linear)"/>
</g>
<defs>
<linearGradient id="paint0_linear" x1="1094.12" y1="312.59" x2="1317.42" y2="276.648" gradientUnits="userSpaceOnUse">
<stop stop-color="#28B2FF"/>
<stop offset="1" stop-color="#2EE5FF"/>
</linearGradient>
</defs>
</svg>
