<svg width="1376" height="400" viewBox="0 0 1376 400" fill="none" xmlns="http://www.w3.org/2000/svg">
<g clip-path="url(#clip0)">
<rect x="580" y="140.034" width="36" height="125.954" fill="black"/>
<path fill-rule="evenodd" clip-rule="evenodd" d="M543.451 267.988C580.986 267.988 607.938 235.793 607.938 202.988C607.938 172.002 581.165 137.988 543.451 137.988C507.384 137.988 480 167.09 480 202.988C480 238.887 507.384 267.988 543.451 267.988ZM547.403 235.133C565.895 235.133 580 221.356 580 202.988C580 184.62 565.895 170.843 547.403 170.843C528.91 170.843 514.588 185.235 514.588 202.988C514.588 220.741 528.91 235.133 547.403 235.133Z" fill="black"/>
<path fill-rule="evenodd" clip-rule="evenodd" d="M760.614 175.148L727.649 190.462C723.443 180.989 714.576 173.365 702.584 173.365C685.535 173.365 672.332 186.633 672.332 203C672.332 219.367 685.535 232.635 702.584 232.635C714.85 232.635 723.846 225.768 727.929 215.82L760.827 231.332C750.72 253.036 729.034 268 702 268C665.6 268 637 238.899 637 203C637 167.101 666.9 138 702 138C727.355 138 749.996 153.185 760.614 175.148Z" fill="black"/>
<rect x="781" y="140.01" width="36" height="125.999" fill="black"/>
<path d="M861 189.009L897 186.009V266.009H861V189.009Z" fill="black"/>
<path d="M941 189.009L977 186.009V266.009H941V189.009Z" fill="black"/>
<path d="M849.264 138C881.122 138 896.999 162.408 896.999 188L860.999 194.693C860.999 183.626 850.999 173.664 838.999 173.664C826.999 173.664 816.999 184.007 816.999 196.007L807.465 182.551C803.712 173.664 817.312 138 849.264 138Z" fill="black"/>
<path d="M929.264 138C961.122 138 976.999 162.408 976.999 188L940.999 194.693C940.999 183.626 930.999 173.664 918.999 173.664C906.999 173.664 896.999 184.007 896.999 196.007L887.465 182.551C883.712 173.664 897.312 138 929.264 138Z" fill="black"/>
<path d="M929.264 138C961.122 138 977 162.408 977 188L941 191C941 179.933 931 171 919 171C907 171 897 179 897 191L879 172C887 154 897.313 138 929.264 138Z" fill="black"/>
<circle cx="1032.45" cy="242.454" r="23.4539" fill="black"/>
<path d="M211.737 287.237C211.737 297.452 203.397 302 193.101 302C182.804 302 174.465 297.452 174.465 287.237C174.465 278.066 178.409 286.64 193.101 286.64C207.793 286.64 211.737 278.55 211.737 287.237Z" fill="white"/>
<rect x="240" y="0.0175781" width="282.843" height="282.843" rx="80" transform="rotate(45 240 0.0175781)" fill="#28B2FF"/>
<path fill-rule="evenodd" clip-rule="evenodd" d="M201.481 189.237C201.438 191.752 199.387 193.777 196.862 193.777C194.31 193.777 192.242 191.709 192.242 189.157H192.241V230.737H192.242C192.242 230.737 192.242 230.737 192.242 230.737C192.242 228.185 194.31 226.117 196.862 226.117C199.392 226.117 201.447 228.151 201.481 230.673V189.237Z" fill="white"/>
<path fill-rule="evenodd" clip-rule="evenodd" d="M287.72 175.298C287.72 177.849 285.652 179.918 283.1 179.918C280.549 179.918 278.481 177.849 278.48 175.298V216.855C278.493 214.314 280.556 212.258 283.1 212.258C285.652 212.258 287.72 214.326 287.72 216.878C287.72 216.878 287.72 216.878 287.72 216.878H287.72V175.298Z" fill="white"/>
<path fill-rule="evenodd" clip-rule="evenodd" d="M244.6 164.627C244.543 167.128 242.497 169.138 239.982 169.138C237.43 169.138 235.362 167.07 235.362 164.518C235.362 164.518 235.362 164.518 235.362 164.518H235.36V239.978L235.36 239.978C235.36 237.426 237.429 235.358 239.98 235.358C242.522 235.358 244.584 237.41 244.6 239.948V164.627Z" fill="white"/>
<rect x="158.36" y="164.518" width="33.88" height="83.16" rx="16.94" fill="white"/>
<rect x="201.479" y="126.018" width="33.88" height="154" rx="16.94" fill="white"/>
<rect x="321.6" y="241.518" width="33.88" height="83.16" rx="16.94" transform="rotate(-180 321.6 241.518)" fill="white"/>
<rect x="278.479" y="280.018" width="33.88" height="154" rx="16.94" transform="rotate(-180 278.479 280.018)" fill="white"/>
<path fill-rule="evenodd" clip-rule="evenodd" d="M261.541 135.258C257.289 135.258 253.841 138.705 253.841 142.958C253.841 146.021 255.63 148.667 258.22 149.907V181.073C258.22 191.147 250.054 199.313 239.98 199.313C228.649 199.313 219.088 206.888 216.082 217.25C211.519 211.704 204.603 208.168 196.86 208.168C186.787 208.168 178.62 200.001 178.62 189.928V188.406C181.211 187.166 183 184.521 183 181.457C183 177.205 179.552 173.757 175.3 173.757C171.047 173.757 167.6 177.205 167.6 181.457C167.6 184.522 169.389 187.168 171.98 188.407V189.928C171.98 203.669 183.12 214.808 196.86 214.808C206.912 214.808 215.065 222.939 215.1 232.982V256.128C212.51 257.368 210.721 260.014 210.721 263.078C210.721 267.33 214.168 270.778 218.421 270.778C222.673 270.778 226.121 267.33 226.121 263.078C226.121 260.014 224.331 257.368 221.74 256.128V233.048C221.74 233.022 221.74 232.997 221.74 232.971V224.193C221.74 214.12 229.907 205.953 239.98 205.953C251.521 205.953 261.227 198.096 264.039 187.438C268.603 192.873 275.448 196.328 283.1 196.328C293.174 196.328 301.34 204.494 301.34 214.568V217.628C298.75 218.868 296.96 221.514 296.96 224.578C296.96 228.831 300.408 232.278 304.66 232.278C308.913 232.278 312.36 228.831 312.36 224.578C312.36 221.514 310.571 218.868 307.98 217.629V214.568C307.98 200.827 296.841 189.688 283.1 189.688C273.027 189.688 264.86 181.521 264.86 171.448V149.908C267.452 148.668 269.241 146.022 269.241 142.958C269.241 138.705 265.794 135.258 261.541 135.258Z" fill="#28B2FF"/>
<mask id="mask0" mask-type="alpha" maskUnits="userSpaceOnUse" x="1088" y="78" width="204" height="190">
<rect x="1188" y="140.034" width="36" height="125.954" fill="black"/>
<path fill-rule="evenodd" clip-rule="evenodd" d="M1151.45 267.988C1188.99 267.988 1215.94 235.793 1215.94 202.988C1215.94 172.002 1189.17 137.988 1151.45 137.988C1115.38 137.988 1088 167.09 1088 202.988C1088 238.887 1115.38 267.988 1151.45 267.988ZM1155.4 235.133C1173.9 235.133 1188 221.356 1188 202.988C1188 184.62 1173.9 170.843 1155.4 170.843C1136.91 170.843 1122.59 185.235 1122.59 202.988C1122.59 220.741 1136.91 235.133 1155.4 235.133Z" fill="black"/>
<rect x="1252" y="139.969" width="36" height="126.324" fill="black"/>
<circle cx="1270" cy="100" r="22" fill="black"/>
</mask>
<g mask="url(#mask0)">
<rect x="1075" y="38" width="226" height="273" fill="url(#paint0_linear)"/>
</g>
</g>
<defs>
<linearGradient id="paint0_linear" x1="1081.12" y1="296.569" x2="1304.42" y2="260.627" gradientUnits="userSpaceOnUse">
<stop stop-color="#28B2FF"/>
<stop offset="1" stop-color="#2EE5FF"/>
</linearGradient>
<clipPath id="clip0">
<rect width="1376" height="400" fill="white"/>
</clipPath>
</defs>
</svg>
