<svg width="753" height="173" viewBox="0 0 753 173" fill="none" xmlns="http://www.w3.org/2000/svg">
<rect x="86.6416" y="0.624756" width="121.38" height="121.38" rx="33.1422" transform="rotate(45 86.6416 0.624756)" fill="#1E6CFF"/>
<rect x="55.7388" y="74.804" width="7.49164" height="26.2112" fill="white"/>
<path fill-rule="evenodd" clip-rule="evenodd" d="M48.133 101.431C55.944 101.431 61.5528 94.7315 61.5528 87.9048C61.5528 81.4565 55.9814 74.3782 48.133 74.3782C40.6273 74.3782 34.9287 80.4342 34.9287 87.9047C34.9287 95.3753 40.6273 101.431 48.133 101.431ZM48.9555 94.5939C52.8039 94.5939 55.7391 91.7269 55.7391 87.9045C55.7391 84.0821 52.8039 81.2152 48.9555 81.2152C45.1071 81.2152 42.1268 84.2101 42.1268 87.9045C42.1268 91.5989 45.1071 94.5939 48.9555 94.5939Z" fill="white"/>
<path fill-rule="evenodd" clip-rule="evenodd" d="M93.3247 82.1111L86.4648 85.2979C85.5896 83.3266 83.7444 81.7402 81.249 81.7402C77.7011 81.7402 74.9534 84.5013 74.9534 87.9072C74.9534 91.3132 77.7011 94.0743 81.249 94.0743C83.8014 94.0743 85.6736 92.6452 86.5233 90.5751L93.3691 93.8031C91.2659 98.3197 86.7529 101.434 81.1272 101.434C73.5523 101.434 67.6006 95.3777 67.6006 87.9072C67.6006 80.4367 73.8228 74.3806 81.1272 74.3806C86.4035 74.3806 91.1151 77.5406 93.3247 82.1111Z" fill="white"/>
<rect x="97.5669" y="74.7988" width="7.49164" height="26.2205" fill="white"/>
<path d="M114.215 84.9956L121.707 84.3713V101.019H114.215V84.9956Z" fill="white"/>
<path d="M130.863 84.9956L138.355 84.3713V101.019H130.863V84.9956Z" fill="white"/>
<path d="M111.774 74.3806C118.403 74.3806 121.707 79.46 121.707 84.7857L114.216 86.1785C114.216 83.8755 112.135 81.8023 109.638 81.8023C107.14 81.8023 105.059 83.9548 105.059 86.452L103.075 83.6517C102.294 81.8023 105.124 74.3806 111.774 74.3806Z" fill="white"/>
<path d="M128.421 74.3806C135.051 74.3806 138.355 79.46 138.355 84.7857L130.864 86.1785C130.864 83.8755 128.783 81.8023 126.285 81.8023C123.788 81.8023 121.707 83.9548 121.707 86.452L119.723 83.6517C118.942 81.8023 121.772 74.3806 128.421 74.3806Z" fill="white"/>
<path d="M128.422 74.3806C135.051 74.3806 138.355 79.46 138.355 84.7857L130.864 85.41C130.864 83.107 128.783 81.248 126.285 81.248C123.788 81.248 121.707 82.9128 121.707 85.41L117.961 81.4561C119.626 77.7102 121.772 74.3806 128.422 74.3806Z" fill="white"/>
<path d="M629.4 65.4519H644.81V119.366H629.4V65.4519Z" fill="#1E6CFF"/>
<path d="M629.4 65.4519H644.81V119.366H629.4V65.4519Z" fill="url(#paint0_linear)"/>
<path fill-rule="evenodd" clip-rule="evenodd" d="M613.755 120.223C629.822 120.223 641.359 106.441 641.359 92.3994C641.359 79.1358 629.899 64.5761 613.755 64.5761C598.317 64.5761 586.595 77.033 586.595 92.3994C586.595 107.766 598.317 120.223 613.755 120.223ZM629.4 92.3994C629.4 100.262 623.362 106.159 615.447 106.159C607.531 106.159 601.4 99.9985 601.4 92.3994C601.4 84.8002 607.531 78.6398 615.447 78.6398C623.362 78.6398 629.4 84.537 629.4 92.3994Z" fill="#1E6CFF"/>
<path fill-rule="evenodd" clip-rule="evenodd" d="M613.755 120.223C629.822 120.223 641.359 106.441 641.359 92.3994C641.359 79.1358 629.899 64.5761 613.755 64.5761C598.317 64.5761 586.595 77.033 586.595 92.3994C586.595 107.766 598.317 120.223 613.755 120.223ZM629.4 92.3994C629.4 100.262 623.362 106.159 615.447 106.159C607.531 106.159 601.4 99.9985 601.4 92.3994C601.4 84.8002 607.531 78.6398 615.447 78.6398C623.362 78.6398 629.4 84.537 629.4 92.3994Z" fill="url(#paint1_linear)"/>
<path d="M668.083 72.8814L668.083 97.1665C668.083 89.4897 673.679 82.2542 684.959 82.2542H687.279V65.1693C686.119 65.0742 684.887 65.025 683.58 65.025C676.408 65.025 671.442 68.3995 668.083 72.8814Z" fill="#1E6CFF"/>
<path d="M668.083 72.8814L668.083 97.1665C668.083 89.4897 673.679 82.2542 684.959 82.2542H687.279V65.1693C686.119 65.0742 684.887 65.025 683.58 65.025C676.408 65.025 671.442 68.3995 668.083 72.8814Z" fill="url(#paint2_linear)"/>
<path d="M668.083 65.8262H652.674V119.772H668.083L668.083 97.1665L662.091 88.2888C662.737 83.735 664.491 77.6749 668.083 72.8814V65.8262Z" fill="#1E6CFF"/>
<path d="M668.083 65.8262H652.674V119.772H668.083L668.083 97.1665L662.091 88.2888C662.737 83.735 664.491 77.6749 668.083 72.8814V65.8262Z" fill="url(#paint3_linear)"/>
<path d="M662.091 88.2888L668.083 97.1665L668.083 72.8814C664.491 77.6749 662.737 83.735 662.091 88.2888Z" fill="#1E6CFF"/>
<path d="M662.091 88.2888L668.083 97.1665L668.083 72.8814C664.491 77.6749 662.737 83.735 662.091 88.2888Z" fill="url(#paint4_linear)"/>
<path d="M474.966 40.61H459.557V119.371H474.966V93.3658V91.432V40.61Z" fill="#1E6CFF"/>
<path d="M474.966 40.61H459.557V119.371H474.966V93.3658V91.432V40.61Z" fill="url(#paint5_linear)"/>
<path fill-rule="evenodd" clip-rule="evenodd" d="M490.58 120.222C474.514 120.222 462.977 106.441 462.977 92.3989C462.977 79.1354 474.437 64.5757 490.58 64.5757C506.019 64.5757 517.741 77.0326 517.741 92.3989C517.741 107.765 506.019 120.222 490.58 120.222ZM474.966 93.3658V91.432C475.439 84.0579 481.301 78.6394 488.889 78.6394C496.805 78.6394 502.935 84.7997 502.935 92.3989C502.935 99.9981 496.805 106.158 488.889 106.158C481.301 106.158 475.439 100.74 474.966 93.3658Z" fill="#1E6CFF"/>
<path fill-rule="evenodd" clip-rule="evenodd" d="M490.58 120.222C474.514 120.222 462.977 106.441 462.977 92.3989C462.977 79.1354 474.437 64.5757 490.58 64.5757C506.019 64.5757 517.741 77.0326 517.741 92.3989C517.741 107.765 506.019 120.222 490.58 120.222ZM474.966 93.3658V91.432C475.439 84.0579 481.301 78.6394 488.889 78.6394C496.805 78.6394 502.935 84.7997 502.935 92.3989C502.935 99.9981 496.805 106.158 488.889 106.158C481.301 106.158 475.439 100.74 474.966 93.3658Z" fill="url(#paint6_linear)"/>
<path d="M736.324 40.61H752.067V119.371H736.324V93.3662V91.4315V40.61Z" fill="#1E6CFF"/>
<path d="M736.324 40.61H752.067V119.371H736.324V93.3662V91.4315V40.61Z" fill="url(#paint7_linear)"/>
<path fill-rule="evenodd" clip-rule="evenodd" d="M720.372 120.222C736.786 120.222 748.573 106.441 748.573 92.3989C748.573 79.1353 736.865 64.5756 720.372 64.5756C704.599 64.5756 692.624 77.0325 692.624 92.3989C692.624 107.765 704.599 120.222 720.372 120.222ZM722.1 78.6393C729.852 78.6393 735.841 84.0577 736.324 91.4315V93.3662C735.841 100.74 729.852 106.158 722.1 106.158C714.013 106.158 707.75 99.998 707.75 92.3989C707.75 84.7997 714.013 78.6393 722.1 78.6393Z" fill="#1E6CFF"/>
<path fill-rule="evenodd" clip-rule="evenodd" d="M720.372 120.222C736.786 120.222 748.573 106.441 748.573 92.3989C748.573 79.1353 736.865 64.5756 720.372 64.5756C704.599 64.5756 692.624 77.0325 692.624 92.3989C692.624 107.765 704.599 120.222 720.372 120.222ZM722.1 78.6393C729.852 78.6393 735.841 84.0577 736.324 91.4315V93.3662C735.841 100.74 729.852 106.158 722.1 106.158C714.013 106.158 707.75 99.998 707.75 92.3989C707.75 84.7997 714.013 78.6393 722.1 78.6393Z" fill="url(#paint8_linear)"/>
<path fill-rule="evenodd" clip-rule="evenodd" d="M552.168 120.223C568.306 120.223 579.991 107.766 579.991 92.3993C579.991 77.033 567.193 64.5761 552.168 64.5761C537.144 64.5761 524.345 77.033 524.345 92.3993C524.345 107.766 536.587 120.223 552.168 120.223ZM552.168 106.288C560.224 106.288 566.057 100.07 566.057 92.3993C566.057 84.7287 559.668 78.5104 552.168 78.5104C544.668 78.5104 538.279 84.7287 538.279 92.3993C538.279 100.07 544.39 106.288 552.168 106.288Z" fill="#1E6CFF"/>
<path fill-rule="evenodd" clip-rule="evenodd" d="M552.168 120.223C568.306 120.223 579.991 107.766 579.991 92.3993C579.991 77.033 567.193 64.5761 552.168 64.5761C537.144 64.5761 524.345 77.033 524.345 92.3993C524.345 107.766 536.587 120.223 552.168 120.223ZM552.168 106.288C560.224 106.288 566.057 100.07 566.057 92.3993C566.057 84.7287 559.668 78.5104 552.168 78.5104C544.668 78.5104 538.279 84.7287 538.279 92.3993C538.279 100.07 544.39 106.288 552.168 106.288Z" fill="url(#paint9_linear)"/>
<path d="M242.02 65.6053H257.385V119.364H242.02V65.6053Z" fill="black"/>
<path fill-rule="evenodd" clip-rule="evenodd" d="M226.421 120.217C242.441 120.217 253.944 106.476 253.944 92.4748C253.944 79.2496 242.517 64.7321 226.421 64.7321C211.027 64.7321 199.339 77.1529 199.339 92.4748C199.339 107.797 211.027 120.217 226.421 120.217ZM228.107 106.194C236 106.194 242.02 100.314 242.02 92.4746C242.02 84.635 236 78.7549 228.107 78.7549C220.214 78.7549 214.101 84.8974 214.101 92.4746C214.101 100.052 220.214 106.194 228.107 106.194Z" fill="black"/>
<path fill-rule="evenodd" clip-rule="evenodd" d="M319.108 80.5923L305.038 87.1284C303.243 83.0854 299.458 79.8314 294.34 79.8314C287.064 79.8314 281.428 85.4943 281.428 92.4799C281.428 99.4654 287.064 105.128 294.34 105.128C299.575 105.128 303.415 102.197 305.158 97.9516L319.199 104.572C314.885 113.836 305.629 120.223 294.091 120.223C278.555 120.223 266.348 107.802 266.348 92.4799C266.348 77.158 279.11 64.7372 294.091 64.7372C304.912 64.7372 314.576 71.2183 319.108 80.5923Z" fill="black"/>
<path d="M327.809 65.5946H343.174V119.372H327.809V65.5946Z" fill="black"/>
<path d="M361.954 86.5082L377.319 85.2278V119.373H361.954V86.5082Z" fill="black"/>
<path d="M396.098 86.5082L411.463 85.2278V119.373H396.098V86.5082Z" fill="black"/>
<path d="M356.944 64.7371C370.542 64.7371 377.318 75.1547 377.318 86.0776L361.953 88.9343C361.953 84.2109 357.685 79.9588 352.563 79.9588C347.442 79.9588 343.173 84.3735 343.173 89.4952L339.104 83.7518C337.502 79.9588 343.307 64.7371 356.944 64.7371Z" fill="black"/>
<path d="M391.089 64.7371C404.687 64.7371 411.463 75.1547 411.463 86.0776L396.098 88.9343C396.098 84.2109 391.83 79.9588 386.708 79.9588C381.587 79.9588 377.318 84.3735 377.318 89.4952L373.249 83.7518C371.647 79.9588 377.452 64.7371 391.089 64.7371Z" fill="black"/>
<path d="M391.09 64.7371C404.687 64.7371 411.464 75.1547 411.464 86.0776L396.098 87.358C396.098 82.6346 391.83 78.8218 386.709 78.8218C381.587 78.8218 377.319 82.2363 377.319 87.358L369.636 79.2486C373.051 71.566 377.452 64.7371 391.09 64.7371Z" fill="black"/>
<path d="M445.142 109.319C445.142 114.848 440.661 119.33 435.132 119.33C429.603 119.33 425.122 114.848 425.122 109.319C425.122 103.791 429.603 99.3088 435.132 99.3088C440.661 99.3088 445.142 103.791 445.142 109.319Z" fill="black"/>
<defs>
<linearGradient id="paint0_linear" x1="752.067" y1="40.61" x2="459.557" y2="142.125" gradientUnits="userSpaceOnUse">
<stop stop-color="#298CFF"/>
<stop offset="1" stop-color="#0F52FF"/>
</linearGradient>
<linearGradient id="paint1_linear" x1="752.067" y1="40.61" x2="459.557" y2="142.125" gradientUnits="userSpaceOnUse">
<stop stop-color="#298CFF"/>
<stop offset="1" stop-color="#0F52FF"/>
</linearGradient>
<linearGradient id="paint2_linear" x1="752.067" y1="40.61" x2="459.557" y2="142.125" gradientUnits="userSpaceOnUse">
<stop stop-color="#298CFF"/>
<stop offset="1" stop-color="#0F52FF"/>
</linearGradient>
<linearGradient id="paint3_linear" x1="752.067" y1="40.61" x2="459.557" y2="142.125" gradientUnits="userSpaceOnUse">
<stop stop-color="#298CFF"/>
<stop offset="1" stop-color="#0F52FF"/>
</linearGradient>
<linearGradient id="paint4_linear" x1="752.067" y1="40.61" x2="459.557" y2="142.125" gradientUnits="userSpaceOnUse">
<stop stop-color="#298CFF"/>
<stop offset="1" stop-color="#0F52FF"/>
</linearGradient>
<linearGradient id="paint5_linear" x1="752.067" y1="40.61" x2="459.557" y2="142.125" gradientUnits="userSpaceOnUse">
<stop stop-color="#298CFF"/>
<stop offset="1" stop-color="#0F52FF"/>
</linearGradient>
<linearGradient id="paint6_linear" x1="752.067" y1="40.61" x2="459.557" y2="142.125" gradientUnits="userSpaceOnUse">
<stop stop-color="#298CFF"/>
<stop offset="1" stop-color="#0F52FF"/>
</linearGradient>
<linearGradient id="paint7_linear" x1="752.067" y1="40.61" x2="459.557" y2="142.125" gradientUnits="userSpaceOnUse">
<stop stop-color="#298CFF"/>
<stop offset="1" stop-color="#0F52FF"/>
</linearGradient>
<linearGradient id="paint8_linear" x1="752.067" y1="40.61" x2="459.557" y2="142.125" gradientUnits="userSpaceOnUse">
<stop stop-color="#298CFF"/>
<stop offset="1" stop-color="#0F52FF"/>
</linearGradient>
<linearGradient id="paint9_linear" x1="752.067" y1="40.61" x2="459.557" y2="142.125" gradientUnits="userSpaceOnUse">
<stop stop-color="#298CFF"/>
<stop offset="1" stop-color="#0F52FF"/>
</linearGradient>
</defs>
</svg>
