<svg width="1771" height="386" viewBox="0 0 1771 386" fill="none" xmlns="http://www.w3.org/2000/svg">
<rect width="1770" height="385" transform="translate(0.810303 0.51001)" fill="white"/>
<path d="M539.713 129.724H575.713V255.678H539.713V129.724Z" fill="black"/>
<path fill-rule="evenodd" clip-rule="evenodd" d="M503.164 257.678C540.699 257.678 567.651 225.483 567.651 192.678C567.651 161.692 540.878 127.678 503.164 127.678C467.096 127.678 439.712 156.779 439.712 192.678C439.712 228.577 467.096 257.678 503.164 257.678ZM507.115 224.823C525.608 224.823 539.713 211.046 539.713 192.678C539.713 174.31 525.608 160.533 507.115 160.533C488.622 160.533 474.301 174.925 474.301 192.678C474.301 210.431 488.622 224.823 507.115 224.823Z" fill="black"/>
<path fill-rule="evenodd" clip-rule="evenodd" d="M720.327 164.838L687.361 180.152C683.156 170.679 674.288 163.055 662.297 163.055C645.248 163.055 632.045 176.323 632.045 192.69C632.045 209.057 645.248 222.325 662.297 222.325C674.562 222.325 683.559 215.458 687.642 205.51L720.54 221.022C710.433 242.726 688.747 257.69 661.713 257.69C625.312 257.69 596.712 228.589 596.712 192.69C596.712 156.791 626.613 127.69 661.713 127.69C687.067 127.69 709.709 142.875 720.327 164.838Z" fill="black"/>
<path d="M740.714 129.699H776.714V255.698H740.714V129.699Z" fill="black"/>
<path d="M820.714 178.699L856.714 175.699V255.699H820.714V178.699Z" fill="black"/>
<path d="M900.714 178.699L936.714 175.699V255.699H900.714V178.699Z" fill="black"/>
<path d="M808.978 127.69C840.836 127.69 856.713 152.098 856.713 177.69L820.713 184.383C820.713 173.316 810.713 163.354 798.713 163.354C786.713 163.354 776.713 173.697 776.713 185.697L767.178 172.241C763.426 163.354 777.026 127.69 808.978 127.69Z" fill="black"/>
<path d="M888.978 127.69C920.836 127.69 936.713 152.098 936.713 177.69L900.713 184.383C900.713 173.316 890.713 163.354 878.713 163.354C866.713 163.354 856.713 173.697 856.713 185.697L847.178 172.241C843.426 163.354 857.026 127.69 888.978 127.69Z" fill="black"/>
<path d="M888.979 127.69C920.837 127.69 936.714 152.098 936.714 177.69L900.714 180.69C900.714 169.623 890.714 160.69 878.714 160.69C866.714 160.69 856.714 168.69 856.714 180.69L838.714 161.69C846.714 143.69 857.027 127.69 888.979 127.69Z" fill="black"/>
<path d="M1015.62 232.144C1015.62 245.097 1005.12 255.598 992.168 255.598C979.215 255.598 968.714 245.097 968.714 232.144C968.714 219.19 979.215 208.69 992.168 208.69C1005.12 208.69 1015.62 219.19 1015.62 232.144Z" fill="black"/>
<mask id="mask0_345_3287" style="mask-type:alpha" maskUnits="userSpaceOnUse" x="1030" y="64" width="689" height="197">
<path d="M1065.62 249.784L1065.63 249.791L1065.65 249.799C1076.03 255.719 1087.29 258.679 1099.42 258.679C1113.09 258.679 1125.32 255.38 1136.07 248.751L1136.07 248.746L1136.08 248.742C1146.8 241.959 1154.99 232.987 1160.61 221.844L1161.31 220.472L1159.92 219.813L1134.12 207.553L1132.69 206.873L1132.09 208.34C1129.64 214.31 1125.5 218.905 1119.59 222.152C1113.64 225.424 1106.93 227.074 1099.42 227.074C1088.94 227.074 1080.58 223.716 1074.19 217.071C1067.95 210.403 1064.79 201.933 1064.79 191.541C1064.79 181.144 1067.95 172.766 1074.18 166.274C1080.57 159.623 1088.93 156.263 1099.42 156.263C1106.83 156.263 1113.18 157.991 1118.54 161.393C1123.91 164.797 1128.36 169.934 1131.88 176.893L1132.54 178.211L1133.87 177.566L1160.19 164.796L1161.56 164.131L1160.87 162.77C1155.07 151.286 1146.63 142.06 1135.57 135.107C1124.66 128.141 1112.59 124.658 1099.42 124.658C1087.62 124.658 1076.53 127.71 1066.15 133.798C1055.79 139.715 1047.52 147.815 1041.37 158.078C1035.21 168.358 1032.12 179.522 1032.12 191.541C1032.12 203.718 1035.11 214.962 1041.1 225.243L1041.1 225.251L1041.11 225.259C1047.25 235.515 1055.43 243.696 1065.62 249.784ZM1243.83 230.873V229.373H1242.33C1236.88 229.373 1233.14 229.205 1231.01 228.89C1229.42 228.479 1228.36 227.594 1227.71 226.182C1226.98 224.432 1226.54 221.295 1226.54 216.57V67.6703V66.1703H1225.04H1195.37H1193.87V67.6703V216.57C1193.87 230.319 1196.46 240.63 1201.96 247.163L1201.97 247.171L1201.98 247.179C1207.52 253.582 1216.1 256.636 1227.36 256.636C1231.42 256.636 1236.48 256.201 1242.54 255.344L1243.83 255.162V253.859V230.873ZM1296.05 249.784L1296.06 249.789C1306.44 255.885 1317.71 258.935 1329.84 258.935C1342.14 258.935 1353.42 255.888 1363.64 249.786C1374 243.7 1382.18 235.517 1388.16 225.252C1394.32 214.97 1397.4 203.723 1397.4 191.541C1397.4 179.527 1394.32 168.367 1388.16 158.091C1382.18 147.655 1374 139.466 1363.63 133.546C1353.41 127.448 1342.14 124.402 1329.84 124.402C1317.71 124.402 1306.44 127.451 1296.06 133.546C1285.86 139.469 1277.76 147.663 1271.78 158.1C1265.8 168.376 1262.81 179.532 1262.81 191.541C1262.81 203.718 1265.8 214.962 1271.79 225.243C1277.76 235.508 1285.85 243.694 1296.05 249.784ZM1360.28 174.417L1360.29 174.426L1360.29 174.434C1363.42 179.645 1364.98 185.337 1364.98 191.541C1364.98 197.745 1363.42 203.529 1360.28 208.92C1357.15 214.314 1352.86 218.643 1347.4 221.921C1342.14 225.011 1336.3 226.564 1329.84 226.564C1323.57 226.564 1317.82 225.017 1312.56 221.926C1307.27 218.652 1303.06 214.322 1299.92 208.92C1296.79 203.529 1295.22 197.745 1295.22 191.541C1295.22 185.337 1296.79 179.645 1299.91 174.434L1299.92 174.426L1299.92 174.417C1303.06 169.016 1307.27 164.777 1312.54 161.675L1312.56 161.666L1312.57 161.657C1317.84 158.4 1323.58 156.774 1329.84 156.774C1336.28 156.774 1342.12 158.404 1347.37 161.657L1347.4 161.671L1347.42 161.685C1352.87 164.79 1357.15 169.028 1360.28 174.417ZM1514.99 126.19H1513.49V127.69V196.649C1513.49 204.846 1511.1 212.012 1506.32 218.209L1506.31 218.219L1506.3 218.229C1501.86 224.203 1494.64 227.33 1484.29 227.33C1477.45 227.33 1471.92 225.848 1467.58 222.988C1463.32 220.066 1460.25 216.533 1458.31 212.392C1456.49 207.965 1455.6 203.657 1455.6 199.458V127.69V126.19H1454.1H1424.43H1422.93V127.69V206.099C1422.93 215.241 1425.42 223.934 1430.37 232.157L1430.37 232.163L1430.37 232.169C1435.32 240.21 1441.94 246.762 1450.22 251.819L1450.24 251.829L1450.25 251.838C1458.74 256.741 1468.03 259.19 1478.09 259.19C1492.62 259.19 1504.46 255.94 1513.49 249.302V255.392V256.892H1514.99H1544.66H1546.16V255.392V127.69V126.19H1544.66H1514.99ZM1685.85 66.1703H1684.35V67.6703V138.947C1672.79 130.445 1659.59 126.19 1644.83 126.19C1632.7 126.19 1621.44 129.15 1611.06 135.071L1611.05 135.076C1600.85 140.996 1592.75 149.1 1586.77 159.367C1580.78 169.478 1577.79 180.554 1577.79 192.562C1577.79 204.573 1580.78 215.731 1586.77 226.009L1586.77 226.018C1592.75 236.116 1600.85 244.131 1611.05 250.049L1611.06 250.054C1621.44 255.975 1632.7 258.935 1644.83 258.935C1659.59 258.935 1672.79 254.68 1684.35 246.177V255.392V256.892H1685.85H1715.52H1717.02V255.392V67.6703V66.1703H1715.52H1685.85ZM1666.99 223.73L1666.98 223.735L1666.97 223.741C1661.73 227.147 1655.74 228.862 1648.96 228.862C1641.8 228.862 1635.26 227.219 1629.3 223.944C1623.5 220.659 1618.87 216.322 1615.4 210.928C1612.11 205.386 1610.46 199.275 1610.46 192.562C1610.46 185.844 1612.11 179.728 1615.41 174.182C1618.89 168.444 1623.51 163.947 1629.3 160.67C1635.26 157.395 1641.8 155.752 1648.96 155.752C1655.74 155.752 1661.73 157.468 1666.97 160.873L1666.98 160.879L1666.99 160.885C1672.44 164.318 1676.64 168.886 1679.62 174.61L1679.63 174.633L1679.64 174.655C1682.78 180.22 1684.35 186.181 1684.35 192.562C1684.35 198.767 1682.79 204.643 1679.64 210.214L1679.63 210.229L1679.63 210.244C1676.66 215.799 1672.45 220.289 1666.99 223.73Z" fill="black" stroke="black" stroke-width="3"/>
</mask>
<g mask="url(#mask0_345_3287)">
<path d="M1015.26 14.4646H1744.94V164.309V314.153H1015.26V14.4646Z" fill="url(#paint0_linear_345_3287)"/>
</g>
<path d="M161.106 58.9418C192.348 27.6994 243.002 27.6994 274.245 58.9418L361.109 145.806C392.351 177.048 392.351 227.702 361.109 258.944L274.245 345.808C243.002 377.051 192.348 377.051 161.106 345.808L74.242 258.944C42.9997 227.702 42.9997 177.048 74.2421 145.806L161.106 58.9418Z" fill="#9F97FF"/>
<path fill-rule="evenodd" clip-rule="evenodd" d="M294.408 178.393V200.605C294.408 204.724 291.069 208.064 286.95 208.064H267.244C265.908 203.884 261.992 200.858 257.369 200.858C251.644 200.858 247.003 205.499 247.003 211.224C247.003 216.949 251.644 221.59 257.369 221.59C261.992 221.59 265.908 218.564 267.244 214.384H286.95C294.56 214.384 300.729 208.215 300.729 200.605V187.762C309.411 193.85 315.112 204.099 315.112 215.717C315.112 234.393 300.38 249.533 282.208 249.533H152.988C149.4 249.533 145.946 248.943 142.712 247.852V221.843C142.712 217.723 146.052 214.384 150.171 214.384H168.106C169.443 218.564 173.359 221.59 177.982 221.59C183.707 221.59 188.348 216.949 188.348 211.224C188.348 205.499 183.707 200.858 177.982 200.858C173.359 200.858 169.443 203.884 168.106 208.064H150.171C142.561 208.064 136.392 214.233 136.392 221.843V244.923C126.637 239.055 120.085 228.172 120.085 215.717C120.085 197.041 134.816 181.901 152.988 181.901C156.404 181.901 159.698 182.436 162.796 183.429C167.192 165.702 182.829 152.593 201.446 152.593C209.437 152.593 216.879 155.009 223.118 159.168C230.403 149.319 241.923 142.961 254.889 142.961C275.081 142.961 291.769 158.384 294.408 178.393ZM217.675 221.59C223.4 221.59 228.041 216.949 228.041 211.224C228.041 205.499 223.4 200.858 217.675 200.858C211.95 200.858 207.309 205.499 207.309 211.224C207.309 216.949 211.95 221.59 217.675 221.59Z" fill="white"/>
<defs>
<linearGradient id="paint0_linear_345_3287" x1="1035.02" y1="298.311" x2="1639.26" y2="12.2721" gradientUnits="userSpaceOnUse">
<stop stop-color="#5E8BFF"/>
<stop offset="1" stop-color="#9F97FF"/>
</linearGradient>
</defs>
</svg>
