<svg width="1782" height="400" viewBox="0 0 1782 400" fill="none" xmlns="http://www.w3.org/2000/svg">
<path d="M160.296 56.4317C191.538 25.1894 242.192 25.1894 273.434 56.4318L360.298 143.296C391.541 174.538 391.541 225.192 360.298 256.434L273.434 343.298C242.192 374.541 191.538 374.541 160.296 343.298L73.4317 256.434C42.1894 225.192 42.1894 174.538 73.4318 143.296L160.296 56.4317Z" fill="white"/>
<path fill-rule="evenodd" clip-rule="evenodd" d="M293.598 175.883V198.095C293.598 202.214 290.258 205.554 286.139 205.554H266.434C265.098 201.374 261.181 198.348 256.559 198.348C250.834 198.348 246.193 202.989 246.193 208.714C246.193 214.439 250.834 219.08 256.559 219.08C261.181 219.08 265.098 216.054 266.434 211.874H286.139C293.749 211.874 299.918 205.705 299.918 198.095V185.252C308.601 191.34 314.301 201.589 314.301 213.207C314.301 231.883 299.57 247.023 281.398 247.023H152.178C148.589 247.023 145.135 246.433 141.902 245.342V219.333C141.902 215.213 145.241 211.874 149.361 211.874H167.296C168.632 216.054 172.549 219.08 177.171 219.08C182.896 219.08 187.537 214.439 187.537 208.714C187.537 202.989 182.896 198.348 177.171 198.348C172.549 198.348 168.632 201.374 167.296 205.554H149.361C141.751 205.554 135.582 211.723 135.582 219.333V242.413C125.826 236.545 119.274 225.662 119.274 213.207C119.274 194.531 134.006 179.391 152.178 179.391C155.594 179.391 158.888 179.926 161.986 180.919C166.381 163.192 182.019 150.083 200.635 150.083C208.626 150.083 216.068 152.499 222.308 156.658C229.592 146.809 241.113 140.451 254.078 140.451C274.271 140.451 290.959 155.874 293.598 175.883ZM216.865 219.08C222.59 219.08 227.231 214.439 227.231 208.714C227.231 202.989 222.59 198.348 216.865 198.348C211.14 198.348 206.499 202.989 206.499 208.714C206.499 214.439 211.14 219.08 216.865 219.08Z" fill="black"/>
<path d="M556.001 139.053H592.001V265.008H556.001V139.053Z" fill="white"/>
<path fill-rule="evenodd" clip-rule="evenodd" d="M519.452 267.008C556.986 267.008 583.939 234.813 583.939 202.008C583.939 171.022 557.166 137.008 519.452 137.008C483.384 137.008 456 166.109 456 202.008C456 237.906 483.384 267.008 519.452 267.008ZM523.403 234.152C541.896 234.152 556 220.375 556 202.007C556 183.639 541.896 169.863 523.403 169.863C504.91 169.863 490.588 184.254 490.588 202.007C490.588 219.761 504.91 234.152 523.403 234.152Z" fill="white"/>
<path fill-rule="evenodd" clip-rule="evenodd" d="M736.614 174.168L703.649 189.482C699.443 180.009 690.576 172.385 678.584 172.385C661.536 172.385 648.332 185.653 648.332 202.02C648.332 218.387 661.536 231.655 678.584 231.655C690.85 231.655 699.847 224.788 703.93 214.84L736.827 230.352C726.72 252.056 705.034 267.02 678 267.02C641.6 267.02 613 237.918 613 202.02C613 166.121 642.9 137.02 678 137.02C703.355 137.02 725.996 152.205 736.614 174.168Z" fill="white"/>
<path d="M757.001 139.029H793.002V265.028H757.001V139.029Z" fill="white"/>
<path d="M837.002 188.028L873.003 185.028V265.029H837.002V188.028Z" fill="white"/>
<path d="M917.002 188.028L953.002 185.028V265.029H917.002V188.028Z" fill="white"/>
<path d="M825.265 137.02C857.124 137.02 873.001 161.428 873.001 187.02L837.001 193.713C837.001 182.646 827.001 172.684 815.001 172.684C803.001 172.684 793.001 183.027 793.001 195.027L783.466 181.57C779.714 172.684 793.314 137.02 825.265 137.02Z" fill="white"/>
<path d="M905.265 137.02C937.124 137.02 953.001 161.428 953.001 187.02L917.001 193.713C917.001 182.646 907.001 172.684 895.001 172.684C883.001 172.684 873.001 183.027 873.001 195.027L863.466 181.57C859.714 172.684 873.314 137.02 905.265 137.02Z" fill="white"/>
<path d="M905.267 137.02C937.125 137.02 953.002 161.428 953.002 187.02L917.002 190.02C917.002 178.953 907.002 170.02 895.002 170.02C883.002 170.02 873.002 178.02 873.002 190.02L855.002 171.02C863.002 153.02 873.315 137.02 905.267 137.02Z" fill="white"/>
<path d="M1031.91 241.473C1031.91 254.427 1021.41 264.927 1008.46 264.927C995.503 264.927 985.002 254.427 985.002 241.473C985.002 228.52 995.503 218.019 1008.46 218.019C1021.41 218.019 1031.91 228.52 1031.91 241.473Z" fill="white"/>
<mask id="mask0_408_3183" style="mask-type:alpha" maskUnits="userSpaceOnUse" x="1046" y="74" width="689" height="197">
<path d="M1081.91 259.113L1081.92 259.121L1081.93 259.128C1092.31 265.049 1103.58 268.009 1115.7 268.009C1129.37 268.009 1141.6 264.71 1152.35 258.081L1152.36 258.076L1152.37 258.071C1163.09 251.289 1171.27 242.317 1176.9 231.174L1177.59 229.802L1176.21 229.143L1150.41 216.883L1148.97 216.203L1148.37 217.669C1145.93 223.639 1141.78 228.235 1135.88 231.482C1129.93 234.754 1123.22 236.404 1115.7 236.404C1105.23 236.404 1096.86 233.046 1090.47 226.4C1084.24 219.733 1081.08 211.263 1081.08 200.871C1081.08 190.474 1084.24 182.095 1090.47 175.603C1096.86 168.953 1105.22 165.592 1115.7 165.592C1123.12 165.592 1129.47 167.321 1134.83 170.722C1140.19 174.126 1144.65 179.264 1148.16 186.223L1148.83 187.54L1150.16 186.896L1176.48 174.126L1177.85 173.46L1177.16 172.1C1171.36 160.616 1162.92 151.389 1151.85 144.436C1140.94 137.47 1128.88 133.987 1115.7 133.987C1103.91 133.987 1092.81 137.04 1082.44 143.128C1072.07 149.045 1063.8 157.144 1057.65 167.408C1051.49 177.687 1048.41 188.851 1048.41 200.871C1048.41 213.047 1051.4 224.291 1057.39 234.572L1057.39 234.58L1057.4 234.589C1063.54 244.845 1071.72 253.026 1081.91 259.113ZM1260.12 240.203V238.703H1258.62C1253.17 238.703 1249.43 238.534 1247.3 238.219C1245.71 237.809 1244.65 236.923 1243.99 235.512C1243.26 233.762 1242.83 230.625 1242.83 225.9V77V75.5H1241.33H1211.66H1210.16V77V225.9C1210.16 239.649 1212.75 249.959 1218.25 256.493L1218.26 256.501L1218.27 256.509C1223.81 262.912 1232.39 265.966 1243.65 265.966C1247.71 265.966 1252.77 265.531 1258.83 264.674L1260.12 264.492V263.189V240.203ZM1312.34 259.113L1312.35 259.119C1322.73 265.215 1334 268.265 1346.13 268.265C1358.43 268.265 1369.71 265.218 1379.92 259.116C1390.29 253.029 1398.47 244.846 1404.44 234.581C1410.6 224.3 1413.68 213.053 1413.68 200.871C1413.68 188.856 1410.6 177.697 1404.45 167.421C1398.47 156.985 1390.29 148.796 1379.91 142.876C1369.7 136.777 1358.43 133.732 1346.13 133.732C1334 133.732 1322.73 136.781 1312.35 142.875C1302.14 148.798 1294.05 156.991 1288.07 167.428C1282.09 177.705 1279.1 188.861 1279.1 200.871C1279.1 213.047 1282.09 224.291 1288.07 234.572C1294.05 244.837 1302.14 253.024 1312.34 259.113ZM1376.57 183.747L1376.58 183.755L1376.58 183.764C1379.71 188.975 1381.27 194.667 1381.27 200.871C1381.27 207.075 1379.71 212.859 1376.57 218.25C1373.43 223.644 1369.15 227.974 1363.68 231.251C1358.42 234.341 1352.58 235.893 1346.13 235.893C1339.86 235.893 1334.11 234.347 1328.85 231.256C1323.56 227.982 1319.35 223.652 1316.21 218.25C1313.07 212.859 1311.51 207.075 1311.51 200.871C1311.51 194.667 1313.07 188.975 1316.2 183.764L1316.2 183.755L1316.21 183.747C1319.35 178.346 1323.55 174.107 1328.83 171.005L1328.85 170.996L1328.86 170.987C1334.13 167.73 1339.87 166.103 1346.13 166.103C1352.57 166.103 1358.4 167.734 1363.66 170.987L1363.68 171.001L1363.71 171.015C1369.16 174.119 1373.44 178.358 1376.57 183.747ZM1531.28 135.52H1529.78V137.02V205.979C1529.78 214.176 1527.38 221.342 1522.61 227.538L1522.6 227.548L1522.59 227.558C1518.14 233.532 1510.93 236.659 1500.57 236.659C1493.74 236.659 1488.21 235.177 1483.87 232.317C1479.61 229.396 1476.54 225.862 1474.6 221.721C1472.78 217.294 1471.89 212.986 1471.89 208.788V137.02V135.52H1470.39H1440.71H1439.21V137.02V215.429C1439.21 224.57 1441.7 233.264 1446.65 241.487L1446.66 241.493L1446.66 241.499C1451.61 249.539 1458.23 256.092 1466.51 261.149L1466.52 261.158L1466.54 261.168C1475.03 266.071 1484.32 268.52 1494.38 268.52C1508.9 268.52 1520.75 265.269 1529.78 258.632V264.721V266.221H1531.28H1560.95H1562.45V264.721V137.02V135.52H1560.95H1531.28ZM1702.14 75.5H1700.64V77V148.277C1689.07 139.774 1675.88 135.52 1661.11 135.52C1648.99 135.52 1637.72 138.48 1627.35 144.401L1627.34 144.406C1617.13 150.326 1609.04 158.43 1603.06 168.697C1597.07 178.808 1594.08 189.884 1594.08 201.892C1594.08 213.903 1597.07 225.061 1603.06 235.338L1603.06 235.348C1609.04 245.446 1617.14 253.461 1627.34 259.378L1627.35 259.384C1637.72 265.304 1648.99 268.265 1661.11 268.265C1675.88 268.265 1689.07 264.01 1700.64 255.507V264.721V266.221H1702.14H1731.81H1733.31V264.721V77V75.5H1731.81H1702.14ZM1683.28 233.059L1683.27 233.065L1683.26 233.071C1678.02 236.476 1672.03 238.192 1665.24 238.192C1658.09 238.192 1651.55 236.549 1645.59 233.275C1639.79 229.99 1635.16 225.653 1631.69 220.259C1628.4 214.716 1626.75 208.605 1626.75 201.892C1626.75 195.172 1628.4 189.054 1631.7 183.506C1635.18 177.771 1639.8 173.275 1645.59 169.999C1651.55 166.725 1658.09 165.082 1665.24 165.082C1672.03 165.082 1678.02 166.797 1683.26 170.203L1683.27 170.209L1683.28 170.214C1688.73 173.648 1692.93 178.216 1695.91 183.939L1695.92 183.962L1695.93 183.985C1699.07 189.55 1700.64 195.51 1700.64 201.892C1700.64 208.097 1699.08 213.973 1695.93 219.544L1695.92 219.559L1695.91 219.574C1692.94 225.128 1688.74 229.619 1683.28 233.059Z" fill="black" stroke="black" stroke-width="3"/>
</mask>
<g mask="url(#mask0_408_3183)">
<path d="M1031.55 23.7944H1761.23V173.639V323.483H1031.55V23.7944Z" fill="url(#paint0_linear_408_3183)"/>
</g>
<defs>
<linearGradient id="paint0_linear_408_3183" x1="1051.31" y1="307.641" x2="1655.55" y2="21.6019" gradientUnits="userSpaceOnUse">
<stop stop-color="#5E8BFF"/>
<stop offset="1" stop-color="#9F97FF"/>
</linearGradient>
</defs>
</svg>
