<svg width="1850" height="400" viewBox="0 0 1850 400" fill="none" xmlns="http://www.w3.org/2000/svg">
<rect x="580" y="140.034" width="36" height="125.954" fill="black"/>
<path fill-rule="evenodd" clip-rule="evenodd" d="M543.451 267.988C580.986 267.988 607.938 235.793 607.938 202.988C607.938 172.002 581.165 137.988 543.451 137.988C507.384 137.988 480 167.09 480 202.988C480 238.887 507.384 267.988 543.451 267.988ZM547.403 235.133C565.895 235.133 580 221.356 580 202.988C580 184.62 565.895 170.843 547.403 170.843C528.91 170.843 514.588 185.235 514.588 202.988C514.588 220.741 528.91 235.133 547.403 235.133Z" fill="black"/>
<path fill-rule="evenodd" clip-rule="evenodd" d="M760.614 175.148L727.649 190.462C723.443 180.989 714.576 173.365 702.584 173.365C685.535 173.365 672.332 186.633 672.332 203C672.332 219.367 685.535 232.635 702.584 232.635C714.85 232.635 723.846 225.768 727.929 215.82L760.827 231.332C750.72 253.036 729.034 268 702 268C665.6 268 637 238.899 637 203C637 167.101 666.9 138 702 138C727.355 138 749.996 153.185 760.614 175.148Z" fill="black"/>
<rect x="781" y="140.01" width="36" height="125.999" fill="black"/>
<path d="M861 189.009L897 186.009V266.009H861V189.009Z" fill="black"/>
<path d="M941 189.009L977 186.009V266.009H941V189.009Z" fill="black"/>
<path d="M849.264 138C881.122 138 896.999 162.408 896.999 188L860.999 194.693C860.999 183.626 850.999 173.664 838.999 173.664C826.999 173.664 816.999 184.007 816.999 196.007L807.465 182.551C803.712 173.664 817.312 138 849.264 138Z" fill="black"/>
<path d="M929.264 138C961.122 138 976.999 162.408 976.999 188L940.999 194.693C940.999 183.626 930.999 173.664 918.999 173.664C906.999 173.664 896.999 184.007 896.999 196.007L887.465 182.551C883.712 173.664 897.312 138 929.264 138Z" fill="black"/>
<path d="M929.264 138C961.122 138 977 162.408 977 188L941 191C941 179.933 931 171 919 171C907 171 897 179 897 191L879 172C887 154 897.313 138 929.264 138Z" fill="black"/>
<circle cx="1032.45" cy="242.454" r="23.4539" fill="black"/>
<path d="M284.676 287.237C284.676 297.452 273.464 302 259.62 302C245.777 302 234.564 297.452 234.564 287.237C234.564 278.066 239.867 286.64 259.62 286.64C279.373 286.64 284.676 278.55 284.676 287.237Z" fill="white"/>
<rect x="240" width="282.843" height="282.843" rx="80" transform="rotate(45 240 0)" fill="#FFBA44"/>
<path d="M179.039 178.776C179.017 171.596 184.82 165.759 192 165.738L287.56 165.462C294.74 165.441 300.578 171.244 300.599 178.424L300.837 258.789C300.858 265.969 295.055 271.806 287.876 271.827L192.315 272.103C185.136 272.124 179.298 266.32 179.277 259.141L179.039 178.776Z" fill="white"/>
<path d="M285.799 165.338C285.799 190.467 265.293 210.839 239.997 210.839C214.701 210.839 194.195 190.467 194.195 165.338C194.195 140.209 214.701 119.838 239.997 119.838C265.293 119.838 285.799 140.209 285.799 165.338Z" fill="white"/>
<path d="M285.799 165.338C285.799 190.467 265.293 210.839 239.997 210.839L285.799 210.839L285.799 165.338Z" fill="white"/>
<path d="M239.997 210.839C214.701 210.839 194.195 190.467 194.195 165.338L194.195 210.839L239.997 210.839Z" fill="white"/>
<ellipse rx="28.4013" ry="28.2977" transform="matrix(1 0 0.00784149 0.999969 240.322 163.33)" fill="#FFBA44"/>
<rect x="232.182" y="160.358" width="15.1951" height="96.2358" rx="7.59756" fill="#FFBA44"/>
<rect x="234.715" y="218.606" width="27.8577" height="12.6626" rx="5.20011" fill="#FFBA44"/>
<rect x="234.715" y="243.932" width="27.8577" height="12.6626" rx="5.20011" fill="#FFBA44"/>
<ellipse rx="10.1301" ry="10.1266" transform="matrix(1 0 0.00586924 0.999983 240.408 155.196)" fill="white"/>
<mask id="mask0" mask-type="alpha" maskUnits="userSpaceOnUse" x="1085" y="83" width="678" height="244">
<path fill-rule="evenodd" clip-rule="evenodd" d="M1208.61 175.148L1175.65 190.462C1171.44 180.989 1162.58 173.365 1150.58 173.365C1133.54 173.365 1120.33 186.633 1120.33 203C1120.33 219.367 1133.54 232.635 1150.58 232.635C1162.85 232.635 1171.85 225.768 1175.93 215.82L1208.83 231.332C1198.72 253.036 1177.03 268 1150 268C1113.6 268 1085 238.899 1085 203C1085 167.101 1114.9 138 1150 138C1175.35 138 1198 153.185 1208.61 175.148Z" fill="black"/>
<rect width="36" height="183.256" transform="matrix(-1 0 0 1 1412 83.0537)" fill="black"/>
<path fill-rule="evenodd" clip-rule="evenodd" d="M1448.48 268C1410.94 268 1383.99 235.805 1383.99 203C1383.99 172.014 1410.76 138 1448.48 138C1484.54 138 1511.93 167.102 1511.93 203C1511.93 238.899 1484.54 268 1448.48 268ZM1444.53 235.144C1426.03 235.144 1411.93 221.368 1411.93 203C1411.93 184.632 1426.03 170.855 1444.53 170.855C1463.02 170.855 1477.34 185.247 1477.34 203C1477.34 220.753 1463.02 235.144 1444.53 235.144Z" fill="black"/>
<path d="M1216 139.867L1258.05 139.867L1304.4 248.194L1273.27 269.181L1216 139.867Z" fill="black"/>
<path d="M1360.48 139.863L1320.24 139.863L1282.28 254.083L1273.61 266.971L1271.35 275.542L1306.92 284.348L1360.48 139.863Z" fill="black"/>
<path fill-rule="evenodd" clip-rule="evenodd" d="M1242.96 291.381C1255.69 291.381 1268.41 284.704 1271.38 275.42L1306.93 284.324C1295.99 309.947 1278.43 326.572 1242.96 326.572L1238.4 326.572L1238.4 291.381L1242.96 291.381Z" fill="black"/>
<rect x="1682" y="139.972" width="35.9999" height="126.028" fill="black"/>
<path fill-rule="evenodd" clip-rule="evenodd" d="M1762.85 138.438C1760.14 138.215 1757.26 138.101 1754.2 138.101C1719.53 138.101 1706.92 171.864 1704 192.449L1718 213.189C1718 195.255 1731.07 178.351 1757.42 178.351H1762.85V138.438Z" fill="black"/>
<path fill-rule="evenodd" clip-rule="evenodd" d="M1596 138C1560.9 138 1531 167.101 1531 203V203C1531 238.898 1559.6 268 1596 268C1622.43 268 1643.82 254.817 1653.57 239.403L1623.9 225.406C1618.76 230.704 1611.79 234.549 1604.06 236.232C1601.56 236.85 1598.89 237.176 1596.07 237.176C1595.94 237.176 1595.82 237.176 1595.69 237.174C1595.56 237.176 1595.43 237.176 1595.3 237.176C1576.43 237.176 1561.81 222.191 1561.81 203.706C1561.81 203.592 1561.81 203.479 1561.81 203.368C1561.81 203.246 1561.81 203.123 1561.81 203C1561.81 184.125 1576.76 168.823 1596.07 168.823C1612.88 168.823 1624.27 182.301 1626.94 196.617C1630.65 196.544 1632.79 198.359 1632.79 204.314C1632.79 205.805 1632.68 207.269 1632.45 208.7L1656.28 215.772L1658.63 216.012C1666.34 166.984 1631.1 138 1596 138Z" fill="black"/>
<path d="M1548.13 188.012H1628.37L1658.63 216.012H1655.07H1548.58L1548.13 188.012Z" fill="black"/>
</mask>
<g mask="url(#mask0)">
<rect x="1059.5" y="25.5" width="705" height="331" fill="url(#paint0_linear)"/>
</g>
<defs>
<linearGradient id="paint0_linear" x1="1078.59" y1="339.003" x2="1688.61" y2="86.3861" gradientUnits="userSpaceOnUse">
<stop stop-color="#F5B100"/>
<stop offset="1" stop-color="#FFE040"/>
</linearGradient>
</defs>
</svg>
