<svg width="1851" height="401" viewBox="0 0 1851 401" fill="none" xmlns="http://www.w3.org/2000/svg">
<rect width="1850" height="400" transform="translate(0.5 0.020752)" fill="#181818"/>
<path fill-rule="evenodd" clip-rule="evenodd" d="M269.223 163.487C269.328 176.766 260.235 187.909 247.876 190.958V218.764H257.872C260.744 218.764 263.072 221.092 263.072 223.964V226.226C263.072 229.098 260.744 231.426 257.872 231.426H247.876V244.089H257.872C260.744 244.089 263.072 246.417 263.072 249.289V251.551C263.072 254.423 260.744 256.752 257.872 256.752H240.415C240.393 256.752 240.372 256.751 240.351 256.751C240.327 256.751 240.303 256.752 240.279 256.752C236.083 256.752 232.681 253.35 232.681 249.154V190.541C221.044 186.987 212.521 176.219 212.421 163.487C212.298 147.859 224.915 135.191 240.6 135.191C256.286 135.191 269.101 147.859 269.223 163.487ZM240.968 165.479C246.562 165.479 251.071 160.946 251.038 155.353C251.006 149.76 246.444 145.227 240.849 145.227C235.254 145.227 230.745 149.76 230.778 155.353C230.811 160.946 235.373 165.479 240.968 165.479Z" fill="white"/>
<path d="M285.176 287.394C285.176 297.61 273.964 302.158 260.12 302.158C246.277 302.158 235.064 297.61 235.064 287.394C235.064 278.223 240.367 286.798 260.12 286.798C279.873 286.798 285.176 278.708 285.176 287.394Z" fill="white"/>
<path fill-rule="evenodd" clip-rule="evenodd" d="M183.931 56.7265C215.173 25.4845 265.826 25.4845 297.068 56.7265L383.931 143.589C415.173 174.831 415.173 225.484 383.931 256.726L297.068 343.589C265.826 374.831 215.173 374.831 183.931 343.589L97.0682 256.726C65.8262 225.484 65.8263 174.831 97.0682 143.589L183.931 56.7265ZM179.538 178.933C179.517 171.753 185.32 165.916 192.5 165.895L194.695 165.888V165.496C194.695 140.367 215.201 119.995 240.497 119.995C265.792 119.995 286.298 140.367 286.298 165.496V165.624L288.06 165.619C295.24 165.598 301.077 171.401 301.099 178.581L301.337 258.946C301.358 266.126 295.555 271.963 288.375 271.984L192.815 272.26C185.635 272.281 179.798 266.477 179.776 259.298L179.538 178.933Z" fill="white"/>
<rect x="580.5" y="140.055" width="36" height="125.954" fill="white"/>
<path fill-rule="evenodd" clip-rule="evenodd" d="M543.951 268.009C581.486 268.009 608.438 235.814 608.438 203.009C608.438 172.023 581.665 138.009 543.951 138.009C507.884 138.009 480.5 167.111 480.5 203.009C480.5 238.908 507.884 268.009 543.951 268.009ZM547.903 235.153C566.395 235.153 580.5 221.377 580.5 203.009C580.5 184.641 566.395 170.864 547.903 170.864C529.41 170.864 515.088 185.256 515.088 203.009C515.088 220.762 529.41 235.153 547.903 235.153Z" fill="white"/>
<path fill-rule="evenodd" clip-rule="evenodd" d="M761.114 175.169L728.149 190.483C723.943 181.01 715.076 173.386 703.084 173.386C686.035 173.386 672.832 186.654 672.832 203.021C672.832 219.388 686.035 232.656 703.084 232.656C715.35 232.656 724.346 225.788 728.429 215.841L761.327 231.353C751.22 253.057 729.534 268.021 702.5 268.021C666.1 268.021 637.5 238.919 637.5 203.021C637.5 167.122 667.4 138.021 702.5 138.021C727.855 138.021 750.496 153.206 761.114 175.169Z" fill="white"/>
<rect x="781.5" y="140.03" width="36" height="125.999" fill="white"/>
<path d="M861.5 189.03L897.5 186.03V266.03H861.5V189.03Z" fill="white"/>
<path d="M941.5 189.03L977.5 186.03V266.03H941.5V189.03Z" fill="white"/>
<path d="M849.764 138.021C881.622 138.021 897.499 162.429 897.499 188.021L861.499 194.714C861.499 183.647 851.499 173.685 839.499 173.685C827.499 173.685 817.499 184.028 817.499 196.028L807.965 182.571C804.212 173.685 817.812 138.021 849.764 138.021Z" fill="white"/>
<path d="M929.764 138.021C961.622 138.021 977.499 162.429 977.499 188.021L941.499 194.714C941.499 183.647 931.499 173.685 919.499 173.685C907.499 173.685 897.499 184.028 897.499 196.028L887.965 182.571C884.212 173.685 897.812 138.021 929.764 138.021Z" fill="white"/>
<path d="M929.764 138.021C961.622 138.021 977.5 162.429 977.5 188.021L941.5 191.021C941.5 179.954 931.5 171.021 919.5 171.021C907.5 171.021 897.5 179.021 897.5 191.021L879.5 172.021C887.5 154.021 897.813 138.021 929.764 138.021Z" fill="white"/>
<circle cx="1032.95" cy="242.475" r="23.4539" fill="white"/>
<path d="M285.175 287.257C285.175 297.472 273.963 302.021 260.119 302.021C246.276 302.021 235.063 297.472 235.063 287.257C235.063 278.086 240.366 286.661 260.119 286.661C279.872 286.661 285.175 278.571 285.175 287.257Z" fill="white"/>
<path fill-rule="evenodd" clip-rule="evenodd" d="M1208.11 175.169L1175.15 190.483C1170.94 181.01 1162.08 173.386 1150.08 173.386C1133.04 173.386 1119.83 186.654 1119.83 203.021C1119.83 219.388 1133.04 232.656 1150.08 232.656C1162.35 232.656 1171.35 225.788 1175.43 215.841L1208.33 231.353C1198.22 253.057 1176.53 268.021 1149.5 268.021C1113.1 268.021 1084.5 238.919 1084.5 203.021C1084.5 167.122 1114.4 138.021 1149.5 138.021C1174.85 138.021 1197.5 153.206 1208.11 175.169Z" fill="white"/>
<rect width="36" height="183.256" transform="matrix(-1 0 0 1 1411.5 83.0745)" fill="white"/>
<path fill-rule="evenodd" clip-rule="evenodd" d="M1447.98 268.021C1410.44 268.021 1383.49 235.826 1383.49 203.021C1383.49 172.035 1410.26 138.021 1447.98 138.021C1484.04 138.021 1511.43 167.122 1511.43 203.021C1511.43 238.919 1484.04 268.021 1447.98 268.021ZM1444.03 235.165C1425.53 235.165 1411.43 221.388 1411.43 203.02C1411.43 184.653 1425.53 170.876 1444.03 170.876C1462.52 170.876 1476.84 185.267 1476.84 203.02C1476.84 220.774 1462.52 235.165 1444.03 235.165Z" fill="white"/>
<path d="M1215.5 139.888L1257.55 139.888L1303.9 248.215L1272.77 269.202L1215.5 139.888Z" fill="white"/>
<path d="M1359.98 139.884L1319.74 139.884L1281.78 254.104L1273.11 266.992L1270.85 275.562L1306.42 284.368L1359.98 139.884Z" fill="white"/>
<path fill-rule="evenodd" clip-rule="evenodd" d="M1242.46 291.401C1255.19 291.401 1267.91 284.725 1270.88 275.44L1306.43 284.344C1295.49 309.967 1277.93 326.592 1242.46 326.592L1237.9 326.592L1237.9 291.401L1242.46 291.401Z" fill="white"/>
<rect x="1681.5" y="139.992" width="35.9999" height="126.028" fill="white"/>
<path fill-rule="evenodd" clip-rule="evenodd" d="M1762.35 138.458C1759.64 138.236 1756.76 138.121 1753.7 138.121C1719.03 138.121 1706.42 171.884 1703.5 192.469L1717.5 213.209C1717.5 195.275 1730.57 178.371 1756.92 178.371H1762.35V138.458Z" fill="white"/>
<path fill-rule="evenodd" clip-rule="evenodd" d="M1595.5 138.021C1560.4 138.021 1530.5 167.122 1530.5 203.021V203.021C1530.5 238.919 1559.1 268.021 1595.5 268.021C1621.93 268.021 1643.32 254.837 1653.07 239.424L1623.4 225.427C1618.26 230.725 1611.29 234.57 1603.56 236.253C1601.06 236.87 1598.39 237.197 1595.57 237.197C1595.44 237.197 1595.32 237.197 1595.19 237.195C1595.06 237.196 1594.93 237.197 1594.8 237.197C1575.93 237.197 1561.31 222.212 1561.31 203.727C1561.31 203.613 1561.31 203.5 1561.31 203.389C1561.31 203.266 1561.31 203.144 1561.31 203.021C1561.31 184.145 1576.26 168.844 1595.57 168.844C1612.38 168.844 1623.77 182.322 1626.44 196.638C1630.15 196.565 1632.29 198.38 1632.29 204.335C1632.29 205.826 1632.18 207.289 1631.95 208.721L1655.78 215.793L1658.13 216.033C1665.84 167.004 1630.6 138.021 1595.5 138.021Z" fill="white"/>
<path d="M1547.63 188.033H1627.87L1658.13 216.033H1654.57H1548.08L1547.63 188.033Z" fill="white"/>
<g style="mix-blend-mode:darken">
<rect x="1075.5" y="36.0208" width="705" height="331" fill="url(#paint0_linear)"/>
</g>
<defs>
<linearGradient id="paint0_linear" x1="1094.59" y1="349.524" x2="1704.61" y2="96.9068" gradientUnits="userSpaceOnUse">
<stop stop-color="#F5B100"/>
<stop offset="1" stop-color="#FFE040"/>
</linearGradient>
</defs>
</svg>
