<svg width="1941" height="401" viewBox="0 0 1941 401" fill="none" xmlns="http://www.w3.org/2000/svg">
<rect width="1940" height="400" transform="translate(0.5 0.020752)" fill="#181818"/>
<rect x="580.5" y="140.055" width="36" height="125.954" fill="white"/>
<path fill-rule="evenodd" clip-rule="evenodd" d="M543.951 268.009C581.486 268.009 608.438 235.814 608.438 203.009C608.438 172.023 581.665 138.009 543.951 138.009C507.884 138.009 480.5 167.111 480.5 203.009C480.5 238.908 507.884 268.009 543.951 268.009ZM547.903 235.153C566.395 235.153 580.5 221.377 580.5 203.009C580.5 184.641 566.395 170.864 547.903 170.864C529.41 170.864 515.088 185.256 515.088 203.009C515.088 220.762 529.41 235.153 547.903 235.153Z" fill="white"/>
<path fill-rule="evenodd" clip-rule="evenodd" d="M761.114 175.169L728.149 190.483C723.943 181.01 715.076 173.386 703.084 173.386C686.035 173.386 672.832 186.654 672.832 203.021C672.832 219.388 686.035 232.656 703.084 232.656C715.35 232.656 724.346 225.788 728.429 215.841L761.327 231.353C751.22 253.057 729.534 268.021 702.5 268.021C666.1 268.021 637.5 238.919 637.5 203.021C637.5 167.122 667.4 138.021 702.5 138.021C727.855 138.021 750.496 153.206 761.114 175.169Z" fill="white"/>
<rect x="781.5" y="140.03" width="36" height="125.999" fill="white"/>
<path d="M861.5 189.03L897.5 186.03V266.03H861.5V189.03Z" fill="white"/>
<path d="M941.5 189.03L977.5 186.03V266.03H941.5V189.03Z" fill="white"/>
<path d="M849.764 138.021C881.622 138.021 897.499 162.429 897.499 188.021L861.499 194.714C861.499 183.647 851.499 173.685 839.499 173.685C827.499 173.685 817.499 184.028 817.499 196.028L807.965 182.571C804.212 173.685 817.812 138.021 849.764 138.021Z" fill="white"/>
<path d="M929.764 138.021C961.622 138.021 977.499 162.429 977.499 188.021L941.499 194.714C941.499 183.647 931.499 173.685 919.499 173.685C907.499 173.685 897.499 184.028 897.499 196.028L887.965 182.571C884.212 173.685 897.812 138.021 929.764 138.021Z" fill="white"/>
<path d="M929.764 138.021C961.622 138.021 977.5 162.429 977.5 188.021L941.5 191.021C941.5 179.954 931.5 171.021 919.5 171.021C907.5 171.021 897.5 179.021 897.5 191.021L879.5 172.021C887.5 154.021 897.813 138.021 929.764 138.021Z" fill="white"/>
<circle cx="1032.95" cy="242.475" r="23.4539" fill="white"/>
<path d="M299.024 287.257C299.024 297.472 287.266 302.021 272.749 302.021C258.232 302.021 246.475 297.472 246.475 287.257C246.475 278.086 252.035 286.661 272.749 286.661C293.463 286.661 299.024 278.571 299.024 287.257Z" fill="white"/>
<rect x="1188.43" y="83.1308" width="36" height="183.2" fill="white"/>
<path fill-rule="evenodd" clip-rule="evenodd" d="M1151.95 268.021C1189.49 268.021 1216.44 235.826 1216.44 203.021C1216.44 172.035 1189.67 138.021 1151.95 138.021C1115.88 138.021 1088.5 167.122 1088.5 203.021C1088.5 238.919 1115.88 268.021 1151.95 268.021ZM1155.9 235.165C1174.39 235.165 1188.5 221.388 1188.5 203.02C1188.5 184.653 1174.39 170.876 1155.9 170.876C1137.41 170.876 1123.09 185.267 1123.09 203.02C1123.09 220.773 1137.41 235.165 1155.9 235.165Z" fill="white"/>
<path fill-rule="evenodd" clip-rule="evenodd" d="M1308.08 138.032C1272.98 138.032 1243.08 167.134 1243.08 203.032V203.032C1243.08 238.931 1271.68 268.032 1308.08 268.032C1334.51 268.032 1355.91 254.849 1365.65 239.436L1335.98 225.439C1330.84 230.736 1323.87 234.582 1316.14 236.265C1313.64 236.882 1310.97 237.209 1308.15 237.209C1308.02 237.209 1307.9 237.208 1307.77 237.207C1307.64 237.208 1307.51 237.209 1307.38 237.209C1288.51 237.209 1273.89 222.224 1273.89 203.739C1273.89 203.625 1273.89 203.512 1273.89 203.401C1273.89 203.278 1273.89 203.155 1273.89 203.032C1273.89 184.157 1288.84 168.856 1308.15 168.856C1324.97 168.856 1336.36 182.334 1339.02 196.65C1342.73 196.576 1344.87 198.392 1344.87 204.347C1344.87 205.837 1344.76 207.301 1344.54 208.733L1368.36 215.804L1370.72 216.044C1378.43 167.016 1343.18 138.032 1308.08 138.032Z" fill="white"/>
<path d="M1260.21 188.044H1340.45L1370.72 216.044H1367.15H1260.67L1260.21 188.044Z" fill="white"/>
<path fill-rule="evenodd" clip-rule="evenodd" d="M1433.44 138.549C1465.32 134.754 1483.97 152.662 1489.54 166.278L1459.24 178.674C1457.21 175.158 1450.23 168.698 1441.36 168.698C1430.29 168.698 1428.1 172.89 1427.33 175.102C1426.31 178.057 1427.88 180.788 1431.52 182.131C1434.99 183.412 1438.7 184.33 1442.59 185.295C1444.65 185.805 1446.76 186.327 1448.92 186.923L1448.92 186.922L1449.17 186.992C1457.31 189.223 1466.47 192.051 1477.21 200.154C1484.87 205.933 1489.5 213.975 1490.46 222.955C1491.38 231.52 1488.83 239.497 1484.96 245.836C1477.39 258.242 1462.62 267.954 1445.45 267.954L1445.27 267.954C1441.25 267.955 1430.52 267.957 1419.16 264.765C1407.63 261.528 1392.87 254.238 1385.08 237.784L1415.56 223.361C1415.65 223.602 1417.34 227.801 1423.49 232.361C1429.83 237.059 1437.48 237.766 1445.46 236.048C1454.42 234.122 1455.83 228.339 1453.17 225.72C1450.06 222.649 1443.84 220.883 1437.66 219.131C1436.92 218.921 1436.18 218.712 1435.45 218.5L1435.45 218.493C1435.23 218.434 1435.02 218.374 1434.8 218.314C1434.67 218.274 1434.54 218.235 1434.4 218.196L1434.39 218.196C1428.01 216.394 1420.12 213.815 1410.62 208.726C1402.88 204.574 1396.38 198.503 1392.78 190.537C1389.1 182.385 1389.04 173.478 1392.24 165.436C1398.48 149.758 1415.03 140.74 1433.44 138.549Z" fill="white"/>
<rect x="1514.08" y="140.001" width="36" height="126.324" fill="white"/>
<circle cx="1532.08" cy="100.032" r="22" fill="white"/>
<rect x="1673.2" y="139.944" width="36" height="116.051" fill="white"/>
<path fill-rule="evenodd" clip-rule="evenodd" d="M1583.2 294.315C1594.2 310.315 1613.94 322.315 1639.97 322.315C1678.74 322.315 1709.2 294.23 1709.2 255.994L1673.2 255.994C1673 273.484 1657.97 288.806 1640.1 288.806C1631.18 288.806 1617.75 281.818 1611.75 274.818L1583.2 294.315Z" fill="white"/>
<path fill-rule="evenodd" clip-rule="evenodd" d="M1636.53 268.021C1674.07 268.021 1701.02 235.826 1701.02 203.021C1701.02 172.035 1674.25 138.021 1636.53 138.021C1600.47 138.021 1573.08 167.122 1573.08 203.021C1573.08 238.919 1600.47 268.021 1636.53 268.021ZM1640.49 235.165C1658.98 235.165 1673.08 221.388 1673.08 203.02C1673.08 184.653 1658.98 170.876 1640.49 170.876C1621.99 170.876 1607.67 185.267 1607.67 203.02C1607.67 220.773 1621.99 235.165 1640.49 235.165Z" fill="white"/>
<rect x="1733.08" y="140.159" width="36" height="126.001" fill="white"/>
<path d="M1820.27 196.918L1856.27 188.002V266.27H1820.27L1820.27 196.918Z" fill="white"/>
<path d="M1803.97 138.029C1838.87 138.029 1856.27 162.437 1856.27 188.029L1820.27 198.693C1820.27 185.268 1812.53 173.693 1795 173.693C1777.19 173.693 1769.08 186.693 1769.08 198.693L1758.17 182.58C1752.17 170.215 1768.96 138.029 1803.97 138.029Z" fill="white"/>
<path fill-rule="evenodd" clip-rule="evenodd" d="M183.931 56.6073C215.173 25.3654 265.826 25.3654 297.068 56.6074L383.931 143.47C415.173 174.712 415.173 225.365 383.931 256.607L297.068 343.47C265.826 374.712 215.173 374.712 183.931 343.47L97.0682 256.607C65.8262 225.365 65.8263 174.712 97.0682 143.47L183.931 56.6073ZM265.5 174.876C265.5 147.25 243.126 124.876 215.5 124.876C187.874 124.876 165.5 147.25 165.5 174.876C165.5 202.502 187.874 224.876 215.5 224.876C215.5 252.502 237.874 274.876 265.5 274.876C293.126 274.876 315.5 252.502 315.5 224.876C315.5 197.25 293.126 174.876 265.5 174.876ZM265.5 174.876C265.5 202.502 243.126 224.876 215.5 224.876C215.5 197.25 237.874 174.876 265.5 174.876Z" fill="white"/>
<g style="mix-blend-mode:darken">
<rect x="1072.5" y="2.02075" width="835" height="331" fill="url(#paint0_linear)"/>
</g>
<defs>
<linearGradient id="paint0_linear" x1="1095.11" y1="315.524" x2="1777.39" y2="-19.1151" gradientUnits="userSpaceOnUse">
<stop stop-color="#F87615"/>
<stop offset="1" stop-color="#FECE5C"/>
</linearGradient>
</defs>
</svg>
