<svg width="1940" height="400" viewBox="0 0 1940 400" fill="none" xmlns="http://www.w3.org/2000/svg">
<g clip-path="url(#clip0)">
<rect x="580" y="140.034" width="36" height="125.954" fill="black"/>
<path fill-rule="evenodd" clip-rule="evenodd" d="M543.451 267.988C580.986 267.988 607.938 235.793 607.938 202.988C607.938 172.002 581.165 137.988 543.451 137.988C507.384 137.988 480 167.09 480 202.988C480 238.887 507.384 267.988 543.451 267.988ZM547.403 235.133C565.895 235.133 580 221.356 580 202.988C580 184.62 565.895 170.843 547.403 170.843C528.91 170.843 514.588 185.235 514.588 202.988C514.588 220.741 528.91 235.133 547.403 235.133Z" fill="black"/>
<path fill-rule="evenodd" clip-rule="evenodd" d="M760.614 175.148L727.649 190.462C723.443 180.989 714.576 173.365 702.584 173.365C685.535 173.365 672.332 186.633 672.332 203C672.332 219.367 685.535 232.635 702.584 232.635C714.85 232.635 723.846 225.768 727.929 215.82L760.827 231.332C750.72 253.036 729.034 268 702 268C665.6 268 637 238.899 637 203C637 167.101 666.9 138 702 138C727.355 138 749.996 153.185 760.614 175.148Z" fill="black"/>
<rect x="781" y="140.009" width="36" height="125.999" fill="black"/>
<path d="M861 189.009L897 186.009V266.009H861V189.009Z" fill="black"/>
<path d="M941 189.009L977 186.009V266.009H941V189.009Z" fill="black"/>
<path d="M849.264 138C881.122 138 896.999 162.408 896.999 188L860.999 194.693C860.999 183.626 850.999 173.664 838.999 173.664C826.999 173.664 816.999 184.007 816.999 196.007L807.465 182.551C803.712 173.664 817.312 138 849.264 138Z" fill="black"/>
<path d="M929.264 138C961.122 138 976.999 162.408 976.999 188L940.999 194.693C940.999 183.626 930.999 173.664 918.999 173.664C906.999 173.664 896.999 184.007 896.999 196.007L887.465 182.551C883.712 173.664 897.312 138 929.264 138Z" fill="black"/>
<path d="M929.264 138C961.122 138 977 162.408 977 188L941 191C941 179.933 931 171 919 171C907 171 897 179 897 191L879 172C887 154 897.313 138 929.264 138Z" fill="black"/>
<circle cx="1032.45" cy="242.454" r="23.4539" fill="black"/>
<path d="M298.524 287.237C298.524 297.452 286.766 302 272.249 302C257.732 302 245.975 297.452 245.975 287.237C245.975 278.066 251.535 286.64 272.249 286.64C292.963 286.64 298.524 278.55 298.524 287.237Z" fill="white"/>
<rect x="240" y="0.0180664" width="282.843" height="282.843" rx="80" transform="rotate(45 240 0.0180664)" fill="#FE823C"/>
<path d="M265 174.855C265 147.229 242.626 124.855 215 124.855C187.374 124.855 165 147.229 165 174.855C165 202.482 187.374 224.855 215 224.855C215 197.229 237.374 174.855 265 174.855Z" fill="white"/>
<path d="M265 174.855C265 202.482 242.626 224.855 215 224.855C215 252.482 237.374 274.855 265 274.855C292.626 274.855 315 252.482 315 224.855C315 197.229 292.626 174.855 265 174.855Z" fill="white"/>
<mask id="mask0" mask-type="alpha" maskUnits="userSpaceOnUse" x="1088" y="78" width="768" height="245">
<rect x="1187.93" y="83.1101" width="36" height="183.2" fill="black"/>
<path fill-rule="evenodd" clip-rule="evenodd" d="M1151.45 268C1188.99 268 1215.94 235.805 1215.94 203C1215.94 172.014 1189.17 138 1151.45 138C1115.38 138 1088 167.102 1088 203C1088 238.899 1115.38 268 1151.45 268ZM1155.4 235.144C1173.89 235.144 1188 221.368 1188 203C1188 184.632 1173.89 170.855 1155.4 170.855C1136.91 170.855 1122.59 185.247 1122.59 203C1122.59 220.753 1136.91 235.144 1155.4 235.144Z" fill="black"/>
<path fill-rule="evenodd" clip-rule="evenodd" d="M1307.58 138.012C1272.48 138.012 1242.58 167.113 1242.58 203.012V203.012C1242.58 238.91 1271.18 268.012 1307.58 268.012C1334.01 268.012 1355.41 254.828 1365.15 239.415L1335.48 225.418C1330.34 230.716 1323.37 234.561 1315.64 236.244C1313.14 236.861 1310.47 237.188 1307.65 237.188C1307.52 237.188 1307.4 237.187 1307.27 237.186C1307.14 237.187 1307.01 237.188 1306.88 237.188C1288.01 237.188 1273.39 222.203 1273.39 203.718C1273.39 203.604 1273.39 203.491 1273.39 203.38C1273.39 203.257 1273.39 203.134 1273.39 203.012C1273.39 184.136 1288.34 168.835 1307.65 168.835C1324.47 168.835 1335.86 182.313 1338.52 196.629C1342.23 196.555 1344.37 198.371 1344.37 204.326C1344.37 205.816 1344.26 207.28 1344.04 208.712L1367.86 215.784L1370.22 216.023C1377.93 166.995 1342.68 138.012 1307.58 138.012Z" fill="black"/>
<path d="M1259.71 188.023H1339.95L1370.22 216.023H1366.65H1260.17L1259.71 188.023Z" fill="black"/>
<path fill-rule="evenodd" clip-rule="evenodd" d="M1432.94 138.528C1464.82 134.733 1483.47 152.641 1489.04 166.257L1458.74 178.654C1456.71 175.137 1449.73 168.677 1440.86 168.677C1429.79 168.677 1427.6 172.869 1426.83 175.082C1425.81 178.036 1427.38 180.768 1431.02 182.111C1434.49 183.391 1438.2 184.309 1442.09 185.274C1444.15 185.784 1446.26 186.306 1448.42 186.902L1448.42 186.901L1448.67 186.971C1456.81 189.203 1465.97 192.031 1476.71 200.133C1484.37 205.912 1489 213.954 1489.96 222.934C1490.88 231.5 1488.33 239.476 1484.46 245.816C1476.89 258.222 1462.12 267.933 1444.95 267.933L1444.77 267.933C1440.75 267.934 1430.02 267.936 1418.66 264.745C1407.13 261.508 1392.37 254.218 1384.58 237.764L1415.06 223.34C1415.15 223.581 1416.84 227.78 1422.99 232.341C1429.33 237.038 1436.98 237.745 1444.96 236.028C1453.92 234.102 1455.33 228.318 1452.67 225.699C1449.56 222.628 1443.34 220.862 1437.16 219.111C1436.42 218.901 1435.68 218.691 1434.95 218.479L1434.95 218.472C1434.73 218.413 1434.52 218.353 1434.3 218.293C1434.17 218.254 1434.04 218.214 1433.9 218.175L1433.89 218.175C1427.51 216.373 1419.62 213.794 1410.12 208.705C1402.38 204.554 1395.88 198.483 1392.28 190.517C1388.6 182.364 1388.54 173.457 1391.74 165.415C1397.98 149.737 1414.53 140.72 1432.94 138.528Z" fill="black"/>
<rect x="1513.58" y="139.98" width="36" height="126.324" fill="black"/>
<circle cx="1531.58" cy="100.012" r="22" fill="black"/>
<rect x="1672.7" y="139.923" width="36" height="116.051" fill="black"/>
<path fill-rule="evenodd" clip-rule="evenodd" d="M1582.7 294.294C1593.7 310.294 1613.44 322.294 1639.47 322.294C1678.24 322.294 1708.7 294.209 1708.7 255.974L1672.7 255.974C1672.5 273.463 1657.47 288.786 1639.6 288.786C1630.68 288.786 1617.25 281.797 1611.25 274.797L1582.7 294.294Z" fill="black"/>
<path fill-rule="evenodd" clip-rule="evenodd" d="M1636.03 268C1673.57 268 1700.52 235.805 1700.52 203C1700.52 172.014 1673.75 138 1636.03 138C1599.97 138 1572.58 167.102 1572.58 203C1572.58 238.899 1599.97 268 1636.03 268ZM1639.99 235.144C1658.48 235.144 1672.58 221.368 1672.58 203C1672.58 184.632 1658.48 170.855 1639.99 170.855C1621.49 170.855 1607.17 185.247 1607.17 203C1607.17 220.753 1621.49 235.144 1639.99 235.144Z" fill="black"/>
<rect x="1732.58" y="140.139" width="36" height="126.001" fill="black"/>
<path d="M1819.77 196.897L1855.77 187.981V266.249H1819.77L1819.77 196.897Z" fill="black"/>
<path d="M1803.47 138.008C1838.37 138.008 1855.77 162.416 1855.77 188.008L1819.77 198.672C1819.77 185.247 1812.03 173.672 1794.5 173.672C1776.69 173.672 1768.58 186.672 1768.58 198.672L1757.67 182.559C1751.67 170.194 1768.46 138.008 1803.47 138.008Z" fill="black"/>
</mask>
<g mask="url(#mask0)">
<rect x="1072" y="33" width="835" height="331" fill="url(#paint0_linear)"/>
</g>
</g>
<defs>
<linearGradient id="paint0_linear" x1="1094.61" y1="346.503" x2="1776.89" y2="11.8642" gradientUnits="userSpaceOnUse">
<stop stop-color="#F87615"/>
<stop offset="1" stop-color="#FECE5C"/>
</linearGradient>
<clipPath id="clip0">
<rect width="1940" height="400" fill="white"/>
</clipPath>
</defs>
</svg>
