<svg width="1738" height="401" viewBox="0 0 1738 401" fill="none" xmlns="http://www.w3.org/2000/svg">
<g clip-path="url(#clip0)">
<rect x="585.937" y="137.517" width="36" height="125.954" fill="black"/>
<path fill-rule="evenodd" clip-rule="evenodd" d="M549.388 265.471C586.922 265.471 613.875 233.276 613.875 200.471C613.875 169.485 587.102 135.471 549.388 135.471C513.32 135.471 485.937 164.572 485.937 200.471C485.937 236.369 513.32 265.471 549.388 265.471ZM553.339 232.615C571.832 232.615 585.937 218.838 585.937 200.47C585.937 182.102 571.832 168.326 553.339 168.326C534.846 168.326 520.525 182.717 520.525 200.47C520.525 218.223 534.846 232.615 553.339 232.615Z" fill="black"/>
<path fill-rule="evenodd" clip-rule="evenodd" d="M766.55 172.63L733.585 187.944C729.38 178.471 720.512 170.848 708.521 170.848C691.472 170.848 678.269 184.116 678.269 200.482C678.269 216.849 691.472 230.117 708.521 230.117C720.786 230.117 729.783 223.25 733.866 213.302L766.764 228.815C756.656 250.518 734.97 265.482 707.937 265.482C671.537 265.482 642.937 236.381 642.937 200.482C642.937 164.584 672.837 135.482 707.937 135.482C733.291 135.482 755.932 150.667 766.55 172.63Z" fill="black"/>
<rect x="786.937" y="137.492" width="36" height="125.999" fill="black"/>
<path d="M866.937 186.491L902.937 183.491V263.491H866.937V186.491Z" fill="black"/>
<path d="M946.937 186.491L982.937 183.491V263.491H946.937V186.491Z" fill="black"/>
<path d="M855.2 135.482C887.058 135.482 902.936 159.891 902.936 185.482L866.936 192.175C866.936 181.109 856.936 171.146 844.936 171.146C832.936 171.146 822.936 181.49 822.936 193.49L813.401 180.033C809.649 171.146 823.249 135.482 855.2 135.482Z" fill="black"/>
<path d="M935.2 135.482C967.058 135.482 982.936 159.891 982.936 185.482L946.936 192.175C946.936 181.109 936.936 171.146 924.936 171.146C912.936 171.146 902.936 181.49 902.936 193.49L893.401 180.033C889.649 171.146 903.249 135.482 935.2 135.482Z" fill="black"/>
<path d="M935.201 135.482C967.059 135.482 982.937 159.891 982.937 185.482L946.937 188.482C946.937 177.416 936.937 168.482 924.937 168.482C912.937 168.482 902.937 176.482 902.937 188.482L884.937 169.482C892.937 151.482 903.249 135.482 935.201 135.482Z" fill="black"/>
<circle cx="1038.39" cy="239.936" r="23.4539" fill="black"/>
<rect x="239.937" y="-2.51758" width="282.843" height="282.843" rx="80" transform="rotate(45 239.937 -2.51758)" fill="#C960FF"/>
<path d="M263.44 284.719C263.44 294.934 252.907 299.482 239.902 299.482C226.896 299.482 216.363 294.934 216.363 284.719C216.363 275.548 221.344 284.123 239.902 284.123C258.459 284.123 263.44 276.033 263.44 284.719Z" fill="white"/>
<path d="M276.784 249.615C276.784 269.164 260.488 277.482 240.403 277.482C220.317 277.482 204.022 267.462 204.022 249.615C204.022 222.051 175.295 212.371 175.295 172.442C175.295 136.559 204.438 107.482 240.403 107.482C276.367 107.482 305.51 136.559 305.51 172.442C305.51 215.51 276.784 225.983 276.784 249.615Z" fill="white"/>
<path d="M255.684 213.262C263.974 208.051 269.451 198.913 269.451 188.453C269.451 179.465 265.381 171.384 258.916 166.022C253.782 161.717 256.597 184.45 252.337 188.453C247.812 192.682 232.144 192.531 227.466 188.453C223.055 184.563 224.348 163.115 220.887 166.022C214.46 171.384 210.353 179.465 210.353 188.453C210.353 198.875 215.829 208.051 224.12 213.262V250.457C224.12 256.726 229.938 259.482 239.902 259.482C249.865 259.482 255.684 257.292 255.684 250.457V213.262Z" fill="#C960FF"/>
<mask id="mask0" mask-type="alpha" maskUnits="userSpaceOnUse" x="1091" y="81" width="565" height="185">
<rect x="1332.94" y="137.354" width="36" height="125.954" fill="black"/>
<path fill-rule="evenodd" clip-rule="evenodd" d="M1296.39 265.309C1333.92 265.309 1360.87 233.113 1360.87 200.309C1360.87 169.323 1334.1 135.309 1296.39 135.309C1260.32 135.309 1232.94 164.41 1232.94 200.309C1232.94 236.207 1260.32 265.309 1296.39 265.309ZM1300.34 232.453C1318.83 232.453 1332.94 218.676 1332.94 200.308C1332.94 181.94 1318.83 168.164 1300.34 168.164C1281.85 168.164 1267.52 182.555 1267.52 200.308C1267.52 218.061 1281.85 232.453 1300.34 232.453Z" fill="black"/>
<path fill-rule="evenodd" clip-rule="evenodd" d="M1509.55 172.457L1476.58 187.77C1472.38 178.298 1463.51 170.674 1451.52 170.674C1434.47 170.674 1421.27 183.942 1421.27 200.309C1421.27 216.675 1434.47 229.943 1451.52 229.943C1463.79 229.943 1472.78 223.076 1476.87 213.129L1509.76 228.641C1499.66 250.345 1477.97 265.309 1450.94 265.309C1414.54 265.309 1385.94 236.207 1385.94 200.309C1385.94 164.41 1415.84 135.309 1450.94 135.309C1476.29 135.309 1498.93 150.494 1509.55 172.457Z" fill="black"/>
<rect x="1091.94" y="81.4824" width="36" height="181.783" fill="black"/>
<path d="M1179.12 194.024L1215.12 185.107V263.376H1179.12L1179.12 194.024Z" fill="black"/>
<path d="M1162.82 135.135C1197.72 135.135 1215.12 159.543 1215.12 185.135L1179.12 195.798C1179.12 182.374 1171.38 170.799 1153.85 170.799C1136.04 170.799 1127.94 183.798 1127.94 195.798L1117.02 179.686C1111.02 167.321 1127.81 135.135 1162.82 135.135Z" fill="black"/>
<rect x="1532.94" y="81.4824" width="36" height="181.83" fill="black"/>
<path d="M1607.22 139.309H1654.94L1561.94 238.562L1535.09 221.163L1607.22 139.309Z" fill="black"/>
<path d="M1611.68 263.49H1656L1589.94 179.309L1562.94 201.021L1611.68 263.49Z" fill="black"/>
</mask>
<g mask="url(#mask0)">
<rect x="1076.65" y="80.0332" width="618.563" height="272.898" fill="url(#paint0_linear)"/>
</g>
</g>
<defs>
<linearGradient id="paint0_linear" x1="1093.4" y1="338.505" x2="1695.22" y2="80.0332" gradientUnits="userSpaceOnUse">
<stop stop-color="#FF56DA"/>
<stop offset="1" stop-color="#FF3D3D"/>
</linearGradient>
<clipPath id="clip0">
<rect width="1738" height="400" fill="white" transform="translate(0 0.982422)"/>
</clipPath>
</defs>
</svg>
