<svg width="1739" height="401" viewBox="0 0 1739 401" fill="none" xmlns="http://www.w3.org/2000/svg">
<rect width="1738" height="400" transform="translate(0.535156 0.00317383)" fill="#181818"/>
<rect x="586.472" y="136.537" width="36" height="125.954" fill="white"/>
<path fill-rule="evenodd" clip-rule="evenodd" d="M549.923 264.491C587.458 264.491 614.41 232.296 614.41 199.492C614.41 168.506 587.637 134.491 549.923 134.491C513.856 134.491 486.472 163.593 486.472 199.491C486.472 235.39 513.856 264.491 549.923 264.491ZM553.874 231.636C572.367 231.636 586.472 217.859 586.472 199.491C586.472 181.123 572.367 167.346 553.874 167.346C535.381 167.346 521.06 181.738 521.06 199.491C521.06 217.244 535.381 231.636 553.874 231.636Z" fill="white"/>
<path fill-rule="evenodd" clip-rule="evenodd" d="M767.086 171.651L734.12 186.965C729.915 177.492 721.047 169.868 709.056 169.868C692.007 169.868 678.804 183.136 678.804 199.503C678.804 215.87 692.007 229.138 709.056 229.138C721.321 229.138 730.318 222.271 734.401 212.323L767.299 227.835C757.192 249.539 735.505 264.503 708.472 264.503C672.072 264.503 643.472 235.402 643.472 199.503C643.472 163.605 673.372 134.503 708.472 134.503C733.826 134.503 756.467 149.688 767.086 171.651Z" fill="white"/>
<rect x="787.472" y="136.512" width="36" height="125.999" fill="white"/>
<path d="M867.472 185.512L903.472 182.512V262.512H867.472V185.512Z" fill="white"/>
<path d="M947.472 185.512L983.472 182.512V262.512H947.472V185.512Z" fill="white"/>
<path d="M855.735 134.503C887.594 134.503 903.471 158.911 903.471 184.503L867.471 191.196C867.471 180.13 857.471 170.167 845.471 170.167C833.471 170.167 823.471 180.511 823.471 192.511L813.936 179.054C810.184 170.167 823.784 134.503 855.735 134.503Z" fill="white"/>
<path d="M935.735 134.503C967.594 134.503 983.471 158.911 983.471 184.503L947.471 191.196C947.471 180.13 937.471 170.167 925.471 170.167C913.471 170.167 903.471 180.511 903.471 192.511L893.936 179.054C890.184 170.167 903.784 134.503 935.735 134.503Z" fill="white"/>
<path d="M935.736 134.503C967.594 134.503 983.472 158.911 983.472 184.503L947.472 187.503C947.472 176.436 937.472 167.503 925.472 167.503C913.472 167.503 903.472 175.503 903.472 187.503L885.472 168.503C893.472 150.503 903.784 134.503 935.736 134.503Z" fill="white"/>
<circle cx="1038.93" cy="238.957" r="23.4539" fill="white"/>
<rect x="1333.47" y="136.375" width="36" height="125.954" fill="white"/>
<path fill-rule="evenodd" clip-rule="evenodd" d="M1296.92 264.329C1334.46 264.329 1361.41 232.134 1361.41 199.329C1361.41 168.343 1334.64 134.329 1296.92 134.329C1260.85 134.329 1233.47 163.431 1233.47 199.329C1233.47 235.228 1260.85 264.329 1296.92 264.329ZM1300.87 231.474C1319.37 231.474 1333.47 217.697 1333.47 199.329C1333.47 180.961 1319.37 167.184 1300.87 167.184C1282.38 167.184 1268.06 181.576 1268.06 199.329C1268.06 217.082 1282.38 231.474 1300.87 231.474Z" fill="white"/>
<path fill-rule="evenodd" clip-rule="evenodd" d="M1510.08 171.477L1477.12 186.791C1472.91 177.318 1464.05 169.695 1452.05 169.695C1435.01 169.695 1421.8 182.963 1421.8 199.329C1421.8 215.696 1435.01 228.964 1452.05 228.964C1464.32 228.964 1473.32 222.097 1477.4 212.149L1510.3 227.662C1500.19 249.365 1478.5 264.329 1451.47 264.329C1415.07 264.329 1386.47 235.228 1386.47 199.329C1386.47 163.431 1416.37 134.329 1451.47 134.329C1476.83 134.329 1499.47 149.514 1510.08 171.477Z" fill="white"/>
<rect x="1092.47" y="80.5032" width="36" height="181.783" fill="white"/>
<path d="M1179.66 193.044L1215.66 184.128V262.396H1179.66L1179.66 193.044Z" fill="white"/>
<path d="M1163.35 134.155C1198.26 134.155 1215.66 158.563 1215.66 184.155L1179.66 194.819C1179.66 181.394 1171.91 169.819 1154.39 169.819C1136.58 169.819 1128.47 182.819 1128.47 194.819L1117.56 178.706C1111.55 166.341 1128.35 134.155 1163.35 134.155Z" fill="white"/>
<rect x="1533.47" y="80.5032" width="36" height="181.83" fill="white"/>
<path d="M1607.76 138.329H1655.47L1562.47 237.583L1535.63 220.184L1607.76 138.329Z" fill="white"/>
<path d="M1612.22 262.51H1656.53L1590.47 178.329L1563.47 200.041L1612.22 262.51Z" fill="white"/>
<path fill-rule="evenodd" clip-rule="evenodd" d="M297.041 53.0717C265.799 21.8298 215.146 21.8297 183.904 53.0717L97.0408 139.935C65.7989 171.177 65.7989 221.83 97.0408 253.072L183.904 339.935C215.146 371.177 265.799 371.177 297.041 339.935L383.904 253.072C415.146 221.83 415.146 171.177 383.904 139.935L297.041 53.0717ZM277.32 248.636C277.32 268.185 261.024 276.503 240.939 276.503C220.853 276.503 204.557 266.483 204.557 248.636C204.557 236.127 198.641 227.301 192.179 217.66C184.401 206.057 175.831 193.272 175.831 171.463C175.831 135.58 204.974 106.503 240.939 106.503C276.903 106.503 306.046 135.58 306.046 171.463C306.046 196.204 296.566 210.188 288.498 222.09C282.522 230.906 277.32 238.58 277.32 248.636ZM263.976 283.74C263.976 293.955 253.443 298.503 240.437 298.503C227.432 298.503 216.899 293.955 216.899 283.74C216.899 278.57 218.481 279.039 223.186 280.432C226.828 281.511 232.34 283.143 240.437 283.143C248.519 283.143 254.026 281.609 257.668 280.594C262.389 279.279 263.976 278.836 263.976 283.74Z" fill="white"/>
<path d="M256.22 212.283C264.51 207.072 269.986 197.933 269.986 187.473C269.986 178.486 265.917 170.405 259.452 165.043C254.318 160.738 257.132 183.471 252.873 187.473C248.348 191.703 232.679 191.552 228.002 187.473C223.59 183.584 224.883 162.135 221.423 165.043C214.996 170.405 210.889 178.486 210.889 187.473C210.889 197.896 216.365 207.072 224.655 212.283V249.478C224.655 255.747 230.474 258.503 240.437 258.503C250.401 258.503 256.22 256.313 256.22 249.478V212.283Z" fill="white"/>
<g style="mix-blend-mode:darken">
<rect x="1082.4" y="62.8806" width="618.563" height="272.898" fill="url(#paint0_linear)"/>
<rect x="1082.4" y="62.8806" width="618.563" height="272.898" fill="url(#paint1_linear)"/>
</g>
<defs>
<linearGradient id="paint0_linear" x1="1099.15" y1="321.352" x2="1700.96" y2="62.8806" gradientUnits="userSpaceOnUse">
<stop stop-color="#FF56DA"/>
<stop offset="1" stop-color="#FF3D3D"/>
</linearGradient>
<linearGradient id="paint1_linear" x1="1700.96" y1="152.737" x2="1531.7" y2="479.764" gradientUnits="userSpaceOnUse">
<stop stop-color="#FF5F96"/>
<stop offset="1" stop-color="#BD00FF"/>
</linearGradient>
</defs>
</svg>
