<svg xmlns="http://www.w3.org/2000/svg" height="400" xmlns:xlink="http://www.w3.org/1999/xlink" viewBox="-70 -35 1730 400">
<defs>
<style>.cls-1{fill-rule:evenodd;}.cls-2{fill:#c960ff;}.cls-3{fill:#fff;}.cls-4{fill:url(#linear-gradient);}.cls-5{fill:url(#linear-gradient-2);}.cls-6{fill:url(#linear-gradient-3);}.cls-7{fill:url(#linear-gradient-4);}</style>
<linearGradient id="linear-gradient" x1="1361.63" y1="434.3" x2="1200.32" y2="122.65" gradientTransform="matrix(1, 0, 0, -1, 0, 398)" gradientUnits="userSpaceOnUse">
<stop offset="0" stop-color="#ff5f96"/><stop offset="1" stop-color="#bd00ff"/>
</linearGradient>
<linearGradient id="linear-gradient-2" x1="1470.66" y1="377.87" x2="1309.35" y2="66.22" xlink:href="#linear-gradient"/>
<linearGradient id="linear-gradient-3" x1="1224.51" y1="505.27" x2="1063.21" y2="193.62" xlink:href="#linear-gradient"/>
<linearGradient id="linear-gradient-4" x1="1572.1" y1="325.37" x2="1410.8" y2="13.72" gradientTransform="matrix(1, 0, 0, -1, 0.2, 368.36)" xlink:href="#linear-gradient"/>
</defs>
<title>new-working-hopefully-logomark</title>
<rect x="512.86" y="106.9" width="36" height="125.95"/>
<path class="cls-1" d="M476.11,264.49c37.54,0,64.49-32.19,64.49-65,0-31-26.77-65-64.49-65-36.07,0-63.45,29.1-63.45,65S440,264.49,476.11,264.49Zm3.95-32.86c18.5,0,32.6-13.77,32.6-32.14s-14.1-32.14-32.6-32.14-32.81,14.39-32.81,32.14S461.57,231.63,480.06,231.63Z" transform="translate(0.2 -29.64)"/>
<path class="cls-1" d="M693.27,171.65l-33,15.31c-4.21-9.47-13.07-17.09-25.07-17.09-17,0-30.25,13.27-30.25,29.63s13.21,29.64,30.25,29.64c12.27,0,21.27-6.87,25.35-16.82l32.9,15.52c-10.11,21.7-31.8,36.66-58.83,36.66a64.68,64.68,0,0,1-65-65c0-35.9,29.9-65,65-65C660,134.5,682.66,149.69,693.27,171.65Z" transform="translate(0.2 -29.64)"/>
<rect x="713.86" y="106.87" width="36" height="126"/>
<path d="M793.66,185.51l36-3v80h-36Z" transform="translate(0.2 -29.64)"/>
<path d="M873.66,185.51l36-3v80h-36Z" transform="translate(0.2 -29.64)"/>
<path d="M781.92,134.5c31.86,0,47.74,24.41,47.74,50l-36,6.7c0-11.07-10-21-22-21s-22,10.34-22,22.34l-9.54-13.46C736.37,170.17,750,134.5,781.92,134.5Z" transform="translate(0.2 -29.64)"/>
<path d="M861.92,134.5c31.86,0,47.74,24.41,47.74,50l-36,6.7c0-11.07-10-21-22-21s-22,10.34-22,22.34l-9.54-13.46C816.37,170.17,830,134.5,861.92,134.5Z" transform="translate(0.2 -29.64)"/>
<path d="M861.92,134.5c31.86,0,47.74,24.41,47.74,50l-36,3c0-11.06-10-20-22-20s-22,8-22,20l-18-19C819.66,150.5,830,134.5,861.92,134.5Z" transform="translate(0.2 -29.64)"/>
<circle cx="965.32" cy="209.32" r="23.45"/><rect class="cls-2" x="25.24" y="55.08" width="282.84" height="282.84" rx="80" transform="translate(-89.93 145.76) rotate(-45)"/>
<path class="cls-3" d="M190.16,283.74c0,10.21-10.53,14.76-23.53,14.76s-23.54-4.55-23.54-14.76c0-9.17,5-.6,23.54-.6S190.16,275.05,190.16,283.74Z" transform="translate(0.2 -29.64)"/>
<path class="cls-3" d="M203.51,248.64c0,19.54-16.3,27.86-36.38,27.86s-36.38-10-36.38-27.86c0-27.57-28.73-37.25-28.73-77.18a65.11,65.11,0,0,1,130.21,0C232.23,214.53,203.51,225,203.51,248.64Z" transform="translate(0.2 -29.64)"/>
<path class="cls-2" d="M182.41,212.28A29.2,29.2,0,0,0,185.64,165c-5.13-4.3-2.32,18.43-6.58,22.43-4.52,4.23-20.19,4.08-24.87,0-4.41-3.89-3.12-25.34-6.58-22.43a29.2,29.2,0,0,0,3.23,47.24v37.2c0,6.27,5.82,9,15.79,9s15.78-2.19,15.78-9Z" transform="translate(0.2 -29.64)"/>
<path class="cls-4" d="M1259.66,146.42a61.43,61.43,0,0,0-36.55-12.09c-36.06,0-63.45,29.1-63.45,65s27.39,65,63.45,65a62.45,62.45,0,0,0,36.55-11.68v9.68h36V136.38h-36Zm-32.6,85.05c-18.49,0-32.81-14.39-32.81-32.14s14.32-32.15,32.81-32.15,32.6,13.78,32.6,32.15S1245.56,231.47,1227.06,231.47Z" transform="translate(0.2 -29.64)"/>
<path class="cls-5" d="M1378.25,229c-17,0-30.26-13.26-30.26-29.63s13.21-29.64,30.26-29.64c12,0,20.85,7.63,25.06,17.1l33-15.31c-10.62-22-33.26-37.15-58.62-37.15-35.1,0-65,29.1-65,65a64.68,64.68,0,0,0,65,65c27,0,48.72-15,58.83-36.67l-32.9-15.51C1399.51,222.1,1390.51,229,1378.25,229Z" transform="translate(0.2 -29.64)"/>
<path class="cls-6" d="M1089.55,134.15a48.77,48.77,0,0,0-34.89,13.92V80.5h-36V262.29h36V194.82c0-12,8.11-25,25.92-25,17.53,0,25.27,11.57,25.27,25V262.4h36V184.13h0C1141.84,158.55,1124.44,134.15,1089.55,134.15Z" transform="translate(0.2 -29.64)"/>
<polygon class="cls-7" points="1581.86 108.69 1534.15 108.69 1495.86 152.14 1495.86 50.86 1459.86 50.86 1459.86 232.69 1495.86 232.69 1495.86 200.47 1505.39 190.3 1538.61 232.87 1582.39 232.87 1582.39 232.18 1529.4 164.67 1581.86 108.69"/>
</svg>
