<svg width="1668" height="401" viewBox="0 0 1668 401" fill="none" xmlns="http://www.w3.org/2000/svg">
<rect width="1667" height="400" transform="translate(0.5 0.020752)" fill="#181818"/>
<path fill-rule="evenodd" clip-rule="evenodd" d="M183.932 56.6068C215.174 25.3649 265.827 25.3649 297.069 56.6069L383.931 143.47C415.173 174.712 415.173 225.365 383.931 256.607L297.069 343.47C265.827 374.712 215.173 374.712 183.932 343.47L97.0686 256.607C65.8267 225.365 65.8267 174.712 97.0687 143.47L183.932 56.6068ZM263.287 134.824C263.287 138.391 262.467 141.767 261.006 144.774L295.766 179.534C298.772 178.072 302.148 177.252 305.715 177.252C318.299 177.252 328.501 187.454 328.501 200.038C328.501 212.622 318.299 222.824 305.715 222.824C295.455 222.824 286.778 216.042 283.924 206.717H254.644V191.788H284.469C284.693 191.211 284.941 190.644 285.21 190.09L250.449 155.329C249.646 155.719 248.817 156.064 247.966 156.359V243.718C256.884 246.808 263.287 255.283 263.287 265.253C263.287 277.837 253.085 288.039 240.501 288.039C227.917 288.039 217.715 277.837 217.715 265.253C217.715 261.686 218.535 258.31 219.996 255.304L185.235 220.543C182.229 222.004 178.853 222.824 175.286 222.824C162.702 222.824 152.5 212.622 152.5 200.038C152.5 187.454 162.702 177.252 175.286 177.252C178.853 177.252 182.229 178.072 185.235 179.534L219.996 144.773C218.535 141.767 217.715 138.391 217.715 134.824C217.715 122.24 227.917 112.038 240.501 112.038C253.085 112.038 263.287 122.24 263.287 134.824ZM233.037 243.718V156.359C232.185 156.064 231.355 155.719 230.552 155.329L195.791 190.09C196.06 190.644 196.308 191.211 196.532 191.788H226.358V206.717H197.077C196.731 207.847 196.3 208.939 195.791 209.987L230.552 244.748C231.355 244.358 232.185 244.013 233.037 243.718Z" fill="white"/>
<rect x="580.5" y="140.055" width="36" height="125.954" fill="white"/>
<path fill-rule="evenodd" clip-rule="evenodd" d="M543.951 268.009C581.486 268.009 608.438 235.814 608.438 203.009C608.438 172.023 581.665 138.009 543.951 138.009C507.884 138.009 480.5 167.111 480.5 203.009C480.5 238.908 507.884 268.009 543.951 268.009ZM547.903 235.153C566.395 235.153 580.5 221.377 580.5 203.009C580.5 184.641 566.395 170.864 547.903 170.864C529.41 170.864 515.088 185.256 515.088 203.009C515.088 220.762 529.41 235.153 547.903 235.153Z" fill="white"/>
<path fill-rule="evenodd" clip-rule="evenodd" d="M761.114 175.169L728.149 190.483C723.943 181.01 715.076 173.386 703.084 173.386C686.035 173.386 672.832 186.654 672.832 203.021C672.832 219.388 686.035 232.656 703.084 232.656C715.35 232.656 724.346 225.788 728.429 215.841L761.327 231.353C751.22 253.057 729.534 268.021 702.5 268.021C666.1 268.021 637.5 238.919 637.5 203.021C637.5 167.122 667.4 138.021 702.5 138.021C727.855 138.021 750.496 153.206 761.114 175.169Z" fill="white"/>
<rect x="781.5" y="140.03" width="36" height="125.999" fill="white"/>
<path d="M861.5 189.03L897.5 186.03V266.03H861.5V189.03Z" fill="white"/>
<path d="M941.5 189.03L977.5 186.03V266.03H941.5V189.03Z" fill="white"/>
<path d="M849.764 138.021C881.622 138.021 897.499 162.429 897.499 188.021L861.499 194.714C861.499 183.647 851.499 173.685 839.499 173.685C827.499 173.685 817.499 184.028 817.499 196.028L807.965 182.571C804.212 173.685 817.812 138.021 849.764 138.021Z" fill="white"/>
<path d="M929.764 138.021C961.622 138.021 977.499 162.429 977.499 188.021L941.499 194.714C941.499 183.647 931.499 173.685 919.499 173.685C907.499 173.685 897.499 184.028 897.499 196.028L887.965 182.571C884.212 173.685 897.812 138.021 929.764 138.021Z" fill="white"/>
<path d="M929.764 138.021C961.622 138.021 977.5 162.429 977.5 188.021L941.5 191.021C941.5 179.954 931.5 171.021 919.5 171.021C907.5 171.021 897.5 179.021 897.5 191.021L879.5 172.021C887.5 154.021 897.813 138.021 929.764 138.021Z" fill="white"/>
<circle cx="1032.95" cy="242.475" r="23.4539" fill="white"/>
<rect x="1092.5" y="139.989" width="36" height="126.324" fill="white"/>
<circle cx="1110.5" cy="100.021" r="22" fill="white"/>
<path fill-rule="evenodd" clip-rule="evenodd" d="M1280.5 178.229L1247.36 193.627C1243.84 182.75 1234.38 173.374 1221.08 173.374C1204.04 173.374 1190.83 186.642 1190.83 203.009C1190.83 219.376 1204.04 232.644 1221.08 232.644C1234.64 232.644 1244.21 224.254 1247.55 212.587L1280.69 228.21C1271.26 251.593 1248.82 268.009 1220.5 268.009C1184.1 268.009 1155.5 238.908 1155.5 203.009C1155.5 167.111 1185.4 138.009 1220.5 138.009C1247.02 138.009 1270.57 154.623 1280.5 178.229Z" fill="white"/>
<rect width="36" height="187.842" transform="matrix(-1 0 0 1 1339.5 140.269)" fill="white"/>
<path fill-rule="evenodd" clip-rule="evenodd" d="M1376.22 268.009C1338.69 268.009 1311.73 235.814 1311.73 203.009C1311.73 172.023 1338.51 138.009 1376.22 138.009C1412.29 138.009 1439.67 167.111 1439.67 203.009C1439.67 238.908 1412.29 268.009 1376.22 268.009ZM1372.27 235.153C1353.77 235.153 1339.67 221.377 1339.67 203.009C1339.67 184.641 1353.77 170.864 1372.27 170.864C1390.76 170.864 1405.08 185.256 1405.08 203.009C1405.08 220.762 1390.76 235.153 1372.27 235.153Z" fill="white"/>
<path fill-rule="evenodd" clip-rule="evenodd" d="M1583.11 175.157L1550.15 190.471C1545.94 180.998 1537.08 173.374 1525.08 173.374C1508.04 173.374 1494.83 186.642 1494.83 203.009C1494.83 219.376 1508.04 232.644 1525.08 232.644C1537.35 232.644 1546.35 225.777 1550.43 215.829L1583.33 231.341C1573.22 253.045 1551.53 268.009 1524.5 268.009C1488.1 268.009 1459.5 238.908 1459.5 203.009C1459.5 167.111 1489.4 138.009 1524.5 138.009C1549.85 138.009 1572.5 153.194 1583.11 175.157Z" fill="white"/>
<g style="mix-blend-mode:darken">
<rect x="1075.5" y="53.0208" width="527" height="331" fill="url(#paint0_linear)"/>
</g>
<defs>
<linearGradient id="paint0_linear" x1="1089.77" y1="366.524" x2="1577.26" y2="215.619" gradientUnits="userSpaceOnUse">
<stop stop-color="#FF6B6B"/>
<stop offset="1" stop-color="#FF9CE3"/>
</linearGradient>
</defs>
</svg>
