<svg width="1667" height="400" viewBox="0 0 1667 400" fill="none" xmlns="http://www.w3.org/2000/svg">
<g clip-path="url(#clip0)">
<rect x="580" y="140.034" width="36" height="125.954" fill="black"/>
<path fill-rule="evenodd" clip-rule="evenodd" d="M543.451 267.988C580.986 267.988 607.938 235.793 607.938 202.988C607.938 172.002 581.165 137.988 543.451 137.988C507.384 137.988 480 167.09 480 202.988C480 238.887 507.384 267.988 543.451 267.988ZM547.403 235.133C565.895 235.133 580 221.356 580 202.988C580 184.62 565.895 170.843 547.403 170.843C528.91 170.843 514.588 185.235 514.588 202.988C514.588 220.741 528.91 235.133 547.403 235.133Z" fill="black"/>
<path fill-rule="evenodd" clip-rule="evenodd" d="M760.614 175.148L727.649 190.462C723.443 180.989 714.576 173.365 702.584 173.365C685.535 173.365 672.332 186.633 672.332 203C672.332 219.367 685.535 232.635 702.584 232.635C714.85 232.635 723.846 225.768 727.929 215.82L760.827 231.332C750.72 253.036 729.034 268 702 268C665.6 268 637 238.899 637 203C637 167.101 666.9 138 702 138C727.355 138 749.996 153.185 760.614 175.148Z" fill="black"/>
<rect x="781" y="140.01" width="36" height="125.999" fill="black"/>
<path d="M861 189.009L897 186.009V266.009H861V189.009Z" fill="black"/>
<path d="M941 189.009L977 186.009V266.009H941V189.009Z" fill="black"/>
<path d="M849.264 138C881.122 138 896.999 162.408 896.999 188L860.999 194.693C860.999 183.626 850.999 173.664 838.999 173.664C826.999 173.664 816.999 184.007 816.999 196.007L807.465 182.551C803.712 173.664 817.312 138 849.264 138Z" fill="black"/>
<path d="M929.264 138C961.122 138 976.999 162.408 976.999 188L940.999 194.693C940.999 183.626 930.999 173.664 918.999 173.664C906.999 173.664 896.999 184.007 896.999 196.007L887.465 182.551C883.712 173.664 897.312 138 929.264 138Z" fill="black"/>
<path d="M929.264 138C961.122 138 977 162.408 977 188L941 191C941 179.933 931 171 919 171C907 171 897 179 897 191L879 172C887 154 897.313 138 929.264 138Z" fill="black"/>
<circle cx="1032.45" cy="242.454" r="23.4539" fill="black"/>
<path d="M256.516 287.237C256.516 297.452 246.413 302 233.939 302C221.465 302 211.361 297.452 211.361 287.237C211.361 278.066 216.139 286.64 233.939 286.64C251.738 286.64 256.516 278.55 256.516 287.237Z" fill="white"/>
<rect x="240" y="0.0175781" width="282.843" height="282.843" rx="80" transform="rotate(45 240 0.0175781)" fill="#FF6B6B"/>
<path d="M262.786 134.803C262.786 147.388 252.585 157.589 240.001 157.589C227.416 157.589 217.215 147.388 217.215 134.803C217.215 122.219 227.416 112.018 240.001 112.018C252.585 112.018 262.786 122.219 262.786 134.803Z" fill="white"/>
<path d="M262.786 265.232C262.786 277.816 252.585 288.018 240.001 288.018C227.416 288.018 217.215 277.816 217.215 265.232C217.215 252.648 227.416 242.446 240.001 242.446C252.585 242.446 262.786 252.648 262.786 265.232Z" fill="white"/>
<path d="M305.214 222.803C292.63 222.803 282.429 212.601 282.429 200.017C282.429 187.433 292.63 177.231 305.214 177.231C317.798 177.231 328 187.433 328 200.017C328 212.601 317.798 222.803 305.214 222.803Z" fill="white"/>
<path d="M174.787 222.803C162.202 222.803 152.001 212.601 152.001 200.017C152.001 187.433 162.202 177.231 174.787 177.231C187.371 177.231 197.572 187.433 197.572 200.017C197.572 212.601 187.371 222.803 174.787 222.803Z" fill="white"/>
<path fill-rule="evenodd" clip-rule="evenodd" d="M245.278 140.082L180.064 205.296L169.508 194.74L234.722 129.525L245.278 140.082Z" fill="white"/>
<path fill-rule="evenodd" clip-rule="evenodd" d="M245.278 259.955L180.064 194.74L169.508 205.296L234.722 270.511L245.278 259.955Z" fill="white"/>
<path fill-rule="evenodd" clip-rule="evenodd" d="M234.722 140.082L299.936 205.296L310.492 194.74L245.278 129.525L234.722 140.082Z" fill="white"/>
<path fill-rule="evenodd" clip-rule="evenodd" d="M232.536 262.875V134.803H247.465V262.875H232.536Z" fill="white"/>
<path fill-rule="evenodd" clip-rule="evenodd" d="M176.357 191.768H225.857V206.696H176.357V191.768Z" fill="white"/>
<path fill-rule="evenodd" clip-rule="evenodd" d="M254.143 191.768H303.643V206.696H254.143V191.768Z" fill="white"/>
<mask id="mask0" mask-type="alpha" maskUnits="userSpaceOnUse" x="1088" y="78" width="495" height="251">
<rect x="1092" y="139.969" width="36" height="126.324" fill="black"/>
<circle cx="1110" cy="100" r="22" fill="black"/>
<path fill-rule="evenodd" clip-rule="evenodd" d="M1280 178.208L1246.86 193.606C1243.34 182.73 1233.88 173.354 1220.58 173.354C1203.54 173.354 1190.33 186.621 1190.33 202.988C1190.33 219.355 1203.54 232.623 1220.58 232.623C1234.14 232.623 1243.71 224.233 1247.05 212.566L1280.19 228.189C1270.76 251.572 1248.32 267.988 1220 267.988C1183.6 267.988 1155 238.887 1155 202.988C1155 167.09 1184.9 137.988 1220 137.988C1246.52 137.988 1270.07 154.602 1280 178.208Z" fill="black"/>
<rect width="36" height="187.842" transform="matrix(-1 0 0 1 1339 140.248)" fill="black"/>
<path fill-rule="evenodd" clip-rule="evenodd" d="M1375.72 267.988C1338.19 267.988 1311.23 235.793 1311.23 202.988C1311.23 172.002 1338.01 137.988 1375.72 137.988C1411.79 137.988 1439.17 167.09 1439.17 202.988C1439.17 238.887 1411.79 267.988 1375.72 267.988ZM1371.77 235.133C1353.28 235.133 1339.17 221.356 1339.17 202.988C1339.17 184.62 1353.28 170.843 1371.77 170.843C1390.26 170.843 1404.58 185.235 1404.58 202.988C1404.58 220.741 1390.26 235.133 1371.77 235.133Z" fill="black"/>
<path fill-rule="evenodd" clip-rule="evenodd" d="M1582.61 175.136L1549.65 190.45C1545.44 180.977 1536.58 173.354 1524.58 173.354C1507.54 173.354 1494.33 186.621 1494.33 202.988C1494.33 219.355 1507.54 232.623 1524.58 232.623C1536.85 232.623 1545.85 225.756 1549.93 215.808L1582.83 231.321C1572.72 253.024 1551.03 267.988 1524 267.988C1487.6 267.988 1459 238.887 1459 202.988C1459 167.09 1488.9 137.988 1524 137.988C1549.35 137.988 1572 153.173 1582.61 175.136Z" fill="black"/>
</mask>
<g mask="url(#mask0)">
<rect x="1075" y="33" width="527" height="331" fill="url(#paint0_linear)"/>
</g>
</g>
<defs>
<linearGradient id="paint0_linear" x1="1089.27" y1="346.503" x2="1576.76" y2="195.599" gradientUnits="userSpaceOnUse">
<stop stop-color="#FF6B6B"/>
<stop offset="1" stop-color="#FF9CE3"/>
</linearGradient>
<clipPath id="clip0">
<rect width="1667" height="400" fill="white"/>
</clipPath>
</defs>
</svg>
