<svg width="350" height="350" viewBox="0 0 350 350" version="1.1" xmlns="http://www.w3.org/2000/svg" xmlns:xlink="http://www.w3.org/1999/xlink">
<title>logo-studio</title>
<desc>Created using Figma</desc>
<g id="Canvas" transform="translate(-3405 -4502)">
<g id="logo-studio">
<g id="Group">
<g id="path0 fill 1">
<use xlink:href="#path0_fill" transform="translate(3405 4502)" fill="#ED3266"/>
</g>
<g id="path2 fill 1">
<use xlink:href="#path1_fill" transform="translate(3567.98 4597.02)" fill="#FFFFFF"/>
</g>
<g id="path1 fill 3">
<use xlink:href="#path2_fill" transform="translate(3487.98 4663.99)" fill="#FFFFFF"/>
</g>
<g id="path1 fill 2">
<use xlink:href="#path3_fill" transform="translate(3660.98 4663.99)" fill="#FFFFFF"/>
</g>
<g id="Vector">
<use xlink:href="#path4_fill" transform="translate(3504.96 4649.38)" fill="#FFFFFF"/>
</g>
</g>
</g>
</g>
<defs>
<path id="path0_fill" d="M 342.266 193.649L 193.649 342.266C 183.337 352.578 166.624 352.578 156.313 342.266L 7.7337 193.649C -2.5779 183.337 -2.5779 166.624 7.7337 156.313L 156.313 7.7337C 166.624 -2.5779 183.337 -2.5779 193.649 7.7337L 342.266 156.351C 352.578 166.624 352.578 183.337 342.266 193.649Z"/>
<path id="path1_fill" d="M 4.67933e-06 3.98663C 4.67933e-06 1.76332 1.80166 -2.33966e-06 3.98664 -2.33966e-06L 21.0065 -2.33966e-06C 23.2298 -2.33966e-06 24.9932 1.80165 24.9932 3.98663L 24.9932 43.968C 24.9932 46.1913 23.1915 47.9547 21.0065 47.9547L 4.02498 47.9547C 1.80166 47.9547 0.0383284 46.153 0.0383284 43.968L 0.0383284 3.98663L 4.67933e-06 3.98663Z"/>
<path id="path2_fill" d="M 0 3.98664C 0 1.76332 1.80165 2.33966e-06 3.98664 2.33966e-06L 6.97662 2.33966e-06C 9.19993 2.33966e-06 10.9633 1.80165 10.9633 3.98664L 10.9633 40.978C 10.9633 43.2014 9.1616 44.9647 6.97662 44.9647L 4.02497 44.9647C 1.80165 44.9647 0.0383354 43.163 0.0383354 40.978L 0.0383354 3.98664L 0 3.98664Z"/>
<path id="path3_fill" d="M -4.67933e-06 3.98664C -4.67933e-06 1.76332 1.80166 2.33966e-06 3.98664 2.33966e-06L 6.97662 2.33966e-06C 9.19993 2.33966e-06 10.9633 1.80165 10.9633 3.98664L 10.9633 40.978C 10.9633 43.2014 9.1616 44.9647 6.97662 44.9647L 3.98664 44.9647C 1.76333 44.9647 -4.67933e-06 43.163 -4.67933e-06 40.978L -4.67933e-06 3.98664Z"/>
<path id="path4_fill" d="M 141.027 0L 9.00826 0C 4.0633 0 -4.67933e-06 4.02497 -4.67933e-06 9.00827L -4.67933e-06 68.4245C -4.67933e-06 72.4878 2.75999 76.0528 6.66996 77.1261L 41.5914 86.5177C 42.358 86.7094 43.1247 86.8244 43.9297 86.8244C 47.1497 86.8244 50.2546 85.0611 51.903 82.1094C 57.1163 72.7945 65.3579 61.7162 75.1711 61.6779C 75.1711 61.6779 75.1711 61.6779 75.2095 61.6779C 81.4578 61.6779 91.0793 66.9295 99.3976 81.6877C 101.659 85.7127 106.566 87.4377 110.821 85.7511L 144.401 72.1428C 147.812 70.7628 150.036 67.4662 150.036 63.7862L 150.036 9.00827C 150.036 4.0633 145.972 0 141.027 0ZM 60.0296 41.0164C 60.0296 43.2397 58.2279 45.003 56.0429 45.003L 44.4663 45.003L 44.4663 56.5796C 44.4663 58.8029 42.6647 60.5662 40.4797 60.5662L 35.6497 60.5662C 33.4264 60.5662 31.6631 58.7646 31.6631 56.5796L 31.6631 45.003L 20.0099 45.003C 17.7865 45.003 16.0232 43.2014 16.0232 41.0164L 16.0232 36.1864C 16.0232 33.9631 17.8249 32.1998 20.0099 32.1998L 31.5864 32.1998L 31.5864 20.6232C 31.5864 18.3999 33.3881 16.6365 35.5731 16.6365L 40.403 16.6365C 42.6264 16.6365 44.3897 18.4382 44.3897 20.6232L 44.3897 32.1998L 56.0429 32.1998C 58.2663 32.1998 60.0296 34.0014 60.0296 36.1864L 60.0296 41.0164ZM 106.834 59.2246C 101.966 59.2246 98.0176 55.2763 98.0176 50.408C 98.0176 45.5397 101.966 41.5914 106.834 41.5914C 111.703 41.5914 115.651 45.5397 115.651 50.408C 115.613 55.2763 111.703 59.2246 106.834 59.2246ZM 121.209 35.1897C 116.341 35.1897 112.393 31.2414 112.393 26.3731C 112.393 21.5048 116.341 17.5565 121.209 17.5565C 126.077 17.5565 130.026 21.5048 130.026 26.3731C 130.026 31.2798 126.077 35.1897 121.209 35.1897Z"/>
</defs>
</svg>
