<svg width="350" height="350" viewBox="0 0 350 350" version="1.1" xmlns="http://www.w3.org/2000/svg" xmlns:xlink="http://www.w3.org/1999/xlink">
<title>logo-hack</title>
<desc>Created using Figma</desc>
<g id="Canvas" transform="translate(-1115 -4502)">
<g id="logo-hack">
<g id="Group">
<g id="Vector">
<use xlink:href="#path0_fill" transform="translate(1115 4502)" fill="#C960FF"/>
</g>
</g>
<g id="Group">
<g id="Vector">
<use xlink:href="#path1_fill" transform="translate(1266.98 4758.42)" fill="#FFFFFF"/>
</g>
<g id="Vector">
<use xlink:href="#path2_fill" transform="translate(1226.11 4588.9)" fill="#FFFFFF"/>
</g>
<g id="Group">
<g id="Vector">
<use xlink:href="#path3_fill" transform="translate(1261.1 4645.9)" fill="#C960FF"/>
</g>
</g>
</g>
</g>
</g>
<defs>
<path id="path0_fill" d="M 342.274 193.669L 193.669 342.274C 183.367 352.575 166.633 352.575 156.331 342.274L 7.72592 193.669C -2.57531 183.367 -2.57531 166.633 7.72592 156.331L 156.331 7.72592C 166.633 -2.57531 183.367 -2.57531 193.669 7.72592L 342.274 156.331C 352.575 166.633 352.575 183.367 342.274 193.669Z"/>
<path id="path1_fill" d="M 46.0394 4.22617C 46.0394 14.4158 35.7382 18.9528 23.0197 18.9528C 10.3012 18.9528 4.53962e-06 14.4158 4.53962e-06 4.22617C 4.53962e-06 -4.92221 4.8717 3.63114 23.0197 3.63114C 41.1677 3.63114 46.0394 -4.43876 46.0394 4.22617Z"/>
<path id="path2_fill" d="M 99.5909 139.792C 99.5909 159.018 83.5999 167.2 63.8899 167.2C 44.18 167.2 28.1889 157.345 28.1889 139.792C 28.1889 112.681 -4.53962e-06 103.161 -4.53962e-06 63.8899C -4.53962e-06 28.598 28.598 -1.1349e-06 63.8899 -1.1349e-06C 99.1819 -1.1349e-06 127.78 28.598 127.78 63.8899C 127.78 106.248 99.5909 116.549 99.5909 139.792Z"/>
<path id="path3_fill" d="M 44.3287 47.0545C 52.4358 41.9225 57.791 32.9229 57.791 22.6217C 57.791 13.7708 53.8118 5.81243 47.4898 0.531658C 42.4693 -3.70784 45.2213 18.6797 41.0561 22.6217C 36.6307 26.7868 21.309 26.638 16.7348 22.6217C 12.421 18.7912 13.6854 -2.33186 10.3012 0.531658C 4.01637 5.81243 -2.26981e-06 13.7708 -2.26981e-06 22.6217C -2.26981e-06 32.8857 5.35515 41.9225 13.4623 47.0545L 13.4623 83.6852C 13.4623 89.8585 19.1521 92.5733 28.8955 92.5733C 38.6389 92.5733 44.3287 90.4164 44.3287 83.6852L 44.3287 47.0545Z"/>
</defs>
</svg>
