<svg width="350" height="350" viewBox="0 0 350 350" version="1.1" xmlns="http://www.w3.org/2000/svg" xmlns:xlink="http://www.w3.org/1999/xlink">
<title>logo-acm</title>
<desc>Created using Figma</desc>
<g id="Canvas" transform="translate(-2260 -4502)">
<g id="logo-acm">
<g id="Rectangle 2">
<use xlink:href="#path0_fill" transform="matrix(0.707107 -0.707107 0.707107 0.707107 2260 4677)" fill="#3B59ED"/>
</g>
<g id="acm">
<use xlink:href="#path1_fill" transform="matrix(1 -2.77556e-17 2.77556e-17 1 2339.45 4655.68)" fill="#FFFFFF"/>
<use xlink:href="#path2_fill" transform="matrix(1 -2.77556e-17 2.77556e-17 1 2339.45 4655.68)" fill="#FFFFFF"/>
<use xlink:href="#path3_fill" transform="matrix(1 -2.77556e-17 2.77556e-17 1 2339.45 4655.68)" fill="#FFFFFF"/>
</g>
</g>
</g>
<defs>
<path id="path0_fill" d="M 0 26C 0 11.6406 11.6406 0 26 0L 221.487 0C 235.847 0 247.487 11.6406 247.487 26L 247.487 221.487C 247.487 235.847 235.847 247.487 221.487 247.487L 26 247.487C 11.6406 247.487 0 235.847 0 221.487L 0 26Z"/>
<path id="path1_fill" d="M 33.6884 34.219C 35.8695 32.0968 36.96 29.0905 36.96 25.2C 36.96 21.3095 35.8695 18.3326 33.6884 16.2695C 31.5074 14.1474 29.0021 13.0863 26.1726 13.0863C 23.3432 13.0863 20.8379 14.1474 18.6568 16.2695C 16.4758 18.3916 15.3853 21.3979 15.3853 25.2884C 15.3853 29.1789 16.4758 32.1853 18.6568 34.3074C 20.8379 36.3705 23.3432 37.4021 26.1726 37.4021C 29.0021 37.4021 31.5074 36.3411 33.6884 34.219ZM 6.54316 43.4147C 2.18105 38.6989 0 32.6568 0 25.2884C 0 17.92 2.18105 11.8779 6.54316 7.16211C 10.9053 2.38737 16.2105 0 22.4589 0C 28.7663 0 33.6 2.32842 36.96 6.98526L 36.96 0.530527L 52.08 0.530527L 52.08 49.8695L 36.96 49.8695L 36.96 42.7074C 33.3053 47.8947 28.4126 50.4884 22.2821 50.4884C 16.1516 50.4884 10.9053 48.1305 6.54316 43.4147Z"/>
<path id="path2_fill" d="M 64.1267 43.5916C 59.5877 38.9937 57.3183 32.8632 57.3183 25.2C 57.3183 17.5368 59.5877 11.4358 64.1267 6.89685C 68.7246 2.29895 74.6488 0 81.8993 0C 87.9119 0 93.0109 1.50316 97.1962 4.50947C 101.381 7.45684 104.152 11.7011 105.508 17.2421L 89.1498 17.2421C 87.7351 14.2947 85.4067 12.8211 82.1646 12.8211C 78.9814 12.8211 76.5941 13.9705 75.0025 16.2695C 73.4698 18.5095 72.7035 21.4863 72.7035 25.2C 72.7035 28.9137 73.4698 31.92 75.0025 34.219C 76.5941 36.459 78.893 37.5789 81.8993 37.5789C 83.7856 37.5789 85.2593 37.2547 86.3204 36.6063C 87.3814 35.9579 88.3246 34.8084 89.1498 33.1579L 105.508 33.1579C 104.152 38.4632 101.352 42.6779 97.1077 45.8021C 92.8635 48.9263 87.7941 50.4884 81.8993 50.4884C 74.6488 50.4884 68.7246 48.1895 64.1267 43.5916Z"/>
<path id="path3_fill" d="M 124.661 0.530527L 124.661 7.78105C 127.785 2.59369 132.766 0 139.604 0C 143.258 0 146.501 0.825263 149.33 2.47579C 152.218 4.12632 154.458 6.48421 156.05 9.54947C 157.877 6.66105 160.235 4.36211 163.124 2.65263C 166.071 0.884212 169.343 0 172.938 0C 178.951 0 183.726 1.85684 187.263 5.57053C 190.8 9.28421 192.568 14.4421 192.568 21.0442L 192.568 49.8695L 177.536 49.8695L 177.536 23.0779C 177.536 19.8947 176.682 17.4484 174.972 15.7389C 173.322 13.9705 171.023 13.0863 168.075 13.0863C 165.128 13.0863 162.8 13.9705 161.09 15.7389C 159.44 17.4484 158.614 19.8947 158.614 23.0779L 158.614 49.8695L 143.583 49.8695L 143.583 23.0779C 143.583 19.8947 142.728 17.4484 141.018 15.7389C 139.368 13.9705 137.069 13.0863 134.122 13.0863C 131.174 13.0863 128.846 13.9705 127.136 15.7389C 125.486 17.4484 124.661 19.8947 124.661 23.0779L 124.661 49.8695L 109.541 49.8695L 109.541 0.530527L 124.661 0.530527Z"/>
</defs>
</svg>
