<svg width="200" height="200" viewBox="0 0 200 200" fill="none" xmlns="http://www.w3.org/2000/svg">
<path d="M89.2925 195.594L4.45357 110.762C-1.48452 104.824 -1.48452 95.2231 4.45357 89.3486L89.2925 4.45322C95.2306 -1.48441 104.833 -1.48441 110.708 4.45322L195.546 89.2854C201.484 95.2231 201.484 104.824 195.546 110.699L110.771 195.594C104.833 201.469 95.2306 201.469 89.2925 195.594Z" fill="#FE823C"/>
<path d="M115.066 84.9902C115.066 68.3774 101.611 54.9231 84.9969 54.9231C68.3828 54.9231 54.9274 68.3774 54.9274 84.9902C54.9274 101.603 68.3828 115.057 84.9969 115.057C84.9969 98.4446 98.4523 84.9902 115.066 84.9902Z" fill="white"/>
<path d="M115.066 84.9901C115.066 101.603 101.611 115.057 84.9968 115.057C84.9968 131.67 98.4523 145.124 115.066 145.124C131.68 145.124 145.136 131.67 145.136 115.057C145.136 98.4445 131.68 84.9901 115.066 84.9901Z" fill="white"/>
</svg>
