<svg width="1903" height="401" viewBox="0 0 1903 401" fill="none" xmlns="http://www.w3.org/2000/svg">
<rect x="0.5" y="0.520752" width="1902" height="399" fill="#181818"/>
<path fill-rule="evenodd" clip-rule="evenodd" d="M296.568 56.6075C265.326 25.3656 214.673 25.3655 183.431 56.6075L96.5682 143.47C65.3263 174.712 65.3262 225.365 96.5682 256.607L183.431 343.47C214.673 374.712 265.326 374.712 296.568 343.47L383.431 256.607C414.673 225.365 414.673 174.712 383.431 143.47L296.568 56.6075ZM226.566 133.914C226.566 131.132 228.821 128.876 231.603 128.876H248.395C251.177 128.876 253.432 131.132 253.432 133.914V169.175H226.566V133.914ZM304.742 174.213C308.997 174.213 312.572 177.391 312.977 181.626C313.718 189.366 314.721 201.881 314.721 212.833C314.721 224.217 313.671 234.901 312.927 241.043C312.529 244.322 310.152 246.974 306.965 247.843L272.851 257.147C268.908 258.223 264.756 256.306 262.648 252.805C258.157 245.347 249.655 233.822 240 233.822C230.345 233.822 221.843 245.347 217.352 252.805C215.243 256.306 211.092 258.223 207.148 257.147L173.035 247.844C169.847 246.974 167.47 244.322 167.073 241.043C166.329 234.901 165.279 224.217 165.279 212.833C165.278 201.881 166.282 189.366 167.022 181.626C167.428 177.391 171.003 174.213 175.257 174.213L240 174.213H304.742ZM160.572 191.951C160.83 189.042 157.643 187.323 155.742 189.538C150.745 195.359 147.726 202.927 147.726 211.199C147.726 219.122 150.495 226.397 155.118 232.111C156.984 234.418 160.248 232.695 160.012 229.738C159.645 225.118 159.403 220.105 159.403 214.911C159.403 207.507 159.91 199.39 160.572 191.951ZM324.258 189.538C322.356 187.323 319.169 189.042 319.428 191.951C320.089 199.39 320.596 207.507 320.596 214.911C320.596 220.105 320.354 225.118 319.987 229.738C319.752 232.695 323.015 234.418 324.882 232.111C329.504 226.397 332.273 219.122 332.273 211.199C332.273 202.927 329.254 195.359 324.258 189.538Z" fill="white"/>
<circle cx="287.015" cy="197.72" r="8.39562" fill="white"/>
<circle cx="270.224" cy="222.907" r="8.39562" fill="white"/>
<rect x="194" y="190.876" width="12" height="38" rx="4" fill="white"/>
<rect x="219" y="203.876" width="12" height="38" rx="4" transform="rotate(90 219 203.876)" fill="white"/>
<rect x="580" y="140.055" width="36" height="125.954" fill="white"/>
<path fill-rule="evenodd" clip-rule="evenodd" d="M543.451 268.009C580.986 268.009 607.938 235.814 607.938 203.009C607.938 172.023 581.165 138.009 543.451 138.009C507.384 138.009 480 167.111 480 203.009C480 238.908 507.384 268.009 543.451 268.009ZM547.403 235.153C565.895 235.153 580 221.377 580 203.009C580 184.641 565.895 170.864 547.403 170.864C528.91 170.864 514.588 185.256 514.588 203.009C514.588 220.762 528.91 235.153 547.403 235.153Z" fill="white"/>
<path fill-rule="evenodd" clip-rule="evenodd" d="M760.614 175.169L727.649 190.483C723.443 181.01 714.576 173.386 702.584 173.386C685.535 173.386 672.332 186.654 672.332 203.021C672.332 219.388 685.535 232.656 702.584 232.656C714.85 232.656 723.846 225.788 727.929 215.841L760.827 231.353C750.72 253.057 729.034 268.021 702 268.021C665.6 268.021 637 238.919 637 203.021C637 167.122 666.9 138.021 702 138.021C727.355 138.021 749.996 153.206 760.614 175.169Z" fill="white"/>
<rect x="781" y="140.03" width="36" height="125.999" fill="white"/>
<path d="M861 189.03L897 186.03V266.03H861V189.03Z" fill="white"/>
<path d="M941 189.03L977 186.03V266.03H941V189.03Z" fill="white"/>
<path d="M849.264 138.021C881.122 138.021 896.999 162.429 896.999 188.021L860.999 194.714C860.999 183.647 850.999 173.685 838.999 173.685C826.999 173.685 816.999 184.028 816.999 196.028L807.465 182.571C803.712 173.685 817.312 138.021 849.264 138.021Z" fill="white"/>
<path d="M929.264 138.021C961.122 138.021 976.999 162.429 976.999 188.021L940.999 194.714C940.999 183.647 930.999 173.685 918.999 173.685C906.999 173.685 896.999 184.028 896.999 196.028L887.465 182.571C883.712 173.685 897.312 138.021 929.264 138.021Z" fill="white"/>
<path d="M929.264 138.021C961.122 138.021 977 162.429 977 188.021L941 191.021C941 179.954 931 171.021 919 171.021C907 171.021 897 179.021 897 191.021L879 172.021C887 154.021 897.313 138.021 929.264 138.021Z" fill="white"/>
<circle cx="1032.45" cy="242.475" r="23.4539" fill="white"/>
<path d="M292.83 287.257C292.83 297.472 281.297 302.021 267.057 302.021C252.817 302.021 241.283 297.472 241.283 287.257C241.283 278.086 246.738 286.661 267.057 286.661C287.376 286.661 292.83 278.571 292.83 287.257Z" fill="white"/>
<path fill-rule="evenodd" clip-rule="evenodd" d="M1134.36 138.651C1166.24 134.856 1184.89 152.764 1190.46 166.38L1160.16 178.776C1158.13 175.26 1151.15 168.8 1142.27 168.8C1131.21 168.8 1129.01 172.992 1128.25 175.204C1127.23 178.159 1128.8 180.89 1132.44 182.234C1135.9 183.514 1139.61 184.432 1143.51 185.397C1145.57 185.907 1147.68 186.429 1149.83 187.025L1149.84 187.024L1150.09 187.094C1158.23 189.325 1167.39 192.154 1178.13 200.256C1185.79 206.035 1190.42 214.077 1191.38 223.057C1192.3 231.622 1189.74 239.599 1185.88 245.938C1178.3 258.344 1163.54 268.056 1146.37 268.056L1146.19 268.056C1142.17 268.057 1131.44 268.059 1120.08 264.868C1108.55 261.63 1093.79 254.34 1086 237.886L1116.47 223.463C1116.57 223.704 1118.26 227.903 1124.41 232.463C1130.75 237.161 1138.4 237.868 1146.38 236.151C1155.33 234.224 1156.74 228.441 1154.09 225.822C1150.98 222.751 1144.75 220.985 1138.58 219.233C1137.84 219.024 1137.1 218.814 1136.37 218.602L1136.37 218.595C1136.15 218.536 1135.94 218.476 1135.72 218.416C1135.59 218.376 1135.46 218.337 1135.32 218.298L1135.3 218.298C1128.93 216.496 1121.04 213.917 1111.54 208.828C1103.79 204.676 1097.3 198.605 1093.7 190.639C1090.02 182.487 1089.95 173.58 1093.16 165.538C1099.4 149.86 1115.95 140.842 1134.36 138.651Z" fill="white"/>
<rect x="1562.93" y="82.8291" width="36" height="183.502" fill="white"/>
<path fill-rule="evenodd" clip-rule="evenodd" d="M1526.45 268.021C1563.99 268.021 1590.94 235.826 1590.94 203.021C1590.94 172.035 1564.17 138.021 1526.45 138.021C1490.38 138.021 1463 167.122 1463 203.021C1463 238.919 1490.38 268.021 1526.45 268.021ZM1530.4 235.165C1548.9 235.165 1563 221.388 1563 203.02C1563 184.653 1548.9 170.876 1530.4 170.876C1511.91 170.876 1497.59 185.267 1497.59 203.02C1497.59 220.773 1511.91 235.165 1530.4 235.165Z" fill="white"/>
<path fill-rule="evenodd" clip-rule="evenodd" d="M1754 268.021C1791.7 268.021 1819 238.919 1819 203.021C1819 167.122 1789.1 138.021 1754 138.021C1718.9 138.021 1689 167.122 1689 203.021C1689 238.919 1717.6 268.021 1754 268.021ZM1754 235.468C1772.82 235.468 1786.45 220.94 1786.45 203.021C1786.45 185.101 1771.52 170.573 1754 170.573C1736.48 170.573 1721.55 185.101 1721.55 203.021C1721.55 220.94 1735.83 235.468 1754 235.468Z" fill="white"/>
<path d="M1230 228.411L1266 223.331V103.793L1230 118.502L1230 228.411Z" fill="white"/>
<path d="M1206 140.105H1296V172.105H1206V140.105Z" fill="white"/>
<path d="M1272 266.021C1234.43 266.021 1230 242.82 1230 228.055C1240.28 221.873 1258.8 220.064 1266 220.064C1266 227.095 1271 234.126 1281 234.126H1296L1296 265.318C1287 266.021 1283.47 266.021 1272 266.021Z" fill="white"/>
<rect x="1630" y="140.001" width="36" height="126.324" fill="white"/>
<circle cx="1648" cy="100.032" r="22" fill="white"/>
<rect x="1444.13" y="266.034" width="36.425" height="123.911" transform="rotate(-180 1444.13 266.034)" fill="white"/>
<path d="M1355.43 204.35L1319 211.455V142.122H1355.43V204.35Z" fill="white"/>
<path d="M1375.13 267.983C1340.51 267.983 1319 242.569 1319 211.41L1355.42 203.052C1355.42 223.541 1365.04 232.7 1381.52 232.7C1397.12 232.7 1407.72 223.928 1407.72 206.932L1419.34 218.683C1419.34 228.325 1410.93 267.983 1375.13 267.983Z" fill="white"/>
<g style="mix-blend-mode:darken">
<rect x="1074" y="6.02075" width="829" height="331" fill="url(#paint0_linear)"/>
</g>
<rect x="0.5" y="0.520752" width="1902" height="399" stroke="#181818"/>
<defs>
<linearGradient id="paint0_linear" x1="1096.45" y1="319.524" x2="1775.71" y2="-11.2416" gradientUnits="userSpaceOnUse">
<stop stop-color="#FF3939"/>
<stop offset="1" stop-color="#FF70D6"/>
</linearGradient>
</defs>
</svg>
