<svg width="1903" height="400" viewBox="0 0 1903 400" fill="none" xmlns="http://www.w3.org/2000/svg">
<g clip-path="url(#clip0)">
<rect x="240" y="0.0175781" width="282.843" height="282.843" rx="80" transform="rotate(45 240 0.0175781)" fill="#ED3266"/>
<path fill-rule="evenodd" clip-rule="evenodd" d="M304.743 174.191C308.997 174.191 312.572 177.37 312.978 181.605C313.718 189.345 314.722 201.859 314.721 212.811C314.721 224.195 313.671 234.879 312.927 241.021C312.53 244.301 310.153 246.953 306.965 247.822L272.852 257.126C268.908 258.201 264.757 256.285 262.648 252.783C258.157 245.325 249.655 233.8 240 233.8V233.8C230.346 233.8 221.843 245.326 217.352 252.783C215.244 256.285 211.092 258.201 207.149 257.126L173.035 247.822C169.848 246.953 167.471 244.301 167.074 241.021C166.329 234.88 165.279 224.195 165.279 212.811C165.279 201.859 166.282 189.345 167.023 181.605C167.428 177.37 171.003 174.192 175.258 174.192H240V174.191H304.743Z" fill="white"/>
<path fill-rule="evenodd" clip-rule="evenodd" d="M160.572 191.929C160.831 189.021 157.644 187.301 155.742 189.517C150.746 195.338 147.727 202.905 147.727 211.178C147.727 219.1 150.495 226.376 155.118 232.09C156.984 234.397 160.248 232.674 160.013 229.716C159.645 225.097 159.404 220.084 159.404 214.889C159.403 207.485 159.91 199.369 160.572 191.929Z" fill="white"/>
<path fill-rule="evenodd" clip-rule="evenodd" d="M319.428 191.929C319.169 189.021 322.356 187.301 324.258 189.517C329.254 195.338 332.273 202.905 332.273 211.178C332.273 219.1 329.505 226.376 324.882 232.09C323.016 234.397 319.752 232.674 319.987 229.716C320.355 225.097 320.596 220.084 320.596 214.889C320.597 207.485 320.09 199.369 319.428 191.929Z" fill="white"/>
<path d="M226.566 133.893C226.566 131.111 228.822 128.855 231.604 128.855H248.395C251.177 128.855 253.432 131.111 253.432 133.893V169.154H226.566V133.893Z" fill="white"/>
<circle cx="287.015" cy="197.698" r="8.39562" fill="#ED3266"/>
<circle cx="270.224" cy="222.886" r="8.39562" fill="#ED3266"/>
<rect x="194" y="190.855" width="12" height="38" rx="4" fill="#ED3266"/>
<rect x="219" y="203.855" width="12" height="38" rx="4" transform="rotate(90 219 203.855)" fill="#ED3266"/>
<rect x="580" y="140.034" width="36" height="125.954" fill="black"/>
<path fill-rule="evenodd" clip-rule="evenodd" d="M543.451 267.988C580.986 267.988 607.938 235.793 607.938 202.988C607.938 172.002 581.165 137.988 543.451 137.988C507.384 137.988 480 167.09 480 202.988C480 238.887 507.384 267.988 543.451 267.988ZM547.403 235.133C565.895 235.133 580 221.356 580 202.988C580 184.62 565.895 170.843 547.403 170.843C528.91 170.843 514.588 185.235 514.588 202.988C514.588 220.741 528.91 235.133 547.403 235.133Z" fill="black"/>
<path fill-rule="evenodd" clip-rule="evenodd" d="M760.614 175.148L727.649 190.462C723.443 180.989 714.576 173.365 702.584 173.365C685.535 173.365 672.332 186.633 672.332 203C672.332 219.367 685.535 232.635 702.584 232.635C714.85 232.635 723.846 225.768 727.929 215.82L760.827 231.332C750.72 253.036 729.034 268 702 268C665.6 268 637 238.899 637 203C637 167.101 666.9 138 702 138C727.355 138 749.996 153.185 760.614 175.148Z" fill="black"/>
<rect x="781" y="140.01" width="36" height="125.999" fill="black"/>
<path d="M861 189.009L897 186.009V266.009H861V189.009Z" fill="black"/>
<path d="M941 189.009L977 186.009V266.009H941V189.009Z" fill="black"/>
<path d="M849.264 138C881.122 138 896.999 162.408 896.999 188L860.999 194.693C860.999 183.626 850.999 173.664 838.999 173.664C826.999 173.664 816.999 184.007 816.999 196.007L807.465 182.551C803.712 173.664 817.312 138 849.264 138Z" fill="black"/>
<path d="M929.264 138C961.122 138 976.999 162.408 976.999 188L940.999 194.693C940.999 183.626 930.999 173.664 918.999 173.664C906.999 173.664 896.999 184.007 896.999 196.007L887.465 182.551C883.712 173.664 897.312 138 929.264 138Z" fill="black"/>
<path d="M929.264 138C961.122 138 977 162.408 977 188L941 191C941 179.933 931 171 919 171C907 171 897 179 897 191L879 172C887 154 897.313 138 929.264 138Z" fill="black"/>
<circle cx="1032.45" cy="242.454" r="23.4539" fill="black"/>
<mask id="mask0" mask-type="alpha" maskUnits="userSpaceOnUse" x="1086" y="78" width="733" height="191">
<path fill-rule="evenodd" clip-rule="evenodd" d="M1134.36 138.63C1166.24 134.834 1184.89 152.743 1190.46 166.359L1160.16 178.755C1158.13 175.239 1151.15 168.778 1142.27 168.778C1131.21 168.778 1129.01 172.971 1128.25 175.183C1127.23 178.138 1128.8 180.869 1132.44 182.212C1135.9 183.493 1139.61 184.411 1143.51 185.376C1145.57 185.886 1147.68 186.408 1149.83 187.004L1149.84 187.003L1150.09 187.072C1158.23 189.304 1167.39 192.132 1178.13 200.235C1185.79 206.014 1190.42 214.056 1191.38 223.035C1192.3 231.601 1189.74 239.578 1185.88 245.917C1178.3 258.323 1163.54 268.035 1146.37 268.035L1146.19 268.035C1142.17 268.035 1131.44 268.038 1120.08 264.846C1108.55 261.609 1093.79 254.319 1086 237.865L1116.47 223.442C1116.57 223.683 1118.26 227.881 1124.41 232.442C1130.75 237.14 1138.4 237.847 1146.38 236.129C1155.33 234.203 1156.74 228.42 1154.09 225.801C1150.98 222.73 1144.75 220.964 1138.58 219.212C1137.84 219.002 1137.1 218.793 1136.37 218.581L1136.37 218.573C1136.15 218.515 1135.94 218.455 1135.72 218.394C1135.59 218.355 1135.46 218.316 1135.32 218.277L1135.3 218.277C1128.93 216.475 1121.04 213.896 1111.54 208.807C1103.79 204.655 1097.3 198.584 1093.7 190.618C1090.02 182.465 1089.95 173.559 1093.16 165.516C1099.4 149.839 1115.95 140.821 1134.36 138.63Z" fill="black"/>
<rect x="1562.93" y="82.8086" width="36" height="183.502" fill="black"/>
<path fill-rule="evenodd" clip-rule="evenodd" d="M1526.45 268C1563.99 268 1590.94 235.805 1590.94 203C1590.94 172.014 1564.17 138 1526.45 138C1490.38 138 1463 167.102 1463 203C1463 238.899 1490.38 268 1526.45 268ZM1530.4 235.144C1548.9 235.144 1563 221.368 1563 203C1563 184.632 1548.9 170.855 1530.4 170.855C1511.91 170.855 1497.59 185.247 1497.59 203C1497.59 220.753 1511.91 235.144 1530.4 235.144Z" fill="black"/>
<path fill-rule="evenodd" clip-rule="evenodd" d="M1754 268C1791.7 268 1819 238.899 1819 203C1819 167.101 1789.1 138 1754 138C1718.9 138 1689 167.101 1689 203C1689 238.899 1717.6 268 1754 268ZM1754 235.447C1772.82 235.447 1786.45 220.92 1786.45 203C1786.45 185.08 1771.52 170.553 1754 170.553C1736.48 170.553 1721.55 185.08 1721.55 203C1721.55 220.92 1735.83 235.447 1754 235.447Z" fill="black"/>
<path d="M1230 228.391L1266 223.311V103.772L1230 118.482L1230 228.391Z" fill="black"/>
<path d="M1206 140.084H1296V172.084H1206V140.084Z" fill="black"/>
<path d="M1272 266C1234.43 266 1230 242.799 1230 228.035C1240.28 221.852 1258.8 220.044 1266 220.044C1266 227.074 1271 234.105 1281 234.105H1296L1296 265.297C1287 266 1283.47 266 1272 266Z" fill="black"/>
<rect x="1630" y="139.98" width="36" height="126.324" fill="black"/>
<circle cx="1648" cy="100.012" r="22" fill="black"/>
<rect x="1444.13" y="266.014" width="36.425" height="123.911" transform="rotate(-180 1444.13 266.014)" fill="black"/>
<path d="M1355.43 204.329L1319 211.435V142.102H1355.43V204.329Z" fill="black"/>
<path d="M1375.13 267.963C1340.51 267.963 1319 242.549 1319 211.39L1355.42 203.032C1355.42 223.521 1365.04 232.68 1381.52 232.68C1397.12 232.68 1407.72 223.908 1407.72 206.912L1419.34 218.663C1419.34 228.305 1410.93 267.963 1375.13 267.963Z" fill="black"/>
</mask>
<g mask="url(#mask0)">
<rect x="1074" y="25" width="829" height="331" fill="url(#paint0_linear)"/>
</g>
</g>
<defs>
<linearGradient id="paint0_linear" x1="1096.45" y1="338.503" x2="1775.71" y2="7.73763" gradientUnits="userSpaceOnUse">
<stop stop-color="#FF3939"/>
<stop offset="1" stop-color="#FF70D6"/>
</linearGradient>
<clipPath id="clip0">
<rect width="1903" height="400" fill="white"/>
</clipPath>
</defs>
</svg>
