<svg width="2238" height="401" viewBox="0 0 2238 401" fill="none" xmlns="http://www.w3.org/2000/svg">
<rect width="2238" height="400" transform="translate(0 0.020752)" fill="#181818"/>
<rect x="580" y="140.055" width="36" height="125.954" fill="white"/>
<path fill-rule="evenodd" clip-rule="evenodd" d="M543.451 268.009C580.986 268.009 607.938 235.814 607.938 203.009C607.938 172.023 581.165 138.009 543.451 138.009C507.384 138.009 480 167.111 480 203.009C480 238.908 507.384 268.009 543.451 268.009ZM547.403 235.153C565.895 235.153 580 221.377 580 203.009C580 184.641 565.895 170.864 547.403 170.864C528.91 170.864 514.588 185.256 514.588 203.009C514.588 220.762 528.91 235.153 547.403 235.153Z" fill="white"/>
<path fill-rule="evenodd" clip-rule="evenodd" d="M760.614 175.169L727.649 190.483C723.443 181.01 714.576 173.386 702.584 173.386C685.535 173.386 672.332 186.654 672.332 203.021C672.332 219.388 685.535 232.656 702.584 232.656C714.85 232.656 723.846 225.788 727.929 215.841L760.827 231.353C750.72 253.057 729.034 268.021 702 268.021C665.6 268.021 637 238.919 637 203.021C637 167.122 666.9 138.021 702 138.021C727.355 138.021 749.996 153.206 760.614 175.169Z" fill="white"/>
<rect x="781" y="140.03" width="36" height="125.999" fill="white"/>
<path d="M861 189.03L897 186.03V266.03H861V189.03Z" fill="white"/>
<path d="M941 189.03L977 186.03V266.03H941V189.03Z" fill="white"/>
<path d="M849.264 138.021C881.122 138.021 896.999 162.429 896.999 188.021L860.999 194.714C860.999 183.647 850.999 173.685 838.999 173.685C826.999 173.685 816.999 184.028 816.999 196.028L807.465 182.571C803.712 173.685 817.312 138.021 849.264 138.021Z" fill="white"/>
<path d="M929.264 138.021C961.122 138.021 976.999 162.429 976.999 188.021L940.999 194.714C940.999 183.647 930.999 173.685 918.999 173.685C906.999 173.685 896.999 184.028 896.999 196.028L887.465 182.571C883.712 173.685 897.312 138.021 929.264 138.021Z" fill="white"/>
<path d="M929.264 138.021C961.122 138.021 977 162.429 977 188.021L941 191.021C941 179.954 931 171.021 919 171.021C907 171.021 897 179.021 897 191.021L879 172.021C887 154.021 897.313 138.021 929.264 138.021Z" fill="white"/>
<circle cx="1032.45" cy="242.475" r="23.4539" fill="white"/>
<path fill-rule="evenodd" clip-rule="evenodd" d="M183.431 56.5893C214.673 25.3473 265.326 25.3474 296.568 56.5893L383.431 143.452C414.673 174.694 414.673 225.347 383.431 256.589L296.568 343.452C265.326 374.694 214.673 374.694 183.431 343.452L96.5682 256.589C65.3262 225.347 65.3263 174.694 96.5682 143.452L183.431 56.5893ZM272.566 225.757C304.664 225.757 330.725 199.914 331.078 167.899L271.911 225.752V225.75L331.078 167.897V146.858H310.039L250.866 204.716L250.872 204.721V220.298H250.868V231.912C250.868 234.317 250.566 236.679 249.988 238.952L250 238.858C244.9 249.984 236.706 249.935 225.657 249.869H225.656C224.788 249.863 223.903 249.858 223 249.858C211.402 249.858 202 259.26 202 270.858C202 282.456 211.402 291.858 223 291.858C232.344 291.858 240.262 285.755 242.987 277.318L243 277.358C245.942 268.04 251.932 260.645 254.834 257.063L255 256.858L254.901 256.864C260.298 249.811 263.354 241.077 263.354 231.912V225.756H271.911V225.753C272.129 225.756 272.347 225.757 272.566 225.757ZM250.863 204.716C251.216 172.702 277.277 146.859 309.375 146.859C309.594 146.859 309.813 146.86 310.032 146.863L250.863 204.716ZM213.93 227.953C182.165 227.953 156.373 202.382 156.015 170.702L156 170.687L156 170.687V149.862H176.825V149.863L176.829 149.867C177.041 149.865 177.254 149.863 177.468 149.863C209.234 149.863 235.027 175.437 235.382 207.119L235.393 207.13L235.392 207.131H235.398V227.955H214.573V227.95L214.568 227.954L214.563 227.95C214.352 227.952 214.141 227.953 213.93 227.953ZM232.572 270.858C232.572 276.145 228.286 280.431 223 280.431C217.713 280.431 213.427 276.145 213.427 270.858C213.427 265.571 217.713 261.286 223 261.286C228.286 261.286 232.572 265.571 232.572 270.858Z" fill="white"/>
<path fill-rule="evenodd" clip-rule="evenodd" d="M214.602 207.622C212.742 209.482 209.727 209.482 207.868 207.622L177.395 177.149C175.535 175.29 175.535 172.275 177.395 170.416C179.254 168.556 182.269 168.556 184.129 170.416L214.602 200.889C216.461 202.748 216.461 205.763 214.602 207.622Z" fill="white"/>
<path fill-rule="evenodd" clip-rule="evenodd" d="M272.363 204.622C274.223 206.481 277.238 206.481 279.097 204.622L309.57 174.149C311.429 172.29 311.429 169.275 309.57 167.415C307.711 165.556 304.696 165.556 302.836 167.415L272.363 197.888C270.504 199.748 270.504 202.763 272.363 204.622Z" fill="white"/>
<path d="M1096 227.976L1132 222.896V103.358L1096 118.068L1096 227.976Z" fill="white"/>
<path d="M1072 139.67H1162V171.67H1072V139.67Z" fill="white"/>
<path d="M1138 265.586C1100.43 265.586 1096 242.385 1096 227.62C1106.28 221.438 1124.8 219.629 1132 219.629C1132 226.66 1137 233.691 1147 233.691H1162L1162 264.883C1153 265.586 1149.47 265.586 1138 265.586Z" fill="white"/>
<path fill-rule="evenodd" clip-rule="evenodd" d="M1247 137.942C1211.9 137.942 1182 167.044 1182 202.942V202.942C1182 238.841 1210.6 267.942 1247 267.942C1273.43 267.942 1294.82 254.759 1304.57 239.345L1274.9 225.349C1269.76 230.646 1262.79 234.492 1255.06 236.175C1252.56 236.792 1249.89 237.119 1247.07 237.119C1246.94 237.119 1246.82 237.118 1246.69 237.117C1246.56 237.118 1246.43 237.119 1246.3 237.119C1227.43 237.119 1212.81 222.134 1212.81 203.649C1212.81 203.535 1212.81 203.422 1212.81 203.31C1212.81 203.188 1212.81 203.065 1212.81 202.942C1212.81 184.067 1227.76 168.766 1247.07 168.766C1263.88 168.766 1275.27 182.244 1277.94 196.559C1281.65 196.486 1283.79 198.302 1283.79 204.257C1283.79 205.747 1283.68 207.211 1283.45 208.643L1307.28 215.714L1309.63 215.954C1317.34 166.926 1282.1 137.942 1247 137.942Z" fill="white"/>
<path d="M1199.13 187.598H1279.37L1309.63 215.598H1306.07H1199.58L1199.13 187.598Z" fill="white"/>
<rect x="1429" y="139.988" width="36" height="125.954" fill="white"/>
<path fill-rule="evenodd" clip-rule="evenodd" d="M1392.45 267.942C1429.99 267.942 1456.94 235.747 1456.94 202.942C1456.94 171.956 1430.17 137.942 1392.45 137.942C1356.38 137.942 1329 167.044 1329 202.942C1329 238.841 1356.38 267.942 1392.45 267.942ZM1396.4 235.087C1414.9 235.087 1429 221.31 1429 202.942C1429 184.574 1414.9 170.797 1396.4 170.797C1377.91 170.797 1363.59 185.189 1363.59 202.942C1363.59 220.695 1377.91 235.087 1396.4 235.087Z" fill="white"/>
<path fill-rule="evenodd" clip-rule="evenodd" d="M1611.61 175.09L1578.65 190.404C1574.44 180.931 1565.58 173.308 1553.58 173.308C1536.54 173.308 1523.33 186.576 1523.33 202.942C1523.33 219.309 1536.54 232.577 1553.58 232.577C1565.85 232.577 1574.85 225.71 1578.93 215.762L1611.83 231.275C1601.72 252.978 1580.03 267.942 1553 267.942C1516.6 267.942 1488 238.841 1488 202.942C1488 167.044 1517.9 137.942 1553 137.942C1578.35 137.942 1601 153.127 1611.61 175.09Z" fill="white"/>
<rect x="1632" y="83.0208" width="36" height="182.888" fill="white"/>
<path d="M1719.19 196.491L1755.19 187.567V265.903H1719.19L1719.19 196.491Z" fill="white"/>
<path d="M1702.88 137.594C1737.79 137.594 1755.19 162.002 1755.19 187.594L1719.19 198.258C1719.19 184.833 1711.44 173.258 1693.92 173.258C1676.1 173.258 1668 186.258 1668 198.258L1657.09 182.145C1651.08 169.78 1667.88 137.594 1702.88 137.594Z" fill="white"/>
<path d="M1789 83.9421H1828V263.942H1789V83.9421Z" fill="white"/>
<path d="M1789 228.942H1903V265.942H1789V228.942Z" fill="white"/>
<path d="M1991.8 83.9422L2023 83.9421L2021.51 105.571L1960.88 265.942L1923 265.942L1991.8 83.9422Z" fill="white"/>
<path d="M2030.88 83.9422L2000 83.9421L2001.47 105.571L2061.5 265.942L2099 265.942L2030.88 83.9422Z" fill="white"/>
<path d="M1996.12 83.9422L2027 83.9421L2025.53 105.571L1965.5 265.942L1928 265.942L1996.12 83.9422Z" fill="white"/>
<path d="M2035.88 83.9422L2005 83.9421L2073.12 265.942L2104 265.942L2035.88 83.9422Z" fill="white"/>
<path d="M1959 205.942H2066V238.942H1959V205.942Z" fill="white"/>
<g style="mix-blend-mode:darken">
<rect x="1072" y="25.0208" width="1123" height="331" fill="url(#paint0_linear)"/>
</g>
<defs>
<linearGradient id="paint0_linear" x1="1102.41" y1="338.524" x2="1895.61" y2="-184.705" gradientUnits="userSpaceOnUse">
<stop stop-color="#50C509"/>
<stop offset="1" stop-color="#BCF223"/>
</linearGradient>
</defs>
</svg>
