<svg width="2238" height="400" viewBox="0 0 2238 400" fill="none" xmlns="http://www.w3.org/2000/svg">
<rect x="580" y="140.034" width="36" height="125.954" fill="black"/>
<path fill-rule="evenodd" clip-rule="evenodd" d="M543.451 267.988C580.986 267.988 607.938 235.793 607.938 202.988C607.938 172.002 581.165 137.988 543.451 137.988C507.384 137.988 480 167.09 480 202.988C480 238.887 507.384 267.988 543.451 267.988ZM547.403 235.133C565.895 235.133 580 221.356 580 202.988C580 184.62 565.895 170.843 547.403 170.843C528.91 170.843 514.588 185.235 514.588 202.988C514.588 220.741 528.91 235.133 547.403 235.133Z" fill="black"/>
<path fill-rule="evenodd" clip-rule="evenodd" d="M760.614 175.148L727.649 190.462C723.443 180.989 714.576 173.365 702.584 173.365C685.535 173.365 672.332 186.633 672.332 203C672.332 219.367 685.535 232.635 702.584 232.635C714.85 232.635 723.846 225.768 727.929 215.82L760.827 231.332C750.72 253.036 729.034 268 702 268C665.6 268 637 238.899 637 203C637 167.101 666.9 138 702 138C727.355 138 749.996 153.185 760.614 175.148Z" fill="black"/>
<rect x="781" y="140.009" width="36" height="125.999" fill="black"/>
<path d="M861 189.009L897 186.009V266.009H861V189.009Z" fill="black"/>
<path d="M941 189.009L977 186.009V266.009H941V189.009Z" fill="black"/>
<path d="M849.264 138C881.122 138 896.999 162.408 896.999 188L860.999 194.693C860.999 183.626 850.999 173.664 838.999 173.664C826.999 173.664 816.999 184.007 816.999 196.007L807.465 182.551C803.712 173.664 817.312 138 849.264 138Z" fill="black"/>
<path d="M929.264 138C961.122 138 976.999 162.408 976.999 188L940.999 194.693C940.999 183.626 930.999 173.664 918.999 173.664C906.999 173.664 896.999 184.007 896.999 196.007L887.465 182.551C883.712 173.664 897.312 138 929.264 138Z" fill="black"/>
<path d="M929.264 138C961.122 138 977 162.408 977 188L941 191C941 179.933 931 171 919 171C907 171 897 179 897 191L879 172C887 154 897.313 138 929.264 138Z" fill="black"/>
<circle cx="1032.45" cy="242.454" r="23.4539" fill="black"/>
<path d="M183.431 56.5685C214.673 25.3266 265.327 25.3266 296.569 56.5685L383.431 143.431C414.673 174.673 414.673 225.327 383.431 256.568L296.569 343.431C265.327 374.673 214.673 374.673 183.431 343.431L96.5686 256.568C65.3266 225.326 65.3267 174.673 96.5686 143.431L183.431 56.5685Z" fill="#5EDA12"/>
<path d="M272.567 225.736C304.664 225.736 330.726 199.893 331.078 167.879L271.909 225.733C272.128 225.735 272.347 225.736 272.567 225.736Z" fill="white"/>
<path d="M309.375 146.838C277.277 146.838 251.216 172.682 250.863 204.696L310.032 146.842C309.813 146.839 309.594 146.838 309.375 146.838Z" fill="white"/>
<path d="M331.078 146.837H310.039V167.877H331.078V146.837Z" fill="white"/>
<rect width="21.0391" height="21.0391" transform="matrix(-1 0 0 1 271.911 204.696)" fill="white"/>
<path d="M310.039 146.837L331.078 167.877L271.906 225.734L250.866 204.695L310.039 146.837Z" fill="white"/>
<path d="M257.111 220.277V231.891C257.111 244.223 250.587 255.634 239.959 261.889L237.499 263.337" stroke="white" stroke-width="12.4859"/>
<path d="M213.93 227.932C182.16 227.932 156.365 202.352 156.016 170.665L214.581 227.929C214.364 227.931 214.148 227.932 213.93 227.932Z" fill="white"/>
<path d="M177.468 149.843C209.238 149.843 235.034 175.423 235.383 207.11L176.817 149.847C177.034 149.844 177.251 149.843 177.468 149.843Z" fill="white"/>
<path d="M156.001 149.841H176.825V170.666H156.001V149.841Z" fill="white"/>
<rect x="214.574" y="207.11" width="20.8245" height="20.8245" fill="white"/>
<path d="M176.825 149.842L156 170.666L214.569 227.934L235.393 207.109L176.825 149.842Z" fill="white"/>
<path fill-rule="evenodd" clip-rule="evenodd" d="M214.801 209.687C212.941 211.547 209.927 211.547 208.067 209.687L177.594 179.214C175.735 177.355 175.735 174.34 177.594 172.481C179.454 170.621 182.468 170.621 184.328 172.481L214.801 202.954C216.66 204.813 216.66 207.828 214.801 209.687Z" fill="#5EDA12"/>
<path fill-rule="evenodd" clip-rule="evenodd" d="M272.562 206.687C274.421 208.546 277.436 208.546 279.295 206.687L309.768 176.214C311.628 174.354 311.628 171.34 309.768 169.48C307.909 167.621 304.894 167.621 303.035 169.48L272.562 199.953C270.702 201.813 270.702 204.827 272.562 206.687Z" fill="#5EDA12"/>
<path fill-rule="evenodd" clip-rule="evenodd" d="M223 280.41C228.287 280.41 232.573 276.124 232.573 270.837C232.573 265.551 228.287 261.265 223 261.265C217.713 261.265 213.427 265.551 213.427 270.837C213.427 276.124 217.713 280.41 223 280.41ZM223 291.837C234.598 291.837 244 282.435 244 270.837C244 259.239 234.598 249.837 223 249.837C211.402 249.837 202 259.239 202 270.837C202 282.435 211.402 291.837 223 291.837Z" fill="white"/>
<path d="M250 238.837C244.5 250.837 235.4 249.837 223 249.837L247 262.837L250 238.837Z" fill="white"/>
<path d="M255 256.837C252.167 260.337 246 267.837 243 277.337L237 257.837L255 256.837Z" fill="white"/>
<mask id="mask0" mask-type="alpha" maskUnits="userSpaceOnUse" x="1072" y="83" width="1032" height="185">
<path d="M1096 227.955L1132 222.876V103.337L1096 118.047L1096 227.955Z" fill="black"/>
<path d="M1072 139.65H1162V171.65H1072V139.65Z" fill="black"/>
<path d="M1138 265.565C1100.43 265.565 1096 242.364 1096 227.6C1106.28 221.418 1124.8 219.609 1132 219.609C1132 226.639 1137 233.67 1147 233.67H1162L1162 264.862C1153 265.565 1149.47 265.565 1138 265.565Z" fill="black"/>
<path fill-rule="evenodd" clip-rule="evenodd" d="M1247 137.922C1211.9 137.922 1182 167.023 1182 202.922V202.922C1182 238.82 1210.6 267.922 1247 267.922C1273.43 267.922 1294.82 254.738 1304.57 239.325L1274.9 225.328C1269.76 230.626 1262.79 234.471 1255.06 236.154C1252.56 236.771 1249.89 237.098 1247.07 237.098C1246.94 237.098 1246.82 237.097 1246.69 237.096C1246.56 237.097 1246.43 237.098 1246.3 237.098C1227.43 237.098 1212.81 222.113 1212.81 203.628C1212.81 203.514 1212.81 203.401 1212.81 203.29C1212.81 203.167 1212.81 203.044 1212.81 202.921C1212.81 184.046 1227.76 168.745 1247.07 168.745C1263.88 168.745 1275.27 182.223 1277.94 196.539C1281.65 196.465 1283.79 198.281 1283.79 204.236C1283.79 205.726 1283.68 207.19 1283.45 208.622L1307.28 215.694L1309.63 215.933C1317.34 166.905 1282.1 137.922 1247 137.922Z" fill="black"/>
<path d="M1199.13 187.577H1279.37L1309.63 215.577H1306.07H1199.58L1199.13 187.577Z" fill="black"/>
<rect x="1429" y="139.968" width="36" height="125.954" fill="black"/>
<path fill-rule="evenodd" clip-rule="evenodd" d="M1392.45 267.922C1429.99 267.922 1456.94 235.726 1456.94 202.922C1456.94 171.936 1430.17 137.922 1392.45 137.922C1356.38 137.922 1329 167.023 1329 202.922C1329 238.82 1356.38 267.922 1392.45 267.922ZM1396.4 235.066C1414.9 235.066 1429 221.289 1429 202.921C1429 184.553 1414.9 170.777 1396.4 170.777C1377.91 170.777 1363.59 185.168 1363.59 202.921C1363.59 220.674 1377.91 235.066 1396.4 235.066Z" fill="black"/>
<path fill-rule="evenodd" clip-rule="evenodd" d="M1611.61 175.07L1578.65 190.383C1574.44 180.911 1565.58 173.287 1553.58 173.287C1536.54 173.287 1523.33 186.555 1523.33 202.922C1523.33 219.288 1536.54 232.556 1553.58 232.556C1565.85 232.556 1574.85 225.689 1578.93 215.742L1611.83 231.254C1601.72 252.958 1580.03 267.922 1553 267.922C1516.6 267.922 1488 238.82 1488 202.922C1488 167.023 1517.9 137.922 1553 137.922C1578.35 137.922 1601 153.107 1611.61 175.07Z" fill="black"/>
<rect x="1632" y="83" width="36" height="182.888" fill="black"/>
<path d="M1719.19 196.47L1755.19 187.546V265.882H1719.19L1719.19 196.47Z" fill="black"/>
<path d="M1702.88 137.573C1737.79 137.573 1755.19 161.982 1755.19 187.573L1719.19 198.237C1719.19 184.813 1711.44 173.237 1693.92 173.237C1676.1 173.237 1668 186.237 1668 198.237L1657.09 182.124C1651.08 169.759 1667.88 137.573 1702.88 137.573Z" fill="black"/>
<path d="M1789 83.9214H1828V263.921H1789V83.9214Z" fill="black"/>
<path d="M1789 228.921H1903V265.921H1789V228.921Z" fill="black"/>
<path d="M1991.8 83.9215L2023 83.9214L2021.51 105.55L1960.88 265.921L1923 265.921L1991.8 83.9215Z" fill="black"/>
<path d="M2030.88 83.9215L2000 83.9214L2001.47 105.55L2061.5 265.921L2099 265.921L2030.88 83.9215Z" fill="black"/>
<path d="M1996.12 83.9215L2027 83.9214L2025.53 105.55L1965.5 265.921L1928 265.921L1996.12 83.9215Z" fill="black"/>
<path d="M2035.88 83.9215L2005 83.9214L2073.12 265.921L2104 265.921L2035.88 83.9215Z" fill="black"/>
<path d="M1959 205.921H2066V238.921H1959V205.921Z" fill="black"/>
</mask>
<g mask="url(#mask0)">
<rect x="1056" y="30" width="1123" height="331" fill="url(#paint0_linear)"/>
</g>
<defs>
<linearGradient id="paint0_linear" x1="1086.41" y1="343.503" x2="1879.61" y2="-179.726" gradientUnits="userSpaceOnUse">
<stop stop-color="#50C509"/>
<stop offset="1" stop-color="#BCF223"/>
</linearGradient>
</defs>
</svg>
