<svg width="1343" height="400" viewBox="0 0 1343 400" fill="none" xmlns="http://www.w3.org/2000/svg">
<g clip-path="url(#clip0)">
<rect x="580" y="140.034" width="36" height="125.954" fill="black"/>
<path fill-rule="evenodd" clip-rule="evenodd" d="M543.451 267.988C580.986 267.988 607.938 235.793 607.938 202.988C607.938 172.002 581.165 137.988 543.451 137.988C507.384 137.988 480 167.09 480 202.988C480 238.887 507.384 267.988 543.451 267.988ZM547.403 235.133C565.895 235.133 580 221.356 580 202.988C580 184.62 565.895 170.843 547.403 170.843C528.91 170.843 514.588 185.235 514.588 202.988C514.588 220.741 528.91 235.133 547.403 235.133Z" fill="black"/>
<path fill-rule="evenodd" clip-rule="evenodd" d="M760.614 175.148L727.649 190.462C723.443 180.989 714.576 173.365 702.584 173.365C685.535 173.365 672.332 186.633 672.332 203C672.332 219.367 685.535 232.635 702.584 232.635C714.85 232.635 723.846 225.768 727.929 215.82L760.827 231.332C750.72 253.036 729.034 268 702 268C665.6 268 637 238.899 637 203C637 167.101 666.9 138 702 138C727.355 138 749.996 153.185 760.614 175.148Z" fill="black"/>
<rect x="781" y="140.01" width="36" height="125.999" fill="black"/>
<path d="M861 189.009L897 186.009V266.009H861V189.009Z" fill="black"/>
<path d="M941 189.009L977 186.009V266.009H941V189.009Z" fill="black"/>
<path d="M849.264 138C881.122 138 896.999 162.408 896.999 188L860.999 194.693C860.999 183.626 850.999 173.664 838.999 173.664C826.999 173.664 816.999 184.007 816.999 196.007L807.465 182.551C803.712 173.664 817.312 138 849.264 138Z" fill="black"/>
<path d="M929.264 138C961.122 138 976.999 162.408 976.999 188L940.999 194.693C940.999 183.626 930.999 173.664 918.999 173.664C906.999 173.664 896.999 184.007 896.999 196.007L887.465 182.551C883.712 173.664 897.312 138 929.264 138Z" fill="black"/>
<path d="M929.264 138C961.122 138 977 162.408 977 188L941 191C941 179.933 931 171 919 171C907 171 897 179 897 191L879 172C887 154 897.313 138 929.264 138Z" fill="black"/>
<circle cx="1032.45" cy="242.454" r="23.4539" fill="black"/>
<path d="M206.658 287.237C206.658 297.452 198.519 302 188.469 302C178.42 302 170.28 297.452 170.28 287.237C170.28 278.066 174.13 286.64 188.469 286.64C202.809 286.64 206.658 278.55 206.658 287.237Z" fill="white"/>
<rect x="240" y="0.0175781" width="282.843" height="282.843" rx="80" transform="rotate(45 240 0.0175781)" fill="#00D4CA"/>
<path fill-rule="evenodd" clip-rule="evenodd" d="M158.896 158.183C168.228 154.024 179.165 158.217 183.325 167.549L202.406 212.358L223.674 170.459C226.889 164.428 233.166 160.661 240 160.661C246.834 160.661 253.111 164.428 256.325 170.459L277.593 212.358L296.675 167.549C300.834 158.217 311.772 154.024 321.104 158.183C330.436 162.343 334.629 173.28 330.469 182.613L295.974 260.003C293.096 266.458 286.792 270.71 279.728 270.959C272.664 271.208 266.076 267.41 262.751 261.173L240 218.49L217.248 261.173C213.924 267.41 207.335 271.208 200.272 270.959C193.208 270.71 186.903 266.458 184.025 260.003L149.53 182.613C145.37 173.28 149.564 162.343 158.896 158.183Z" fill="white"/>
<mask id="mask0" mask-type="alpha" maskUnits="userSpaceOnUse" x="1069" y="140" width="190" height="126">
<path d="M1180.8 140L1146.58 140L1107.8 265.857L1142.97 265.857L1180.8 140Z" fill="black"/>
<path d="M1146.8 140L1181.03 140L1219.8 265.857L1184.64 265.857L1146.8 140Z" fill="black"/>
<path d="M1069 140.388L1106.31 140L1133.81 265.858L1103.67 265.858L1069 140.388Z" fill="black"/>
<path d="M1258.61 140.388L1221.3 140L1193.8 265.858L1223.94 265.858L1258.61 140.388Z" fill="black"/>
</mask>
<g mask="url(#mask0)">
<rect x="1069" y="59" width="226" height="273" fill="url(#paint0_linear)"/>
</g>
</g>
<defs>
<linearGradient id="paint0_linear" x1="1075.12" y1="317.569" x2="1298.42" y2="281.627" gradientUnits="userSpaceOnUse">
<stop stop-color="#02D1C7"/>
<stop offset="1" stop-color="#50F392"/>
</linearGradient>
<clipPath id="clip0">
<rect width="1343" height="400" fill="white"/>
</clipPath>
</defs>
</svg>
