<svg width="1344" height="401" viewBox="0 0 1344 401" fill="none" xmlns="http://www.w3.org/2000/svg">
<rect width="1343" height="400" transform="translate(0.5 0.020752)" fill="#181818"/>
<rect x="580.5" y="140.055" width="36" height="125.954" fill="white"/>
<path fill-rule="evenodd" clip-rule="evenodd" d="M543.951 268.009C581.486 268.009 608.438 235.814 608.438 203.009C608.438 172.023 581.665 138.009 543.951 138.009C507.884 138.009 480.5 167.111 480.5 203.009C480.5 238.908 507.884 268.009 543.951 268.009ZM547.903 235.153C566.395 235.153 580.5 221.377 580.5 203.009C580.5 184.641 566.395 170.864 547.903 170.864C529.41 170.864 515.088 185.256 515.088 203.009C515.088 220.762 529.41 235.153 547.903 235.153Z" fill="white"/>
<path fill-rule="evenodd" clip-rule="evenodd" d="M761.114 175.169L728.149 190.483C723.943 181.01 715.076 173.386 703.084 173.386C686.035 173.386 672.832 186.654 672.832 203.021C672.832 219.388 686.035 232.656 703.084 232.656C715.35 232.656 724.346 225.788 728.429 215.841L761.327 231.353C751.22 253.057 729.534 268.021 702.5 268.021C666.1 268.021 637.5 238.919 637.5 203.021C637.5 167.122 667.4 138.021 702.5 138.021C727.855 138.021 750.496 153.206 761.114 175.169Z" fill="white"/>
<rect x="781.5" y="140.03" width="36" height="125.999" fill="white"/>
<path d="M861.5 189.03L897.5 186.03V266.03H861.5V189.03Z" fill="white"/>
<path d="M941.5 189.03L977.5 186.03V266.03H941.5V189.03Z" fill="white"/>
<path d="M849.764 138.021C881.622 138.021 897.499 162.429 897.499 188.021L861.499 194.714C861.499 183.647 851.499 173.685 839.499 173.685C827.499 173.685 817.499 184.028 817.499 196.028L807.965 182.571C804.212 173.685 817.812 138.021 849.764 138.021Z" fill="white"/>
<path d="M929.764 138.021C961.622 138.021 977.499 162.429 977.499 188.021L941.499 194.714C941.499 183.647 931.499 173.685 919.499 173.685C907.499 173.685 897.499 184.028 897.499 196.028L887.965 182.571C884.212 173.685 897.812 138.021 929.764 138.021Z" fill="white"/>
<path d="M929.764 138.021C961.622 138.021 977.5 162.429 977.5 188.021L941.5 191.021C941.5 179.954 931.5 171.021 919.5 171.021C907.5 171.021 897.5 179.021 897.5 191.021L879.5 172.021C887.5 154.021 897.813 138.021 929.764 138.021Z" fill="white"/>
<circle cx="1032.95" cy="242.475" r="23.4539" fill="white"/>
<path d="M207.158 287.257C207.158 297.472 199.019 302.021 188.969 302.021C178.92 302.021 170.78 297.472 170.78 287.257C170.78 278.086 174.63 286.661 188.969 286.661C203.309 286.661 207.158 278.571 207.158 287.257Z" fill="white"/>
<path d="M1181.3 140.021L1147.08 140.021L1108.3 265.878L1143.47 265.878L1181.3 140.021Z" fill="white"/>
<path d="M1147.3 140.021L1181.53 140.021L1220.3 265.878L1185.14 265.878L1147.3 140.021Z" fill="white"/>
<path d="M1069.5 140.409L1106.81 140.021L1134.31 265.878L1104.17 265.878L1069.5 140.409Z" fill="white"/>
<path d="M1259.11 140.409L1221.8 140.021L1194.3 265.878L1224.44 265.878L1259.11 140.409Z" fill="white"/>
<path fill-rule="evenodd" clip-rule="evenodd" d="M297.069 56.6074C265.827 25.3654 215.174 25.3654 183.932 56.6073L97.0687 143.47C65.8267 174.712 65.8267 225.365 97.0686 256.607L183.932 343.47C215.173 374.712 265.827 374.712 297.069 343.47L383.931 256.607C415.173 225.365 415.173 174.712 383.931 143.47L297.069 56.6074ZM183.825 167.57C179.665 158.238 168.728 154.044 159.396 158.204C150.064 162.364 145.87 173.301 150.03 182.633L184.525 260.023C187.403 266.479 193.708 270.731 200.772 270.98C207.835 271.229 214.424 267.431 217.748 261.194L240.5 218.511L263.251 261.194C266.576 267.431 273.164 271.229 280.228 270.98C287.292 270.731 293.596 266.479 296.474 260.023L330.969 182.633C335.129 173.301 330.936 162.364 321.604 158.204C312.272 154.044 301.334 158.238 297.175 167.57L278.093 212.379L256.826 170.479C253.611 164.449 247.334 160.681 240.5 160.681C233.666 160.681 227.389 164.449 224.174 170.479L202.906 212.379L183.825 167.57Z" fill="white"/>
<g style="mix-blend-mode:darken">
<rect x="1068.5" y="66.0208" width="226" height="273" fill="url(#paint0_linear)"/>
</g>
<defs>
<linearGradient id="paint0_linear" x1="1074.62" y1="324.59" x2="1297.92" y2="288.648" gradientUnits="userSpaceOnUse">
<stop stop-color="#02D1C7"/>
<stop offset="1" stop-color="#50F392"/>
</linearGradient>
</defs>
</svg>
