<svg width="44" height="43" viewBox="0 0 44 43" fill="none" xmlns="http://www.w3.org/2000/svg">
<path d="M21.6 0C18.7634 0 15.9547 0.5587 13.334 1.6442C10.7134 2.7297 8.33223 4.32075 6.32649 6.32649C2.27571 10.3773 0 15.8713 0 21.6C0 31.1472 6.1992 39.2472 14.7744 42.12C15.8544 42.2928 16.2 41.6232 16.2 41.04V37.3896C10.2168 38.6856 8.9424 34.4952 8.9424 34.4952C7.9488 31.9896 6.5448 31.32 6.5448 31.32C4.5792 29.9808 6.696 30.024 6.696 30.024C8.856 30.1752 10.0008 32.2488 10.0008 32.2488C11.88 35.532 15.0552 34.56 16.2864 34.0416C16.4808 32.6376 17.0424 31.6872 17.6472 31.1472C12.852 30.6072 7.8192 28.7496 7.8192 20.52C7.8192 18.1224 8.64 16.2 10.044 14.6664C9.828 14.1264 9.072 11.88 10.26 8.964C10.26 8.964 12.0744 8.3808 16.2 11.1672C17.9064 10.692 19.764 10.4544 21.6 10.4544C23.436 10.4544 25.2936 10.692 27 11.1672C31.1256 8.3808 32.94 8.964 32.94 8.964C34.128 11.88 33.372 14.1264 33.156 14.6664C34.56 16.2 35.3808 18.1224 35.3808 20.52C35.3808 28.7712 30.3264 30.5856 25.5096 31.1256C26.2872 31.7952 27 33.1128 27 35.1216V41.04C27 41.6232 27.3456 42.3144 28.4472 42.12C37.0224 39.2256 43.2 31.1472 43.2 21.6C43.2 18.7634 42.6413 15.9547 41.5558 13.334C40.4703 10.7134 38.8792 8.33223 36.8735 6.32649C34.8677 4.32075 32.4866 2.7297 29.8659 1.6442C27.2453 0.5587 24.4365 0 21.6 0Z" fill="#234285"/>
</svg>
