<svg width="52" height="52" viewBox="0 0 52 52" fill="none" xmlns="http://www.w3.org/2000/svg">
<path d="M25.9221 19.4398C24.2035 19.4398 22.5553 20.1225 21.34 21.3378C20.1248 22.553 19.4421 24.2012 19.4421 25.9198C19.4421 27.6384 20.1248 29.2866 21.34 30.5019C22.5553 31.7171 24.2035 32.3998 25.9221 32.3998C27.6407 32.3998 29.2889 31.7171 30.5041 30.5019C31.7194 29.2866 32.4021 27.6384 32.4021 25.9198C32.4021 24.2012 31.7194 22.553 30.5041 21.3378C29.2889 20.1225 27.6407 19.4398 25.9221 19.4398ZM25.9221 15.1198C28.7864 15.1198 31.5335 16.2577 33.5588 18.2831C35.5842 20.3085 36.7221 23.0555 36.7221 25.9198C36.7221 28.7841 35.5842 31.5312 33.5588 33.5566C31.5335 35.582 28.7864 36.7198 25.9221 36.7198C23.0578 36.7198 20.3107 35.582 18.2853 33.5566C16.26 31.5312 15.1221 28.7841 15.1221 25.9198C15.1221 23.0555 16.26 20.3085 18.2853 18.2831C20.3107 16.2577 23.0578 15.1198 25.9221 15.1198ZM39.9621 14.5798C39.9621 15.2959 39.6776 15.9827 39.1713 16.489C38.6649 16.9954 37.9782 17.2798 37.2621 17.2798C36.546 17.2798 35.8593 16.9954 35.3529 16.489C34.8466 15.9827 34.5621 15.2959 34.5621 14.5798C34.5621 13.8637 34.8466 13.177 35.3529 12.6706C35.8593 12.1643 36.546 11.8798 37.2621 11.8798C37.9782 11.8798 38.6649 12.1643 39.1713 12.6706C39.6776 13.177 39.9621 13.8637 39.9621 14.5798ZM25.9221 8.63982C20.5783 8.63982 19.7056 8.65494 17.2195 8.7651C15.526 8.84502 14.3899 9.07182 13.3358 9.48222C12.4541 9.80702 11.6569 10.326 11.003 11.0007C10.3275 11.6544 9.80777 12.4517 9.48234 13.3335C9.07194 14.3919 8.84514 15.5259 8.76738 17.2172C8.65506 19.6018 8.63994 20.4356 8.63994 25.9198C8.63994 31.2658 8.65506 32.1363 8.76522 34.6224C8.84514 36.3137 9.07194 37.452 9.48018 38.504C9.84738 39.4436 10.2794 40.1196 10.9965 40.8368C11.7244 41.5625 12.4005 41.9967 13.3293 42.3552C14.3963 42.7678 15.5325 42.9968 17.2173 43.0745C19.6019 43.1868 20.4357 43.1998 25.9199 43.1998C31.2659 43.1998 32.1364 43.1847 34.6226 43.0745C36.3117 42.9946 37.4478 42.7678 38.5041 42.3596C39.3857 42.0348 40.183 41.5158 40.8369 40.8411C41.5648 40.1153 41.999 39.4392 42.3575 38.5083C42.7679 37.4456 42.9969 36.3094 43.0746 34.6203C43.187 32.2378 43.1999 31.4019 43.1999 25.9198C43.1999 20.576 43.1848 19.7033 43.0746 17.2172C42.9947 15.5281 42.7658 14.3876 42.3575 13.3335C42.0327 12.4519 41.5138 11.6546 40.839 11.0007C40.1854 10.3252 39.3881 9.80549 38.5062 9.48006C37.4478 9.06966 36.3117 8.84286 34.6226 8.7651C32.2401 8.65278 31.4063 8.63982 25.9199 8.63982M25.9199 4.31982C31.7887 4.31982 32.5209 4.34142 34.8256 4.44942C37.1238 4.55742 38.692 4.91814 40.0679 5.45382C41.4935 6.00246 42.6945 6.7455 43.8954 7.9443C44.9942 9.02372 45.8442 10.33 46.3859 11.7718C46.9194 13.1477 47.2823 14.7159 47.3903 17.0163C47.4918 19.3189 47.5199 20.0511 47.5199 25.9198C47.5199 31.7885 47.4983 32.5208 47.3903 34.8233C47.2823 37.1259 46.9194 38.6897 46.3859 40.0678C45.8442 41.5097 44.9942 42.8159 43.8954 43.8953C42.816 44.9941 41.5098 45.844 40.0679 46.3858C38.692 46.9193 37.1238 47.2822 34.8256 47.3902C32.5209 47.4917 31.7887 47.5198 25.9199 47.5198C20.0512 47.5198 19.319 47.4982 17.0143 47.3902C14.716 47.2822 13.15 46.9193 11.7719 46.3858C10.3301 45.844 9.02385 44.9941 7.94442 43.8953C6.84565 42.8159 5.99571 41.5097 5.45395 40.0678C4.91827 38.6919 4.55755 37.1237 4.44955 34.8233C4.34587 32.5208 4.31995 31.7885 4.31995 25.9198C4.31995 20.0511 4.34155 19.3189 4.44955 17.0163C4.55755 14.7137 4.91827 13.1499 5.45395 11.7718C5.99571 10.33 6.84565 9.02372 7.94442 7.9443C9.02385 6.84552 10.3301 5.99559 11.7719 5.45382C13.1479 4.91814 14.7139 4.55742 17.0143 4.44942C19.3211 4.3479 20.0534 4.31982 25.9221 4.31982" fill="#234285"/>
</svg>
