<svg width="44" height="44" viewBox="0 0 44 44" fill="none" xmlns="http://www.w3.org/2000/svg">
<path fill-rule="evenodd" clip-rule="evenodd" d="M16.0466 15.053H24.0689V19.049C25.2245 16.7508 28.188 14.6858 32.6397 14.6858C41.1739 14.6858 43.2 19.2607 43.2 27.6545V43.2H34.56V29.5661C34.56 24.786 33.4044 22.0903 30.4625 22.0903C26.3822 22.0903 24.6866 24.9955 24.6866 29.5639V43.2H16.0466V15.053ZM1.2312 42.8328H9.87119V14.6858H1.2312V42.8328ZM11.1089 5.508C11.1092 6.23219 10.9656 6.94923 10.6864 7.61743C10.4071 8.28563 9.99788 8.89167 9.4824 9.40032C8.96538 9.91465 8.35208 10.3221 7.67755 10.5993C7.00302 10.8765 6.28047 11.0181 5.5512 11.016C4.08154 11.0127 2.67173 10.4334 1.62432 9.40248C1.11089 8.89195 0.703149 8.28521 0.424432 7.61695C0.145714 6.9487 0.00148655 6.23205 0 5.508C0 4.04568 0.5832 2.646 1.62648 1.61352C2.67127 0.578626 4.08278 -0.00134811 5.55336 2.35311e-06C7.02648 2.35311e-06 8.43912 0.581042 9.4824 1.61352C10.5257 2.646 11.1089 4.04568 11.1089 5.508Z" fill="#234285"/>
</svg>
