<svg width="53" height="42" viewBox="0 0 53 42" fill="none" xmlns="http://www.w3.org/2000/svg">
<path fill-rule="evenodd" clip-rule="evenodd" d="M26.25 0C28.4944 0 30.7965 0.0577502 33.0277 0.15225L35.6632 0.27825L38.1859 0.427875L40.5484 0.588L42.7061 0.756C45.0481 0.934215 47.2521 1.93314 48.9299 3.57683C50.6077 5.22052 51.6516 7.40354 51.8779 9.74137L51.9829 10.857L52.1798 13.2457C52.3635 15.7211 52.5 18.4196 52.5 21C52.5 23.5804 52.3635 26.2789 52.1798 28.7543L51.9829 31.143L51.8779 32.2586C51.6515 34.5969 50.6072 36.7802 48.9289 38.424C47.2506 40.0677 45.046 41.0664 42.7035 41.244L40.551 41.4094L38.1885 41.5721L35.6632 41.7217L33.0277 41.8477C30.7698 41.9456 28.5101 41.9963 26.25 42C23.9899 41.9963 21.7302 41.9456 19.4722 41.8477L16.8367 41.7217L14.3141 41.5721L11.9516 41.4094L9.79387 41.244C7.45189 41.0658 5.2479 40.0669 3.57012 38.4232C1.89233 36.7795 0.848376 34.5965 0.622125 32.2586L0.517125 31.143L0.32025 28.7543C0.120311 26.1742 0.0134916 23.5878 0 21C0 18.4196 0.1365 15.7211 0.32025 13.2457L0.517125 10.857L0.622125 9.74137C0.848288 7.40395 1.89187 5.22126 3.56912 3.57763C5.24636 1.93399 7.44973 0.934805 9.79125 0.756L11.9464 0.588L14.3089 0.427875L16.8341 0.27825L19.4696 0.15225C21.7284 0.0544089 23.9891 0.00364765 26.25 0ZM21 14.6344V27.3656C21 28.5784 22.3125 29.3344 23.3625 28.7306L34.3875 22.365C34.6274 22.2269 34.8267 22.028 34.9652 21.7884C35.1038 21.5487 35.1768 21.2768 35.1768 21C35.1768 20.7232 35.1038 20.4513 34.9652 20.2116C34.8267 19.972 34.6274 19.7731 34.3875 19.635L23.3625 13.272C23.123 13.1337 22.8513 13.0609 22.5747 13.061C22.2982 13.061 22.0265 13.1339 21.7871 13.2723C21.5476 13.4106 21.3488 13.6096 21.2106 13.8491C21.0725 14.0887 20.9998 14.3604 21 14.637V14.6344Z" fill="#234285"/>
</svg>
