<svg width="197" height="201" viewBox="0 0 197 201" fill="none" xmlns="http://www.w3.org/2000/svg" transform="scale(-1,1)">
<g clip-path="url(#clip0)">
<rect width="196" height="201" transform="translate(0.11792)" fill="white"/>
<path d="M57.4736 173.682V211.476C57.4736 218.04 52.1526 223.361 45.5888 223.361H-155.319C-161.882 223.361 -167.203 218.04 -167.203 211.476V11.0012C-167.203 4.45403 -161.928 -0.858913 -155.381 -0.873898C-110.017 -0.977722 8.08785 -1.08136 28.4732 -0.841461C56.6719 -0.50961 73.7001 7.30789 89.7268 28.1987C101.034 42.9382 102.835 61.8961 103 76.0234C103.034 78.9124 104.049 81.7083 105.94 83.8924L116.925 96.578C121.831 102.243 119.222 111.085 112.027 113.181C107.638 114.459 104.62 118.481 104.62 123.053V149.912C104.62 156.476 99.299 161.797 92.7352 161.797H69.3583C62.7946 161.797 57.4736 167.118 57.4736 173.682Z" fill="url(#paint0_linear)"/>
<path d="M42.0869 180.242V208.022L28.5993 221.51" stroke="white" stroke-width="2.14309" stroke-linejoin="round"/>
<circle r="2.33504" transform="matrix(-1 0 0 1 86.9325 148.278)" fill="white" stroke="white" stroke-width="2.14309" stroke-linejoin="round"/>
<circle r="2.33504" transform="matrix(-1 0 0 1 101.915 103.565)" fill="white" stroke="white" stroke-width="2.14309" stroke-linejoin="round"/>
<circle r="2.33504" transform="matrix(-1 0 0 1 86.8191 88.7904)" fill="white" stroke="white" stroke-width="2.14309" stroke-linejoin="round"/>
<circle r="2.33504" transform="matrix(-1 0 0 1 72.1935 148.278)" fill="white" stroke="white" stroke-width="2.14309" stroke-linejoin="round"/>
<circle r="2.33504" transform="matrix(-1 0 0 1 57.1387 148.278)" fill="white" stroke="white" stroke-width="2.14309" stroke-linejoin="round"/>
<circle r="2.33504" transform="matrix(-1 0 0 1 42.2423 148.278)" fill="white" stroke="white" stroke-width="2.14309" stroke-linejoin="round"/>
<circle r="2.33504" transform="matrix(-1 0 0 1 27.3454 148.278)" fill="#FF8EDF" stroke="#FF8EDF" stroke-width="2.14309" stroke-linejoin="round"/>
<circle r="2.33504" transform="matrix(-1 0 0 1 72.0356 133.381)" fill="white" stroke="white" stroke-width="2.14309" stroke-linejoin="round"/>
<circle r="2.33504" transform="matrix(-1 0 0 1 42.2423 118.484)" fill="white" stroke="white" stroke-width="2.14309" stroke-linejoin="round"/>
<circle r="2.33504" transform="matrix(-1 0 0 1 12.4485 118.484)" fill="#40E9FF" stroke="#40E9FF" stroke-width="2.14309" stroke-linejoin="round"/>
<circle r="2.33504" transform="matrix(-1 0 0 1 -2.44869 118.484)" fill="white" stroke="white" stroke-width="2.14309" stroke-linejoin="round"/>
<circle r="2.33504" transform="matrix(-1 0 0 1 57.1387 103.587)" fill="#40E9FF" stroke="#40E9FF" stroke-width="2.14309" stroke-linejoin="round"/>
<circle r="2.33504" transform="matrix(-1 0 0 1 27.3454 103.587)" fill="white" stroke="white" stroke-width="2.14309" stroke-linejoin="round"/>
<circle r="2.33504" transform="matrix(-1 0 0 1 12.4485 103.587)" fill="white" stroke="white" stroke-width="2.14309" stroke-linejoin="round"/>
<circle r="2.33504" transform="matrix(-1 0 0 1 72.0356 88.6909)" fill="white" stroke="white" stroke-width="2.14309" stroke-linejoin="round"/>
<circle r="2.33504" transform="matrix(-1 0 0 1 27.3454 88.6909)" fill="#FF8EDF" stroke="#FF8EDF" stroke-width="2.14309" stroke-linejoin="round"/>
<circle r="2.33504" transform="matrix(-1 0 0 1 -2.44869 88.6909)" fill="#40E9FF" stroke="#40E9FF" stroke-width="2.14309" stroke-linejoin="round"/>
<circle r="2.33504" transform="matrix(-1 0 0 1 72.0444 73.7944)" fill="#FF8EDF" stroke="#FF8EDF" stroke-width="2.14309" stroke-linejoin="round"/>
<circle r="2.33504" transform="matrix(-1 0 0 1 27.3454 73.7944)" fill="white" stroke="white" stroke-width="2.14309" stroke-linejoin="round"/>
<circle r="2.33504" transform="matrix(-1 0 0 1 12.4485 73.7944)" fill="white" stroke="white" stroke-width="2.14309" stroke-linejoin="round"/>
<circle r="2.33504" transform="matrix(-1 0 0 1 -2.44869 73.7944)" fill="white" stroke="white" stroke-width="2.14309" stroke-linejoin="round"/>
<circle r="2.33504" transform="matrix(-1 0 0 1 86.8191 58.8978)" fill="white" stroke="white" stroke-width="2.14309" stroke-linejoin="round"/>
<circle r="2.33504" transform="matrix(-1 0 0 1 57.1387 58.8978)" fill="white" stroke="white" stroke-width="2.14309" stroke-linejoin="round"/>
<circle r="2.33504" transform="matrix(-1 0 0 1 42.2423 58.8978)" fill="white" stroke="white" stroke-width="2.14309" stroke-linejoin="round"/>
<circle r="2.33504" transform="matrix(-1 0 0 1 12.4485 44.0006)" fill="white" stroke="white" stroke-width="2.14309" stroke-linejoin="round"/>
<circle r="2.33504" transform="matrix(-1 0 0 1 -2.44869 44.0006)" fill="white" stroke="white" stroke-width="2.14309" stroke-linejoin="round"/>
<circle r="2.33504" transform="matrix(-1 0 0 1 57.1387 29.104)" fill="white" stroke="white" stroke-width="2.14309" stroke-linejoin="round"/>
<circle r="2.33504" transform="matrix(-1 0 0 1 27.3454 29.104)" fill="white" stroke="white" stroke-width="2.14309" stroke-linejoin="round"/>
<circle r="2.33504" transform="matrix(-1 0 0 1 57.1387 14.2073)" fill="#40E9FF" stroke="#40E9FF" stroke-width="2.14309" stroke-linejoin="round"/>
<circle r="2.33504" transform="matrix(-1 0 0 1 42.2423 14.2073)" fill="white" stroke="white" stroke-width="2.14309" stroke-linejoin="round"/>
<circle r="2.33504" transform="matrix(-1 0 0 1 42.2423 163.175)" fill="white" stroke="white" stroke-width="2.14309" stroke-linejoin="round"/>
<circle r="2.33504" transform="matrix(-1 0 0 1 42.2423 178.081)" fill="white" stroke="white" stroke-width="2.14309" stroke-linejoin="round"/>
<circle r="2.33504" transform="matrix(-1 0 0 1 27.3454 163.175)" fill="white" stroke="white" stroke-width="2.14309" stroke-linejoin="round"/>
<circle r="2.33504" transform="matrix(-1 0 0 1 12.4485 163.175)" fill="#40E9FF" stroke="#40E9FF" stroke-width="2.14309" stroke-linejoin="round"/>
<circle r="2.33504" transform="matrix(-1 0 0 1 27.3454 178.071)" fill="white" stroke="white" stroke-width="2.14309" stroke-linejoin="round"/>
<circle r="2.33504" transform="matrix(-1 0 0 1 12.4485 178.071)" fill="white" stroke="white" stroke-width="2.14309" stroke-linejoin="round"/>
<circle r="2.33504" transform="matrix(-1 0 0 1 -2.44869 178.071)" fill="white" stroke="white" stroke-width="2.14309" stroke-linejoin="round"/>
<circle r="2.33504" transform="matrix(-1 0 0 1 27.3454 192.968)" fill="#FF8EDF" stroke="#FF8EDF" stroke-width="2.14309" stroke-linejoin="round"/>
<path d="M25.3326 192.968H14.462" stroke="#FF8EDF" stroke-width="2.14309" stroke-linejoin="round"/>
<circle r="2.33504" transform="matrix(-1 0 0 1 12.4485 192.968)" fill="#FF8EDF" stroke="#FF8EDF" stroke-width="2.14309" stroke-linejoin="round"/>
<path d="M25.3326 178.071H14.462" stroke="white" stroke-width="2.14309" stroke-linejoin="round"/>
<path d="M29.2939 163.192H40.1646" stroke="white" stroke-width="2.14309" stroke-linejoin="round"/>
<path d="M86.9333 86.937V73.7936L72.0365 58.8968L57.1398 44.0001H42.243L27.3463 58.8968L13.8587 72.3844" stroke="white" stroke-width="2.14309" stroke-linejoin="round"/>
<path d="M42.243 12.3946V-2.5022" stroke="white" stroke-width="2.14309" stroke-linejoin="round"/>
<path d="M55.9315 15.4139L12.4491 58.8964H-2.44765L-15.9353 72.384" stroke="#40E9FF" stroke-width="2.14309" stroke-linejoin="round"/>
<path d="M57.1394 60.4387V73.7931L70.6042 87.2579" stroke="white" stroke-width="2.14309" stroke-linejoin="round"/>
<path d="M42.2429 60.7599V73.7932L72.0364 103.587V118.483L43.652 146.868" stroke="white" stroke-width="2.14309" stroke-linejoin="round"/>
<path d="M70.8287 134.588L58.3476 147.069" stroke="white" stroke-width="2.14309" stroke-linejoin="round"/>
<path d="M58.3477 30.2471L70.8287 42.7281" stroke="white" stroke-width="2.14309" stroke-linejoin="round"/>
<path d="M70.3171 42.147L85.8076 57.6375" stroke="white" stroke-width="2.14309" stroke-linejoin="round"/>
<path d="M12.449 161.161V148.277L27.3457 133.38H42.2425L57.1392 118.484V105.6" stroke="#40E9FF" stroke-width="2.14309" stroke-linejoin="round"/>
<path d="M-30.2276 118.483H-17.344L-2.44721 133.38H12.4495L42.243 103.587V88.6899L28.7554 75.2023" stroke="white" stroke-width="2.14309" stroke-linejoin="round"/>
<path d="M25.8689 102.11L-1.239 75.0018" stroke="white" stroke-width="2.14309" stroke-linejoin="round"/>
<path d="M10.9332 116.968L-2.4478 103.587V90.7031" stroke="#40E9FF" stroke-width="2.14309" stroke-linejoin="round"/>
<path d="M27.3462 27.0895V14.2058L12.4494 -0.690918" stroke="white" stroke-width="2.14309" stroke-linejoin="round"/>
<path d="M12.449 41.9863V14.2058L-2.44778 -0.690918" stroke="white" stroke-width="2.14309" stroke-linejoin="round"/>
<path d="M99.8976 103.478H86.9331V133.381L73.4748 146.838" stroke="white" stroke-width="2.14309" stroke-linejoin="round"/>
<path d="M147.244 19.3438C152.047 14.5404 159.835 14.5404 164.638 19.3438L177.994 32.6989C182.797 37.5023 182.797 45.2902 177.994 50.0936L164.638 63.4487C159.835 68.2521 152.047 68.2521 147.244 63.4487L133.889 50.0936C129.085 45.2902 129.085 37.5023 133.889 32.6989L147.244 19.3438Z" fill="#28B2FF"/>
<path d="M150.019 51.0918C150.019 52.5302 151.185 53.6963 152.623 53.6963C154.062 53.6963 155.228 52.5302 155.228 51.0918V42.3997C154.023 42.7142 153.134 43.8099 153.134 45.1133V46.4683L153.134 46.4747V50.0232C153.532 50.2138 153.807 50.6207 153.807 51.0917C153.807 51.7456 153.277 52.2756 152.623 52.2756C151.97 52.2756 151.44 51.7456 151.44 51.0917C151.44 50.6207 151.715 50.214 152.113 50.0233V46.4747L152.113 46.4692C152.11 45.1682 151.222 44.0752 150.019 43.7611V46.1097L150.019 46.102V51.0918Z" fill="white"/>
<path fill-rule="evenodd" clip-rule="evenodd" d="M150.019 32.6234C150.019 31.185 151.185 30.0189 152.623 30.0189C154.062 30.0189 155.228 31.185 155.228 32.6234V41.3539C153.806 41.6209 152.661 42.6746 152.264 44.0458C151.705 43.367 150.917 42.884 150.019 42.7153C149.789 42.672 149.551 42.6494 149.308 42.6494C149.063 42.6494 148.825 42.6179 148.598 42.5587L148.598 39.7266C148.598 40.1189 148.916 40.437 149.309 40.437C149.696 40.437 150.011 40.1268 150.019 39.7412L150.019 32.6234ZM148.598 42.5587C147.393 42.2442 146.504 41.1485 146.504 39.845V39.6112C146.902 39.4205 147.177 39.0138 147.177 38.5428C147.177 37.8889 146.647 37.3589 145.994 37.3589C145.34 37.3589 144.81 37.8889 144.81 38.5428C144.81 39.0139 145.085 39.4207 145.483 39.6113V39.845C145.483 41.715 146.825 43.2716 148.598 43.6045C148.828 43.6477 149.066 43.6703 149.308 43.6703C149.554 43.6703 149.792 43.7018 150.019 43.7611V46.1097L150.019 46.102C150.009 45.7178 149.695 45.4092 149.309 45.4092C148.916 45.4092 148.598 45.7272 148.598 46.1195C148.598 47.558 147.432 48.724 145.994 48.724C144.555 48.724 143.389 47.5579 143.389 46.1195V38.5428C143.389 37.1043 144.555 35.9383 145.994 35.9383C147.432 35.9383 148.598 37.1043 148.598 38.5428L148.598 42.5587ZM161.857 39.7173C160.653 39.4028 159.763 38.3071 159.763 37.0037L159.763 33.692C160.162 33.5014 160.437 33.0945 160.437 32.6234C160.437 31.9696 159.907 31.4396 159.253 31.4396C158.599 31.4396 158.069 31.9696 158.069 32.6234C158.069 33.0944 158.344 33.5012 158.742 33.6919V38.4837C158.742 39.787 157.853 40.8828 156.648 41.1973C156.422 41.2565 156.184 41.288 155.938 41.288C155.695 41.288 155.458 41.3106 155.228 41.3539L155.228 35.9383L155.228 35.9383C155.228 36.3306 155.546 36.6486 155.938 36.6486C156.324 36.6486 156.639 36.3406 156.648 35.9569L156.648 32.6234C156.648 31.185 157.814 30.0189 159.253 30.0189C160.691 30.0189 161.857 31.185 161.857 32.6234V39.7173ZM161.857 40.7632C162.088 40.8064 162.325 40.829 162.568 40.829C162.813 40.829 163.051 40.8605 163.278 40.9197V39.8739C163.048 39.8307 162.81 39.8081 162.568 39.8081C162.322 39.8081 162.084 39.7766 161.857 39.7173L161.858 37.5957C161.858 37.988 162.176 38.306 162.568 38.306C162.954 38.306 163.269 37.9974 163.278 37.6133V37.5957C163.278 36.1572 164.444 34.9912 165.882 34.9912C167.321 34.9912 168.487 36.1572 168.487 37.5957V45.1724C168.487 46.6108 167.321 47.7769 165.882 47.7769C164.444 47.7769 163.278 46.6109 163.278 45.1724V43.9713C163.269 43.587 162.954 43.2782 162.568 43.2782C162.177 43.2782 161.859 43.5944 161.858 43.9851L161.857 40.7632ZM161.857 40.7632V51.0918C161.857 52.5302 160.691 53.6963 159.253 53.6963C157.814 53.6963 156.648 52.5302 156.648 51.0918L156.648 47.531C156.644 47.1429 156.327 46.8298 155.938 46.8298C155.546 46.8298 155.228 47.1479 155.228 47.5402L155.228 42.3997C155.455 42.3405 155.693 42.3089 155.938 42.3089C156.181 42.3089 156.418 42.2863 156.648 42.2431C158.101 41.9703 159.264 40.8766 159.637 39.4622C160.194 40.1254 160.972 40.5969 161.857 40.7632ZM165.372 43.6334V44.1039C164.974 44.2946 164.699 44.7014 164.699 45.1724C164.699 45.8263 165.229 46.3563 165.883 46.3563C166.536 46.3563 167.067 45.8263 167.067 45.1724C167.067 44.7014 166.791 44.2946 166.393 44.104V43.6334C166.393 41.7635 165.051 40.2069 163.278 39.8739L163.278 40.9198C164.483 41.2343 165.372 42.33 165.372 43.6334Z" fill="white"/>
</g>
<defs>
<linearGradient id="paint0_linear" x1="-19.8917" y1="-0.987915" x2="-19.8917" y2="223.361" gradientUnits="userSpaceOnUse">
<stop stop-color="#36CDFD"/>
<stop offset="1" stop-color="#2A90EF"/>
</linearGradient>
<clipPath id="clip0">
<rect width="196" height="201" fill="white" transform="translate(0.11792)"/>
</clipPath>
</defs>
</svg>
