<svg width="200" height="210" viewBox="0 0 200 210" fill="none" xmlns="http://www.w3.org/2000/svg">
<rect x="24.5627" y="85.6466" width="21.8069" height="21.8069" rx="5.45521" transform="rotate(45 24.5627 85.6466)" stroke="#1E6CFF" stroke-width="3.282"/>
<rect x="24.5627" y="39.4291" width="21.8069" height="21.8069" rx="5.45521" transform="rotate(45 24.5627 39.4291)" fill="#1E6CFF" stroke="#1E6CFF" stroke-width="3.282"/>
<rect x="6.82214" y="62.2688" width="21.8069" height="21.8069" rx="5.45521" transform="rotate(45 6.82214 62.2688)" fill="#CDD4D9" stroke="#CDD4D9" stroke-width="3.282"/>
<rect x="24.5627" y="-8.11824" width="21.8069" height="21.8069" rx="5.45521" transform="rotate(45 24.5627 -8.11824)" fill="#1E6CFF" stroke="#1E6CFF" stroke-width="3.282"/>
<rect x="6.82214" y="14.7215" width="21.8069" height="21.8069" rx="5.45521" transform="rotate(45 6.82214 14.7215)" fill="#CDD4D9" stroke="#CDD4D9" stroke-width="3.282"/>
<rect x="60.0438" y="85.6466" width="21.8069" height="21.8069" rx="5.45521" transform="rotate(45 60.0438 85.6466)" stroke="#1E6CFF" stroke-width="3.282"/>
<rect x="60.0438" y="39.4291" width="21.8069" height="21.8069" rx="5.45521" transform="rotate(45 60.0438 39.4291)" fill="#1E6CFF" stroke="#1E6CFF" stroke-width="3.282"/>
<rect x="42.3032" y="62.2688" width="21.8069" height="21.8069" rx="5.45521" transform="rotate(45 42.3032 62.2688)" fill="#CDD4D9" stroke="#CDD4D9" stroke-width="3.282"/>
<rect x="60.0438" y="-8.11824" width="21.8069" height="21.8069" rx="5.45521" transform="rotate(45 60.0438 -8.11824)" fill="#1E6CFF" stroke="#1E6CFF" stroke-width="3.282"/>
<rect x="42.3032" y="14.7215" width="21.8069" height="21.8069" rx="5.45521" transform="rotate(45 42.3032 14.7215)" fill="#CDD4D9" stroke="#CDD4D9" stroke-width="3.282"/>
<rect x="95.5248" y="-8.11824" width="21.8069" height="21.8069" rx="5.45521" transform="rotate(45 95.5248 -8.11824)" fill="#1E6CFF" stroke="#1E6CFF" stroke-width="3.282"/>
<rect x="77.7842" y="14.7215" width="21.8069" height="21.8069" rx="5.45521" transform="rotate(45 77.7842 14.7215)" fill="#CDD4D9" stroke="#CDD4D9" stroke-width="3.282"/>
<rect x="24.5626" y="179.412" width="21.8069" height="21.8069" rx="5.45521" transform="rotate(45 24.5626 179.412)" fill="#1E6CFF" stroke="#1E6CFF" stroke-width="3.282"/>
<rect x="24.5626" y="133.194" width="21.8069" height="21.8069" rx="5.45521" transform="rotate(45 24.5626 133.194)" fill="#1E6CFF" stroke="#1E6CFF" stroke-width="3.282"/>
<rect x="6.82208" y="156.034" width="21.8069" height="21.8069" rx="5.45521" transform="rotate(45 6.82208 156.034)" fill="#CDD4D9" stroke="#CDD4D9" stroke-width="3.282"/>
<rect x="24.5626" y="85.6466" width="21.8069" height="21.8069" rx="5.45521" transform="rotate(45 24.5626 85.6466)" fill="#1E6CFF" stroke="#1E6CFF" stroke-width="3.282"/>
<rect x="6.82208" y="108.486" width="21.8069" height="21.8069" rx="5.45521" transform="rotate(45 6.82208 108.486)" fill="#CDD4D9" stroke="#CDD4D9" stroke-width="3.282"/>
<rect x="60.0437" y="179.412" width="21.8069" height="21.8069" rx="5.45521" transform="rotate(45 60.0437 179.412)" fill="#1E6CFF" stroke="#1E6CFF" stroke-width="3.282"/>
<rect x="60.0437" y="133.194" width="21.8069" height="21.8069" rx="5.45521" transform="rotate(45 60.0437 133.194)" fill="#1E6CFF" stroke="#1E6CFF" stroke-width="3.282"/>
<rect x="42.3032" y="156.034" width="21.8069" height="21.8069" rx="5.45521" transform="rotate(45 42.3032 156.034)" fill="#CDD4D9" stroke="#CDD4D9" stroke-width="3.282"/>
<rect x="60.0437" y="85.6466" width="21.8069" height="21.8069" rx="5.45521" transform="rotate(45 60.0437 85.6466)" fill="#1E6CFF" stroke="#1E6CFF" stroke-width="3.282"/>
<rect x="42.3032" y="108.486" width="21.8069" height="21.8069" rx="5.45521" transform="rotate(45 42.3032 108.486)" fill="#CDD4D9" stroke="#CDD4D9" stroke-width="3.282"/>
<rect x="95.5248" y="179.412" width="21.8069" height="21.8069" rx="5.45521" transform="rotate(45 95.5248 179.412)" fill="#1E6CFF" stroke="#1E6CFF" stroke-width="3.282"/>
<rect x="77.7843" y="156.034" width="21.8069" height="21.8069" rx="5.45521" transform="rotate(45 77.7843 156.034)" fill="#CDD4D9" stroke="#CDD4D9" stroke-width="3.282"/>
<rect x="77.7843" y="108.486" width="21.8069" height="21.8069" rx="5.45521" transform="rotate(45 77.7843 108.486)" fill="#CDD4D9" stroke="#CDD4D9" stroke-width="3.282"/>
<path d="M152.208 19.6173C157.011 14.8139 164.799 14.8139 169.602 19.6173L182.957 32.9724C187.761 37.7758 187.761 45.5637 182.957 50.3671L169.602 63.7222C164.799 68.5256 157.011 68.5256 152.208 63.7222L138.852 50.3671C134.049 45.5637 134.049 37.7758 138.852 32.9724L152.208 19.6173Z" fill="#1E6CFF"/>
<rect x="150.561" y="37.2886" width="2.50515" height="8.76488" fill="white"/>
<path fill-rule="evenodd" clip-rule="evenodd" d="M148.018 46.1926C150.63 46.1926 152.505 43.9523 152.505 41.6694C152.505 39.5132 150.642 37.1462 148.018 37.1462C145.508 37.1462 143.603 39.1713 143.603 41.6694C143.603 44.1675 145.508 46.1926 148.018 46.1926ZM148.293 43.9063C149.58 43.9063 150.561 42.9476 150.561 41.6694C150.561 40.3912 149.58 39.4325 148.293 39.4325C147.006 39.4325 146.01 40.434 146.01 41.6694C146.01 42.9048 147.006 43.9063 148.293 43.9063Z" fill="white"/>
<path fill-rule="evenodd" clip-rule="evenodd" d="M163.13 39.7322L160.836 40.7978C160.543 40.1386 159.926 39.6081 159.092 39.6081C157.905 39.6081 156.987 40.5314 156.987 41.6703C156.987 42.8092 157.905 43.7325 159.092 43.7325C159.945 43.7325 160.571 43.2546 160.855 42.5624L163.145 43.6418C162.441 45.1522 160.932 46.1935 159.051 46.1935C156.518 46.1935 154.528 44.1684 154.528 41.6703C154.528 39.1722 156.609 37.1471 159.051 37.1471C160.815 37.1471 162.391 38.2038 163.13 39.7322Z" fill="white"/>
<rect x="164.548" y="37.2869" width="2.50515" height="8.76801" fill="white"/>
<path d="M170.115 40.6967L172.621 40.4879V46.0549H170.115V40.6967Z" fill="white"/>
<path d="M175.682 40.6967L178.188 40.4879V46.0549H175.682V40.6967Z" fill="white"/>
<path d="M169.299 37.1471C171.516 37.1471 172.621 38.8456 172.621 40.6265L170.116 41.0923C170.116 40.3221 169.42 39.6289 168.585 39.6289C167.75 39.6289 167.054 40.3487 167.054 41.1837L166.39 40.2473C166.129 39.6289 167.075 37.1471 169.299 37.1471Z" fill="white"/>
<path d="M174.866 37.1471C177.083 37.1471 178.188 38.8456 178.188 40.6265L175.683 41.0923C175.683 40.3221 174.987 39.6289 174.152 39.6289C173.317 39.6289 172.621 40.3487 172.621 41.1837L171.957 40.2473C171.696 39.6289 172.642 37.1471 174.866 37.1471Z" fill="white"/>
<path d="M174.866 37.1471C177.083 37.1471 178.188 38.8456 178.188 40.6265L175.683 40.8353C175.683 40.0651 174.987 39.4435 174.152 39.4435C173.317 39.4435 172.621 40.0002 172.621 40.8353L171.368 39.5131C171.925 38.2605 172.642 37.1471 174.866 37.1471Z" fill="white"/>
</svg>
