<svg width="197" height="201" viewBox="0 0 197 201" fill="none" xmlns="http://www.w3.org/2000/svg" transform="scale(-1,1)">
<g clip-path="url(#clip0)">
<rect x="0.691345" width="196" height="201" rx="10" fill="white"/>
<path d="M354.992 138.219C349.18 160.796 337.953 181.616 322.281 198.875C306.609 216.135 286.966 229.313 265.053 237.27C243.14 245.226 219.617 247.72 196.523 244.536C173.428 241.352 151.458 232.586 132.516 218.997" stroke="#FF8C4C" stroke-width="6.28125" stroke-linecap="round" stroke-dasharray="0.25 17.59"/>
<path d="M73.7134 118.64C71.4515 98.811 73.361 78.725 79.3194 59.6704" stroke="#FF8C4C" stroke-width="6.28125" stroke-linecap="round" stroke-dasharray="0.25 17.59"/>
<path d="M32.679 68.0714C37.4624 42.532 47.5345 18.2717 62.2493 -3.15392" stroke="url(#paint0_linear)" stroke-width="6.28125" stroke-linecap="round" stroke-dasharray="0.25 17.59"/>
<path d="M45.1983 82.7268C47.4586 53.737 57.7401 25.942 74.8942 2.44714" stroke="#FFCB44" stroke-width="6.28125" stroke-linecap="round"/>
<path d="M134.606 272.355C167.274 288.028 203.768 293.949 239.716 289.41C275.664 284.87 309.54 270.062 337.286 246.76C365.033 223.458 385.472 192.65 396.155 158.028C406.839 123.405 407.313 86.4367 397.521 51.5517" stroke="#F44D89" stroke-width="4.02" stroke-linecap="round"/>
<path d="M127.121 284.025C174.25 306.636 228.271 310.249 277.991 294.117C327.712 277.984 369.32 243.342 394.196 197.369C419.072 151.395 425.308 97.6138 411.612 47.1677C397.916 -3.27833 365.339 -46.5222 320.629 -73.6041C275.92 -100.686 222.505 -109.53 171.453 -98.3038C120.4 -87.0775 75.6235 -56.6414 46.3995 -13.3017C17.1755 30.038 5.74447 82.9593 14.4749 134.497C23.2053 186.035 51.4279 232.239 93.2952 263.536" stroke="#F0F0F0" stroke-width="5.77875" stroke-linecap="round"/>
<path d="M121.08 296.618C171.442 320.78 229.17 324.641 282.302 307.402C335.434 290.162 379.897 253.143 406.48 204.015C433.062 154.887 439.726 97.4157 425.091 43.5084C410.456 -10.399 375.643 -56.6101 327.866 -85.5502C280.088 -114.49 223.009 -123.941 168.454 -111.945C113.898 -99.948 66.0489 -67.4235 34.8197 -21.1101C3.59053 25.2033 -8.62482 81.7558 0.704611 136.83C10.034 191.904 40.1932 241.278 84.9332 274.723" stroke="#FFE819" stroke-width="5.77875" stroke-linecap="round"/>
<path d="M29.6753 83.821C27.2188 108.378 29.6379 133.178 36.7937 156.798" stroke="#FF8C4C" stroke-width="4.02" stroke-linecap="round"/>
<path d="M105.482 -8.40429C103.671 -10.2189 100.727 -10.2268 98.9655 -8.3648C86.5148 4.79404 76.3701 19.9571 68.9579 36.4869C67.9091 38.8259 69.0398 41.5442 71.408 42.5253C73.7762 43.5064 76.4848 42.3785 77.5377 40.0414C84.4769 24.639 93.9359 10.5009 105.525 -1.79056C107.283 -3.65565 107.292 -6.58964 105.482 -8.40429Z" fill="#FFDA19"/>
<path d="M105.482 -8.40429C103.671 -10.2189 100.727 -10.2268 98.9655 -8.3648C86.5148 4.79404 76.3701 19.9571 68.9579 36.4869C67.9091 38.8259 69.0398 41.5442 71.408 42.5253C73.7762 43.5064 76.4848 42.3785 77.5377 40.0414C84.4769 24.639 93.9359 10.5009 105.525 -1.79056C107.283 -3.65565 107.292 -6.58964 105.482 -8.40429Z" fill="url(#paint1_linear)"/>
<path d="M68.4365 49.1404C66.1781 48.3255 63.6808 49.494 62.9271 51.7735C62.8338 52.0559 62.7412 52.3386 62.6493 52.6215C61.9083 54.9052 63.2302 57.3247 65.533 58.004C67.8358 58.6833 70.2472 57.3649 70.9918 55.0823C71.0306 54.9634 71.0696 54.8444 71.1087 54.7255C71.8589 52.4448 70.6949 49.9553 68.4365 49.1404Z" fill="#F44D89"/>
<ellipse cx="50.904" cy="191.128" rx="5.5275" ry="5.65313" fill="#FF8C4C"/>
<ellipse cx="50.9043" cy="191.128" rx="2.35668" ry="2.41024" fill="white"/>
<circle cx="42.3832" cy="173.918" r="5.6801" transform="rotate(173.691 42.3832 173.918)" fill="#FF8C4C"/>
<path d="M76.5081 135.522C81.9573 158.697 93.0907 180.152 108.904 197.949C124.717 215.747 144.712 229.328 167.085 237.467C189.458 245.605 213.506 248.046 237.058 244.568C260.611 241.091 282.927 231.804 301.993 217.547" stroke="#FFCB44" stroke-width="5.025" stroke-linecap="round"/>
<path d="M60.3697 66.0568C58.613 65.6469 56.8532 66.7383 56.4785 68.5029C50.3154 97.5308 52.1805 127.713 61.9041 155.793C71.6277 183.873 88.8268 208.746 111.621 227.746C113.007 228.901 115.065 228.671 116.192 227.262L118.371 224.538C119.498 223.13 119.268 221.077 117.884 219.92C96.5655 202.103 80.4781 178.807 71.3735 152.514C62.2689 126.221 60.5049 97.9655 66.2396 70.7804C66.612 69.0153 65.5238 67.2593 63.7671 66.8494L60.3697 66.0568Z" fill="#E6E6E6"/>
<path d="M44.3764 103.314C43.1276 103.321 42.1191 104.339 42.142 105.587C42.6032 130.718 48.5039 155.452 59.4379 178.084C59.9811 179.209 61.3406 179.662 62.4579 179.104L69.234 175.721C70.3514 175.163 70.8034 173.806 70.2613 172.681C60.1539 151.707 54.6888 128.8 54.239 105.523C54.2149 104.274 53.1987 103.267 51.9499 103.274L44.3764 103.314Z" fill="#E6E6E6"/>
<path d="M53.4509 88.7636C52.4811 98.7045 42.2976 94.6635 42.2977 105.17L56.1943 105.896L59.3388 102.107C57.6994 94.3459 54.2267 80.811 53.4509 88.7636Z" fill="#E5E5E5"/>
<path d="M76.8833 187.298C71.4559 178.914 64.2663 187.181 59.4406 177.848L71.4509 170.82L75.9843 172.741C78.0931 180.388 81.2252 194.006 76.8833 187.298Z" fill="#E5E5E5"/>
<path d="M52.5681 104.128C50.2848 104.188 48.4768 106.087 48.5931 108.369C49.7035 130.155 55.0788 151.512 64.414 171.228C65.3914 173.293 67.8834 174.11 69.9229 173.082C71.9624 172.054 72.7769 169.569 71.8021 167.503C63.0133 148.879 57.9393 128.718 56.8643 108.152C56.7451 105.871 54.8514 104.068 52.5681 104.128Z" fill="url(#paint2_linear)"/>
<path d="M147.341 17.6094C152.144 12.806 159.932 12.806 164.736 17.6094L178.091 30.9645C182.894 35.7679 182.894 43.5558 178.091 48.3592L164.736 61.7143C159.932 66.5177 152.144 66.5177 147.341 61.7143L133.986 48.3592C129.182 43.5558 129.182 35.7679 133.986 30.9645L147.341 17.6094Z" fill="#FFBA44"/>
<path d="M157.659 32.7733C157.662 33.3162 157.386 33.7943 156.967 34.0729C156.722 34.2355 156.427 34.3302 156.11 34.3302C155.734 34.3302 155.388 34.1968 155.117 33.9748C154.77 33.6893 154.546 33.257 154.544 32.7733C154.538 31.9134 155.232 31.2164 156.092 31.2164C156.952 31.2164 157.653 31.9134 157.659 32.7733Z" fill="white"/>
<path fill-rule="evenodd" clip-rule="evenodd" d="M163.08 34.3327L163.08 34.3524L163.351 34.3516C164.454 34.3484 165.352 35.2407 165.355 36.3446L165.392 48.7006C165.395 49.8045 164.503 50.702 163.399 50.7052L148.707 50.7476C147.603 50.7508 146.705 49.8585 146.702 48.7546L146.665 36.3986C146.662 35.2947 147.554 34.3972 148.658 34.3941L148.996 34.3931V34.3327C148.996 30.4691 152.149 27.3371 156.038 27.3371C159.927 27.3371 163.08 30.4691 163.08 34.3327ZM157.172 41.238V38.2476C158.967 37.8047 160.314 36.2515 160.444 34.36C160.452 34.2491 160.455 34.137 160.454 34.0239C160.436 31.6212 158.465 29.6733 156.054 29.6733C153.642 29.6733 151.702 31.6212 151.721 34.0239C151.722 34.1456 151.728 34.266 151.739 34.3852C151.901 36.1829 153.158 37.6709 154.836 38.1833V41.2269V41.3283V47.1951C154.836 47.8402 155.359 48.3632 156.004 48.3632C156.008 48.3632 156.012 48.3632 156.015 48.3632C156.019 48.3632 156.022 48.3632 156.025 48.3632H158.709C159.151 48.3632 159.509 48.0053 159.509 47.5637V47.2159C159.509 46.7743 159.151 46.4164 158.709 46.4164H157.172V44.4695H158.709C159.151 44.4695 159.509 44.1115 159.509 43.67V43.3221C159.509 42.8806 159.151 42.5226 158.709 42.5226H157.172V41.3283V41.238ZM157.659 32.7733C157.662 33.3162 157.386 33.7943 156.967 34.0729C156.722 34.2355 156.427 34.3302 156.11 34.3302C155.734 34.3302 155.388 34.1968 155.117 33.9748C154.77 33.6893 154.546 33.257 154.544 32.7733C154.538 31.9134 155.232 31.2164 156.092 31.2164C156.952 31.2164 157.653 31.9134 157.659 32.7733Z" fill="white"/>
</g>
<defs>
<linearGradient id="paint0_linear" x1="51.7375" y1="86.3419" x2="93.2358" y2="1.76939" gradientUnits="userSpaceOnUse">
<stop stop-color="#FF8C4C"/>
<stop offset="1" stop-color="#F55482"/>
</linearGradient>
<linearGradient id="paint1_linear" x1="75.7975" y1="47.7891" x2="87.0323" y2="1.30758" gradientUnits="userSpaceOnUse">
<stop stop-color="#FFE040"/>
<stop offset="1" stop-color="#F5B100"/>
</linearGradient>
<linearGradient id="paint2_linear" x1="51.8674" y1="99.8816" x2="95.8004" y2="177.615" gradientUnits="userSpaceOnUse">
<stop stop-color="#F44D89"/>
<stop offset="1" stop-color="#FF8C4C"/>
</linearGradient>
<clipPath id="clip0">
<rect x="0.691345" width="196" height="201" rx="10" fill="white"/>
</clipPath>
</defs>
</svg>
