<svg width="197" height="201" viewBox="0 0 197 201" fill="none" xmlns="http://www.w3.org/2000/svg">
<g clip-path="url(#clip0)">
<rect x="0.11792" width="196" height="201" rx="10" fill="white"/>
<mask id="mask0" mask-type="alpha" maskUnits="userSpaceOnUse" x="-4" y="166" width="25" height="28">
<path d="M-1.12756 171.612C-2.67582 172.505 -3.62958 174.157 -3.62958 175.945V185.174C-3.62958 186.496 -2.92462 187.717 -1.78024 188.378L6.2124 192.992C7.76068 193.886 9.66823 193.886 11.2165 192.992L18.9857 188.506C20.1304 187.846 20.5226 186.382 19.8617 185.237L9.91095 168.002C9.25007 166.857 7.78637 166.465 6.64169 167.126L-1.12756 171.612Z" fill="#FF7A7A"/>
</mask>
<g mask="url(#mask0)">
<path d="M-1.12756 171.612C-2.67582 172.505 -3.62958 174.157 -3.62958 175.945V185.174C-3.62958 186.496 -2.92462 187.717 -1.78024 188.378L6.2124 192.992C7.76068 193.886 9.66823 193.886 11.2165 192.992L18.9857 188.506C20.1304 187.846 20.5226 186.382 19.8617 185.237L9.91095 168.002C9.25007 166.857 7.78637 166.465 6.64169 167.126L-1.12756 171.612Z" fill="#666666"/>
<path d="M-3.6298 187.31L-3.6298 173.056L8.71423 194.437L-3.6298 187.31Z" fill="#ABABAB"/>
<path d="M-2.43296 175.129L7.51782 192.364C8.1787 193.509 9.6424 193.901 10.7871 193.24L18.9857 188.506C20.1304 187.846 20.5226 186.382 19.8617 185.237L9.91095 168.002C9.25007 166.857 7.78637 166.465 6.64169 167.126L-1.55697 171.86C-2.70164 172.52 -3.09383 173.984 -2.43296 175.129Z" fill="#353535"/>
</g>
<path d="M69.3549 188.259L62.8853 191.994C61.0677 193.043 58.8284 193.043 57.0109 191.994L50.5413 188.259C48.7238 187.209 47.6042 185.27 47.6042 183.171V175.701C47.6042 173.602 48.7238 171.663 50.5413 170.613L57.0108 166.878C58.8283 165.829 61.0676 165.829 62.8851 166.878L69.3549 170.613C71.1725 171.663 72.2921 173.602 72.2921 175.701V183.171C72.2921 185.27 71.1725 187.209 69.3549 188.259Z" fill="url(#paint0_linear)"/>
<path d="M69.3551 174.005L62.8855 177.741C61.0679 178.79 58.8286 178.79 57.0111 177.741L50.5415 174.005C48.724 172.956 47.6044 171.017 47.6044 168.918V161.447C47.6044 159.349 48.724 157.409 50.5415 156.36L57.0109 152.625C58.8285 151.576 61.0678 151.576 62.8853 152.625L69.3551 156.36C71.1726 157.409 72.2923 159.349 72.2923 161.447V168.918C72.2923 171.017 71.1727 172.956 69.3551 174.005Z" fill="url(#paint1_linear)"/>
<rect width="14.2537" height="28.5073" rx="3.04596" transform="matrix(-0.866025 0.5 2.20305e-08 1 72.2921 158.055)" fill="#FF9900"/>
<rect width="14.2537" height="14.2537" rx="3.04596" transform="matrix(-0.866025 0.5 0.866025 0.5 59.9474 150.929)" fill="#FFDB59"/>
<rect width="14.2537" height="28.5073" rx="3.04596" transform="matrix(-0.866025 -0.5 -2.20305e-08 1 59.9481 165.182)" fill="#1955B3"/>
<path d="M81.7001 195.385L75.2304 199.121C73.4129 200.17 71.1736 200.17 69.356 199.121L62.8865 195.385C61.069 194.336 59.9493 192.397 59.9493 190.298V182.827C59.9493 180.729 61.069 178.789 62.8865 177.74L69.3559 174.005C71.1734 172.955 73.4128 172.955 75.2303 174.005L81.7001 177.74C83.5176 178.789 84.6373 180.729 84.6373 182.827V190.298C84.6373 192.397 83.5176 194.336 81.7001 195.385Z" fill="url(#paint2_linear)"/>
<path d="M81.7002 181.132L75.2305 184.867C73.413 185.916 71.1737 185.916 69.3562 184.867L62.8866 181.132C61.0691 180.082 59.9495 178.143 59.9495 176.044V168.574C59.9495 166.475 61.0691 164.536 62.8866 163.487L69.356 159.751C71.1736 158.702 73.4129 158.702 75.2304 159.751L81.7002 163.487C83.5177 164.536 84.6374 166.475 84.6374 168.574V176.044C84.6374 178.143 83.5177 180.082 81.7002 181.132Z" fill="url(#paint3_linear)"/>
<rect width="14.2537" height="28.5073" rx="3.04596" transform="matrix(-0.866025 -0.5 -2.20305e-08 1 72.2933 172.309)" fill="#353535"/>
<mask id="mask1" mask-type="alpha" maskUnits="userSpaceOnUse" x="59" y="166" width="14" height="34">
<rect width="14.2537" height="28.5073" rx="3.04596" transform="matrix(0.866025 0.5 -2.20305e-08 1 59.949 165.182)" fill="#FF9900"/>
</mask>
<g mask="url(#mask1)">
<rect width="14.2537" height="28.5073" transform="matrix(0.866025 0.5 -2.20305e-08 1 59.9471 165.182)" fill="#C4C4C4"/>
<circle r="0.712683" transform="matrix(0.866025 0.5 -2.20305e-08 1 60.5643 166.251)" fill="black"/>
<circle r="0.712683" transform="matrix(0.866025 0.5 -2.20305e-08 1 60.5646 168.925)" fill="black"/>
<circle r="0.712683" transform="matrix(0.866025 0.5 -2.20305e-08 1 60.5646 171.598)" fill="black"/>
<circle r="0.712683" transform="matrix(0.866025 0.5 -2.20305e-08 1 60.5646 174.272)" fill="black"/>
<circle r="0.712683" transform="matrix(0.866025 0.5 -2.20305e-08 1 60.5646 176.945)" fill="black"/>
<circle r="0.712683" transform="matrix(0.866025 0.5 -2.20305e-08 1 60.5646 179.619)" fill="black"/>
<circle r="0.712683" transform="matrix(0.866025 0.5 -2.20305e-08 1 60.5646 182.292)" fill="black"/>
<circle r="0.712683" transform="matrix(0.866025 0.5 -2.20305e-08 1 60.5646 184.966)" fill="black"/>
<circle r="0.712683" transform="matrix(0.866025 0.5 -2.20305e-08 1 60.5646 187.639)" fill="black"/>
<circle r="0.712683" transform="matrix(0.866025 0.5 -2.20305e-08 1 60.5646 190.313)" fill="black"/>
<circle r="0.712683" transform="matrix(0.866025 0.5 -2.20305e-08 1 60.5646 192.986)" fill="black"/>
<circle r="0.712683" transform="matrix(0.866025 0.5 -2.20305e-08 1 62.786 167.534)" fill="black"/>
<circle r="0.712683" transform="matrix(0.866025 0.5 -2.20305e-08 1 62.786 170.207)" fill="black"/>
<circle r="0.712683" transform="matrix(0.866025 0.5 -2.20305e-08 1 62.786 172.881)" fill="black"/>
<circle r="0.712683" transform="matrix(0.866025 0.5 -2.20305e-08 1 62.786 175.554)" fill="black"/>
<circle r="0.712683" transform="matrix(0.866025 0.5 -2.20305e-08 1 62.786 178.228)" fill="black"/>
<circle r="0.712683" transform="matrix(0.866025 0.5 -2.20305e-08 1 62.786 180.901)" fill="black"/>
<circle r="0.712683" transform="matrix(0.866025 0.5 -2.20305e-08 1 62.786 183.575)" fill="black"/>
<circle r="0.712683" transform="matrix(0.866025 0.5 -2.20305e-08 1 62.786 186.248)" fill="black"/>
<circle r="0.712683" transform="matrix(0.866025 0.5 -2.20305e-08 1 62.786 188.922)" fill="black"/>
<circle r="0.712683" transform="matrix(0.866025 0.5 -2.20305e-08 1 62.786 191.595)" fill="black"/>
<circle r="0.712683" transform="matrix(0.866025 0.5 -2.20305e-08 1 62.786 194.269)" fill="black"/>
<circle r="0.712683" transform="matrix(0.866025 0.5 -2.20305e-08 1 65.0078 168.816)" fill="black"/>
<circle r="0.712683" transform="matrix(0.866025 0.5 -2.20305e-08 1 65.0078 171.49)" fill="black"/>
<circle r="0.712683" transform="matrix(0.866025 0.5 -2.20305e-08 1 65.0078 174.164)" fill="black"/>
<circle r="0.712683" transform="matrix(0.866025 0.5 -2.20305e-08 1 65.0078 176.837)" fill="black"/>
<circle r="0.712683" transform="matrix(0.866025 0.5 -2.20305e-08 1 65.0078 179.51)" fill="black"/>
<circle r="0.712683" transform="matrix(0.866025 0.5 -2.20305e-08 1 65.0078 182.184)" fill="black"/>
<circle r="0.712683" transform="matrix(0.866025 0.5 -2.20305e-08 1 65.0078 184.857)" fill="black"/>
<circle r="0.712683" transform="matrix(0.866025 0.5 -2.20305e-08 1 65.0078 187.531)" fill="black"/>
<circle r="0.712683" transform="matrix(0.866025 0.5 -2.20305e-08 1 65.0078 190.204)" fill="black"/>
<circle r="0.712683" transform="matrix(0.866025 0.5 -2.20305e-08 1 65.0078 192.878)" fill="black"/>
<circle r="0.712683" transform="matrix(0.866025 0.5 -2.20305e-08 1 65.0078 195.551)" fill="black"/>
<circle r="0.712683" transform="matrix(0.866025 0.5 -2.20305e-08 1 67.2289 170.099)" fill="black"/>
<circle r="0.712683" transform="matrix(0.866025 0.5 -2.20305e-08 1 67.2289 172.772)" fill="black"/>
<circle r="0.712683" transform="matrix(0.866025 0.5 -2.20305e-08 1 67.2289 175.446)" fill="black"/>
<circle r="0.712683" transform="matrix(0.866025 0.5 -2.20305e-08 1 67.2289 178.119)" fill="black"/>
<circle r="0.712683" transform="matrix(0.866025 0.5 -2.20305e-08 1 67.2289 180.793)" fill="black"/>
<circle r="0.712683" transform="matrix(0.866025 0.5 -2.20305e-08 1 67.2289 183.466)" fill="black"/>
<circle r="0.712683" transform="matrix(0.866025 0.5 -2.20305e-08 1 67.2289 186.14)" fill="black"/>
<circle r="0.712683" transform="matrix(0.866025 0.5 -2.20305e-08 1 67.2289 188.813)" fill="black"/>
<circle r="0.712683" transform="matrix(0.866025 0.5 -2.20305e-08 1 67.2289 191.487)" fill="black"/>
<circle r="0.712683" transform="matrix(0.866025 0.5 -2.20305e-08 1 67.2289 194.161)" fill="black"/>
<circle r="0.712683" transform="matrix(0.866025 0.5 -2.20305e-08 1 67.2289 196.834)" fill="black"/>
<circle r="0.712683" transform="matrix(0.866025 0.5 -2.20305e-08 1 69.4503 171.381)" fill="black"/>
<circle r="0.712683" transform="matrix(0.866025 0.5 -2.20305e-08 1 69.4503 174.055)" fill="black"/>
<circle r="0.712683" transform="matrix(0.866025 0.5 -2.20305e-08 1 69.4503 176.729)" fill="black"/>
<circle r="0.712683" transform="matrix(0.866025 0.5 -2.20305e-08 1 69.4503 179.402)" fill="black"/>
<circle r="0.712683" transform="matrix(0.866025 0.5 -2.20305e-08 1 69.4503 182.075)" fill="black"/>
<circle r="0.712683" transform="matrix(0.866025 0.5 -2.20305e-08 1 69.4503 184.749)" fill="black"/>
<circle r="0.712683" transform="matrix(0.866025 0.5 -2.20305e-08 1 69.4503 187.422)" fill="black"/>
<circle r="0.712683" transform="matrix(0.866025 0.5 -2.20305e-08 1 69.4503 190.096)" fill="black"/>
<circle r="0.712683" transform="matrix(0.866025 0.5 -2.20305e-08 1 69.4503 192.769)" fill="black"/>
<circle r="0.712683" transform="matrix(0.866025 0.5 -2.20305e-08 1 69.4503 195.443)" fill="black"/>
<circle r="0.712683" transform="matrix(0.866025 0.5 -2.20305e-08 1 69.4503 198.117)" fill="black"/>
<circle r="0.712683" transform="matrix(0.866025 0.5 -2.20305e-08 1 71.6718 172.664)" fill="black"/>
<circle r="0.712683" transform="matrix(0.866025 0.5 -2.20305e-08 1 71.6718 175.338)" fill="black"/>
<circle r="0.712683" transform="matrix(0.866025 0.5 -2.20305e-08 1 71.6718 178.011)" fill="black"/>
<circle r="0.712683" transform="matrix(0.866025 0.5 -2.20305e-08 1 71.6718 180.684)" fill="black"/>
<circle r="0.712683" transform="matrix(0.866025 0.5 -2.20305e-08 1 71.6718 183.358)" fill="black"/>
<circle r="0.712683" transform="matrix(0.866025 0.5 -2.20305e-08 1 71.6718 186.032)" fill="black"/>
<circle r="0.712683" transform="matrix(0.866025 0.5 -2.20305e-08 1 71.6718 188.705)" fill="black"/>
<circle r="0.712683" transform="matrix(0.866025 0.5 -2.20305e-08 1 71.6718 191.378)" fill="black"/>
<circle r="0.712683" transform="matrix(0.866025 0.5 -2.20305e-08 1 71.6718 194.052)" fill="black"/>
<circle r="0.712683" transform="matrix(0.866025 0.5 -2.20305e-08 1 71.6718 196.726)" fill="black"/>
<circle r="0.712683" transform="matrix(0.866025 0.5 -2.20305e-08 1 71.6718 199.399)" fill="black"/>
</g>
<mask id="mask2" mask-type="alpha" maskUnits="userSpaceOnUse" x="49" y="151" width="34" height="21">
<rect width="14.2537" height="28.5073" rx="3.04596" transform="matrix(0.866025 -0.5 0.866025 0.5 47.4613 158.093)" fill="#FF9900"/>
</mask>
<g mask="url(#mask2)">
<rect width="14.2537" height="28.5073" transform="matrix(0.866025 -0.5 0.866025 0.5 47.4591 158.094)" fill="#FFD360"/>
<circle r="0.712683" transform="matrix(0.866025 -0.5 0.866025 0.5 48.6935 158.094)" fill="#FFD360"/>
<circle r="0.712683" transform="matrix(0.866025 -0.5 0.866025 0.5 51.0089 159.43)" fill="#FFD360"/>
<circle r="0.712683" transform="matrix(0.866025 -0.5 0.866025 0.5 53.3246 160.767)" fill="#FFD360"/>
<circle r="0.712683" transform="matrix(0.866025 -0.5 0.866025 0.5 55.6396 162.104)" fill="#FFD360"/>
<circle r="0.712683" transform="matrix(0.866025 -0.5 0.866025 0.5 57.9552 163.441)" fill="#FFD360"/>
<circle r="0.712683" transform="matrix(0.866025 -0.5 0.866025 0.5 60.2702 164.778)" fill="#FFD360"/>
<circle r="0.712683" transform="matrix(0.866025 -0.5 0.866025 0.5 62.5855 166.114)" fill="#FFD360"/>
<circle r="0.712683" transform="matrix(0.866025 -0.5 0.866025 0.5 64.9012 167.451)" fill="#FFD360"/>
<circle r="0.712683" transform="matrix(0.866025 -0.5 0.866025 0.5 67.2162 168.788)" fill="#FFD360"/>
<circle r="0.712683" transform="matrix(0.866025 -0.5 0.866025 0.5 69.5312 170.124)" fill="#FFD360"/>
<circle r="0.712683" transform="matrix(0.866025 -0.5 0.866025 0.5 71.8469 171.461)" fill="#FFD360"/>
<circle r="0.712683" transform="matrix(0.866025 -0.5 0.866025 0.5 50.9153 156.811)" fill="#FFD360"/>
<circle r="0.712683" transform="matrix(0.866025 -0.5 0.866025 0.5 53.2303 158.148)" fill="#FFD360"/>
<circle r="0.712683" transform="matrix(0.866025 -0.5 0.866025 0.5 55.546 159.485)" fill="#FFD360"/>
<circle r="0.712683" transform="matrix(0.866025 -0.5 0.866025 0.5 57.861 160.821)" fill="#FFD360"/>
<circle r="0.712683" transform="matrix(0.866025 -0.5 0.866025 0.5 60.1763 162.158)" fill="#FFD360"/>
<circle r="0.712683" transform="matrix(0.866025 -0.5 0.866025 0.5 62.492 163.495)" fill="#FFD360"/>
<circle r="0.712683" transform="matrix(0.866025 -0.5 0.866025 0.5 64.807 164.832)" fill="#FFD360"/>
<circle r="0.712683" transform="matrix(0.866025 -0.5 0.866025 0.5 67.1223 166.168)" fill="#FFD360"/>
<circle r="0.712683" transform="matrix(0.866025 -0.5 0.866025 0.5 69.4377 167.505)" fill="#FFD360"/>
<circle r="0.712683" transform="matrix(0.866025 -0.5 0.866025 0.5 71.753 168.842)" fill="#FFD360"/>
<circle r="0.712683" transform="matrix(0.866025 -0.5 0.866025 0.5 74.0687 170.179)" fill="#FFD360"/>
<circle r="0.712683" transform="matrix(0.866025 -0.5 0.866025 0.5 53.1368 155.529)" fill="#FFD360"/>
<circle r="0.712683" transform="matrix(0.866025 -0.5 0.866025 0.5 55.4521 156.865)" fill="#FFD360"/>
<circle r="0.712683" transform="matrix(0.866025 -0.5 0.866025 0.5 57.7671 158.202)" fill="#FFD360"/>
<circle r="0.712683" transform="matrix(0.866025 -0.5 0.866025 0.5 60.0828 159.539)" fill="#FFD360"/>
<circle r="0.712683" transform="matrix(0.866025 -0.5 0.866025 0.5 62.3977 160.876)" fill="#FFD360"/>
<circle r="0.712683" transform="matrix(0.866025 -0.5 0.866025 0.5 64.7131 162.212)" fill="#FFD360"/>
<circle r="0.712683" transform="matrix(0.866025 -0.5 0.866025 0.5 67.0284 163.549)" fill="#FFD360"/>
<circle r="0.712683" transform="matrix(0.866025 -0.5 0.866025 0.5 69.3438 164.886)" fill="#FFD360"/>
<circle r="0.712683" transform="matrix(0.866025 -0.5 0.866025 0.5 71.6595 166.223)" fill="#FFD360"/>
<circle r="0.712683" transform="matrix(0.866025 -0.5 0.866025 0.5 73.9744 167.559)" fill="#FFD360"/>
<circle r="0.712683" transform="matrix(0.866025 -0.5 0.866025 0.5 76.2898 168.896)" fill="#FFD360"/>
<circle r="0.712683" transform="matrix(0.866025 -0.5 0.866025 0.5 55.3579 154.246)" fill="#FFD360"/>
<circle r="0.712683" transform="matrix(0.866025 -0.5 0.866025 0.5 57.6736 155.583)" fill="#FFD360"/>
<circle r="0.712683" transform="matrix(0.866025 -0.5 0.866025 0.5 59.9885 156.92)" fill="#FFD360"/>
<circle r="0.712683" transform="matrix(0.866025 -0.5 0.866025 0.5 62.3039 158.256)" fill="#FFD360"/>
<circle r="0.712683" transform="matrix(0.866025 -0.5 0.866025 0.5 64.6195 159.593)" fill="#FFD360"/>
<circle r="0.712683" transform="matrix(0.866025 -0.5 0.866025 0.5 66.9345 160.93)" fill="#FFD360"/>
<circle r="0.712683" transform="matrix(0.866025 -0.5 0.866025 0.5 69.2502 162.266)" fill="#FFD360"/>
<circle r="0.712683" transform="matrix(0.866025 -0.5 0.866025 0.5 71.5652 163.603)" fill="#FFD360"/>
<circle r="0.712683" transform="matrix(0.866025 -0.5 0.866025 0.5 73.8805 164.94)" fill="#FFD360"/>
<circle r="0.712683" transform="matrix(0.866025 -0.5 0.866025 0.5 76.1958 166.277)" fill="#FFD360"/>
<circle r="0.712683" transform="matrix(0.866025 -0.5 0.866025 0.5 78.5112 167.614)" fill="#FFD360"/>
<circle r="0.712683" transform="matrix(0.866025 -0.5 0.866025 0.5 57.5793 152.964)" fill="#FFD360"/>
<circle r="0.712683" transform="matrix(0.866025 -0.5 0.866025 0.5 59.895 154.3)" fill="#FFD360"/>
<circle r="0.712683" transform="matrix(0.866025 -0.5 0.866025 0.5 62.2104 155.637)" fill="#FFD360"/>
<circle r="0.712683" transform="matrix(0.866025 -0.5 0.866025 0.5 64.5253 156.974)" fill="#FFD360"/>
<circle r="0.712683" transform="matrix(0.866025 -0.5 0.866025 0.5 66.841 158.311)" fill="#FFD360"/>
<circle r="0.712683" transform="matrix(0.866025 -0.5 0.866025 0.5 69.156 159.647)" fill="#FFD360"/>
<circle r="0.712683" transform="matrix(0.866025 -0.5 0.866025 0.5 71.4713 160.984)" fill="#FFD360"/>
<circle r="0.712683" transform="matrix(0.866025 -0.5 0.866025 0.5 73.787 162.321)" fill="#FFD360"/>
<circle r="0.712683" transform="matrix(0.866025 -0.5 0.866025 0.5 76.102 163.657)" fill="#FFD360"/>
<circle r="0.712683" transform="matrix(0.866025 -0.5 0.866025 0.5 78.4177 164.994)" fill="#FFD360"/>
<circle r="0.712683" transform="matrix(0.866025 -0.5 0.866025 0.5 80.7326 166.331)" fill="#FFD360"/>
<circle r="0.712683" transform="matrix(0.866025 -0.5 0.866025 0.5 59.8011 151.681)" fill="#FFD360"/>
<circle r="0.712683" transform="matrix(0.866025 -0.5 0.866025 0.5 62.1161 153.018)" fill="#FFD360"/>
<circle r="0.712683" transform="matrix(0.866025 -0.5 0.866025 0.5 64.4318 154.354)" fill="#FFD360"/>
<circle r="0.712683" transform="matrix(0.866025 -0.5 0.866025 0.5 66.7467 155.691)" fill="#FFD360"/>
<circle r="0.712683" transform="matrix(0.866025 -0.5 0.866025 0.5 69.0621 157.028)" fill="#FFD360"/>
<circle r="0.712683" transform="matrix(0.866025 -0.5 0.866025 0.5 71.3778 158.365)" fill="#FFD360"/>
<circle r="0.712683" transform="matrix(0.866025 -0.5 0.866025 0.5 73.6927 159.701)" fill="#FFD360"/>
<circle r="0.712683" transform="matrix(0.866025 -0.5 0.866025 0.5 76.0085 161.038)" fill="#FFD360"/>
<circle r="0.712683" transform="matrix(0.866025 -0.5 0.866025 0.5 78.3234 162.375)" fill="#FFD360"/>
<circle r="0.712683" transform="matrix(0.866025 -0.5 0.866025 0.5 80.6388 163.712)" fill="#FFD360"/>
<circle r="0.712683" transform="matrix(0.866025 -0.5 0.866025 0.5 82.9544 165.049)" fill="#FFD360"/>
</g>
<path d="M57.0549 195.409L50.5852 199.144C48.7677 200.194 46.5284 200.194 44.7108 199.144L38.2413 195.409C36.4238 194.36 35.3041 192.42 35.3041 190.322V182.851C35.3041 180.752 36.4238 178.813 38.2413 177.764L44.7107 174.029C46.5282 172.979 48.7675 172.979 50.5851 174.029L57.0549 177.764C58.8724 178.813 59.9921 180.752 59.9921 182.851V190.322C59.9921 192.42 58.8724 194.36 57.0549 195.409Z" fill="url(#paint4_linear)"/>
<path d="M57.0551 181.155L50.5854 184.891C48.7679 185.94 46.5286 185.94 44.711 184.891L38.2415 181.155C36.424 180.106 35.3043 178.167 35.3043 176.068V168.598C35.3043 166.499 36.4239 164.56 38.2414 163.51L44.7109 159.775C46.5284 158.726 48.7677 158.726 50.5853 159.775L57.055 163.51C58.8726 164.56 59.9922 166.499 59.9922 168.598V176.068C59.9922 178.167 58.8726 180.106 57.0551 181.155Z" fill="url(#paint5_linear)"/>
<rect width="14.2537" height="28.5073" rx="3.04596" transform="matrix(-0.866025 0.5 2.20305e-08 1 59.9921 165.206)" fill="#FF9900"/>
<rect width="14.2537" height="14.2537" rx="3.04596" transform="matrix(-0.866025 0.5 0.866025 0.5 47.6473 158.079)" fill="#FFDB59"/>
<rect width="14.2537" height="28.5073" rx="3.04596" transform="matrix(-0.866025 -0.5 -2.20305e-08 1 47.6481 172.333)" fill="#1955B3"/>
<path d="M69.4 202.536L62.9304 206.271C61.1128 207.321 58.8735 207.321 57.056 206.271L50.5864 202.536C48.7689 201.487 47.6493 199.547 47.6493 197.449V189.978C47.6493 187.879 48.7689 185.94 50.5864 184.891L57.0559 181.155C58.8734 180.106 61.1127 180.106 62.9302 181.155L69.4 184.891C71.2176 185.94 72.3372 187.879 72.3372 189.978V197.449C72.3372 199.547 71.2176 201.487 69.4 202.536Z" fill="url(#paint6_linear)"/>
<path d="M69.4002 188.282L62.9306 192.018C61.113 193.067 58.8737 193.067 57.0562 192.018L50.5866 188.282C48.7691 187.233 47.6495 185.294 47.6495 183.195V175.724C47.6495 173.626 48.7691 171.686 50.5866 170.637L57.0561 166.902C58.8736 165.852 61.1129 165.852 62.9304 166.902L69.4002 170.637C71.2177 171.686 72.3374 173.626 72.3374 175.724V183.195C72.3374 185.294 71.2178 187.233 69.4002 188.282Z" fill="url(#paint7_linear)"/>
<rect width="14.2537" height="28.5073" rx="3.04596" transform="matrix(-0.866025 -0.5 -2.20305e-08 1 59.9932 179.46)" fill="#353535"/>
<mask id="mask3" mask-type="alpha" maskUnits="userSpaceOnUse" x="47" y="173" width="13" height="34">
<rect width="14.2537" height="28.5073" rx="3.04596" transform="matrix(0.866025 0.5 -2.20305e-08 1 47.649 172.333)" fill="#FF9900"/>
</mask>
<g mask="url(#mask3)">
<rect width="14.2537" height="28.5073" transform="matrix(0.866025 0.5 -2.20305e-08 1 47.6465 172.333)" fill="#C4C4C4"/>
<circle r="0.712683" transform="matrix(0.866025 0.5 -2.20305e-08 1 48.2637 173.402)" fill="black"/>
<circle r="0.712683" transform="matrix(0.866025 0.5 -2.20305e-08 1 48.2644 176.075)" fill="black"/>
<circle r="0.712683" transform="matrix(0.866025 0.5 -2.20305e-08 1 48.2644 178.749)" fill="black"/>
<circle r="0.712683" transform="matrix(0.866025 0.5 -2.20305e-08 1 48.2644 181.422)" fill="black"/>
<circle r="0.712683" transform="matrix(0.866025 0.5 -2.20305e-08 1 48.2644 184.096)" fill="black"/>
<circle r="0.712683" transform="matrix(0.866025 0.5 -2.20305e-08 1 48.2644 186.769)" fill="black"/>
<circle r="0.712683" transform="matrix(0.866025 0.5 -2.20305e-08 1 48.2644 189.443)" fill="black"/>
<circle r="0.712683" transform="matrix(0.866025 0.5 -2.20305e-08 1 48.2644 192.116)" fill="black"/>
<circle r="0.712683" transform="matrix(0.866025 0.5 -2.20305e-08 1 48.2644 194.79)" fill="black"/>
<circle r="0.712683" transform="matrix(0.866025 0.5 -2.20305e-08 1 48.2644 197.463)" fill="black"/>
<circle r="0.712683" transform="matrix(0.866025 0.5 -2.20305e-08 1 48.2644 200.137)" fill="black"/>
<circle r="0.712683" transform="matrix(0.866025 0.5 -2.20305e-08 1 50.4858 174.684)" fill="black"/>
<circle r="0.712683" transform="matrix(0.866025 0.5 -2.20305e-08 1 50.4858 177.358)" fill="black"/>
<circle r="0.712683" transform="matrix(0.866025 0.5 -2.20305e-08 1 50.4858 180.031)" fill="black"/>
<circle r="0.712683" transform="matrix(0.866025 0.5 -2.20305e-08 1 50.4858 182.705)" fill="black"/>
<circle r="0.712683" transform="matrix(0.866025 0.5 -2.20305e-08 1 50.4858 185.378)" fill="black"/>
<circle r="0.712683" transform="matrix(0.866025 0.5 -2.20305e-08 1 50.4858 188.052)" fill="black"/>
<circle r="0.712683" transform="matrix(0.866025 0.5 -2.20305e-08 1 50.4858 190.725)" fill="black"/>
<circle r="0.712683" transform="matrix(0.866025 0.5 -2.20305e-08 1 50.4858 193.399)" fill="black"/>
<circle r="0.712683" transform="matrix(0.866025 0.5 -2.20305e-08 1 50.4858 196.072)" fill="black"/>
<circle r="0.712683" transform="matrix(0.866025 0.5 -2.20305e-08 1 50.4858 198.746)" fill="black"/>
<circle r="0.712683" transform="matrix(0.866025 0.5 -2.20305e-08 1 50.4858 201.419)" fill="black"/>
<circle r="0.712683" transform="matrix(0.866025 0.5 -2.20305e-08 1 52.7076 175.967)" fill="black"/>
<circle r="0.712683" transform="matrix(0.866025 0.5 -2.20305e-08 1 52.7076 178.64)" fill="black"/>
<circle r="0.712683" transform="matrix(0.866025 0.5 -2.20305e-08 1 52.7076 181.314)" fill="black"/>
<circle r="0.712683" transform="matrix(0.866025 0.5 -2.20305e-08 1 52.7076 183.987)" fill="black"/>
<circle r="0.712683" transform="matrix(0.866025 0.5 -2.20305e-08 1 52.7076 186.661)" fill="black"/>
<circle r="0.712683" transform="matrix(0.866025 0.5 -2.20305e-08 1 52.7076 189.334)" fill="black"/>
<circle r="0.712683" transform="matrix(0.866025 0.5 -2.20305e-08 1 52.7076 192.008)" fill="black"/>
<circle r="0.712683" transform="matrix(0.866025 0.5 -2.20305e-08 1 52.7076 194.681)" fill="black"/>
<circle r="0.712683" transform="matrix(0.866025 0.5 -2.20305e-08 1 52.7076 197.355)" fill="black"/>
<circle r="0.712683" transform="matrix(0.866025 0.5 -2.20305e-08 1 52.7076 200.028)" fill="black"/>
<circle r="0.712683" transform="matrix(0.866025 0.5 -2.20305e-08 1 54.9287 177.25)" fill="black"/>
<circle r="0.712683" transform="matrix(0.866025 0.5 -2.20305e-08 1 54.9287 179.923)" fill="black"/>
<circle r="0.712683" transform="matrix(0.866025 0.5 -2.20305e-08 1 54.9287 182.596)" fill="black"/>
<circle r="0.712683" transform="matrix(0.866025 0.5 -2.20305e-08 1 54.9287 185.27)" fill="black"/>
<circle r="0.712683" transform="matrix(0.866025 0.5 -2.20305e-08 1 54.9287 187.943)" fill="black"/>
<circle r="0.712683" transform="matrix(0.866025 0.5 -2.20305e-08 1 54.9287 190.617)" fill="black"/>
<circle r="0.712683" transform="matrix(0.866025 0.5 -2.20305e-08 1 54.9287 193.29)" fill="black"/>
<circle r="0.712683" transform="matrix(0.866025 0.5 -2.20305e-08 1 54.9287 195.964)" fill="black"/>
<circle r="0.712683" transform="matrix(0.866025 0.5 -2.20305e-08 1 54.9287 198.637)" fill="black"/>
<circle r="0.712683" transform="matrix(0.866025 0.5 -2.20305e-08 1 54.9287 201.311)" fill="black"/>
<circle r="0.712683" transform="matrix(0.866025 0.5 -2.20305e-08 1 57.1501 178.532)" fill="black"/>
<circle r="0.712683" transform="matrix(0.866025 0.5 -2.20305e-08 1 57.1501 181.206)" fill="black"/>
<circle r="0.712683" transform="matrix(0.866025 0.5 -2.20305e-08 1 57.1501 183.879)" fill="black"/>
<circle r="0.712683" transform="matrix(0.866025 0.5 -2.20305e-08 1 57.1501 186.552)" fill="black"/>
<circle r="0.712683" transform="matrix(0.866025 0.5 -2.20305e-08 1 57.1501 189.226)" fill="black"/>
<circle r="0.712683" transform="matrix(0.866025 0.5 -2.20305e-08 1 57.1501 191.899)" fill="black"/>
<circle r="0.712683" transform="matrix(0.866025 0.5 -2.20305e-08 1 57.1501 194.573)" fill="black"/>
<circle r="0.712683" transform="matrix(0.866025 0.5 -2.20305e-08 1 57.1501 197.246)" fill="black"/>
<circle r="0.712683" transform="matrix(0.866025 0.5 -2.20305e-08 1 57.1501 199.92)" fill="black"/>
<circle r="0.712683" transform="matrix(0.866025 0.5 -2.20305e-08 1 59.3715 179.814)" fill="black"/>
<circle r="0.712683" transform="matrix(0.866025 0.5 -2.20305e-08 1 59.3715 182.488)" fill="black"/>
<circle r="0.712683" transform="matrix(0.866025 0.5 -2.20305e-08 1 59.3715 185.162)" fill="black"/>
<circle r="0.712683" transform="matrix(0.866025 0.5 -2.20305e-08 1 59.3715 187.835)" fill="black"/>
<circle r="0.712683" transform="matrix(0.866025 0.5 -2.20305e-08 1 59.3715 190.509)" fill="black"/>
<circle r="0.712683" transform="matrix(0.866025 0.5 -2.20305e-08 1 59.3715 193.182)" fill="black"/>
<circle r="0.712683" transform="matrix(0.866025 0.5 -2.20305e-08 1 59.3715 195.856)" fill="black"/>
<circle r="0.712683" transform="matrix(0.866025 0.5 -2.20305e-08 1 59.3715 198.529)" fill="black"/>
<circle r="0.712683" transform="matrix(0.866025 0.5 -2.20305e-08 1 59.3715 201.203)" fill="black"/>
</g>
<mask id="mask4" mask-type="alpha" maskUnits="userSpaceOnUse" x="36" y="158" width="35" height="21">
<rect width="14.2537" height="28.5073" rx="3.04596" transform="matrix(0.866025 -0.5 0.866025 0.5 35.1608 165.054)" fill="#FF9900"/>
</mask>
<g mask="url(#mask4)">
<rect width="14.2537" height="28.5073" transform="matrix(0.866025 -0.5 0.866025 0.5 35.1586 165.056)" fill="#C4C4C4"/>
<circle r="0.712683" transform="matrix(0.866025 -0.5 0.866025 0.5 36.393 165.056)" fill="#C4C4C4"/>
<circle r="0.712683" transform="matrix(0.866025 -0.5 0.866025 0.5 38.7086 166.392)" fill="#C4C4C4"/>
<circle r="0.712683" transform="matrix(0.866025 -0.5 0.866025 0.5 41.0243 167.729)" fill="#C4C4C4"/>
<circle r="0.712683" transform="matrix(0.866025 -0.5 0.866025 0.5 43.3393 169.066)" fill="#C4C4C4"/>
<circle r="0.712683" transform="matrix(0.866025 -0.5 0.866025 0.5 45.655 170.403)" fill="#C4C4C4"/>
<circle r="0.712683" transform="matrix(0.866025 -0.5 0.866025 0.5 47.9699 171.74)" fill="#C4C4C4"/>
<circle r="0.712683" transform="matrix(0.866025 -0.5 0.866025 0.5 50.2852 173.076)" fill="#C4C4C4"/>
<circle r="0.712683" transform="matrix(0.866025 -0.5 0.866025 0.5 52.601 174.413)" fill="#C4C4C4"/>
<circle r="0.712683" transform="matrix(0.866025 -0.5 0.866025 0.5 54.9159 175.75)" fill="#C4C4C4"/>
<circle r="0.712683" transform="matrix(0.866025 -0.5 0.866025 0.5 57.2309 177.086)" fill="#C4C4C4"/>
<circle r="0.712683" transform="matrix(0.866025 -0.5 0.866025 0.5 59.5466 178.423)" fill="#C4C4C4"/>
<circle r="0.712683" transform="matrix(0.866025 -0.5 0.866025 0.5 38.6151 163.773)" fill="#C4C4C4"/>
<circle r="0.712683" transform="matrix(0.866025 -0.5 0.866025 0.5 40.93 165.11)" fill="#C4C4C4"/>
<circle r="0.712683" transform="matrix(0.866025 -0.5 0.866025 0.5 43.2458 166.447)" fill="#C4C4C4"/>
<circle r="0.712683" transform="matrix(0.866025 -0.5 0.866025 0.5 45.5607 167.783)" fill="#C4C4C4"/>
<circle r="0.712683" transform="matrix(0.866025 -0.5 0.866025 0.5 47.8761 169.12)" fill="#C4C4C4"/>
<circle r="0.712683" transform="matrix(0.866025 -0.5 0.866025 0.5 50.1917 170.457)" fill="#C4C4C4"/>
<circle r="0.712683" transform="matrix(0.866025 -0.5 0.866025 0.5 52.5067 171.794)" fill="#C4C4C4"/>
<circle r="0.712683" transform="matrix(0.866025 -0.5 0.866025 0.5 54.822 173.13)" fill="#C4C4C4"/>
<circle r="0.712683" transform="matrix(0.866025 -0.5 0.866025 0.5 57.1374 174.467)" fill="#C4C4C4"/>
<circle r="0.712683" transform="matrix(0.866025 -0.5 0.866025 0.5 59.4527 175.804)" fill="#C4C4C4"/>
<circle r="0.712683" transform="matrix(0.866025 -0.5 0.866025 0.5 61.7684 177.141)" fill="#C4C4C4"/>
<circle r="0.712683" transform="matrix(0.866025 -0.5 0.866025 0.5 40.8365 162.491)" fill="#C4C4C4"/>
<circle r="0.712683" transform="matrix(0.866025 -0.5 0.866025 0.5 43.1518 163.827)" fill="#C4C4C4"/>
<circle r="0.712683" transform="matrix(0.866025 -0.5 0.866025 0.5 45.4668 165.164)" fill="#C4C4C4"/>
<circle r="0.712683" transform="matrix(0.866025 -0.5 0.866025 0.5 47.7825 166.501)" fill="#C4C4C4"/>
<circle r="0.712683" transform="matrix(0.866025 -0.5 0.866025 0.5 50.0975 167.838)" fill="#C4C4C4"/>
<circle r="0.712683" transform="matrix(0.866025 -0.5 0.866025 0.5 52.4128 169.174)" fill="#C4C4C4"/>
<circle r="0.712683" transform="matrix(0.866025 -0.5 0.866025 0.5 54.7282 170.511)" fill="#C4C4C4"/>
<circle r="0.712683" transform="matrix(0.866025 -0.5 0.866025 0.5 57.0435 171.848)" fill="#C4C4C4"/>
<circle r="0.712683" transform="matrix(0.866025 -0.5 0.866025 0.5 59.3592 173.185)" fill="#C4C4C4"/>
<circle r="0.712683" transform="matrix(0.866025 -0.5 0.866025 0.5 61.6742 174.521)" fill="#C4C4C4"/>
<circle r="0.712683" transform="matrix(0.866025 -0.5 0.866025 0.5 63.9895 175.858)" fill="#C4C4C4"/>
<circle r="0.712683" transform="matrix(0.866025 -0.5 0.866025 0.5 43.0576 161.208)" fill="#C4C4C4"/>
<circle r="0.712683" transform="matrix(0.866025 -0.5 0.866025 0.5 45.3733 162.545)" fill="#C4C4C4"/>
<circle r="0.712683" transform="matrix(0.866025 -0.5 0.866025 0.5 47.6883 163.882)" fill="#C4C4C4"/>
<circle r="0.712683" transform="matrix(0.866025 -0.5 0.866025 0.5 50.0036 165.218)" fill="#C4C4C4"/>
<circle r="0.712683" transform="matrix(0.866025 -0.5 0.866025 0.5 52.3193 166.555)" fill="#C4C4C4"/>
<circle r="0.712683" transform="matrix(0.866025 -0.5 0.866025 0.5 54.6342 167.892)" fill="#C4C4C4"/>
<circle r="0.712683" transform="matrix(0.866025 -0.5 0.866025 0.5 56.9499 169.229)" fill="#C4C4C4"/>
<circle r="0.712683" transform="matrix(0.866025 -0.5 0.866025 0.5 59.2649 170.565)" fill="#C4C4C4"/>
<circle r="0.712683" transform="matrix(0.866025 -0.5 0.866025 0.5 61.5803 171.902)" fill="#C4C4C4"/>
<circle r="0.712683" transform="matrix(0.866025 -0.5 0.866025 0.5 63.8956 173.239)" fill="#C4C4C4"/>
<circle r="0.712683" transform="matrix(0.866025 -0.5 0.866025 0.5 66.2109 174.576)" fill="#C4C4C4"/>
<circle r="0.712683" transform="matrix(0.866025 -0.5 0.866025 0.5 45.279 159.926)" fill="#C4C4C4"/>
<circle r="0.712683" transform="matrix(0.866025 -0.5 0.866025 0.5 47.5948 161.262)" fill="#C4C4C4"/>
<circle r="0.712683" transform="matrix(0.866025 -0.5 0.866025 0.5 49.9101 162.599)" fill="#C4C4C4"/>
<circle r="0.712683" transform="matrix(0.866025 -0.5 0.866025 0.5 52.225 163.936)" fill="#C4C4C4"/>
<circle r="0.712683" transform="matrix(0.866025 -0.5 0.866025 0.5 54.5407 165.273)" fill="#C4C4C4"/>
<circle r="0.712683" transform="matrix(0.866025 -0.5 0.866025 0.5 56.8557 166.609)" fill="#C4C4C4"/>
<circle r="0.712683" transform="matrix(0.866025 -0.5 0.866025 0.5 59.171 167.946)" fill="#C4C4C4"/>
<circle r="0.712683" transform="matrix(0.866025 -0.5 0.866025 0.5 61.4867 169.283)" fill="#C4C4C4"/>
<circle r="0.712683" transform="matrix(0.866025 -0.5 0.866025 0.5 63.8017 170.619)" fill="#C4C4C4"/>
<circle r="0.712683" transform="matrix(0.866025 -0.5 0.866025 0.5 66.1174 171.956)" fill="#C4C4C4"/>
<circle r="0.712683" transform="matrix(0.866025 -0.5 0.866025 0.5 68.4323 173.293)" fill="#C4C4C4"/>
<circle r="0.712683" transform="matrix(0.866025 -0.5 0.866025 0.5 47.5008 158.643)" fill="#C4C4C4"/>
<circle r="0.712683" transform="matrix(0.866025 -0.5 0.866025 0.5 49.8158 159.98)" fill="#C4C4C4"/>
<circle r="0.712683" transform="matrix(0.866025 -0.5 0.866025 0.5 52.1315 161.317)" fill="#C4C4C4"/>
<circle r="0.712683" transform="matrix(0.866025 -0.5 0.866025 0.5 54.4465 162.653)" fill="#C4C4C4"/>
<circle r="0.712683" transform="matrix(0.866025 -0.5 0.866025 0.5 56.7618 163.99)" fill="#C4C4C4"/>
<circle r="0.712683" transform="matrix(0.866025 -0.5 0.866025 0.5 59.0775 165.327)" fill="#C4C4C4"/>
<circle r="0.712683" transform="matrix(0.866025 -0.5 0.866025 0.5 61.3925 166.664)" fill="#C4C4C4"/>
<circle r="0.712683" transform="matrix(0.866025 -0.5 0.866025 0.5 63.7082 168)" fill="#C4C4C4"/>
<circle r="0.712683" transform="matrix(0.866025 -0.5 0.866025 0.5 66.0232 169.337)" fill="#C4C4C4"/>
<circle r="0.712683" transform="matrix(0.866025 -0.5 0.866025 0.5 68.3385 170.674)" fill="#C4C4C4"/>
<circle r="0.712683" transform="matrix(0.866025 -0.5 0.866025 0.5 70.6541 172.011)" fill="#C4C4C4"/>
</g>
<path d="M73.7508 188.859L80.2205 192.594C82.038 193.643 84.2773 193.643 86.0949 192.594L92.5644 188.859C94.382 187.809 95.5016 185.87 95.5016 183.771V176.301C95.5016 174.202 94.382 172.263 92.5645 171.214L86.095 167.478C84.2775 166.429 82.0382 166.429 80.2206 167.478L73.7509 171.214C71.9333 172.263 70.8137 174.202 70.8137 176.301V183.771C70.8137 185.87 71.9333 187.809 73.7508 188.859Z" fill="url(#paint8_linear)"/>
<rect width="14.2537" height="14.2537" rx="3.04596" transform="matrix(0.866025 0.5 -2.20305e-08 1 70.8137 172.909)" fill="#FF9900" fill-opacity="0.44"/>
<rect width="14.2537" height="14.2537" rx="3.04596" transform="matrix(0.866025 0.5 -0.866025 0.5 83.1577 165.783)" fill="#FFDB59" fill-opacity="0.86"/>
<rect width="14.2537" height="14.2537" rx="3.04596" transform="matrix(0.866025 -0.5 2.20305e-08 1 83.1577 180.036)" fill="#C77961"/>
<path d="M106.318 36.1806L99.8479 39.9158C98.0304 40.9652 95.7911 40.9652 93.9735 39.9158L87.504 36.1806C85.6865 35.1312 84.5668 33.192 84.5668 31.0933V23.6227C84.5668 21.524 85.6865 19.5847 87.504 18.5354L93.9734 14.8001C95.7909 13.7508 98.0302 13.7507 99.8478 14.8001L106.318 18.5354C108.135 19.5847 109.255 21.524 109.255 23.6227V31.0932C109.255 33.1919 108.135 35.1312 106.318 36.1806Z" fill="url(#paint9_linear)"/>
<rect width="14.2537" height="14.2537" rx="3.04596" transform="matrix(-0.866025 0.5 2.20305e-08 1 109.255 20.2311)" fill="#E57D34"/>
<rect width="14.2537" height="14.2537" rx="3.04596" transform="matrix(-0.866025 0.5 0.866025 0.5 96.9108 13.1043)" fill="#FFBD59"/>
<rect width="14.2537" height="14.2537" rx="3.04596" transform="matrix(-0.866025 -0.5 -2.20305e-08 1 96.9108 27.3579)" fill="#FF9900"/>
<path d="M24.146 124.211L30.6156 127.946C32.4332 128.996 34.6725 128.996 36.49 127.946L42.9596 124.211C44.7771 123.162 45.8967 121.223 45.8967 119.124V111.653C45.8967 109.555 44.7771 107.615 42.9596 106.566L36.4901 102.831C34.6726 101.781 32.4333 101.781 30.6158 102.831L24.146 106.566C22.3285 107.615 21.2088 109.555 21.2088 111.653V119.124C21.2088 121.222 22.3284 123.162 24.146 124.211Z" fill="url(#paint10_linear)"/>
<rect width="14.2537" height="14.2537" rx="3.04596" transform="matrix(0.866025 0.5 -2.20305e-08 1 21.2089 108.262)" fill="#E57D34"/>
<rect width="14.2537" height="14.2537" rx="3.04596" transform="matrix(0.866025 0.5 -0.866025 0.5 33.5529 101.135)" fill="#FFDB59"/>
<rect width="14.2537" height="14.2537" rx="3.04596" transform="matrix(0.866025 -0.5 2.20305e-08 1 33.5529 115.388)" fill="#FF9900"/>
<path d="M-1.5756 40.1216L-8.04527 43.8568C-9.86281 44.9062 -12.1021 44.9062 -13.9196 43.8568L-20.3892 40.1216C-22.2067 39.0722 -23.3264 37.1329 -23.3264 35.0342V27.5636C-23.3264 25.465 -22.2067 23.5257 -20.3892 22.4763L-13.9198 18.7411C-12.1022 17.6917 -9.86294 17.6917 -8.0454 18.7411L-1.57563 22.4763C0.241916 23.5257 1.36157 25.465 1.36157 27.5637V35.0342C1.36157 37.1329 0.241927 39.0722 -1.5756 40.1216Z" fill="url(#paint11_linear)"/>
<rect width="14.2537" height="14.2537" rx="3.04596" transform="matrix(-0.866025 0.5 2.20305e-08 1 1.36151 24.1714)" fill="#FF9900" fill-opacity="0.45"/>
<rect width="14.2537" height="14.2537" rx="3.04596" transform="matrix(-0.866025 0.5 0.866025 0.5 -10.9825 17.0446)" fill="#FFDB59" fill-opacity="0.54"/>
<path d="M75.1318 204.087L81.6015 207.822C83.419 208.872 85.6583 208.872 87.4759 207.822L93.9454 204.087C95.7629 203.038 96.8826 201.099 96.8826 199V191.529C96.8826 189.431 95.7629 187.491 93.9454 186.442L87.476 182.707C85.6585 181.657 83.4192 181.657 81.6016 182.707L75.1318 186.442C73.3143 187.491 72.1946 189.431 72.1946 191.529V199C72.1946 201.099 73.3143 203.038 75.1318 204.087Z" fill="url(#paint12_linear)"/>
<rect width="14.2537" height="14.2537" rx="3.04596" transform="matrix(0.866025 0.5 -2.20305e-08 1 72.1946 188.138)" fill="#FF9900" fill-opacity="0.45"/>
<rect width="14.2537" height="14.2537" rx="3.04596" transform="matrix(0.866025 0.5 -0.866025 0.5 84.5386 181.011)" fill="#FFDB59" fill-opacity="0.54"/>
<rect width="14.2537" height="14.2537" rx="3.04596" transform="matrix(0.866025 -0.5 2.20305e-08 1 84.5386 195.265)" fill="#FFDB59" fill-opacity="0.75"/>
<path d="M57.5504 36.5577L51.0807 40.2929C49.2632 41.3423 47.0239 41.3423 45.2063 40.2929L38.7368 36.5577C36.9193 35.5083 35.7996 33.569 35.7996 31.4703V23.9997C35.7996 21.9011 36.9192 19.9618 38.7367 18.9124L45.2062 15.1772C47.0237 14.1278 49.263 14.1278 51.0806 15.1772L57.5503 18.9124C59.3679 19.9618 60.4875 21.9011 60.4875 23.9998V31.4703C60.4875 33.569 59.3679 35.5083 57.5504 36.5577Z" fill="url(#paint13_linear)"/>
<rect width="14.2537" height="14.2537" rx="3.04596" transform="matrix(-0.866025 0.5 2.20305e-08 1 60.4875 20.608)" fill="#AAA297"/>
<rect width="14.2537" height="14.2537" rx="3.04596" transform="matrix(-0.866025 0.5 0.866025 0.5 48.1435 13.4812)" fill="#FFDB59"/>
<rect width="14.2537" height="14.2537" rx="3.04596" transform="matrix(-0.866025 -0.5 -2.20305e-08 1 48.1435 27.7348)" fill="#BFBFBF"/>
<path d="M93.9733 14.5581L87.5036 18.2933C85.6861 19.3427 83.4468 19.3427 81.6292 18.2933L75.1597 14.5581C73.3422 13.5087 72.2225 11.5695 72.2225 9.47076V2.00016C72.2225 -0.0985203 73.3422 -2.03779 75.1597 -3.08715L81.6291 -6.82237C83.4466 -7.87175 85.6859 -7.87176 87.5035 -6.82241L93.9733 -3.08713C95.7908 -2.03778 96.9105 -0.0984945 96.9105 2.00022V9.47075C96.9105 11.5694 95.7908 13.5087 93.9733 14.5581Z" fill="url(#paint14_linear)"/>
<rect width="14.2537" height="14.2537" rx="3.04596" transform="matrix(-0.866025 0.5 2.20305e-08 1 96.9106 -1.39148)" fill="#1955B3"/>
<rect width="14.2537" height="14.2537" rx="3.04596" transform="matrix(-0.866025 0.5 0.866025 0.5 84.5666 -8.51828)" fill="#FFDB59"/>
<rect width="14.2537" height="14.2537" rx="3.04596" transform="matrix(-0.866025 -0.5 -2.20305e-08 1 84.5666 5.73532)" fill="#20348A"/>
<mask id="mask5" mask-type="alpha" maskUnits="userSpaceOnUse" x="37" y="14" width="23" height="13">
<rect width="14.3089" height="14.3089" rx="3.04596" transform="matrix(-0.867136 0.498071 0.867136 0.498071 48.2065 13.4813)" fill="#FFDB59"/>
</mask>
<g mask="url(#mask5)">
<rect width="14.3089" height="14.3089" transform="matrix(0.867136 0.498071 -0.867136 0.498071 48.205 13.4817)" fill="#FFAC30"/>
<rect width="0.918216" height="14.3089" transform="matrix(0.867136 0.498071 -0.867136 0.498071 56.5003 18.2452)" fill="black"/>
<rect width="0.918216" height="14.3089" transform="matrix(0.867136 0.498071 -0.867136 0.498071 58.1591 19.198)" fill="black"/>
<rect width="0.918216" height="14.3089" transform="matrix(0.867136 0.498071 -0.867136 0.498071 59.8171 20.1507)" fill="black"/>
<rect width="0.918216" height="14.3089" transform="matrix(0.867136 0.498071 -0.867136 0.498071 54.8414 17.2924)" fill="black"/>
<rect width="0.918216" height="14.3089" transform="matrix(0.867136 0.498071 -0.867136 0.498071 49.8651 14.434)" fill="black"/>
<rect width="0.918216" height="14.3089" transform="matrix(0.867136 0.498071 -0.867136 0.498071 51.5239 15.3869)" fill="black"/>
<rect width="0.918216" height="14.3089" transform="matrix(0.867136 0.498071 -0.867136 0.498071 53.1827 16.3397)" fill="black"/>
<rect width="0.918216" height="14.3089" transform="matrix(0.867136 0.498071 -0.867136 0.498071 48.205 13.4817)" fill="black"/>
</g>
<path d="M50.5864 188.319L57.0561 192.054C58.8736 193.104 61.1129 193.104 62.9304 192.054L69.4 188.319C71.2175 187.27 72.3372 185.331 72.3372 183.232V175.761C72.3372 173.663 71.2175 171.723 69.4 170.674L62.9306 166.939C61.1131 165.889 58.8737 165.889 57.0562 166.939L50.5864 170.674C48.7689 171.723 47.6492 173.663 47.6492 175.761V183.232C47.6492 185.33 48.7689 187.27 50.5864 188.319Z" fill="url(#paint15_linear)"/>
<rect width="14.2537" height="14.2537" rx="3.04596" transform="matrix(0.866025 0.5 -2.20305e-08 1 47.6492 172.37)" fill="#FF9900"/>
<rect width="14.2537" height="14.2537" rx="3.04596" transform="matrix(0.866025 0.5 -0.866025 0.5 59.9932 165.243)" fill="#FFAC30"/>
<rect width="14.2537" height="14.2537" rx="3.04596" transform="matrix(0.866025 -0.5 2.20305e-08 1 59.9932 179.496)" fill="url(#paint16_linear)"/>
<path d="M50.4718 15.1774L56.9414 18.9127C58.759 19.962 60.9983 19.962 62.8158 18.9127L69.2854 15.1774C71.1029 14.1281 72.2225 12.1888 72.2225 10.0901V2.61949C72.2225 0.520803 71.1029 -1.41846 69.2854 -2.46782L62.816 -6.20305C60.9984 -7.25242 58.7591 -7.25244 56.9416 -6.20309L50.4718 -2.46781C48.6543 -1.41846 47.5346 0.520829 47.5346 2.61954V10.0901C47.5346 12.1888 48.6543 14.1281 50.4718 15.1774Z" fill="url(#paint17_linear)"/>
<rect width="14.2537" height="14.2537" rx="3.04596" transform="matrix(0.866025 0.5 -2.20305e-08 1 47.5345 -0.77243)" fill="#6C6C6C"/>
<rect width="14.2537" height="14.2537" rx="3.04596" transform="matrix(0.866025 0.5 -0.866025 0.5 59.8785 -7.89923)" fill="#071C3B"/>
<rect width="14.2537" height="14.2537" rx="3.04596" transform="matrix(0.866025 -0.5 2.20305e-08 1 59.8785 6.35434)" fill="#9D9D9D"/>
<path d="M82.028 36.1806L75.5583 39.9158C73.7408 40.9652 71.5015 40.9652 69.6839 39.9158L63.2144 36.1806C61.3969 35.1312 60.2772 33.192 60.2772 31.0933V23.6227C60.2772 21.524 61.3968 19.5847 63.2143 18.5354L69.6838 14.8001C71.5013 13.7508 73.7406 13.7507 75.5582 14.8001L82.0279 18.5354C83.8455 19.5847 84.9651 21.524 84.9651 23.6227V31.0932C84.9651 33.1919 83.8455 35.1312 82.028 36.1806Z" fill="url(#paint18_linear)"/>
<rect width="14.4479" height="14.4478" rx="3.04596" transform="matrix(-0.866025 0.5 0.866025 0.5 72.6201 13.1043)" fill="#FFAC30"/>
<path d="M69.9681 27.9617L62.1266 23.4343V32.4892C62.1266 32.6392 62.1915 32.9327 62.385 33.2678C62.5784 33.6028 62.8001 33.8058 62.9301 33.8809L71.8178 39.0122C71.9477 39.0872 72.2344 39.1777 72.6212 39.1777C73.008 39.1777 73.2947 39.0872 73.4246 39.0122L82.3123 33.8809C82.4423 33.8058 82.664 33.6028 82.8574 33.2678C83.0508 32.9327 83.1158 32.6392 83.1158 32.4892V23.4341L75.2738 27.9617C74.4493 28.4377 73.485 28.6227 72.621 28.6227C71.7569 28.6227 70.7927 28.4377 69.9681 27.9617Z" fill="#FF7A00" stroke="black" stroke-width="3.69867"/>
<rect width="14.2537" height="14.2537" rx="3.04596" transform="matrix(0.866025 0.5 -2.20305e-08 1 46.6913 40.7491)" fill="#1955B3" fill-opacity="0.5"/>
<rect width="14.2537" height="14.2537" rx="3.04596" transform="matrix(0.866025 0.5 -2.20305e-08 1 59.0354 33.6223)" fill="#555555" fill-opacity="0.5"/>
<path d="M6.13826 167.332L-0.331402 171.067C-2.14894 172.116 -4.38824 172.116 -6.20578 171.067L-12.6753 167.332C-14.4929 166.282 -15.6125 164.343 -15.6125 162.244V154.774C-15.6125 152.675 -14.4929 150.736 -12.6754 149.687L-6.20591 145.951C-4.38838 144.902 -2.14908 144.902 -0.331532 145.951L6.13824 149.687C7.95578 150.736 9.07544 152.675 9.07544 154.774V162.244C9.07544 164.343 7.95579 166.282 6.13826 167.332Z" fill="url(#paint19_linear)"/>
<rect width="14.2537" height="14.2537" rx="3.04596" transform="matrix(-0.866025 0.5 2.20305e-08 1 9.07526 151.382)" fill="#FF9900"/>
<rect width="14.2537" height="14.2537" rx="3.04596" transform="matrix(-0.866025 0.5 0.866025 0.5 -3.26917 144.255)" fill="url(#paint20_linear)"/>
<mask id="mask6" mask-type="alpha" maskUnits="userSpaceOnUse" x="-4" y="152" width="14" height="20">
<rect width="14.2537" height="14.2537" rx="3.04596" transform="matrix(0.866025 -0.5 2.20305e-08 1 -3.26855 158.455)" fill="#230A58"/>
</mask>
<g mask="url(#mask6)">
<rect width="14.2537" height="14.2537" transform="matrix(-0.866025 0.5 2.20305e-08 1 9.07471 151.33)" fill="#C4C4C4"/>
<rect width="0.914673" height="14.2537" transform="matrix(-0.866025 0.5 2.20305e-08 1 0.823364 156.092)" fill="#C4C4C4"/>
<rect width="0.914673" height="14.2537" transform="matrix(-0.866025 0.5 2.20305e-08 1 2.47369 155.14)" fill="#C4C4C4"/>
<rect width="0.914673" height="14.2537" transform="matrix(-0.866025 0.5 2.20305e-08 1 7.42438 152.281)" fill="#C4C4C4"/>
<rect width="0.914673" height="14.2537" transform="matrix(-0.866025 0.5 2.20305e-08 1 5.77405 153.234)" fill="#C4C4C4"/>
<rect width="0.914673" height="14.2537" transform="matrix(-0.866025 0.5 2.20305e-08 1 4.12372 154.187)" fill="#C4C4C4"/>
<rect width="0.914673" height="14.2537" transform="matrix(-0.866025 0.5 2.20305e-08 1 9.07471 151.33)" fill="#C4C4C4"/>
</g>
<path d="M67.499 124.211L61.0294 127.946C59.2118 128.996 56.9725 128.996 55.155 127.946L48.6854 124.211C46.8679 123.162 45.7483 121.222 45.7483 119.124V111.653C45.7483 109.554 46.8679 107.615 48.6854 106.566L55.1549 102.831C56.9724 101.781 59.2117 101.781 61.0292 102.831L67.499 106.566C69.3166 107.615 70.4362 109.554 70.4362 111.653V119.124C70.4362 121.222 69.3166 123.162 67.499 124.211Z" fill="url(#paint21_linear)"/>
<rect width="14.2537" height="14.2537" rx="3.04596" transform="matrix(-0.866025 0.5 2.20305e-08 1 70.4365 108.262)" fill="#FF9900"/>
<rect width="14.2537" height="14.2537" rx="3.04596" transform="matrix(-0.866025 0.5 0.866025 0.5 58.092 101.135)" fill="url(#paint22_linear)"/>
<rect width="14.2537" height="14.2537" rx="3.04596" transform="matrix(-0.866025 -0.5 -2.20305e-08 1 58.0924 115.388)" fill="#FFCE47"/>
<mask id="mask7" mask-type="alpha" maskUnits="userSpaceOnUse" x="58" y="109" width="13" height="20">
<rect width="14.2537" height="14.2537" rx="3.04596" transform="matrix(0.866025 -0.5 2.20305e-08 1 58.0925 115.335)" fill="#230A58"/>
</mask>
<g mask="url(#mask7)">
<rect width="14.2537" height="14.2537" transform="matrix(-0.866025 0.5 2.20305e-08 1 70.4356 108.209)" fill="#C4C4C4"/>
<rect width="0.914673" height="14.2537" transform="matrix(-0.866025 0.5 2.20305e-08 1 62.1843 112.972)" fill="#C4C4C4"/>
<rect width="0.914673" height="14.2537" transform="matrix(-0.866025 0.5 2.20305e-08 1 60.5339 113.924)" fill="#C4C4C4"/>
<rect width="0.914673" height="14.2537" transform="matrix(-0.866025 0.5 2.20305e-08 1 58.884 114.877)" fill="#C4C4C4"/>
<rect width="0.914673" height="14.2537" transform="matrix(-0.866025 0.5 2.20305e-08 1 63.8347 112.019)" fill="#C4C4C4"/>
<rect width="0.914673" height="14.2537" transform="matrix(-0.866025 0.5 2.20305e-08 1 68.7853 109.16)" fill="#C4C4C4"/>
<rect width="0.914673" height="14.2537" transform="matrix(-0.866025 0.5 2.20305e-08 1 67.1349 110.113)" fill="#C4C4C4"/>
<rect width="0.914673" height="14.2537" transform="matrix(-0.866025 0.5 2.20305e-08 1 65.4846 111.066)" fill="#C4C4C4"/>
<rect width="0.914673" height="14.2537" transform="matrix(-0.866025 0.5 2.20305e-08 1 70.4356 108.209)" fill="#C4C4C4"/>
</g>
<path d="M-8.05001 19.2819L-1.58034 23.0172C0.237198 24.0665 2.4765 24.0665 4.29404 23.0171L10.7636 19.2819C12.5811 18.2325 13.7007 16.2933 13.7007 14.1946V6.72398C13.7007 4.6253 12.5811 2.68603 10.7636 1.63667L4.29417 -2.09856C2.47664 -3.14793 0.237334 -3.14795 -1.58021 -2.0986L-8.04998 1.63668C-9.86753 2.68603 -10.9872 4.62532 -10.9872 6.72404V14.1946C-10.9872 16.2933 -9.86754 18.2325 -8.05001 19.2819Z" fill="url(#paint23_linear)"/>
<rect width="14.2537" height="14.2537" rx="3.04596" transform="matrix(0.866025 0.5 -2.20305e-08 1 -10.9871 3.33246)" fill="#FF9900"/>
<rect width="14.2537" height="14.2537" rx="3.04596" transform="matrix(0.866025 0.5 -0.866025 0.5 1.3573 -3.79434)" fill="url(#paint24_linear)"/>
<rect width="14.2537" height="14.2537" rx="3.04596" transform="matrix(0.866025 -0.5 2.20305e-08 1 1.35693 10.4593)" fill="#FFBD59"/>
<mask id="mask8" mask-type="alpha" maskUnits="userSpaceOnUse" x="-11" y="4" width="13" height="20">
<rect width="14.2537" height="14.2537" rx="3.04596" transform="matrix(-0.866025 -0.5 -2.20305e-08 1 1.35706 10.4055)" fill="#230A58"/>
</mask>
<g mask="url(#mask8)">
<rect width="14.2537" height="14.2537" transform="matrix(0.866025 0.5 -2.20305e-08 1 -10.9862 3.27902)" fill="#9D9D9D"/>
<rect width="0.914673" height="14.2537" transform="matrix(0.866025 0.5 -2.20305e-08 1 0.56543 9.94827)" fill="#9D9D9D"/>
</g>
<path d="M-20.3895 25.8677L-13.9198 29.6029C-12.1023 30.6523 -9.86298 30.6523 -8.04544 29.6029L-1.57588 25.8677C0.241634 24.8183 1.36127 22.8791 1.36127 20.7804V13.3098C1.36127 11.2111 0.241644 9.27181 -1.57586 8.22245L-8.04531 4.48723C-9.86284 3.43786 -12.1021 3.43784 -13.9197 4.48719L-20.3895 8.22247C-22.207 9.27182 -23.3267 11.2111 -23.3267 13.3098V20.7803C-23.3267 22.879 -22.207 24.8183 -20.3895 25.8677Z" fill="url(#paint25_linear)"/>
<rect width="14.2537" height="14.2537" rx="3.04596" transform="matrix(0.866025 0.5 -0.866025 0.5 -10.9829 2.79099)" fill="#FF7A00" fill-opacity="0.43"/>
<rect width="14.2537" height="14.2537" rx="3.04596" transform="matrix(0.866025 -0.5 2.20305e-08 1 -10.9829 17.0446)" fill="#E2752B"/>
<path d="M36.3399 102.831L42.8096 106.566C44.6272 107.615 46.8665 107.615 48.684 106.566L55.1535 102.831C56.9711 101.781 58.0907 99.842 58.0907 97.7433V90.2727C58.0907 88.174 56.9711 86.2347 55.1536 85.1854L48.6841 81.4502C46.8666 80.4008 44.6273 80.4008 42.8097 81.4501L36.34 85.1854C34.5224 86.2347 33.4028 88.174 33.4028 90.2727V97.7433C33.4028 99.842 34.5224 101.781 36.3399 102.831Z" fill="url(#paint26_linear)"/>
<rect width="14.2537" height="14.2537" rx="3.04596" transform="matrix(0.866025 0.5 -2.20305e-08 1 33.4028 86.881)" fill="#FF9900"/>
<rect width="14.2537" height="14.2537" rx="3.04596" transform="matrix(0.866025 0.5 -0.866025 0.5 45.7468 79.7542)" fill="#FF9900"/>
<rect width="14.2537" height="14.2537" rx="3.04596" transform="matrix(0.866025 -0.5 2.20305e-08 1 45.7468 94.0078)" fill="#E2752B"/>
<path d="M-12.8288 196.133L-6.35915 199.868C-4.54161 200.918 -2.30231 200.918 -0.484773 199.868L5.98479 196.133C7.8023 195.084 8.92194 193.144 8.92194 191.046V183.575C8.92194 181.476 7.80231 179.537 5.98481 178.488L-0.484643 174.753C-2.30217 173.703 -4.54147 173.703 -6.35902 174.753L-12.8288 178.488C-14.6463 179.537 -15.766 181.476 -15.766 183.575V191.046C-15.766 193.144 -14.6463 195.084 -12.8288 196.133Z" fill="url(#paint27_linear)"/>
<rect width="14.2537" height="14.2537" rx="3.04596" transform="matrix(0.866025 0.5 -0.866025 0.5 -3.42151 173.056)" fill="#AAAAAA"/>
<rect width="14.2537" height="14.2537" rx="3.04596" transform="matrix(0.866025 -0.5 2.20305e-08 1 -3.42188 187.31)" fill="#E57D34"/>
<path d="M23.996 110.696L30.4656 114.431C32.2832 115.48 34.5225 115.48 36.34 114.431L42.8096 110.696C44.6271 109.646 45.7467 107.707 45.7467 105.608V98.1378C45.7467 96.0391 44.6271 94.0999 42.8096 93.0505L36.3401 89.3153C34.5226 88.2659 32.2833 88.2659 30.4657 89.3153L23.996 93.0505C22.1784 94.0999 21.0588 96.0392 21.0588 98.1379V105.608C21.0588 107.707 22.1784 109.646 23.996 110.696Z" fill="url(#paint28_linear)"/>
<rect width="14.2537" height="14.2537" rx="3.04596" transform="matrix(0.866025 0.5 -2.20305e-08 1 21.0589 94.7454)" fill="#FF9900"/>
<rect width="14.2537" height="14.2537" rx="3.04596" transform="matrix(0.866025 0.5 -0.866025 0.5 33.4033 87.6186)" fill="#FFDB59"/>
<rect width="14.2537" height="14.2537" rx="3.04596" transform="matrix(0.866025 -0.5 2.20305e-08 1 33.403 101.872)" fill="#D0D0D0"/>
<path d="M75.1311 189.833L81.6007 193.569C83.4183 194.618 85.6576 194.618 87.4751 193.569L93.9447 189.833C95.7622 188.784 96.8818 186.845 96.8818 184.746V177.276C96.8818 175.177 95.7622 173.238 93.9447 172.188L87.4753 168.453C85.6577 167.404 83.4184 167.404 81.6009 168.453L75.1311 172.188C73.3136 173.238 72.1939 175.177 72.1939 177.276V184.746C72.1939 186.845 73.3136 188.784 75.1311 189.833Z" fill="url(#paint29_linear)"/>
<path d="M75.1316 175.58L81.6013 179.315C83.4188 180.365 85.6581 180.365 87.4757 179.315L93.9452 175.58C95.7628 174.531 96.8824 172.592 96.8824 170.493V163.022C96.8824 160.924 95.7628 158.984 93.9453 157.935L87.4758 154.2C85.6583 153.15 83.419 153.15 81.6014 154.2L75.1317 157.935C73.3141 158.984 72.1945 160.924 72.1945 163.022V170.493C72.1945 172.592 73.3141 174.531 75.1316 175.58Z" fill="url(#paint30_linear)"/>
<rect width="14.2537" height="14.2537" rx="3.04596" transform="matrix(0.866025 0.5 -0.866025 0.5 84.538 152.504)" fill="#AAAAAA"/>
<rect width="14.2537" height="28.5073" rx="3.04596" transform="matrix(0.866025 -0.5 2.20305e-08 1 84.538 166.757)" fill="#E7823B"/>
<mask id="mask9" mask-type="alpha" maskUnits="userSpaceOnUse" x="72" y="160" width="13" height="35">
<rect width="14.2537" height="28.5073" rx="3.04596" transform="matrix(0.866025 0.5 -2.20305e-08 1 72.1932 159.63)" fill="#FF9900"/>
</mask>
<g mask="url(#mask9)">
<rect width="14.2537" height="28.5073" transform="matrix(0.866025 0.5 -2.20305e-08 1 72.1925 159.459)" fill="#C4C4C4"/>
<rect width="14.2537" height="28.5073" transform="matrix(0.866025 0.5 -2.20305e-08 1 72.1925 159.459)" fill="url(#paint31_linear)"/>
<mask id="mask10" mask-type="alpha" maskUnits="userSpaceOnUse" x="72" y="159" width="13" height="37">
<rect width="14.2537" height="28.5073" transform="matrix(0.866025 0.5 -2.20305e-08 1 72.1934 159.459)" fill="black"/>
</mask>
<g mask="url(#mask10)">
<rect x="86.4617" y="193.211" width="0.740642" height="30.3324" transform="matrix(0.707107 0.948683 -0.707107 0.316228 161.945 50.0874)" fill="black"/>
<rect x="86.4617" y="190.788" width="0.740642" height="30.3324" transform="matrix(0.707107 0.948683 -0.707107 0.316228 160.231 48.4305)" fill="black"/>
<rect x="86.4617" y="188.365" width="0.740642" height="30.3324" transform="matrix(0.707107 0.948683 -0.707107 0.316228 158.518 46.7737)" fill="black"/>
<rect x="86.4617" y="185.941" width="0.740642" height="30.3324" transform="matrix(0.707107 0.948683 -0.707107 0.316228 156.804 45.1168)" fill="black"/>
<rect x="86.4617" y="183.518" width="0.740642" height="30.3324" transform="matrix(0.707107 0.948683 -0.707107 0.316228 155.091 43.4599)" fill="black"/>
<rect x="86.4617" y="181.095" width="0.740642" height="30.3324" transform="matrix(0.707107 0.948683 -0.707107 0.316228 153.378 41.803)" fill="black"/>
<rect x="86.4617" y="178.672" width="0.740642" height="30.3324" transform="matrix(0.707107 0.948683 -0.707107 0.316228 151.664 40.1462)" fill="black"/>
<rect x="86.4617" y="176.249" width="0.740642" height="30.3324" transform="matrix(0.707107 0.948683 -0.707107 0.316228 149.951 38.4893)" fill="black"/>
<rect x="86.4617" y="173.826" width="0.740642" height="30.3324" transform="matrix(0.707107 0.948683 -0.707107 0.316228 148.237 36.8325)" fill="black"/>
<rect x="86.4617" y="171.403" width="0.740642" height="30.3324" transform="matrix(0.707107 0.948683 -0.707107 0.316228 146.524 35.1755)" fill="black"/>
<rect x="86.4617" y="168.98" width="0.740642" height="30.3324" transform="matrix(0.707107 0.948683 -0.707107 0.316228 144.811 33.5187)" fill="black"/>
<rect x="86.4617" y="166.556" width="0.740642" height="30.3324" transform="matrix(0.707107 0.948683 -0.707107 0.316228 143.097 31.8618)" fill="black"/>
<rect x="86.4617" y="164.133" width="0.740642" height="30.3324" transform="matrix(0.707107 0.948683 -0.707107 0.316228 141.384 30.205)" fill="black"/>
<rect x="86.4617" y="161.71" width="0.740642" height="30.3324" transform="matrix(0.707107 0.948683 -0.707107 0.316228 139.67 28.5481)" fill="black"/>
<rect x="86.4617" y="159.287" width="0.740642" height="30.3324" transform="matrix(0.707107 0.948683 -0.707107 0.316228 137.957 26.8913)" fill="black"/>
<rect x="86.4617" y="156.864" width="0.740642" height="30.3324" transform="matrix(0.707107 0.948683 -0.707107 0.316228 136.244 25.2345)" fill="black"/>
<rect x="86.4617" y="154.441" width="0.740642" height="30.3324" transform="matrix(0.707107 0.948683 -0.707107 0.316228 134.53 23.5775)" fill="black"/>
<rect x="86.4617" y="152.018" width="0.740642" height="30.3324" transform="matrix(0.707107 0.948683 -0.707107 0.316228 132.817 21.9207)" fill="black"/>
<rect x="86.4617" y="193.211" width="0.740642" height="30.3324" transform="matrix(0.707107 0.948683 -0.707107 0.316228 161.945 50.0874)" fill="black"/>
</g>
</g>
<path d="M-0.542682 123.32L5.92698 127.055C7.74452 128.105 9.98383 128.105 11.8014 127.055L18.2709 123.32C20.0884 122.271 21.2081 120.331 21.2081 118.233V110.762C21.2081 108.663 20.0884 106.724 18.2709 105.675L11.8015 101.94C9.98396 100.89 7.74466 100.89 5.92711 101.939L-0.542657 105.675C-2.3602 106.724 -3.47986 108.663 -3.47986 110.762V118.233C-3.47986 120.331 -2.36021 122.271 -0.542682 123.32Z" fill="url(#paint32_linear)"/>
<path d="M-0.541828 109.067L5.92784 112.802C7.74538 113.851 9.98468 113.851 11.8022 112.802L18.2718 109.067C20.0893 108.017 21.2089 106.078 21.2089 103.979V96.5087C21.2089 94.41 20.0893 92.4707 18.2718 91.4214L11.8023 87.6861C9.98482 86.6368 7.74551 86.6368 5.92797 87.6861L-0.541803 91.4214C-2.35935 92.4707 -3.479 94.41 -3.479 96.5087V103.979C-3.479 106.078 -2.35936 108.017 -0.541828 109.067Z" fill="url(#paint33_linear)"/>
<rect width="14.2537" height="28.5073" rx="3.04596" transform="matrix(0.866025 0.5 -2.20305e-08 1 -3.47986 93.1169)" fill="#FF9900"/>
<rect width="14.2537" height="14.2537" rx="3.04596" transform="matrix(0.866025 0.5 -0.866025 0.5 8.86456 85.9901)" fill="#FFDB59"/>
<rect width="14.2537" height="28.5073" rx="3.04596" transform="matrix(0.866025 -0.5 2.20305e-08 1 8.8642 100.244)" fill="#1955B3"/>
<path d="M-12.8875 130.447L-6.41787 134.182C-4.60033 135.231 -2.36102 135.231 -0.543489 134.182L5.92607 130.447C7.74359 129.397 8.86322 127.458 8.86322 125.359V117.889C8.86322 115.79 7.7436 113.851 5.92609 112.801L-0.543359 109.066C-2.36089 108.017 -4.60019 108.017 -6.41774 109.066L-12.8875 112.801C-14.7051 113.851 -15.8247 115.79 -15.8247 117.889V125.359C-15.8247 127.458 -14.7051 129.397 -12.8875 130.447Z" fill="url(#paint34_linear)"/>
<path d="M-12.8872 116.193L-6.4175 119.928C-4.59996 120.978 -2.36066 120.978 -0.543122 119.928L5.92644 116.193C7.74395 115.144 8.86359 113.205 8.86359 111.106V103.635C8.86359 101.537 7.74396 99.5973 5.92646 98.548L-0.542993 94.8127C-2.36052 93.7634 -4.59982 93.7633 -6.41737 94.8127L-12.8871 98.548C-14.7047 99.5973 -15.8243 101.537 -15.8243 103.635V111.106C-15.8243 113.205 -14.7047 115.144 -12.8872 116.193Z" fill="url(#paint35_linear)"/>
<rect width="14.2537" height="28.5073" rx="3.04596" transform="matrix(0.866025 -0.5 2.20305e-08 1 -3.48071 107.37)" fill="#353535"/>
<rect width="14.2537" height="14.2537" rx="3.04596" transform="matrix(-0.866025 0.5 0.866025 0.5 60.1823 165.028)" fill="#FFDB59"/>
<mask id="mask11" mask-type="alpha" maskUnits="userSpaceOnUse" x="47" y="151" width="25" height="28">
<path d="M50.3405 156.457C48.7922 157.351 47.8385 159.003 47.8385 160.791V170.16C47.8385 171.262 48.6122 172.602 49.5666 173.153L57.6805 177.838C59.2287 178.732 61.1363 178.732 62.6845 177.838L70.6824 173.22C71.5264 172.733 71.5561 171.524 70.7579 170.964C64.0848 166.288 61.336 161.98 60.3669 152.849C60.2652 151.891 59.2138 151.334 58.3798 151.816L50.3405 156.457Z" fill="#C4C4C4"/>
</mask>
<g mask="url(#mask11)">
<path d="M47.8382 169.109L47.8382 157.902C48.6726 169.31 51.6804 173.758 60.1823 179.282L50.4761 173.678C49.0192 172.837 47.8382 170.792 47.8382 169.109Z" fill="#AAA297"/>
<path d="M60.1825 179.282C51.6806 173.758 48.6729 169.31 47.8385 157.902L60.1826 150.775C61.0171 162.184 64.0248 166.631 72.5267 172.155L60.1825 179.282Z" fill="#C77474"/>
<path d="M60.1825 179.282C51.6806 173.758 48.6729 169.31 47.8385 157.902L60.1826 150.775C61.0171 162.184 64.0248 166.631 72.5267 172.155L60.1825 179.282Z" fill="url(#paint36_linear)"/>
<path d="M60.1825 179.282C51.6806 173.758 48.6729 169.31 47.8385 157.902L60.1826 150.775C61.0171 162.184 64.0248 166.631 72.5267 172.155L60.1825 179.282Z" fill="url(#paint37_linear)"/>
</g>
<rect width="14.2537" height="14.2537" rx="3.04596" transform="matrix(-0.866025 0.5 0.866025 0.5 13.5673 31.9185)" fill="#FFDB59"/>
<mask id="mask12" mask-type="alpha" maskUnits="userSpaceOnUse" x="1" y="18" width="24" height="28">
<path d="M3.72529 23.3472C2.17701 24.2411 1.22323 25.8931 1.22323 27.6809V37.0499C1.22323 38.152 1.99696 39.4921 2.9514 40.0432L11.0652 44.7277C12.6135 45.6216 14.521 45.6216 16.0693 44.7277L24.0672 40.1102C24.9112 39.6229 24.9408 38.4136 24.1427 37.8543C17.4696 33.1779 14.7207 28.8696 13.7516 19.7386C13.65 18.781 12.5986 18.2243 11.7646 18.7057L3.72529 23.3472Z" fill="#C4C4C4"/>
</mask>
<g mask="url(#mask12)">
<path d="M1.22323 35.9994L1.22323 24.7917C2.05764 36.2004 5.06537 40.6476 13.5673 46.1722L3.86111 40.5683C2.40425 39.7272 1.22323 37.6816 1.22323 35.9994Z" fill="#AAA297"/>
<path d="M13.5673 46.1722C5.06537 40.6477 2.05765 36.2004 1.22323 24.7917L13.5674 17.6649C14.4018 29.0736 17.4095 33.5209 25.9114 39.0454L13.5673 46.1722Z" fill="#C77474"/>
<path d="M13.5673 46.1722C5.06537 40.6477 2.05765 36.2004 1.22323 24.7917L13.5674 17.6649C14.4018 29.0736 17.4095 33.5209 25.9114 39.0454L13.5673 46.1722Z" fill="url(#paint38_linear)"/>
<path d="M13.5673 46.1722C5.06537 40.6477 2.05765 36.2004 1.22323 24.7917L13.5674 17.6649C14.4018 29.0736 17.4095 33.5209 25.9114 39.0454L13.5673 46.1722Z" fill="url(#paint39_linear)"/>
</g>
<circle r="2.74994" transform="matrix(-1 0 0 1 73.9974 38.9766)" fill="white" stroke="#16B3D6" stroke-width="1.50143"/>
<path d="M80.8015 40.0943C79.5237 39.0852 75.4399 39.0763 74.1266 38.9792C74.6585 40.1838 76.0363 44.0282 77.4155 44.8936C78.2882 45.4412 79.1581 45.383 79.7454 45.2314C80.2059 45.1125 80.7221 45.1253 81.1108 45.3995C81.6547 45.7832 82.4066 45.6534 82.7903 45.1095L82.8073 45.0855C83.191 44.5416 83.0611 43.7896 82.5173 43.4059C82.1286 43.1317 81.9434 42.6497 81.901 42.176C81.8469 41.5718 81.61 40.7328 80.8015 40.0943Z" fill="white"/>
<path d="M74.1266 38.9792C75.4399 39.0763 79.5237 39.0852 80.8015 40.0943C81.61 40.7328 81.8469 41.5718 81.901 42.176C81.9434 42.6497 82.1286 43.1317 82.5173 43.4059V43.4059C83.0611 43.7896 83.191 44.5416 82.8073 45.0855L82.7903 45.1095C82.4066 45.6534 81.6547 45.7832 81.1108 45.3995V45.3995C80.7221 45.1253 80.2059 45.1125 79.7454 45.2314C79.1581 45.383 78.2882 45.4412 77.4155 44.8936C76.0363 44.0282 74.6585 40.1838 74.1266 38.9792ZM74.1266 38.9792L78.924 42.3638" stroke="black" stroke-width="1.50143"/>
<circle cx="78.9125" cy="42.3448" r="0.861756" transform="rotate(-54.7967 78.9125 42.3448)" fill="black"/>
<path d="M-0.393756 96.4413L6.07591 100.177C7.89345 101.226 10.1328 101.226 11.9503 100.177L18.4198 96.4413C20.2374 95.392 21.357 93.4527 21.357 91.354V83.8834C21.357 81.7847 20.2374 79.8455 18.4199 78.7961L11.9504 75.0609C10.1329 74.0115 7.89358 74.0115 6.07604 75.0608L-0.393731 78.7961C-2.21128 79.8455 -3.33093 81.7847 -3.33093 83.8835V91.354C-3.33093 93.4527 -2.21129 95.392 -0.393756 96.4413Z" fill="url(#paint40_linear)"/>
<rect width="14.2537" height="14.2537" rx="3.04596" transform="matrix(0.866025 0.5 -2.20305e-08 1 -3.33081 80.4919)" fill="#FF9900"/>
<rect width="14.2537" height="14.2537" rx="3.04596" transform="matrix(0.866025 0.5 -0.866025 0.5 9.01361 73.3651)" fill="url(#paint41_linear)"/>
<rect width="14.2537" height="14.2537" rx="3.04596" transform="matrix(0.866025 -0.5 2.20305e-08 1 9.01324 87.6187)" fill="#E2752B"/>
<mask id="mask13" mask-type="alpha" maskUnits="userSpaceOnUse" x="-4" y="81" width="14" height="20">
<rect width="14.2537" height="14.2537" rx="3.04596" transform="matrix(-0.866025 -0.5 -2.20305e-08 1 9.01312 87.5649)" fill="#230A58"/>
</mask>
<g mask="url(#mask13)">
<rect width="14.2537" height="14.2537" transform="matrix(0.866025 0.5 -2.20305e-08 1 -3.33008 80.4392)" fill="#C4C4C4"/>
<rect width="0.914673" height="14.2537" transform="matrix(0.866025 0.5 -2.20305e-08 1 4.92126 85.2021)" fill="black"/>
<rect width="0.914673" height="14.2537" transform="matrix(0.866025 0.5 -2.20305e-08 1 6.57159 86.1548)" fill="black"/>
<rect width="0.914673" height="14.2537" transform="matrix(0.866025 0.5 -2.20305e-08 1 8.22156 87.1075)" fill="black"/>
<rect width="0.914673" height="14.2537" transform="matrix(0.866025 0.5 -2.20305e-08 1 3.27094 84.2493)" fill="black"/>
<rect width="0.914673" height="14.2537" transform="matrix(0.866025 0.5 -2.20305e-08 1 -0.0294189 82.3438)" fill="black"/>
<rect width="0.914673" height="14.2537" transform="matrix(0.866025 0.5 -2.20305e-08 1 1.62091 83.2965)" fill="black"/>
</g>
<path d="M24.2957 96.4417L30.7654 100.177C32.5829 101.226 34.8222 101.226 36.6397 100.177L43.1093 96.4417C44.9268 95.3923 46.0464 93.453 46.0464 91.3543V83.8837C46.0464 81.7851 44.9268 79.8458 43.1093 78.7964L36.6399 75.0612C34.8223 74.0118 32.583 74.0118 30.7655 75.0612L24.2957 78.7964C22.4782 79.8458 21.3585 81.7851 21.3585 83.8838V91.3543C21.3585 93.453 22.4782 95.3923 24.2957 96.4417Z" fill="url(#paint42_linear)"/>
<rect width="14.2537" height="14.2537" rx="3.04596" transform="matrix(0.866025 0.5 -2.20305e-08 1 21.3575 80.4919)" fill="#C4C4C4"/>
<rect width="14.2537" height="14.2537" rx="3.04596" transform="matrix(0.866025 0.5 -0.866025 0.5 33.702 73.3651)" fill="#4B4B4B"/>
<rect width="14.2537" height="14.2537" rx="3.04596" transform="matrix(0.866025 -0.5 2.20305e-08 1 33.7016 87.6187)" fill="#9B9B9B"/>
<path d="M19.3082 77.8519L12.8385 74.1166C11.6605 73.4365 10.9348 72.1796 10.9348 70.8193V63.3488C10.9348 61.9885 11.6605 60.7315 12.8385 60.0514L19.3083 56.3161C20.4863 55.636 21.9377 55.636 23.1157 56.3161L29.5852 60.0514C30.7632 60.7315 31.4889 61.9884 31.4889 63.3487V70.8193C31.4889 72.1796 30.7632 73.4365 29.5852 74.1166L23.1156 77.8519C21.9376 78.532 20.4862 78.532 19.3082 77.8519Z" fill="url(#paint43_linear)" stroke="black" stroke-width="4.1338"/>
<circle cx="10.2166" cy="60.7036" r="2.74994" fill="white" stroke="#16B3D6" stroke-width="1.50143"/>
<path d="M3.41242 61.8213C4.69024 60.8122 8.77403 60.8033 10.0873 60.7062C9.55542 61.9109 8.17759 65.7552 6.7984 66.6206C5.92573 67.1682 5.05583 67.11 4.46855 66.9584C4.00803 66.8395 3.4918 66.8523 3.10316 67.1265C2.55928 67.5102 1.8073 67.3804 1.42358 66.8365L1.40666 66.8125C1.02294 66.2686 1.15279 65.5166 1.69668 65.1329C2.08532 64.8587 2.27051 64.3767 2.31292 63.903C2.36702 63.2989 2.60388 62.4598 3.41242 61.8213Z" fill="white"/>
<path d="M10.0873 60.7062C8.77403 60.8033 4.69024 60.8122 3.41242 61.8213C2.60388 62.4598 2.36702 63.2989 2.31292 63.903C2.27051 64.3767 2.08532 64.8587 1.69668 65.1329V65.1329C1.15279 65.5166 1.02294 66.2686 1.40666 66.8125L1.42358 66.8365C1.8073 67.3804 2.55928 67.5102 3.10316 67.1265V67.1265C3.4918 66.8523 4.00803 66.8395 4.46855 66.9584C5.05583 67.11 5.92573 67.1682 6.7984 66.6206C8.17759 65.7552 9.55542 61.9109 10.0873 60.7062ZM10.0873 60.7062L5.28992 64.0908" stroke="#FF7A00" stroke-width="1.50143"/>
<circle r="0.861756" transform="matrix(-0.576479 -0.817112 -0.817112 0.576479 5.30169 64.0721)" fill="#FF7A00"/>
<path d="M146.767 17.6094C151.571 12.806 159.359 12.806 164.162 17.6094L177.517 30.9645C182.321 35.7679 182.321 43.5558 177.517 48.3592L164.162 61.7143C159.359 66.5177 151.571 66.5177 146.767 61.7143L133.412 48.3592C128.609 43.5558 128.609 35.7679 133.412 30.9645L146.767 17.6094Z" fill="#FE823C"/>
<path d="M159.309 35.7933C159.309 31.5458 155.869 28.1058 151.621 28.1058C147.374 28.1058 143.934 31.5458 143.934 35.7933C143.934 40.0408 147.374 43.4807 151.621 43.4807C151.621 39.2333 155.061 35.7933 159.309 35.7933Z" fill="white"/>
<path d="M159.309 35.7933C159.309 40.0408 155.869 43.4807 151.621 43.4807C151.621 47.7282 155.061 51.1682 159.309 51.1682C163.556 51.1682 166.996 47.7282 166.996 43.4807C166.996 39.2333 163.556 35.7933 159.309 35.7933Z" fill="white"/>
</g>
<defs>
<linearGradient id="paint0_linear" x1="71.6481" y1="172.184" x2="47.9367" y2="186.667" gradientUnits="userSpaceOnUse">
<stop stop-color="#CCBBF0"/>
<stop offset="1" stop-color="#1D0059"/>
</linearGradient>
<linearGradient id="paint1_linear" x1="71.6482" y1="157.931" x2="47.9369" y2="172.414" gradientUnits="userSpaceOnUse">
<stop stop-color="#CCBBF0"/>
<stop offset="1" stop-color="#1D0059"/>
</linearGradient>
<linearGradient id="paint2_linear" x1="83.9932" y1="179.31" x2="60.2819" y2="193.794" gradientUnits="userSpaceOnUse">
<stop stop-color="#BBC0F0"/>
<stop offset="1" stop-color="#002E59"/>
</linearGradient>
<linearGradient id="paint3_linear" x1="83.9933" y1="165.057" x2="60.282" y2="179.541" gradientUnits="userSpaceOnUse">
<stop stop-color="#F97313"/>
<stop offset="1" stop-color="#FFD360"/>
</linearGradient>
<linearGradient id="paint4_linear" x1="59.348" y1="179.334" x2="35.6367" y2="193.818" gradientUnits="userSpaceOnUse">
<stop stop-color="#CCBBF0"/>
<stop offset="1" stop-color="#1D0059"/>
</linearGradient>
<linearGradient id="paint5_linear" x1="59.3482" y1="165.081" x2="35.6368" y2="179.564" gradientUnits="userSpaceOnUse">
<stop stop-color="#CCBBF0"/>
<stop offset="1" stop-color="#1D0059"/>
</linearGradient>
<linearGradient id="paint6_linear" x1="71.6932" y1="186.461" x2="47.9818" y2="200.945" gradientUnits="userSpaceOnUse">
<stop stop-color="#C4C4C4"/>
<stop offset="1" stop-color="#AAA297"/>
</linearGradient>
<linearGradient id="paint7_linear" x1="71.6933" y1="172.207" x2="47.982" y2="186.691" gradientUnits="userSpaceOnUse">
<stop stop-color="#F97313"/>
<stop offset="1" stop-color="#FFD360"/>
</linearGradient>
<linearGradient id="paint8_linear" x1="71.4577" y1="172.784" x2="95.1691" y2="187.268" gradientUnits="userSpaceOnUse">
<stop stop-color="#FF7A00"/>
<stop offset="1" stop-color="#FFDB59" stop-opacity="0.15"/>
</linearGradient>
<linearGradient id="paint9_linear" x1="108.611" y1="20.1058" x2="84.8993" y2="34.5894" gradientUnits="userSpaceOnUse">
<stop stop-color="#FFDB59"/>
<stop offset="1" stop-color="#FF9900"/>
</linearGradient>
<linearGradient id="paint10_linear" x1="21.8529" y1="108.136" x2="45.5642" y2="122.62" gradientUnits="userSpaceOnUse">
<stop stop-color="#FFDB59"/>
<stop offset="1" stop-color="#FF9900"/>
</linearGradient>
<linearGradient id="paint11_linear" x1="0.717517" y1="24.0468" x2="-22.9938" y2="38.5303" gradientUnits="userSpaceOnUse">
<stop stop-color="#FFDB59"/>
<stop offset="1" stop-color="#FF9900"/>
</linearGradient>
<linearGradient id="paint12_linear" x1="72.8387" y1="188.012" x2="96.5501" y2="202.496" gradientUnits="userSpaceOnUse">
<stop stop-color="#FFDB59"/>
<stop offset="1" stop-color="#FF9900"/>
</linearGradient>
<linearGradient id="paint13_linear" x1="59.8435" y1="20.4829" x2="36.1321" y2="34.9664" gradientUnits="userSpaceOnUse">
<stop stop-color="#AAA297"/>
<stop offset="1" stop-color="#7D7D7D"/>
</linearGradient>
<linearGradient id="paint14_linear" x1="96.2664" y1="-1.51672" x2="72.5551" y2="12.9669" gradientUnits="userSpaceOnUse">
<stop stop-color="#010101"/>
<stop offset="1" stop-color="#0A2A59"/>
</linearGradient>
<linearGradient id="paint15_linear" x1="48.2933" y1="172.244" x2="72.0046" y2="186.728" gradientUnits="userSpaceOnUse">
<stop stop-color="#FF9900"/>
<stop offset="1" stop-color="#ABB4E3"/>
</linearGradient>
<linearGradient id="paint16_linear" x1="14.2538" y1="7.86003" x2="7.11722" y2="14.6324" gradientUnits="userSpaceOnUse">
<stop stop-color="#353535"/>
<stop offset="1"/>
</linearGradient>
<linearGradient id="paint17_linear" x1="48.1787" y1="-0.897392" x2="71.89" y2="13.5862" gradientUnits="userSpaceOnUse">
<stop stop-color="#4B4988"/>
<stop offset="1" stop-color="#071C3B"/>
</linearGradient>
<linearGradient id="paint18_linear" x1="84.3211" y1="20.1058" x2="60.6097" y2="34.5894" gradientUnits="userSpaceOnUse">
<stop stop-color="#CCBBF0"/>
<stop offset="1" stop-color="#1D0059"/>
</linearGradient>
<linearGradient id="paint19_linear" x1="8.43138" y1="151.257" x2="-15.28" y2="165.741" gradientUnits="userSpaceOnUse">
<stop stop-color="#BD5E32"/>
<stop offset="1" stop-color="#C77961" stop-opacity="0.5"/>
</linearGradient>
<linearGradient id="paint20_linear" x1="13.3991" y1="0.854592" x2="5.81593" y2="16.0209" gradientUnits="userSpaceOnUse">
<stop stop-color="#FA7717" stop-opacity="0.53"/>
<stop offset="1" stop-color="#FF7A00" stop-opacity="0.5"/>
</linearGradient>
<linearGradient id="paint21_linear" x1="69.7922" y1="108.136" x2="46.0808" y2="122.62" gradientUnits="userSpaceOnUse">
<stop stop-color="#BD5E32"/>
<stop offset="1" stop-color="#C77961" stop-opacity="0.5"/>
</linearGradient>
<linearGradient id="paint22_linear" x1="13.3991" y1="0.854592" x2="5.81593" y2="16.0209" gradientUnits="userSpaceOnUse">
<stop stop-color="#FA7717" stop-opacity="0.53"/>
<stop offset="1" stop-color="#FF7A00" stop-opacity="0.5"/>
</linearGradient>
<linearGradient id="paint23_linear" x1="-10.3431" y1="3.2071" x2="13.3682" y2="17.6907" gradientUnits="userSpaceOnUse">
<stop stop-color="#BD5E32"/>
<stop offset="1" stop-color="#C77961" stop-opacity="0.5"/>
</linearGradient>
<linearGradient id="paint24_linear" x1="13.3991" y1="0.854592" x2="5.81593" y2="16.0209" gradientUnits="userSpaceOnUse">
<stop stop-color="#FA7717" stop-opacity="0.53"/>
<stop offset="1" stop-color="#FF7A00" stop-opacity="0.5"/>
</linearGradient>
<linearGradient id="paint25_linear" x1="-22.6826" y1="9.79289" x2="1.02875" y2="24.2765" gradientUnits="userSpaceOnUse">
<stop stop-color="#FFE411"/>
<stop offset="1" stop-color="#FF9900"/>
</linearGradient>
<linearGradient id="paint26_linear" x1="34.0468" y1="86.7558" x2="57.7582" y2="101.239" gradientUnits="userSpaceOnUse">
<stop stop-color="#FFE411"/>
<stop offset="1" stop-color="#FF9900"/>
</linearGradient>
<linearGradient id="paint27_linear" x1="-15.1219" y1="180.058" x2="8.58942" y2="194.542" gradientUnits="userSpaceOnUse">
<stop stop-color="#FF9900"/>
<stop offset="1" stop-color="#E78139"/>
</linearGradient>
<linearGradient id="paint28_linear" x1="21.7028" y1="94.6209" x2="45.4142" y2="109.105" gradientUnits="userSpaceOnUse">
<stop stop-color="#FF9900"/>
<stop offset="1" stop-color="#E78139"/>
</linearGradient>
<linearGradient id="paint29_linear" x1="72.838" y1="173.759" x2="96.5493" y2="188.242" gradientUnits="userSpaceOnUse">
<stop stop-color="#AAAAAA"/>
<stop offset="1" stop-color="#E7823B"/>
</linearGradient>
<linearGradient id="paint30_linear" x1="72.8385" y1="159.505" x2="96.5499" y2="173.989" gradientUnits="userSpaceOnUse">
<stop stop-color="#AAAAAA"/>
<stop offset="1" stop-color="#E7823B"/>
</linearGradient>
<linearGradient id="paint31_linear" x1="13.7961" y1="4.71243" x2="-3.82306" y2="14.1292" gradientUnits="userSpaceOnUse">
<stop stop-color="#FFD260"/>
<stop offset="1" stop-color="#F97313"/>
</linearGradient>
<linearGradient id="paint32_linear" x1="-2.8358" y1="107.245" x2="20.8756" y2="121.729" gradientUnits="userSpaceOnUse">
<stop stop-color="#FF9900"/>
<stop offset="1" stop-color="#FFDB59"/>
</linearGradient>
<linearGradient id="paint33_linear" x1="-2.83495" y1="92.9918" x2="20.8764" y2="107.475" gradientUnits="userSpaceOnUse">
<stop stop-color="#FF9900"/>
<stop offset="1" stop-color="#FFDB59"/>
</linearGradient>
<linearGradient id="paint34_linear" x1="-15.1807" y1="114.372" x2="8.5307" y2="128.855" gradientUnits="userSpaceOnUse">
<stop stop-color="#CCBBF0"/>
<stop offset="1" stop-color="#1D0059"/>
</linearGradient>
<linearGradient id="paint35_linear" x1="-15.1803" y1="100.118" x2="8.53107" y2="114.602" gradientUnits="userSpaceOnUse">
<stop stop-color="#EEEEEE"/>
<stop offset="1" stop-color="#575757"/>
</linearGradient>
<linearGradient id="paint36_linear" x1="53.2636" y1="154.846" x2="66.6847" y2="175.533" gradientUnits="userSpaceOnUse">
<stop stop-color="#FF9900"/>
<stop offset="1" stop-color="#1D005A"/>
</linearGradient>
<linearGradient id="paint37_linear" x1="53.2636" y1="154.846" x2="66.6847" y2="175.533" gradientUnits="userSpaceOnUse">
<stop stop-color="#AAAAAA"/>
<stop offset="1" stop-color="#D0D0D0"/>
</linearGradient>
<linearGradient id="paint38_linear" x1="6.64841" y1="21.7356" x2="20.0695" y2="42.4233" gradientUnits="userSpaceOnUse">
<stop stop-color="#FF9900"/>
<stop offset="1" stop-color="#1D005A"/>
</linearGradient>
<linearGradient id="paint39_linear" x1="6.64841" y1="21.7356" x2="20.0695" y2="42.4233" gradientUnits="userSpaceOnUse">
<stop stop-color="#C4C4C4"/>
<stop offset="1" stop-color="#353535"/>
</linearGradient>
<linearGradient id="paint40_linear" x1="-2.68688" y1="80.3665" x2="21.0245" y2="94.8501" gradientUnits="userSpaceOnUse">
<stop stop-color="#BD5E32"/>
<stop offset="1" stop-color="#C77961" stop-opacity="0.5"/>
</linearGradient>
<linearGradient id="paint41_linear" x1="13.3991" y1="0.854592" x2="5.81593" y2="16.0209" gradientUnits="userSpaceOnUse">
<stop stop-color="#FA7717" stop-opacity="0.01"/>
<stop offset="1" stop-color="#FF7A00" stop-opacity="0.5"/>
</linearGradient>
<linearGradient id="paint42_linear" x1="22.0026" y1="80.3669" x2="45.7139" y2="94.8504" gradientUnits="userSpaceOnUse">
<stop stop-color="#9B9B9B"/>
<stop offset="1" stop-color="#C4C4C4"/>
</linearGradient>
<linearGradient id="paint43_linear" x1="9.51191" y1="59.8318" x2="33.2233" y2="74.3154" gradientUnits="userSpaceOnUse">
<stop stop-color="#7E7E7E"/>
<stop offset="1" stop-color="#A3A3A3" stop-opacity="0.42"/>
</linearGradient>
<clipPath id="clip0">
<rect x="0.11792" width="196" height="201" rx="10" fill="white"/>
</clipPath>
</defs>
</svg>
