<svg width="206" height="209" viewBox="0 0 206 209" fill="none" xmlns="http://www.w3.org/2000/svg" transform="scale(-1,1)">
<rect width="402" height="201" transform="translate(-5.08167)" fill="white"/>
<rect x="-19.9862" y="16.9044" width="29.9631" height="8.25561" rx="2.15976" fill="#942EFF"/>
<rect x="36.2226" y="114.62" width="67.9163" height="8.25561" rx="2.15976" fill="#942EFF"/>
<rect x="45.2723" y="66.0449" width="41.1493" height="8.25561" rx="2.15976" fill="#C960FF"/>
<rect x="95.1425" y="205.211" width="33.3589" height="8.25561" rx="2.15976" transform="rotate(180 95.1425 205.211)" fill="#C960FF"/>
<rect x="43.6135" y="205.309" width="32.9594" height="8.25561" rx="2.15976" transform="rotate(180 43.6135 205.309)" fill="#C960FF"/>
<rect x="84.1917" y="189.093" width="57.003" height="8.25561" rx="2.15976" transform="rotate(180 84.1917 189.093)" fill="#FB4469"/>
<rect x="23.186" y="189.093" width="44.7449" height="8.25561" rx="2.15976" transform="rotate(180 23.186 189.093)" fill="#942EFF"/>
<rect x="36.2203" y="172.582" width="23.9705" height="8.25561" rx="2.15976" transform="rotate(180 36.2203 172.582)" fill="#FB4469"/>
<rect x="8.30853" y="172.582" width="23.9705" height="8.25561" rx="2.15976" transform="rotate(180 8.30853 172.582)" fill="#FB4469"/>
<rect x="25.763" y="139.952" width="9.18868" height="8.25561" rx="2.15976" transform="rotate(180 25.763 139.952)" fill="#FB4469"/>
<rect x="19.949" y="90.8118" width="14.3823" height="8.25561" rx="2.15976" transform="rotate(180 19.949 90.8118)" fill="#FB4469"/>
<rect x="25.045" y="41.2781" width="25.7682" height="8.25561" rx="2.15976" transform="rotate(180 25.045 41.2781)" fill="#FB4469"/>
<rect x="31.2585" y="57.7894" width="20.9742" height="8.25561" rx="2.15976" transform="rotate(180 31.2585 57.7894)" fill="#FB4469"/>
<rect x="41.2947" y="74.3006" width="9.38843" height="8.25561" rx="2.15976" transform="rotate(180 41.2947 74.3006)" fill="#FB4469"/>
<rect x="6.80072" y="205.211" width="64.92" height="8.25561" rx="2.15976" transform="rotate(180 6.80072 205.211)" fill="#942EFF"/>
<rect x="99.6884" y="172.582" width="59.5266" height="8.25561" rx="2.15976" transform="rotate(180 99.6884 172.582)" fill="#C960FF"/>
<rect x="73.7351" y="156.464" width="22.1727" height="8.25561" rx="2.15976" transform="rotate(180 73.7351 156.464)" fill="#C960FF"/>
<rect x="99.5446" y="139.789" width="69.9138" height="8.25561" rx="2.15976" transform="rotate(180 99.5446 139.789)" fill="#C960FF"/>
<rect width="25.169" height="8.25561" rx="2.15976" transform="matrix(-1 0 0 1 63.5889 0.161194)" fill="#FB4469"/>
<rect width="25.3687" height="8.25561" rx="2.15976" transform="matrix(-1 0 0 1 92.7531 0.161194)" fill="#C960FF"/>
<rect width="75.3072" height="8.25561" rx="2.15976" transform="matrix(-1 0 0 1 89.1295 16.9044)" fill="#FB4469"/>
<rect x="35.0511" y="49.5337" width="35.7743" height="8.25561" rx="2.15976" fill="#942EFF"/>
<rect x="74.7567" y="49.5337" width="32.5599" height="8.25561" rx="2.15976" fill="#C960FF"/>
<rect x="20.8987" width="13.5833" height="8.25561" rx="2.15976" fill="#C960FF"/>
<rect x="3.20807" width="13.5833" height="8.25561" rx="2.15976" fill="#C960FF"/>
<rect x="66.108" y="33.0225" width="18.3774" height="8.25561" rx="2.15976" fill="#FB4469"/>
<rect x="47.714" y="156.464" width="5.1936" height="8.25561" rx="2.15976" transform="rotate(180 47.714 156.464)" fill="#FB4469"/>
<rect x="97.2778" y="156.464" width="19.3761" height="8.25561" rx="2.15976" transform="rotate(180 97.2778 156.464)" fill="#FB4469"/>
<rect x="87.7592" y="106.83" width="38.7523" height="8.25561" rx="2.15976" transform="rotate(180 87.7592 106.83)" fill="#C960FF"/>
<rect x="57.6187" y="205.211" width="9.98769" height="8.25561" rx="2.15976" transform="rotate(180 57.6187 205.211)" fill="#FB4469"/>
<rect x="62.3134" y="41.2781" width="33.1591" height="8.25561" rx="2.15976" transform="rotate(180 62.3134 41.2781)" fill="#C960FF"/>
<rect width="39.1518" height="8.25561" rx="2.16075" transform="matrix(-1 0 0 1 41.5452 98.1428)" fill="#942EFF"/>
<rect width="64.92" height="8.25561" rx="2.15976" transform="matrix(-1 0 0 1 31.4994 114.62)" fill="#942EFF"/>
<rect x="99.5505" y="90.8118" width="75.507" height="8.25561" rx="2.15976" transform="rotate(180 99.5505 90.8118)" fill="#C960FF"/>
<path d="M152.041 19.0509C156.845 14.2475 164.632 14.2475 169.436 19.0509L182.791 32.406C187.594 37.2094 187.594 44.9973 182.791 49.8007L169.436 63.1558C164.632 67.9592 156.845 67.9592 152.041 63.1558L138.686 49.8007C133.883 44.9973 133.883 37.2094 138.686 32.406L152.041 19.0509Z" fill="#C960FF"/>
<path d="M164.275 54.516C164.275 56.0866 162.658 56.7859 160.662 56.7859C158.665 56.7859 157.049 56.0866 157.049 54.516C157.049 53.106 157.813 54.4243 160.662 54.4243C163.51 54.4243 164.275 53.1805 164.275 54.516Z" fill="white"/>
<path fill-rule="evenodd" clip-rule="evenodd" d="M160.739 53.4034C163.822 53.4034 166.323 52.1244 166.323 49.1189C166.323 47.5727 167.121 46.3929 168.039 45.0374C169.277 43.2075 170.732 41.0574 170.732 37.2536C170.732 31.7366 166.259 27.2661 160.739 27.2661C155.218 27.2661 150.745 31.7366 150.745 37.2536C150.745 40.6066 152.06 42.5723 153.254 44.3563C154.246 45.8386 155.154 47.1956 155.154 49.1189C155.154 51.8628 157.656 53.4034 160.739 53.4034ZM165.197 39.7152C165.197 41.3234 164.357 42.7284 163.084 43.5296V49.2483C163.084 50.2992 162.191 50.6359 160.662 50.6359C159.132 50.6359 158.239 50.2121 158.239 49.2483V43.5296C156.967 42.7284 156.126 41.3176 156.126 39.7152C156.126 38.3334 156.757 37.0909 157.743 36.2665C158.006 36.0449 158.09 36.7436 158.191 37.5774C158.293 38.4256 158.411 39.4136 158.753 39.7152C159.471 40.3422 161.876 40.3654 162.57 39.7152C162.87 39.4328 162.942 38.5445 163.007 37.7295C163.085 36.7679 163.154 35.9083 163.58 36.2665C164.573 37.0909 165.197 38.3334 165.197 39.7152Z" fill="white"/>
</svg>
