<svg width="197" height="201" viewBox="0 0 197 201" fill="none" xmlns="http://www.w3.org/2000/svg" transform="scale(-1,1)">
<g clip-path="url(#clip0)">
<rect x="0.691345" width="196" height="201" rx="10" fill="white"/>
<rect x="47.2925" y="46.8656" width="5.4054" height="18.6216" transform="rotate(90 47.2925 46.8656)" fill="#E0E0E0"/>
<rect x="86.7811" y="142.119" width="5.47327" height="54.8063" transform="rotate(-180 86.7811 142.119)" fill="#E0E0E0"/>
<path d="M86.7135 86.2869C86.7135 81.11 85.6938 75.9838 83.7127 71.201C81.7316 66.4182 78.8279 62.0724 75.1673 58.4118C71.5067 54.7512 67.1609 51.8475 62.3781 49.8664C57.5953 47.8853 52.4691 46.8656 47.2922 46.8656L47.2922 52.2593C51.7608 52.2593 56.1856 53.1395 60.314 54.8495C64.4424 56.5595 68.1936 59.066 71.3533 62.2257C74.5131 65.3855 77.0195 69.1367 78.7296 73.2651C80.4396 77.3935 81.3198 81.8183 81.3198 86.2869H86.7135Z" fill="#E0E0E0"/>
<circle cx="84.0106" cy="86.4708" r="2.7027" fill="#E6E6E6"/>
<circle cx="84.0106" cy="123.374" r="2.7027" fill="#E6E6E6"/>
<circle cx="10.2051" cy="86.4708" r="2.7027" fill="#E6E6E6"/>
<circle cx="10.2051" cy="104.922" r="2.7027" fill="#E6E6E6"/>
<circle cx="10.2051" cy="123.374" r="2.7027" fill="#E6E6E6"/>
<circle cx="10.2051" cy="141.825" r="2.7027" fill="#E6E6E6"/>
<circle cx="10.2051" cy="160.276" r="2.7027" fill="#E6E6E6"/>
<circle cx="10.2051" cy="178.728" r="2.7027" fill="#E6E6E6"/>
<circle cx="10.2051" cy="197.179" r="2.7027" fill="#E6E6E6"/>
<circle cx="28.6566" cy="86.4708" r="2.7027" fill="#E6E6E6"/>
<circle cx="28.6566" cy="104.922" r="2.7027" fill="#E6E6E6"/>
<circle cx="28.6566" cy="123.374" r="2.7027" fill="#E6E6E6"/>
<circle cx="28.6566" cy="141.825" r="2.7027" fill="#E6E6E6"/>
<circle cx="28.6566" cy="160.276" r="2.7027" fill="#E6E6E6"/>
<circle cx="28.6566" cy="178.728" r="2.7027" fill="#E6E6E6"/>
<circle cx="28.6566" cy="197.179" r="2.7027" fill="#E6E6E6"/>
<circle cx="47.108" cy="86.4708" r="2.7027" fill="#E6E6E6"/>
<circle cx="47.108" cy="104.922" r="2.7027" fill="#E6E6E6"/>
<circle cx="47.108" cy="123.374" r="2.7027" fill="#E6E6E6"/>
<circle cx="47.108" cy="160.276" r="2.7027" fill="#E6E6E6"/>
<circle cx="47.108" cy="178.728" r="2.7027" fill="#E6E6E6"/>
<circle cx="47.108" cy="197.179" r="2.7027" fill="#E6E6E6"/>
<circle cx="65.5591" cy="86.4708" r="2.7027" fill="#E6E6E6"/>
<circle cx="65.5591" cy="104.922" r="2.7027" fill="#E6E6E6"/>
<circle cx="65.5591" cy="123.374" r="2.7027" fill="#E6E6E6"/>
<circle cx="65.5591" cy="141.825" r="2.7027" fill="#E6E6E6"/>
<circle cx="65.5591" cy="160.276" r="2.7027" fill="#E6E6E6"/>
<circle cx="65.5591" cy="178.728" r="2.7027" fill="#E6E6E6"/>
<circle cx="65.5591" cy="197.179" r="2.7027" fill="#E6E6E6"/>
<circle cx="84.0106" cy="104.922" r="2.7027" fill="#E6E6E6"/>
<circle cx="84.0106" cy="141.825" r="2.7027" fill="#E6E6E6"/>
<circle cx="84.0106" cy="160.276" r="2.7027" fill="#E6E6E6"/>
<circle cx="84.0106" cy="178.728" r="2.7027" fill="#E6E6E6"/>
<circle cx="84.0106" cy="197.179" r="2.7027" fill="#E6E6E6"/>
<circle cx="102.462" cy="86.4708" r="2.7027" fill="#E6E6E6"/>
<circle cx="102.462" cy="104.922" r="2.7027" fill="#E6E6E6"/>
<circle cx="102.462" cy="123.374" r="2.7027" fill="#E6E6E6"/>
<circle cx="102.462" cy="141.825" r="2.7027" fill="#E6E6E6"/>
<circle cx="102.462" cy="160.276" r="2.7027" fill="#E6E6E6"/>
<circle cx="102.462" cy="178.728" r="2.7027" fill="#E6E6E6"/>
<circle cx="102.462" cy="197.179" r="2.7027" fill="#E6E6E6"/>
<circle cx="47.108" cy="31.117" r="2.7027" fill="#E6E6E6"/>
<circle cx="47.108" cy="49.5684" r="2.7027" fill="#E6E6E6"/>
<circle cx="65.5591" cy="31.117" r="2.7027" fill="#E6E6E6"/>
<circle cx="65.5591" cy="49.5684" r="2.7027" fill="#E6E6E6"/>
<circle cx="84.0106" cy="31.117" r="2.7027" fill="#E6E6E6"/>
<circle cx="84.0106" cy="49.5684" r="2.7027" fill="#E6E6E6"/>
<circle cx="10.2051" cy="12.6656" r="2.7027" fill="#E6E6E6"/>
<circle cx="10.2051" cy="31.117" r="2.7027" fill="#E6E6E6"/>
<circle cx="10.2051" cy="49.5684" r="2.7027" fill="#E6E6E6"/>
<circle cx="10.2051" cy="68.0196" r="2.7027" fill="#E6E6E6"/>
<circle cx="10.2051" cy="86.471" r="2.7027" fill="#E6E6E6"/>
<circle cx="10.2051" cy="104.922" r="2.7027" fill="#E6E6E6"/>
<circle cx="28.6566" cy="12.6656" r="2.7027" fill="#E6E6E6"/>
<circle cx="28.6566" cy="31.117" r="2.7027" fill="#E6E6E6"/>
<circle cx="28.6566" cy="49.5684" r="2.7027" fill="#E6E6E6"/>
<circle cx="28.6566" cy="68.0196" r="2.7027" fill="#E6E6E6"/>
<circle cx="28.6566" cy="86.471" r="2.7027" fill="#E6E6E6"/>
<circle cx="28.6566" cy="104.922" r="2.7027" fill="#E6E6E6"/>
<circle cx="47.108" cy="12.6656" r="2.7027" fill="#E6E6E6"/>
<circle cx="47.108" cy="68.0196" r="2.7027" fill="#E6E6E6"/>
<circle cx="47.108" cy="86.471" r="2.7027" fill="#E6E6E6"/>
<circle cx="47.108" cy="104.922" r="2.7027" fill="#E6E6E6"/>
<circle cx="65.5591" cy="12.6656" r="2.7027" fill="#E6E6E6"/>
<circle cx="65.5591" cy="68.0196" r="2.7027" fill="#E6E6E6"/>
<circle cx="65.5591" cy="86.471" r="2.7027" fill="#E6E6E6"/>
<circle cx="65.5591" cy="104.922" r="2.7027" fill="#E6E6E6"/>
<circle cx="84.0106" cy="12.6656" r="2.7027" fill="#E6E6E6"/>
<circle cx="84.0106" cy="68.0196" r="2.7027" fill="#E6E6E6"/>
<circle cx="84.0106" cy="86.471" r="2.7027" fill="#E6E6E6"/>
<circle cx="84.0106" cy="104.922" r="2.7027" fill="#E6E6E6"/>
<circle cx="102.462" cy="12.6656" r="2.7027" fill="#E6E6E6"/>
<circle cx="102.462" cy="31.117" r="2.7027" fill="#E6E6E6"/>
<circle cx="102.462" cy="49.5684" r="2.7027" fill="#E6E6E6"/>
<circle cx="102.462" cy="68.0196" r="2.7027" fill="#E6E6E6"/>
<circle cx="102.462" cy="86.471" r="2.7027" fill="#E6E6E6"/>
<circle cx="102.462" cy="104.922" r="2.7027" fill="#E6E6E6"/>
<mask id="path-82-inside-1" fill="white">
<path d="M65.5596 126.076C61.5811 126.076 57.6417 125.293 53.9661 123.77C50.2905 122.248 46.9508 120.016 44.1376 117.203C41.3245 114.39 39.093 111.05 37.5705 107.375C36.048 103.699 35.2644 99.7597 35.2644 95.7813C35.2644 91.8029 36.048 87.8634 37.5705 84.1878C39.093 80.5123 41.3245 77.1725 44.1377 74.3594C46.9508 71.5462 50.2905 69.3147 53.9661 67.7922C57.6417 66.2697 61.5811 65.4861 65.5596 65.4861L65.5596 71.095C62.3177 71.095 59.1076 71.7336 56.1125 72.9742C53.1175 74.2148 50.3961 76.0331 48.1037 78.3255C45.8114 80.6178 43.993 83.3392 42.7524 86.3343C41.5118 89.3293 40.8733 92.5394 40.8733 95.7813C40.8733 99.0231 41.5118 102.233 42.7524 105.228C43.993 108.223 45.8114 110.945 48.1037 113.237C50.3961 115.529 53.1175 117.348 56.1125 118.588C59.1076 119.829 62.3177 120.468 65.5596 120.468L65.5596 126.076Z"/>
</mask>
<path d="M65.5596 126.076C61.5811 126.076 57.6417 125.293 53.9661 123.77C50.2905 122.248 46.9508 120.016 44.1376 117.203C41.3245 114.39 39.093 111.05 37.5705 107.375C36.048 103.699 35.2644 99.7597 35.2644 95.7813C35.2644 91.8029 36.048 87.8634 37.5705 84.1878C39.093 80.5123 41.3245 77.1725 44.1377 74.3594C46.9508 71.5462 50.2905 69.3147 53.9661 67.7922C57.6417 66.2697 61.5811 65.4861 65.5596 65.4861L65.5596 71.095C62.3177 71.095 59.1076 71.7336 56.1125 72.9742C53.1175 74.2148 50.3961 76.0331 48.1037 78.3255C45.8114 80.6178 43.993 83.3392 42.7524 86.3343C41.5118 89.3293 40.8733 92.5394 40.8733 95.7813C40.8733 99.0231 41.5118 102.233 42.7524 105.228C43.993 108.223 45.8114 110.945 48.1037 113.237C50.3961 115.529 53.1175 117.348 56.1125 118.588C59.1076 119.829 62.3177 120.468 65.5596 120.468L65.5596 126.076Z" stroke="url(#paint0_linear)" stroke-width="11.4722" mask="url(#path-82-inside-1)"/>
<path d="M65.5596 126.076C61.5811 126.076 57.6417 125.293 53.9661 123.77C50.2905 122.248 46.9508 120.016 44.1376 117.203C41.3245 114.39 39.093 111.05 37.5705 107.375C36.048 103.699 35.2644 99.7597 35.2644 95.7813C35.2644 91.8029 36.048 87.8634 37.5705 84.1878C39.093 80.5123 41.3245 77.1725 44.1377 74.3594C46.9508 71.5462 50.2905 69.3147 53.9661 67.7922C57.6417 66.2697 61.5811 65.4861 65.5596 65.4861L65.5596 71.095C62.3177 71.095 59.1076 71.7336 56.1125 72.9742C53.1175 74.2148 50.3961 76.0331 48.1037 78.3255C45.8114 80.6178 43.993 83.3392 42.7524 86.3343C41.5118 89.3293 40.8733 92.5394 40.8733 95.7813C40.8733 99.0231 41.5118 102.233 42.7524 105.228C43.993 108.223 45.8114 110.945 48.1037 113.237C50.3961 115.529 53.1175 117.348 56.1125 118.588C59.1076 119.829 62.3177 120.468 65.5596 120.468L65.5596 126.076Z" stroke="url(#paint1_linear)" stroke-width="11.4722" mask="url(#path-82-inside-1)"/>
<mask id="path-83-inside-2" fill="white">
<path d="M65.5593 74.6274C62.7813 74.6274 60.0305 75.1746 57.4639 76.2377C54.8974 77.3007 52.5654 78.8589 50.601 80.8233C48.6367 82.7876 47.0785 85.1196 46.0154 87.6862C44.9523 90.2527 44.4052 93.0035 44.4052 95.7815C44.4052 98.5595 44.9523 101.31 46.0154 103.877C47.0785 106.443 48.6367 108.775 50.601 110.74C52.5654 112.704 54.8974 114.262 57.4639 115.325C60.0305 116.388 62.7813 116.936 65.5593 116.936L65.5593 111.385C63.5101 111.385 61.4811 110.982 59.5879 110.198C57.6948 109.413 55.9747 108.264 54.5257 106.815C53.0768 105.366 51.9274 103.646 51.1432 101.753C50.3591 99.8597 49.9555 97.8306 49.9555 95.7815C49.9555 93.7324 50.3591 91.7033 51.1432 89.8102C51.9274 87.917 53.0768 86.1969 54.5257 84.7479C55.9746 83.299 57.6948 82.1496 59.5879 81.3655C61.4811 80.5813 63.5101 80.1777 65.5593 80.1777L65.5593 74.6274Z"/>
</mask>
<path d="M65.5593 74.6274C62.7813 74.6274 60.0305 75.1746 57.4639 76.2377C54.8974 77.3007 52.5654 78.8589 50.601 80.8233C48.6367 82.7876 47.0785 85.1196 46.0154 87.6862C44.9523 90.2527 44.4052 93.0035 44.4052 95.7815C44.4052 98.5595 44.9523 101.31 46.0154 103.877C47.0785 106.443 48.6367 108.775 50.601 110.74C52.5654 112.704 54.8974 114.262 57.4639 115.325C60.0305 116.388 62.7813 116.936 65.5593 116.936L65.5593 111.385C63.5101 111.385 61.4811 110.982 59.5879 110.198C57.6948 109.413 55.9747 108.264 54.5257 106.815C53.0768 105.366 51.9274 103.646 51.1432 101.753C50.3591 99.8597 49.9555 97.8306 49.9555 95.7815C49.9555 93.7324 50.3591 91.7033 51.1432 89.8102C51.9274 87.917 53.0768 86.1969 54.5257 84.7479C55.9746 83.299 57.6948 82.1496 59.5879 81.3655C61.4811 80.5813 63.5101 80.1777 65.5593 80.1777L65.5593 74.6274Z" stroke="#192862" stroke-width="11.4722" mask="url(#path-83-inside-2)"/>
<path d="M65.5593 74.6274C62.7813 74.6274 60.0305 75.1746 57.4639 76.2377C54.8974 77.3007 52.5654 78.8589 50.601 80.8233C48.6367 82.7876 47.0785 85.1196 46.0154 87.6862C44.9523 90.2527 44.4052 93.0035 44.4052 95.7815C44.4052 98.5595 44.9523 101.31 46.0154 103.877C47.0785 106.443 48.6367 108.775 50.601 110.74C52.5654 112.704 54.8974 114.262 57.4639 115.325C60.0305 116.388 62.7813 116.936 65.5593 116.936L65.5593 111.385C63.5101 111.385 61.4811 110.982 59.5879 110.198C57.6948 109.413 55.9747 108.264 54.5257 106.815C53.0768 105.366 51.9274 103.646 51.1432 101.753C50.3591 99.8597 49.9555 97.8306 49.9555 95.7815C49.9555 93.7324 50.3591 91.7033 51.1432 89.8102C51.9274 87.917 53.0768 86.1969 54.5257 84.7479C55.9746 83.299 57.6948 82.1496 59.5879 81.3655C61.4811 80.5813 63.5101 80.1777 65.5593 80.1777L65.5593 74.6274Z" stroke="#182862" stroke-width="11.4722" mask="url(#path-83-inside-2)"/>
<mask id="path-84-inside-3" fill="white">
<path d="M65.5593 162.979C68.3373 162.979 71.0881 162.432 73.6547 161.369C76.2212 160.306 78.5532 158.748 80.5175 156.783C82.4819 154.819 84.0401 152.487 85.1032 149.921C86.1663 147.354 86.7134 144.603 86.7134 141.825L81.3186 141.825C81.3186 143.895 80.911 145.944 80.119 147.856C79.327 149.768 78.1662 151.505 76.7028 152.969C75.2394 154.432 73.5022 155.593 71.5901 156.385C69.6781 157.177 67.6289 157.585 65.5593 157.585L65.5593 162.979Z"/>
</mask>
<path d="M65.5593 162.979C68.3373 162.979 71.0881 162.432 73.6547 161.369C76.2212 160.306 78.5532 158.748 80.5175 156.783C82.4819 154.819 84.0401 152.487 85.1032 149.921C86.1663 147.354 86.7134 144.603 86.7134 141.825L81.3186 141.825C81.3186 143.895 80.911 145.944 80.119 147.856C79.327 149.768 78.1662 151.505 76.7028 152.969C75.2394 154.432 73.5022 155.593 71.5901 156.385C69.6781 157.177 67.6289 157.585 65.5593 157.585L65.5593 162.979Z" stroke="#E5E5E5" stroke-width="11.4722" mask="url(#path-84-inside-3)"/>
<mask id="path-85-inside-4" fill="white">
<path d="M86.7134 132.534C86.7134 129.756 86.1662 127.006 85.1031 124.439C84.04 121.873 82.4818 119.541 80.5175 117.576C78.5531 115.612 76.2211 114.054 73.6546 112.991C71.0881 111.928 68.3373 111.38 65.5593 111.38L65.5593 116.931C67.6084 116.931 69.6374 117.334 71.5306 118.118C73.4237 118.903 75.1439 120.052 76.5928 121.501C78.0418 122.95 79.1911 124.67 79.9753 126.563C80.7595 128.456 81.1631 130.485 81.1631 132.534L86.7134 132.534Z"/>
</mask>
<path d="M86.7134 132.534C86.7134 129.756 86.1662 127.006 85.1031 124.439C84.04 121.873 82.4818 119.541 80.5175 117.576C78.5531 115.612 76.2211 114.054 73.6546 112.991C71.0881 111.928 68.3373 111.38 65.5593 111.38L65.5593 116.931C67.6084 116.931 69.6374 117.334 71.5306 118.118C73.4237 118.903 75.1439 120.052 76.5928 121.501C78.0418 122.95 79.1911 124.67 79.9753 126.563C80.7595 128.456 81.1631 130.485 81.1631 132.534L86.7134 132.534Z" stroke="#182862" stroke-width="11.4722" mask="url(#path-85-inside-4)"/>
<mask id="path-86-inside-5" fill="white">
<path d="M105.226 49.7142C105.226 46.9362 104.678 44.1855 103.615 41.6189C102.552 39.0524 100.994 36.7204 99.0297 34.756C97.0653 32.7917 94.7333 31.2335 92.1668 30.1704C89.6003 29.1073 86.8495 28.5601 84.0715 28.5601L84.0715 34.1104C86.1206 34.1104 88.1496 34.514 90.0428 35.2982C91.9359 36.0824 93.6561 37.2317 95.105 38.6807C96.554 40.1296 97.7033 41.8498 98.4875 43.7429C99.2717 45.6361 99.6753 47.6651 99.6753 49.7142L105.226 49.7142Z"/>
</mask>
<path d="M105.226 49.7142C105.226 46.9362 104.678 44.1855 103.615 41.6189C102.552 39.0524 100.994 36.7204 99.0297 34.756C97.0653 32.7917 94.7333 31.2335 92.1668 30.1704C89.6003 29.1073 86.8495 28.5601 84.0715 28.5601L84.0715 34.1104C86.1206 34.1104 88.1496 34.514 90.0428 35.2982C91.9359 36.0824 93.6561 37.2317 95.105 38.6807C96.554 40.1296 97.7033 41.8498 98.4875 43.7429C99.2717 45.6361 99.6753 47.6651 99.6753 49.7142L105.226 49.7142Z" stroke="#FF8383" stroke-width="11.4722" mask="url(#path-86-inside-5)"/>
<mask id="path-87-inside-6" fill="white">
<path d="M65.5593 83.3C63.9202 83.3 62.2971 83.6228 60.7828 84.2501C59.2684 84.8773 57.8925 85.7967 56.7335 86.9557C55.5744 88.1147 54.6551 89.4907 54.0278 91.005C53.4005 92.5194 53.0777 94.1424 53.0777 95.7815C53.0777 97.4206 53.4005 99.0437 54.0278 100.558C54.6551 102.072 55.5744 103.448 56.7335 104.607C57.8925 105.766 59.2685 106.686 60.7828 107.313C62.2971 107.94 63.9202 108.263 65.5593 108.263L65.5593 102.642C64.6583 102.642 63.7662 102.465 62.9338 102.12C62.1015 101.775 61.3451 101.27 60.7081 100.633C60.071 99.9957 59.5657 99.2394 59.2209 98.407C58.8761 97.5746 58.6986 96.6825 58.6986 95.7815C58.6986 94.8806 58.8761 93.9885 59.2209 93.1561C59.5657 92.3237 60.071 91.5674 60.7081 90.9303C61.3451 90.2933 62.1015 89.7879 62.9338 89.4431C63.7662 89.0984 64.6583 88.9209 65.5593 88.9209L65.5593 83.3Z"/>
</mask>
<path d="M65.5593 83.3C63.9202 83.3 62.2971 83.6228 60.7828 84.2501C59.2684 84.8773 57.8925 85.7967 56.7335 86.9557C55.5744 88.1147 54.6551 89.4907 54.0278 91.005C53.4005 92.5194 53.0777 94.1424 53.0777 95.7815C53.0777 97.4206 53.4005 99.0437 54.0278 100.558C54.6551 102.072 55.5744 103.448 56.7335 104.607C57.8925 105.766 59.2685 106.686 60.7828 107.313C62.2971 107.94 63.9202 108.263 65.5593 108.263L65.5593 102.642C64.6583 102.642 63.7662 102.465 62.9338 102.12C62.1015 101.775 61.3451 101.27 60.7081 100.633C60.071 99.9957 59.5657 99.2394 59.2209 98.407C58.8761 97.5746 58.6986 96.6825 58.6986 95.7815C58.6986 94.8806 58.8761 93.9885 59.2209 93.1561C59.5657 92.3237 60.071 91.5674 60.7081 90.9303C61.3451 90.2933 62.1015 89.7879 62.9338 89.4431C63.7662 89.0984 64.6583 88.9209 65.5593 88.9209L65.5593 83.3Z" stroke="url(#paint2_linear)" stroke-width="11.4722" mask="url(#path-87-inside-6)"/>
<mask id="path-88-inside-7" fill="white">
<path d="M77.9933 132.95C77.9933 131.311 77.6704 129.688 77.0432 128.174C76.4159 126.659 75.4965 125.283 74.3375 124.124C73.1785 122.965 71.8025 122.046 70.2882 121.419C68.7738 120.791 67.1508 120.469 65.5117 120.469L65.5117 126.089C66.4126 126.089 67.3048 126.267 68.1371 126.612C68.9695 126.956 69.7258 127.462 70.3629 128.099C70.9999 128.736 71.5053 129.492 71.8501 130.325C72.1949 131.157 72.3723 132.049 72.3723 132.95L77.9933 132.95Z"/>
</mask>
<path d="M77.9933 132.95C77.9933 131.311 77.6704 129.688 77.0432 128.174C76.4159 126.659 75.4965 125.283 74.3375 124.124C73.1785 122.965 71.8025 122.046 70.2882 121.419C68.7738 120.791 67.1508 120.469 65.5117 120.469L65.5117 126.089C66.4126 126.089 67.3048 126.267 68.1371 126.612C68.9695 126.956 69.7258 127.462 70.3629 128.099C70.9999 128.736 71.5053 129.492 71.8501 130.325C72.1949 131.157 72.3723 132.049 72.3723 132.95L77.9933 132.95Z" stroke="#FF8383" stroke-width="11.4722" mask="url(#path-88-inside-7)"/>
<rect x="65.5597" y="71.1081" width="5.62222" height="37.0382" transform="rotate(-90 65.5597 71.1081)" fill="#FF1A6C"/>
<rect x="7.50262" y="-5.63451" width="5.4054" height="55.3435" fill="#182862"/>
<rect x="-2.04633" y="59.4837" width="5.4054" height="36.8486" fill="#FF8383"/>
<rect x="102.496" y="10.1087" width="5.4054" height="36.8486" transform="rotate(90 102.496 10.1087)" fill="#FF8383"/>
<rect x="16.8376" y="-5.63451" width="5.4054" height="64.8555" fill="#182862"/>
<rect x="7.52722" y="49.5682" width="5.4054" height="36.924" fill="#FF8383"/>
<rect x="102.598" y="19.4442" width="5.4054" height="46.1076" transform="rotate(90 102.598 19.4442)" fill="#FF8383"/>
<rect x="105.164" y="68.3481" width="5.4054" height="18.7797" transform="rotate(-180 105.164 68.3481)" fill="#FF8383"/>
<rect x="46.7318" y="162.979" width="5.4054" height="18.7797" transform="rotate(-90 46.7318 162.979)" fill="#FF8383"/>
<rect x="68.3226" y="178.728" width="5.4054" height="18.7797" transform="rotate(180 68.3226 178.728)" fill="#FF8383"/>
<rect x="68.3226" y="160.605" width="5.4054" height="18.7797" transform="rotate(180 68.3226 160.605)" fill="#FF8383"/>
<rect x="25.9538" y="-5.63451" width="5.4054" height="73.9825" fill="#182862"/>
<rect x="16.4051" y="77.6391" width="5.4054" height="37.2474" fill="#FF8383"/>
<rect x="84.2382" y="28.5601" width="5.4054" height="37.1456" transform="rotate(90 84.2382 28.5601)" fill="#FF8383"/>
<rect x="65.559" y="108.282" width="5.63619" height="37.0385" transform="rotate(-90 65.559 108.282)" fill="#FF8383"/>
<circle cx="102.462" cy="68.3481" r="2.86195" fill="#FF1A6C"/>
<circle cx="102.462" cy="105.465" r="2.86195" fill="#FF1A6C"/>
<circle cx="65.7827" cy="105.465" r="2.86195" fill="#FF1A6C"/>
<circle cx="84.0107" cy="141.825" r="2.70275" fill="#FF1A6C"/>
<circle cx="65.6304" cy="141.825" r="2.70275" fill="#182862"/>
<circle cx="46.7316" cy="160.277" r="2.70275" fill="#182862"/>
<circle cx="65.6304" cy="179.097" r="2.70275" fill="#182862"/>
<circle cx="65.6304" cy="160.605" r="2.70275" fill="#FF1A6C"/>
<circle cx="65.5116" cy="95.6928" r="3.13332" fill="#FF1A6C"/>
<circle cx="65.5115" cy="86.1594" r="2.82156" fill="#FF8383"/>
<circle cx="83.9386" cy="132.589" r="2.77475" fill="#FF8383"/>
<circle cx="75.1718" cy="132.95" r="2.82156" fill="#FF8383"/>
<circle cx="65.5115" cy="77.4492" r="2.82156" fill="#FF8383"/>
<circle cx="10.2053" cy="49.5683" r="2.7027" fill="#5B40FF"/>
<circle cx="0.656374" cy="58.728" r="2.7027" fill="#5B40FF"/>
<circle cx="102.621" cy="12.6655" r="2.7027" transform="rotate(90 102.621 12.6655)" fill="#FF8383"/>
<circle cx="102.621" cy="22.1469" r="2.7027" transform="rotate(90 102.621 22.1469)" fill="#FF8383"/>
<circle cx="0.656374" cy="96.0578" r="2.7027" fill="#5B40FF"/>
<circle cx="65.9211" cy="12.8114" r="2.7027" transform="rotate(90 65.9211 12.8114)" fill="#5B40FF"/>
<circle cx="10.2053" cy="39.6808" r="2.7027" fill="#8C32FF"/>
<circle cx="19.5403" cy="58.7093" r="2.7027" fill="#FF47AA"/>
<circle cx="10.2299" cy="86.5924" r="2.7027" fill="#FF47AA"/>
<circle cx="56.7803" cy="22.1469" r="2.7027" transform="rotate(90 56.7803 22.1469)" fill="#FF47AA"/>
<circle cx="19.5403" cy="49.5683" r="2.7027" fill="#5B40FF"/>
<circle cx="28.6565" cy="68.0197" r="2.7027" fill="#FF1A6C"/>
<circle cx="19.1078" cy="77.1794" r="2.7027" fill="#FF1A6C"/>
<circle cx="19.1078" cy="114.886" r="2.7027" fill="#FF1A6C"/>
<circle cx="47.0925" cy="31.2628" r="2.7027" transform="rotate(90 47.0925 31.2628)" fill="#FF1A6C"/>
<circle cx="28.6565" cy="58.7093" r="2.7027" fill="#FF47AA"/>
<circle cx="28.6565" cy="49.5683" r="2.7027" fill="#5B40FF"/>
<circle cx="10.2051" cy="142.068" r="10.9608" fill="#FF8383"/>
<circle cx="10.2053" cy="142.068" r="5.43871" fill="#182862"/>
<circle cx="10.2051" cy="142.068" r="18.286" stroke="#FF8383" stroke-width="5.73611"/>
<circle cx="19.5403" cy="40.4086" r="2.7027" fill="#8C32FF"/>
<circle cx="10.2053" cy="31.1169" r="2.7027" fill="#6F3DFF"/>
<circle r="4.11621" transform="matrix(1 0 0 -1 10.205 178.728)" fill="white" stroke="#FF1A6C" stroke-width="2.86806"/>
<circle r="4.11621" transform="matrix(1 0 0 -1 46.7317 141.825)" fill="white" stroke="#FF1A6C" stroke-width="2.86806"/>
<path d="M147.341 18.6121C152.144 13.8087 159.932 13.8087 164.735 18.6121L178.09 31.9672C182.894 36.7706 182.894 44.5585 178.09 49.3619L164.735 62.717C159.932 67.5204 152.144 67.5204 147.341 62.717L133.986 49.3619C129.182 44.5585 129.182 36.7706 133.986 31.9672L147.341 18.6121Z" fill="#FF6B6B"/>
<path d="M159.542 30.638C159.542 32.5728 157.973 34.1413 156.038 34.1413C154.104 34.1413 152.535 32.5728 152.535 30.638C152.535 28.7032 154.104 27.1347 156.038 27.1347C157.973 27.1347 159.542 28.7032 159.542 30.638Z" fill="white"/>
<path d="M159.542 50.6913C159.542 52.6261 157.973 54.1945 156.038 54.1945C154.104 54.1945 152.535 52.6261 152.535 50.6913C152.535 48.7564 154.104 47.188 156.038 47.188C157.973 47.188 159.542 48.7564 159.542 50.6913Z" fill="white"/>
<path d="M166.065 44.1679C164.13 44.1679 162.562 42.5994 162.562 40.6646C162.562 38.7298 164.13 37.1613 166.065 37.1613C168 37.1613 169.568 38.7298 169.568 40.6646C169.568 42.5994 168 44.1679 166.065 44.1679Z" fill="white"/>
<path d="M146.012 44.1679C144.077 44.1679 142.508 42.5994 142.508 40.6646C142.508 38.7298 144.077 37.1613 146.012 37.1613C147.946 37.1613 149.515 38.7298 149.515 40.6646C149.515 42.5994 147.946 44.1679 146.012 44.1679Z" fill="white"/>
<path fill-rule="evenodd" clip-rule="evenodd" d="M156.85 31.4495L146.823 41.4762L145.2 39.8532L155.227 29.8265L156.85 31.4495Z" fill="white"/>
<path fill-rule="evenodd" clip-rule="evenodd" d="M156.85 49.8798L146.823 39.8531L145.2 41.4761L155.227 51.5028L156.85 49.8798Z" fill="white"/>
<path fill-rule="evenodd" clip-rule="evenodd" d="M155.227 31.4495L165.253 41.4762L166.876 39.8532L156.85 29.8265L155.227 31.4495Z" fill="white"/>
<path fill-rule="evenodd" clip-rule="evenodd" d="M154.891 50.3289V30.638H157.186V50.3289H154.891Z" fill="white"/>
<path fill-rule="evenodd" clip-rule="evenodd" d="M146.253 39.3962H153.864V41.6914H146.253V39.3962Z" fill="white"/>
<path fill-rule="evenodd" clip-rule="evenodd" d="M158.213 39.3962H165.823V41.6914H158.213V39.3962Z" fill="white"/>
</g>
<defs>
<linearGradient id="paint0_linear" x1="68.1455" y1="124.66" x2="69.1293" y2="67.9264" gradientUnits="userSpaceOnUse">
<stop stop-color="#FF8383"/>
<stop offset="1" stop-color="#182862"/>
</linearGradient>
<linearGradient id="paint1_linear" x1="65.5596" y1="118.034" x2="65.5596" y2="71.054" gradientUnits="userSpaceOnUse">
<stop stop-color="#FF8383"/>
<stop offset="1" stop-color="#FF1A6C"/>
</linearGradient>
<linearGradient id="paint2_linear" x1="65.5593" y1="86.6134" x2="65.5593" y2="105.969" gradientUnits="userSpaceOnUse">
<stop stop-color="#FF1A6C"/>
<stop offset="1" stop-color="#FF8383"/>
</linearGradient>
<clipPath id="clip0">
<rect x="0.691345" width="196" height="201" rx="10" fill="white"/>
</clipPath>
</defs>
</svg>
