<svg width="197" height="201" viewBox="0 0 197 201" fill="none" xmlns="http://www.w3.org/2000/svg" transform="scale(-1,1)">
<g clip-path="url(#clip0)">
<circle r="6.94217" transform="matrix(-1 0 0 1 92.8386 13.8701)" fill="url(#paint0_linear)"/>
<circle r="6.94217" transform="matrix(-1 0 0 1 9.20969 34.2122)" fill="#C80000"/>
<ellipse rx="6.78072" ry="6.94217" transform="matrix(-1 0 0 1 62.9711 96.5302)" fill="#FF6CC7"/>
<rect width="34.5494" height="13.8843" rx="6.94217" transform="matrix(-1 0 0 1 79.4386 6.92789)" fill="#C80000"/>
<rect width="34.8723" height="13.8843" rx="6.94217" transform="matrix(-1 0 0 1 107.853 130.918)" fill="#FB4469" fill-opacity="0.5"/>
<rect width="34.5494" height="13.8843" rx="6.94217" transform="matrix(-1 0 0 1 110.113 89.5881)" fill="#C80000"/>
<rect width="58.1205" height="13.5614" rx="6.78072" transform="matrix(1 -8.74228e-08 -8.74228e-08 -1 7.11096 144.48)" fill="#4C1925"/>
<rect width="55.0663" height="13.7666" rx="6.88328" transform="matrix(-1 0 0 1 99.7328 26.898)" fill="#FB4469" fill-opacity="0.5"/>
<rect width="19.5502" height="7.04336" rx="3.52168" transform="matrix(-1 0 0 1 68.7784 30.4197)" fill="white"/>
<circle r="3.52168" transform="matrix(-1 0 0 1 93.9307 33.9413)" fill="#4C1925"/>
<circle r="3.52168" transform="matrix(-1 0 0 1 75.6835 33.9413)" fill="#4C1925"/>
<rect width="55.0663" height="13.7666" rx="6.88328" transform="matrix(-1 0 0 1 79.4386 150.937)" fill="#C80000" fill-opacity="0.5"/>
<rect width="19.5502" height="7.04336" rx="3.52168" transform="matrix(-1 0 0 1 48.4842 154.459)" fill="white"/>
<circle r="3.52168" transform="matrix(-1 0 0 1 72.155 157.981)" fill="#4C1925"/>
<circle r="3.52168" transform="matrix(-1 0 0 1 59.0447 157.981)" fill="#4C1925"/>
<rect width="55.0663" height="13.7666" rx="6.88328" transform="matrix(-1 0 0 1 58.433 48.3479)" fill="#C80000" fill-opacity="0.5"/>
<circle r="3.52168" transform="matrix(-1 0 0 1 51.1608 55.3912)" fill="#4C1925"/>
<circle r="3.52168" transform="matrix(-1 0 0 1 30.8461 55.3912)" fill="#4C1925"/>
<circle r="3.52168" transform="matrix(-1 0 0 1 10.5316 55.3912)" fill="#4C1925"/>
<rect width="55.0663" height="13.7666" rx="6.88328" transform="matrix(-1 0 0 1 58.433 171.607)" fill="#FB4469" fill-opacity="0.5"/>
<rect width="19.5502" height="7.04336" rx="3.52168" transform="matrix(-1 0 0 1 27.4786 175.129)" fill="white"/>
<circle r="3.52168" transform="matrix(-1 0 0 1 51.0698 178.65)" fill="#4C1925"/>
<circle r="3.52168" transform="matrix(-1 0 0 1 36.3426 178.65)" fill="#4C1925"/>
<rect width="96.366" height="13.7666" rx="6.88328" transform="matrix(-1 0 0 1 36.3427 7.04832)" fill="#FB4469"/>
<rect width="37.6922" height="7.04336" rx="3.52168" transform="matrix(-1 0 0 1 32.8214 10.2497)" fill="white"/>
<rect width="90.9234" height="13.7666" rx="6.88328" transform="matrix(-1 0 0 1 59.0737 67.8774)" fill="#FB4469"/>
<rect width="60.3807" height="13.7666" rx="6.88328" transform="matrix(-1 0 0 1 50.3784 89.911)" fill="#E38080"/>
<rect width="90.9234" height="13.7666" rx="6.88328" transform="matrix(-1 0 0 1 59.0737 191.136)" fill="#FB4469"/>
<rect width="52.7571" height="7.04336" rx="3.52168" transform="matrix(-1 0 0 1 24.5063 194.658)" fill="white"/>
<rect width="52.7571" height="7.04336" rx="3.52168" transform="matrix(-1 0 0 1 54.5916 194.658)" fill="#C80000"/>
<path d="M65.157 69.6494V60.0329C65.157 58.9122 66.0655 58.0036 67.1862 58.0036L97.7042 58.0036C98.825 58.0036 99.7335 58.9122 99.7335 60.0329V69.6494C99.7335 70.7701 98.825 71.6787 97.7042 71.6787H67.1862C66.0655 71.6787 65.157 70.7701 65.157 69.6494Z" fill="#4C1925"/>
<path d="M77.4984 48.3479H87.6648C88.7855 48.3479 89.694 49.2564 89.694 50.3771V79.6145C89.694 80.7352 88.7855 81.6437 87.6648 81.6437H77.4984C76.3777 81.6437 75.4692 80.7352 75.4692 79.6145V50.3771C75.4692 49.2564 76.3777 48.3479 77.4984 48.3479Z" fill="#4C1925"/>
<ellipse rx="1.80924" ry="1.74223" transform="matrix(-1 0 0 1 82.6464 53.9617)" fill="white"/>
<ellipse rx="1.80924" ry="1.74223" transform="matrix(-1 0 0 1 69.7802 64.8021)" fill="white"/>
<ellipse rx="1.80924" ry="1.74223" transform="matrix(-1 0 0 1 82.6464 77.1915)" fill="white"/>
<ellipse rx="1.80924" ry="1.74223" transform="matrix(-1 0 0 1 95.11 64.8021)" fill="white"/>
<path d="M62.826 191.999V184.201C62.826 183.081 63.7346 182.172 64.8553 182.172H95.3733C96.494 182.172 97.4025 183.081 97.4025 184.201V191.999C97.4025 193.12 96.494 194.029 95.3733 194.029H64.8553C63.7346 194.029 62.826 193.12 62.826 191.999Z" fill="#4C1925"/>
<path d="M76.4802 171.607H84.1503C85.271 171.607 86.1795 172.515 86.1795 173.636V202.874C86.1795 203.994 85.271 204.903 84.1503 204.903H76.4802C75.3595 204.903 74.451 203.994 74.451 202.874V173.636C74.451 172.515 75.3595 171.607 76.4802 171.607Z" fill="#4C1925"/>
<ellipse rx="1.80924" ry="1.74223" transform="matrix(-1 0 0 1 80.3151 177.221)" fill="white"/>
<ellipse rx="1.80924" ry="1.74223" transform="matrix(-1 0 0 1 67.4495 188.061)" fill="white"/>
<ellipse rx="1.80924" ry="1.74223" transform="matrix(-1 0 0 1 80.3151 200.451)" fill="white"/>
<ellipse rx="1.80924" ry="1.74223" transform="matrix(-1 0 0 1 92.779 188.061)" fill="white"/>
<rect width="13.7666" height="13.8528" rx="2.02924" transform="matrix(-1 0 0 1 36.3672 27.0783)" fill="#FB4469"/>
<path d="M30.3202 29.8476C30.0704 29.1145 29.0334 29.1145 28.7836 29.8476L28.1807 31.6169C28.0686 31.9457 27.7598 32.1668 27.4124 32.1668H25.5466C24.751 32.1668 24.4304 33.1927 25.0844 33.6457L26.5263 34.6446C26.8244 34.8511 26.9493 35.2304 26.8324 35.5736L26.2661 37.2354C26.0136 37.9764 26.8531 38.6103 27.4966 38.1644L29.0897 37.0608C29.3677 36.8682 29.7361 36.8682 30.0141 37.0608L31.6072 38.1644C32.2508 38.6103 33.0903 37.9764 32.8377 37.2354L32.2715 35.5736C32.1545 35.2304 32.2794 34.8511 32.5776 34.6446L34.0194 33.6457C34.6735 33.1927 34.3528 32.1668 33.5572 32.1668H31.6915C31.3441 32.1668 31.0352 31.9457 30.9231 31.6169L30.3202 29.8476Z" fill="white"/>
<rect width="13.7666" height="13.8528" rx="2.02924" transform="matrix(-1 0 0 1 49.0868 110.253)" fill="#FB4469"/>
<path d="M42.9129 113.154C42.663 112.42 41.6261 112.42 41.3763 113.154L40.7733 114.923C40.6613 115.252 40.3524 115.473 40.005 115.473H38.1393C37.3436 115.473 37.023 116.499 37.677 116.952L39.1189 117.951C39.417 118.157 39.542 118.536 39.425 118.88L38.8587 120.541C38.6062 121.282 39.4457 121.916 40.0893 121.47L41.6823 120.367C41.9604 120.174 42.3287 120.174 42.6068 120.367L44.1998 121.47C44.8434 121.916 45.6829 121.282 45.4304 120.541L44.8641 118.88C44.7471 118.536 44.8721 118.157 45.1702 117.951L46.6121 116.952C47.2661 116.499 46.9455 115.473 46.1499 115.473H44.2841C43.9367 115.473 43.6278 115.252 43.5158 114.923L42.9129 113.154Z" fill="white"/>
<circle r="6.88328" transform="matrix(-1 0 0 1 62.9871 117.359)" fill="url(#paint1_linear)"/>
<path d="M59.2993 119.603L63.7359 115.167C64.0323 114.87 64.5128 114.87 64.8092 115.167C65.1056 115.463 65.1056 115.944 64.8092 116.24L60.3727 120.677C60.0763 120.973 59.5957 120.973 59.2993 120.677C59.0029 120.38 59.0029 119.9 59.2993 119.603Z" fill="white"/>
<path d="M62.079 113.361L62.1531 113.287C62.9456 112.494 64.2304 112.494 65.0229 113.287L66.9214 115.185C67.7139 115.978 67.7139 117.263 66.9214 118.055L66.8473 118.129C66.0549 118.922 64.77 118.922 63.9776 118.129L62.079 116.231C61.2866 115.438 61.2866 114.153 62.079 113.361Z" fill="white"/>
<rect width="13.7666" height="13.7666" rx="2.02924" transform="matrix(-1 0 0 1 90.4087 110.458)" fill="#FB4469"/>
<path d="M146.767 18.6121C151.571 13.8087 159.359 13.8087 164.162 18.6121L177.517 31.9672C182.32 36.7706 182.32 44.5585 177.517 49.3619L164.162 62.717C159.359 67.5204 151.571 67.5204 146.767 62.717L133.412 49.3619C128.609 44.5585 128.609 36.7706 133.412 31.9672L146.767 18.6121Z" fill="#ED3266"/>
<path d="M167.677 39.4211C167.637 38.974 168.127 38.7096 168.419 39.0502C169.187 39.9451 169.652 41.1086 169.652 42.3806C169.652 43.5986 169.226 44.7172 168.515 45.5958C168.228 45.9505 167.727 45.6856 167.763 45.2308C167.819 44.5205 167.856 43.7498 167.856 42.9512C167.856 41.8129 167.778 40.5649 167.677 39.4211Z" fill="white"/>
<path d="M153.399 30.498C153.399 30.0702 153.746 29.7235 154.174 29.7235H156.755C157.183 29.7235 157.53 30.0702 157.53 30.498V35.9194H153.399V30.498Z" fill="white"/>
<path d="M141.278 42.3806C141.278 41.1086 141.742 39.9451 142.51 39.0502C142.803 38.7096 143.293 38.974 143.253 39.4211C143.151 40.5649 143.073 41.8129 143.073 42.9512C143.073 43.7498 143.11 44.5205 143.167 45.2308C143.203 45.6856 142.701 45.9505 142.414 45.5958C141.703 44.7172 141.278 43.5986 141.278 42.3806Z" fill="white"/>
<path fill-rule="evenodd" clip-rule="evenodd" d="M166.685 37.8337C166.623 37.1826 166.073 36.6939 165.419 36.6939L145.511 36.6939C144.856 36.6939 144.307 37.1826 144.245 37.8338C144.131 39.0238 143.976 40.9479 143.976 42.6317C143.976 44.382 144.138 46.0247 144.252 46.969C144.313 47.4732 144.679 47.8809 145.169 48.0146L150.414 49.445C151.02 49.6104 151.658 49.3158 151.983 48.7774C152.673 47.6307 153.98 45.8587 155.465 45.8587C156.949 45.8587 158.256 47.6307 158.947 48.7774C159.271 49.3157 159.909 49.6103 160.516 49.445L165.761 48.0146C166.251 47.8809 166.616 47.4732 166.677 46.9689C166.792 46.0246 166.953 44.382 166.953 42.6317C166.953 40.9478 166.799 39.0238 166.685 37.8337ZM162.693 41.599C163.406 41.599 163.984 41.0211 163.984 40.3082C163.984 39.5953 163.406 39.0174 162.693 39.0174C161.98 39.0174 161.402 39.5953 161.402 40.3082C161.402 41.0211 161.98 41.599 162.693 41.599ZM160.112 45.4715C160.824 45.4715 161.402 44.8935 161.402 44.1806C161.402 43.4678 160.824 42.8898 160.112 42.8898C159.399 42.8898 158.821 43.4678 158.821 44.1806C158.821 44.8935 159.399 45.4715 160.112 45.4715ZM149.007 39.2559H149.622C149.962 39.2559 150.237 39.5313 150.237 39.8709V41.2547H151.621C151.961 41.2547 152.236 41.53 152.236 41.8697V42.4847C152.236 42.8243 151.961 43.0997 151.621 43.0997H150.237V44.4834C150.237 44.8231 149.962 45.0984 149.622 45.0984H149.007C148.668 45.0984 148.392 44.8231 148.392 44.4834V43.0997H147.009C146.669 43.0997 146.394 42.8243 146.394 42.4847V41.8697C146.394 41.53 146.669 41.2547 147.009 41.2547H148.392V39.8709C148.392 39.5313 148.668 39.2559 149.007 39.2559Z" fill="white"/>
</g>
<defs>
<linearGradient id="paint0_linear" x1="10.4132" y1="-2.81374e-07" x2="2.5686" y2="12.4959" gradientUnits="userSpaceOnUse">
<stop stop-color="#FF71D7"/>
<stop offset="1" stop-color="#FF3A3A"/>
</linearGradient>
<linearGradient id="paint1_linear" x1="10.3249" y1="-2.78987e-07" x2="2.54682" y2="12.3899" gradientUnits="userSpaceOnUse">
<stop stop-color="#FF71D7"/>
<stop offset="1" stop-color="#FF3A3A"/>
</linearGradient>
<clipPath id="clip0">
<rect width="196" height="201" rx="10" transform="matrix(-1 0 0 1 196.118 0)" fill="white"/>
</clipPath>
</defs>
</svg>
