<svg width="197" height="201" viewBox="0 0 197 201" fill="none" xmlns="http://www.w3.org/2000/svg">
<g clip-path="url(#clip0)">
<rect x="0.289001" width="196" height="201" rx="10" fill="white"/>
<rect x="10.5934" y="-4.41522" width="47.7935" height="208.243" fill="#316342"/>
<rect x="-36.062" y="-4.41522" width="47.7935" height="113.92" fill="url(#paint0_linear)"/>
<rect x="-36.062" y="109.504" width="47.7935" height="113.92" fill="#316342"/>
<ellipse opacity="0.2" cx="-1.31641" cy="143.285" rx="11.2602" ry="11.2479" transform="rotate(90 -1.31641 143.285)" fill="#28AA26"/>
<rect x="56.1109" y="63.8611" width="161.462" height="45.5176" rx="22.7588" transform="rotate(90 56.1109 63.8611)" fill="url(#paint1_linear)"/>
<ellipse opacity="0.2" cx="22.0401" cy="143.948" rx="11.4812" ry="11.3705" transform="rotate(90 22.0401 143.948)" fill="#52BB54"/>
<ellipse opacity="0.2" cx="22.0401" cy="120.986" rx="11.4812" ry="11.3705" transform="rotate(90 22.0401 120.986)" fill="#B0EE00"/>
<ellipse opacity="0.2" cx="22.0401" cy="166.911" rx="11.4812" ry="11.3705" transform="rotate(90 22.0401 166.911)" fill="#B0EE00"/>
<ellipse opacity="0.2" cx="-0.65442" cy="120.764" rx="11.2602" ry="11.2479" transform="rotate(90 -0.65442 120.764)" fill="#09D9C0"/>
<ellipse opacity="0.2" cx="1.86892" cy="84.5711" rx="12.4666" ry="12.8966" transform="rotate(90 1.86892 84.5711)" fill="#28AA26"/>
<ellipse opacity="0.2" cx="-0.621033" cy="7.48657" rx="11.2054" ry="11.2145" transform="rotate(90 -0.621033 7.48657)" fill="#B0EE00"/>
<g opacity="0.45">
<path d="M10.6984 155.163C9.85771 155.219 8.17938 155.744 7.12478 156.306C4.40796 157.722 2.19322 159.827 0.745927 162.368C0.522953 162.783 -0.0646124 164.444 -0.0646124 165.207C-0.0646124 165.393 0.538019 165.207 1.10449 164.978C2.37756 164.473 3.58946 163.847 4.72028 163.11C6.4125 162.052 7.85874 160.696 8.97486 159.12C9.68898 158.154 11.5963 155.105 10.6984 155.163Z" fill="#09D9C0"/>
<path d="M10.6962 165.738C9.85556 165.793 8.17723 166.319 7.12262 166.88C4.40581 168.296 2.19107 170.401 0.743772 172.943C0.520799 173.344 -0.0637541 175.029 -0.0637541 175.787C-0.0637541 175.973 0.538877 175.787 1.10535 175.558C2.37878 175.053 3.59075 174.427 4.72114 173.69C6.41408 172.633 7.86048 171.276 8.97572 169.7C9.68682 168.729 11.5941 165.68 10.6962 165.738Z" fill="#09D9C0"/>
<path d="M10.6196 196.262C9.77895 196.207 8.09761 195.681 7.04602 195.119C4.32989 193.707 2.11427 191.606 0.664155 189.068C0.444194 188.667 -0.137344 186.979 -0.143371 186.229C-0.143371 186.044 0.459261 186.229 1.02875 186.459C2.30182 186.964 3.51371 187.59 4.64454 188.327C6.3411 189.383 7.79151 190.74 8.91116 192.317C9.61022 193.282 11.5145 196.331 10.6196 196.262Z" fill="#09D9C0"/>
<path d="M10.616 185.975C9.77535 185.919 8.09401 185.394 7.04242 184.832C4.32497 183.417 2.11002 181.312 0.663564 178.77C0.440591 178.368 -0.140948 176.681 -0.146975 175.928C-0.146975 175.745 0.470722 175.928 1.02514 176.16C2.29734 176.666 3.50907 177.291 4.64093 178.025C6.33645 179.084 7.78659 180.441 8.90756 182.018C9.60662 182.981 11.5109 186.024 10.616 185.975Z" fill="#09D9C0"/>
</g>
<g opacity="0.45">
<path d="M55.0567 19.7448C54.2436 19.8035 52.6205 20.362 51.6005 20.9586C48.973 22.4623 46.831 24.6981 45.4313 27.3983C45.2157 27.8391 44.6474 29.6026 44.6474 30.4138C44.6474 30.6107 45.2302 30.4138 45.7781 30.1699C47.0093 29.6337 48.1814 28.9688 49.275 28.186C50.9116 27.0623 52.3103 25.6216 53.3898 23.9477C54.0804 22.922 55.9251 19.683 55.0567 19.7448Z" fill="#09D9C0"/>
<path d="M33.6381 19.7452C34.4512 19.804 36.0743 20.3624 37.0943 20.9591C39.7218 22.4627 41.8637 24.6985 43.2634 27.3987C43.482 27.8396 44.0415 29.6031 44.0444 30.4143C44.0444 30.6112 43.4616 30.4143 42.9138 30.1703C41.6825 29.6342 40.5105 28.9692 39.4168 28.1864C37.776 27.0639 36.3733 25.6232 35.2904 23.9482C34.6143 22.9224 32.7697 19.6835 33.6381 19.7452Z" fill="#09D9C0"/>
<path d="M55.0545 30.9783C54.2415 31.0371 52.6183 31.5956 51.5984 32.1922C48.9708 33.6959 46.8289 35.9317 45.4292 38.6319C45.2135 39.058 44.6482 40.848 44.6482 41.6533C44.6482 41.8502 45.231 41.6533 45.7789 41.4093C47.0104 40.8739 48.1826 40.2089 49.2758 39.4254C50.9131 38.3026 52.312 36.8618 53.3905 35.1872C54.0783 34.1556 55.9229 30.9166 55.0545 30.9783Z" fill="#09D9C0"/>
<path d="M33.6352 30.9783C34.4483 31.0371 36.0744 31.5956 37.0914 32.1922C39.7189 33.6959 41.8609 35.9317 43.2606 38.6319C43.4821 39.058 44.0387 40.848 44.0416 41.6533C44.0416 41.8502 43.4587 41.6533 42.9109 41.4093C41.6754 40.8721 40.4994 40.2051 39.4023 39.4195C37.7663 38.2976 36.3676 36.859 35.2876 35.1872C34.6115 34.1556 32.7668 30.9166 33.6352 30.9783Z" fill="#09D9C0"/>
<path d="M11.0108 19.6916C11.069 20.5117 11.6227 22.1488 12.2143 23.1775C13.7043 25.8281 15.9214 27.9887 18.5991 29.3996C19.0042 29.6171 20.7964 30.1902 21.589 30.1902C21.7813 30.1902 21.589 29.6024 21.3471 29.0498C20.8132 27.8092 20.154 26.6273 19.3801 25.5229C18.2642 23.8738 16.8361 22.4634 15.1779 21.3728C14.1609 20.6763 10.9496 18.8158 11.0108 19.6916Z" fill="#09D9C0"/>
<path d="M11.0129 41.2942C11.0712 40.4742 11.6249 38.8371 12.2164 37.8084C13.7065 35.1577 15.9235 32.9972 18.6013 31.5863C19.0209 31.3688 20.7985 30.8015 21.5911 30.7986C21.7835 30.7986 21.5911 31.3864 21.3493 31.939C20.8153 33.1796 20.1562 34.3615 19.3822 35.4659C18.2663 37.115 16.8382 38.5254 15.1801 39.616C14.1631 40.3096 10.9517 42.1701 11.0129 41.2942Z" fill="#09D9C0"/>
<path d="M22.1475 19.6953C22.2058 20.5153 22.7595 22.1524 23.3511 23.1811C24.8411 25.8318 27.0582 27.9923 29.7359 29.4032C30.1555 29.6207 31.9332 30.1909 32.7258 30.1909C32.9181 30.1909 32.7258 29.6031 32.4839 29.0505C31.9507 27.8096 31.2915 26.6276 30.5169 25.5236C29.4018 23.8738 27.9736 22.4632 26.3147 21.3735C25.2977 20.6799 22.0863 18.8194 22.1475 19.6953Z" fill="#09D9C0"/>
<path d="M22.1475 41.2967C22.2058 40.4767 22.7595 38.8366 23.3511 37.8109C24.8411 35.1602 27.0582 32.9996 29.7359 31.5887C30.1555 31.3712 31.9332 30.804 32.7258 30.801C32.9181 30.801 32.7258 31.3889 32.4839 31.9414C31.95 33.182 31.2908 34.3639 30.5169 35.4684C29.4022 37.1217 27.974 38.5361 26.3147 39.6302C25.2977 40.3121 22.0863 42.1725 22.1475 41.2967Z" fill="#09D9C0"/>
<path d="M54.9807 63.4025C54.1676 63.3437 52.5416 62.7852 51.5245 62.1886C48.8977 60.6884 46.7549 58.4568 45.3524 55.7607C45.1397 55.3345 44.5773 53.5417 44.5714 52.7452C44.5714 52.5482 45.1543 52.7452 45.705 52.9891C46.9363 53.5253 48.1083 54.1902 49.202 54.973C50.8428 56.0955 52.2455 57.5362 53.3284 59.2113C54.0044 60.237 55.8462 63.4759 54.9807 63.4025Z" fill="#09D9C0"/>
<path d="M33.5734 63.4025C34.3865 63.3437 36.0096 62.7852 37.0296 62.1886C39.6513 60.6856 41.7896 58.4544 43.19 55.7607C43.4028 55.3345 43.9681 53.5417 43.971 52.7452C43.971 52.5482 43.3882 52.7452 42.8403 52.9891C41.6088 53.5246 40.4366 54.1895 39.3434 54.973C37.7049 56.0954 36.305 57.5363 35.2257 59.2113C34.538 60.237 32.6992 63.4759 33.5734 63.4025Z" fill="#09D9C0"/>
<path d="M54.9764 52.4749C54.1634 52.4162 52.5373 51.8577 51.5203 51.2611C48.8921 49.7582 46.75 47.5222 45.3511 44.8214C45.1354 44.3953 44.573 42.6024 44.5672 41.803C44.5672 41.609 45.1646 41.803 45.7008 42.0498C46.9311 42.5865 48.103 43.2504 49.1977 44.0308C50.8375 45.1557 52.24 46.5972 53.3241 48.272C54.0002 49.2948 55.8419 52.5279 54.9764 52.4749Z" fill="#09D9C0"/>
<path d="M33.5589 52.4749C34.3719 52.4162 35.9951 51.8577 37.015 51.2611C39.6438 49.7571 41.7875 47.5215 43.19 44.8214C43.4028 44.3953 43.9681 42.6024 43.971 41.803C43.971 41.609 43.3882 41.803 42.8403 42.0498C41.6096 42.5858 40.4376 43.2497 39.3434 44.0308C37.7001 45.1534 36.2953 46.5952 35.2112 48.272C34.5351 49.2948 32.6992 52.5279 33.5589 52.4749Z" fill="#09D9C0"/>
<path d="M10.9345 63.4678C10.9899 62.6478 11.5436 61.0078 12.1352 59.982C13.6252 57.3313 15.8422 55.1708 18.52 53.7599C18.9425 53.5424 20.7201 52.9751 21.5128 52.9692C21.7051 52.9692 21.5128 53.5571 21.268 54.1126C20.7359 55.3535 20.0777 56.5355 19.3039 57.6395C18.1874 59.2891 16.7583 60.6996 15.0988 61.7896C14.0818 62.4832 10.8704 64.3407 10.9345 63.4678Z" fill="#09D9C0"/>
<path d="M10.9345 41.8646C10.9899 42.6846 11.5436 44.3217 12.1352 45.3504C13.6272 47.9995 15.8437 50.1596 18.52 51.5725C18.9425 51.7871 20.7201 52.3573 21.5128 52.3602C21.7051 52.3602 21.5128 51.7724 21.268 51.2198C20.7366 49.9786 20.0783 48.7965 19.3039 47.6929C18.1903 46.0376 16.7607 44.6228 15.0988 43.5311C14.0818 42.8492 10.8704 40.9887 10.9345 41.8646Z" fill="#09D9C0"/>
<path d="M22.0728 63.464C22.1282 62.644 22.6848 61.004 23.2735 59.9782C24.7635 57.3275 26.9805 55.167 29.6583 53.7561C30.0808 53.5386 31.8585 52.9713 32.6511 52.9655C32.8434 52.9655 32.6511 53.568 32.4063 54.1088C31.8742 55.3497 31.216 56.5317 30.4422 57.6357C29.3257 59.2854 27.8966 60.6958 26.2371 61.7858C25.2201 62.4794 22.0087 64.337 22.0728 63.464Z" fill="#09D9C0"/>
<path d="M22.0728 41.861C22.1282 42.6811 22.6848 44.3181 23.2735 45.3468C24.7655 47.996 26.982 50.156 29.6583 51.569C30.0808 51.7865 31.8585 52.3537 32.6511 52.3567C32.8434 52.3567 32.6511 51.7689 32.4063 51.2163C31.8749 49.975 31.2166 48.793 30.4422 47.6893C29.3265 46.039 27.8972 44.6284 26.2371 43.5393C25.2201 42.8456 22.0087 40.9852 22.0728 41.861Z" fill="#09D9C0"/>
</g>
<path d="M89.9737 99.2916C95.6285 110.215 101.249 121.073 101.249 133.193H78.4904V64.5375C78.4904 77.1086 84.2496 88.234 89.9737 99.2916Z" fill="url(#paint2_linear)"/>
<path d="M101.249 133.193H78.4904V206.401H101.249V133.193Z" fill="url(#paint3_linear)"/>
<path d="M78.8697 42.0289C78.8697 16.9666 56.1109 -2.84298 56.1109 -28.5233V42.0289H78.8697Z" fill="#109D59"/>
<path d="M56.1109 42.0292H78.8697V240.031H56.1109V42.0292Z" fill="#109D59"/>
<rect x="78.8702" y="124.49" width="153.622" height="22.6825" rx="11.3412" transform="rotate(90 78.8702 124.49)" fill="url(#paint4_linear)"/>
<rect width="57.6556" height="22.5105" rx="11.2553" transform="matrix(1.92279e-08 1 1 -9.93704e-08 33.4104 154.9)" fill="url(#paint5_linear)"/>
<rect width="1.20116" height="3.75176" rx="0.600579" transform="matrix(3.41326e-08 1 1 -5.59784e-08 46.1667 192.376)" fill="#C4FF1D"/>
<rect width="1.68162" height="3.93934" rx="0.840811" transform="matrix(3.41326e-08 1 1 -5.59784e-08 46.1667 167.632)" fill="#C4FF1D"/>
<path fill-rule="evenodd" clip-rule="evenodd" d="M41.1836 155.441V190.964C41.1836 203.202 48.432 208.415 52.23 209.566C50.2314 211.4 47.5662 212.52 44.6394 212.52C38.4379 212.52 33.4106 207.492 33.4106 201.291L33.4106 166.128C33.4106 161.132 36.673 156.899 41.1836 155.441Z" fill="#2DB664"/>
<rect x="33.3345" y="-4.41522" width="22.7588" height="22.741" rx="7.58626" transform="rotate(90 33.3345 -4.41522)" fill="url(#paint6_linear)"/>
<path fill-rule="evenodd" clip-rule="evenodd" d="M2.02051 98.9543L2.02051 80.6064C3.04662 80.0884 4.2064 79.7966 5.43432 79.7966L5.43432 98.9518C5.43432 99.8945 4.67011 100.659 3.72741 100.659C2.78557 100.659 2.0219 99.8959 2.02051 98.9543Z" fill="#A0FFBB" fill-opacity="0.38"/>
<ellipse cx="44.7608" cy="97.9994" rx="11.3794" ry="11.3501" transform="rotate(90 44.7608 97.9994)" fill="#54DA46"/>
<ellipse rx="2.19663" ry="2.19099" transform="matrix(4.37114e-08 1 1 -4.37114e-08 60.5778 20.5402)" fill="#09D9C0"/>
<ellipse rx="2.19663" ry="2.19099" transform="matrix(4.37114e-08 1 1 -4.37114e-08 23.7825 75.4054)" fill="#09D9C0"/>
<rect x="3.5177" y="105.84" width="97.988" height="8.34488" rx="4.17244" transform="rotate(90 3.5177 105.84)" fill="url(#paint7_linear)"/>
<rect width="67.475" height="23.2145" rx="11.6073" transform="matrix(2.00472e-08 1 1 -9.53093e-08 -12.2029 42.0292)" fill="url(#paint8_linear)"/>
<rect width="1.40573" height="3.86908" rx="0.702864" transform="matrix(3.00775e-08 1 1 -6.35255e-08 0.952332 85.8884)" fill="#C4FF1D"/>
<rect width="1.96802" height="4.06254" rx="0.98401" transform="matrix(3.00775e-08 1 1 -6.35255e-08 0.952332 56.9296)" fill="#C4FF1D"/>
<path fill-rule="evenodd" clip-rule="evenodd" d="M-4.18671 42.5344V84.236C-4.18671 98.7901 3.53325 104.854 7.39323 106.067L7.40417 106.344C5.3646 108.277 2.60971 109.463 -0.422115 109.463H-0.823177C-7.10784 109.463 -12.2026 104.368 -12.2026 98.0837L-12.2026 53.4085C-12.2026 48.2948 -8.8294 43.9688 -4.18671 42.5344Z" fill="#2DB664"/>
<path d="M147.246 19.0507C152.049 14.2476 159.836 14.2476 164.639 19.0507L177.994 32.4051C182.797 37.2082 182.797 44.9956 177.994 49.7988L164.639 63.1531C159.836 67.9563 152.049 67.9563 147.246 63.1531L133.891 49.7988C129.088 44.9956 129.088 37.2082 133.891 32.4051L147.246 19.0507Z" fill="#5EDA12"/>
<path d="M160.949 45.0588C165.884 45.0588 169.891 41.0856 169.945 36.1637L160.848 45.0582C160.882 45.0586 160.916 45.0588 160.949 45.0588Z" fill="white"/>
<path d="M166.608 32.9289C161.674 32.9289 157.667 36.9021 157.613 41.824L166.709 32.9295C166.676 32.9291 166.642 32.9289 166.608 32.9289Z" fill="white"/>
<path d="M169.945 32.9288H166.71V36.1634H169.945V32.9288Z" fill="white"/>
<path fill-rule="evenodd" clip-rule="evenodd" d="M157.614 46.005V44.2194H159.533V46.005C159.533 48.2409 158.35 50.3099 156.423 51.4441L156.045 51.6667L155.071 50.0124L155.45 49.7898C156.79 49.0006 157.614 47.5609 157.614 46.005Z" fill="white"/>
<path d="M151.935 45.3964C147.05 45.3964 143.084 41.4637 143.031 36.5921L152.035 45.3958C152.034 45.3958 152.034 45.3959 152.034 45.3959C152.001 45.3962 151.968 45.3964 151.935 45.3964Z" fill="white"/>
<path d="M146.329 33.3909C151.213 33.3909 155.179 37.3235 155.233 42.1952L146.229 33.3914C146.262 33.3911 146.295 33.3909 146.329 33.3909Z" fill="white"/>
<path d="M143.028 33.3907H146.23V36.5922H143.028V33.3907Z" fill="white"/>
<path fill-rule="evenodd" clip-rule="evenodd" d="M153.329 53.4643C154.142 53.4643 154.801 52.8054 154.801 51.9926C154.801 51.1798 154.142 50.5209 153.329 50.5209C152.516 50.5209 151.857 51.1798 151.857 51.9926C151.857 52.8054 152.516 53.4643 153.329 53.4643ZM153.329 55.2212C155.112 55.2212 156.558 53.7757 156.558 51.9926C156.558 50.2096 155.112 48.7641 153.329 48.7641C151.546 48.7641 150.1 50.2096 150.1 51.9926C150.1 53.7757 151.546 55.2212 153.329 55.2212Z" fill="white"/>
<path d="M157.48 47.073C156.634 48.9178 155.235 48.7641 153.329 48.7641L157.019 50.7627L157.48 47.073Z" fill="white"/>
<path d="M158.249 49.8403C157.813 50.3784 156.865 51.5314 156.404 52.992L155.481 49.994L158.249 49.8403Z" fill="white"/>
<path fill-rule="evenodd" clip-rule="evenodd" d="M146.23 33.3907L143.028 36.5922L152.033 45.3966L152.034 45.3959V45.3968H155.235V42.1952H155.234L155.234 42.195L146.23 33.3907ZM151.033 42.5914C151.308 42.8659 151.746 42.8768 152.034 42.6241C152.045 42.6136 152.057 42.6027 152.068 42.5914C152.18 42.4794 152.248 42.3403 152.273 42.1952C152.31 41.9698 152.242 41.7301 152.068 41.5561L147.383 36.8712C147.098 36.5853 146.634 36.5853 146.348 36.8712C146.062 37.1571 146.062 37.6206 146.348 37.9064L151.033 42.5914Z" fill="white"/>
<path fill-rule="evenodd" clip-rule="evenodd" d="M166.71 32.9288L169.945 36.1634L160.849 45.0576V45.0586H157.614V41.8247L157.613 41.8239L166.71 32.9288ZM160.849 42.0058C160.877 42.0499 160.91 42.0916 160.949 42.1301C161.234 42.416 161.698 42.416 161.984 42.1301L166.669 37.4452C166.955 37.1593 166.955 36.6958 166.669 36.41C166.383 36.1241 165.919 36.1241 165.634 36.41L160.949 41.0949C160.751 41.2922 160.69 41.5742 160.765 41.824C160.784 41.8873 160.812 41.9485 160.849 42.0058Z" fill="white"/>
</g>
<defs>
<linearGradient id="paint0_linear" x1="-12.1653" y1="-4.41522" x2="-12.1653" y2="109.504" gradientUnits="userSpaceOnUse">
<stop stop-color="#055D37"/>
<stop offset="1" stop-color="#316342"/>
</linearGradient>
<linearGradient id="paint1_linear" x1="58.0115" y1="89.0807" x2="188.598" y2="84.7278" gradientUnits="userSpaceOnUse">
<stop stop-color="#A1D900"/>
<stop offset="1" stop-color="#038D4B"/>
</linearGradient>
<linearGradient id="paint2_linear" x1="89.8698" y1="64.5375" x2="89.8698" y2="206.401" gradientUnits="userSpaceOnUse">
<stop stop-color="#A1D900"/>
<stop offset="1" stop-color="#228D67"/>
</linearGradient>
<linearGradient id="paint3_linear" x1="89.8698" y1="64.5375" x2="89.8698" y2="206.401" gradientUnits="userSpaceOnUse">
<stop stop-color="#A1D900"/>
<stop offset="1" stop-color="#228D67"/>
</linearGradient>
<linearGradient id="paint4_linear" x1="259.924" y1="142.779" x2="125.344" y2="56.9398" gradientUnits="userSpaceOnUse">
<stop stop-color="#016D67"/>
<stop offset="1" stop-color="#3ABE5E"/>
</linearGradient>
<linearGradient id="paint5_linear" x1="5.18486" y1="10.3895" x2="54.0307" y2="20.8764" gradientUnits="userSpaceOnUse">
<stop stop-color="#6FE925"/>
<stop offset="1" stop-color="#29C279"/>
</linearGradient>
<linearGradient id="paint6_linear" x1="41.9128" y1="-4.41522" x2="54.0947" y2="10.8299" gradientUnits="userSpaceOnUse">
<stop stop-color="#6FE925"/>
<stop offset="1" stop-color="#2DB664"/>
</linearGradient>
<linearGradient id="paint7_linear" x1="119.004" y1="112.568" x2="64.6755" y2="52.4902" gradientUnits="userSpaceOnUse">
<stop stop-color="#016D67"/>
<stop offset="1" stop-color="#0D585D"/>
</linearGradient>
<linearGradient id="paint8_linear" x1="6.06789" y1="10.7144" x2="62.5168" y2="24.4676" gradientUnits="userSpaceOnUse">
<stop stop-color="#6FE925"/>
<stop offset="1" stop-color="#29C279"/>
</linearGradient>
<clipPath id="clip0">
<rect x="0.289001" width="196" height="201" rx="10" fill="white"/>
</clipPath>
</defs>
</svg>
