<svg width="197" height="201" viewBox="0 0 197 201" fill="none" xmlns="http://www.w3.org/2000/svg" transform="scale(-1,1)">
<g clip-path="url(#clip0)">
<rect x="0.691345" width="196" height="201" rx="10" fill="white"/>
<rect width="13.3883" height="13.4143" rx="2.72725" transform="matrix(4.37114e-08 1 1 -4.37114e-08 -3.57904 162.486)" fill="#577CFF"/>
<rect width="13.3883" height="13.4143" rx="2.72725" transform="matrix(4.37114e-08 1 1 -4.37114e-08 -3.57904 178.85)" fill="#47D1CA"/>
<rect width="13.3883" height="13.4143" rx="2.72725" transform="matrix(4.37114e-08 1 1 -4.37114e-08 -3.57904 195.213)" fill="#55EC92" fill-opacity="0.5"/>
<rect width="13.3883" height="13.4143" rx="2.72725" transform="matrix(4.37114e-08 1 1 -4.37114e-08 29.1989 162.486)" fill="url(#paint0_linear)"/>
<rect width="29.7518" height="13.4143" rx="2.72725" transform="matrix(4.37114e-08 1 1 -4.37114e-08 12.8162 195.213)" fill="url(#paint1_linear)"/>
<path d="M31.9386 178.85C30.4324 178.85 29.2114 180.071 29.2114 181.577L29.2114 189.511C29.2114 191.017 30.4324 192.238 31.9386 192.238L39.8984 192.238C41.4046 192.238 42.6256 191.017 42.6256 189.511L42.6256 181.577C42.6256 180.071 41.4046 178.85 39.8984 178.85L31.9386 178.85Z" fill="#577CFF"/>
<rect width="13.3883" height="13.4143" rx="2.72725" transform="matrix(4.37114e-08 1 1 -4.37114e-08 29.2114 194.841)" fill="#47D1CA" fill-opacity="0.5"/>
<rect width="29.2206" height="13.3222" rx="2.72725" transform="matrix(4.37114e-08 1 1 -4.37114e-08 45.7615 162.486)" fill="#47D1CA" fill-opacity="0.5"/>
<rect width="13.3883" height="13.4143" rx="2.72725" transform="matrix(4.37114e-08 1 1 -4.37114e-08 12.8162 178.85)" fill="#55EC92"/>
<rect width="13.3883" height="13.4143" rx="2.72725" transform="matrix(4.37114e-08 1 1 -4.37114e-08 45.6066 194.841)" fill="url(#paint2_linear)"/>
<rect width="13.3635" height="13.3635" rx="2.72725" transform="matrix(4.37114e-08 1 1 -4.37114e-08 29.148 -2.51251)" fill="#577CFF"/>
<rect width="13.408" height="13.408" rx="2.72725" transform="matrix(4.37114e-08 1 1 -4.37114e-08 61.8953 -2.48615)" fill="url(#paint3_linear)"/>
<rect width="29.7955" height="13.408" rx="2.72725" transform="matrix(4.37114e-08 1 1 -4.37114e-08 45.5205 30.2889)" fill="url(#paint4_linear)"/>
<path d="M64.6353 13.9014C63.1291 13.9014 61.9081 15.1225 61.9081 16.6287L61.9081 24.5822C61.9081 26.0884 63.1291 27.3094 64.6353 27.3094L72.5888 27.3094C74.095 27.3094 75.3161 26.0884 75.3161 24.5822L75.3161 16.6287C75.3161 15.1225 74.095 13.9014 72.5888 13.9014L64.6353 13.9014Z" fill="#577CFF"/>
<rect width="13.408" height="13.408" rx="2.72725" transform="matrix(4.37114e-08 1 1 -4.37114e-08 61.9081 29.9165)" fill="#47D1CA" fill-opacity="0.5"/>
<rect width="29.2635" height="13.3159" rx="2.72725" transform="matrix(4.37114e-08 1 1 -4.37114e-08 78.4506 -2.48615)" fill="#47D1CA" fill-opacity="0.5"/>
<rect width="13.3635" height="13.3635" rx="2.72725" transform="matrix(4.37114e-08 1 1 -4.37114e-08 65.4204 162.486)" fill="#577CFF"/>
<rect width="29.9998" height="13.3635" rx="2.72725" transform="matrix(4.37114e-08 1 1 -4.37114e-08 80.9658 195.213)" fill="url(#paint5_linear)"/>
<rect width="29.727" height="13.3635" rx="2.72725" transform="matrix(4.37114e-08 1 1 -4.37114e-08 -2.48816 -2.51251)" fill="url(#paint6_linear)"/>
<rect width="13.3883" height="13.4143" rx="2.72725" transform="matrix(1 -8.74228e-08 -8.74228e-08 -1 45.5115 158.395)" fill="#577CFF"/>
<rect width="13.3883" height="13.4143" rx="2.72725" transform="matrix(1 -8.74228e-08 -8.74228e-08 -1 12.7845 158.395)" fill="#47D1CA"/>
<rect width="13.3883" height="13.4143" rx="2.72725" transform="matrix(1 -8.74228e-08 -8.74228e-08 -1 45.5115 109.21)" fill="#47D1CA"/>
<rect width="13.3883" height="13.4143" rx="2.72725" transform="matrix(1 -8.74228e-08 -8.74228e-08 -1 -3.57904 125.617)" fill="url(#paint7_linear)"/>
<rect width="29.7518" height="13.4143" rx="2.72725" transform="matrix(1 -8.74228e-08 -8.74228e-08 -1 29.148 142)" fill="url(#paint8_linear)"/>
<path d="M12.7845 122.878C12.7845 124.384 14.0055 125.605 15.5117 125.605L23.4456 125.605C24.9518 125.605 26.1728 124.384 26.1728 122.878L26.1728 114.918C26.1728 113.412 24.9518 112.191 23.4456 112.191L15.5117 112.191C14.0055 112.191 12.7845 113.412 12.7845 114.918L12.7845 122.878Z" fill="#577CFF"/>
<rect width="29.2205" height="13.3222" rx="2.72725" transform="matrix(1 -8.74228e-08 -8.74228e-08 -1 -3.57904 109.055)" fill="#47D1CA" fill-opacity="0.5"/>
<rect width="13.3883" height="13.4143" rx="2.72725" transform="matrix(1 -8.74228e-08 -8.74228e-08 -1 -3.57904 142)" fill="#577CFF" fill-opacity="0.5"/>
<rect width="13.3883" height="13.4143" rx="2.72725" transform="matrix(1 -8.74228e-08 -8.74228e-08 -1 12.7845 142)" fill="#55EC92"/>
<rect width="13.3883" height="5.9619" rx="2.72725" transform="matrix(1 -8.74228e-08 -8.74228e-08 -1 45.5115 118.153)" fill="#577CFF" fill-opacity="0.5"/>
<rect width="13.3883" height="5.9619" rx="2.72725" transform="matrix(1 -8.74228e-08 -8.74228e-08 -1 45.5115 125.605)" fill="#577CFF" fill-opacity="0.5"/>
<rect width="13.3883" height="13.4143" rx="2.72725" transform="matrix(1 -8.74228e-08 -8.74228e-08 -1 28.7761 109.21)" fill="url(#paint9_linear)"/>
<rect width="13.4478" height="13.4143" rx="2.72725" transform="matrix(1 -8.74228e-08 -8.74228e-08 -1 78.4566 109.305)" fill="#577CFF"/>
<rect width="13.4478" height="13.4143" rx="2.72725" transform="matrix(1 -8.74228e-08 -8.74228e-08 -1 45.5842 109.305)" fill="#47D1CA"/>
<rect width="13.4478" height="13.4143" rx="2.72725" transform="matrix(1 -8.74228e-08 -8.74228e-08 -1 78.4566 60.1191)" fill="#47D1CA"/>
<rect width="13.4478" height="13.4143" rx="2.72725" transform="matrix(1 -8.74228e-08 -8.74228e-08 -1 29.148 76.5269)" fill="url(#paint10_linear)"/>
<path d="M45.5842 73.7871C45.5842 75.2933 46.8053 76.5143 48.3115 76.5143L56.3048 76.5143C57.811 76.5143 59.0321 75.2933 59.0321 73.7871L59.0321 65.8273C59.0321 64.3211 57.811 63.1001 56.3048 63.1001L48.3115 63.1001C46.8053 63.1001 45.5842 64.3211 45.5842 65.8273L45.5842 73.7871Z" fill="#577CFF"/>
<rect width="13.4478" height="13.4143" rx="2.72725" transform="matrix(1 -8.74228e-08 -8.74228e-08 -1 29.148 92.9096)" fill="#577CFF" fill-opacity="0.5"/>
<rect width="13.4478" height="13.4143" rx="2.72725" transform="matrix(1 -8.74228e-08 -8.74228e-08 -1 45.5842 92.9095)" fill="#55EC92"/>
<rect width="13.4478" height="5.9619" rx="2.72725" transform="matrix(1 -8.74228e-08 -8.74228e-08 -1 78.4567 69.062)" fill="#577CFF" fill-opacity="0.5"/>
<rect width="13.4478" height="5.9619" rx="2.72725" transform="matrix(1 -8.74228e-08 -8.74228e-08 -1 78.4567 76.5143)" fill="#577CFF" fill-opacity="0.5"/>
<rect width="13.4478" height="13.4143" rx="2.72725" transform="matrix(1 -8.74228e-08 -8.74228e-08 -1 61.6469 60.1191)" fill="url(#paint11_linear)"/>
<rect width="13.3635" height="13.3635" rx="2.72725" transform="matrix(1 -8.74228e-08 -8.74228e-08 -1 12.5117 43.5781)" fill="#47D1CA"/>
<rect width="13.3635" height="13.3635" rx="2.72725" transform="matrix(1 -8.74228e-08 -8.74228e-08 -1 80.9658 158.395)" fill="#55EC92" fill-opacity="0.5"/>
<rect width="13.408" height="13.408" rx="2.72725" transform="matrix(1 -8.74228e-08 -8.74228e-08 -1 -3.57904 76.5479)" fill="url(#paint12_linear)"/>
<rect width="29.7955" height="13.408" rx="2.72725" transform="matrix(1 -8.74228e-08 -8.74228e-08 -1 29.196 92.9227)" fill="url(#paint13_linear)"/>
<path d="M12.8085 73.8079C12.8085 75.3141 14.0296 76.5352 15.5358 76.5352L23.4893 76.5352C24.9955 76.5352 26.2165 75.3141 26.2165 73.8079L26.2165 65.8544C26.2165 64.3482 24.9955 63.1272 23.4893 63.1272L15.5358 63.1272C14.0296 63.1272 12.8085 64.3482 12.8085 65.8544L12.8085 73.8079Z" fill="#577CFF"/>
<rect width="29.2635" height="13.3159" rx="2.72725" transform="matrix(1 -8.74228e-08 -8.74228e-08 -1 -3.57904 59.9927)" fill="#47D1CA" fill-opacity="0.5"/>
<rect width="13.3635" height="5.99995" rx="2.72725" transform="matrix(1 -8.74228e-08 -8.74228e-08 -1 12.5117 27.2145)" fill="#577CFF" fill-opacity="0.5"/>
<rect width="13.3635" height="5.99995" rx="2.72725" transform="matrix(1 -8.74228e-08 -8.74228e-08 -1 29.148 27.2145)" fill="#577CFF" fill-opacity="0.5"/>
<path fill-rule="evenodd" clip-rule="evenodd" d="M81.1985 107.199C81.1985 107.199 80.4071 107.199 80.4071 106.407C80.4071 105.616 81.1985 103.242 85.1558 103.242C89.113 103.242 89.9044 105.616 89.9044 106.407C89.9044 107.199 89.113 107.199 89.113 107.199H81.1985ZM89.109 106.452V106.45V106.452ZM89.0956 106.407H81.216C81.2122 106.407 81.2086 106.406 81.2049 106.406L81.1985 106.404C81.1993 106.209 81.3204 105.624 81.857 105.087C82.373 104.571 83.3441 104.033 85.1558 104.033C86.9682 104.033 87.9385 104.571 88.4545 105.087C88.9911 105.624 89.1114 106.209 89.113 106.404C89.1072 106.405 89.1014 106.406 89.0956 106.407ZM81.2017 106.452V106.45V106.452ZM85.1558 101.659C84.7359 101.659 84.3333 101.492 84.0365 101.195C83.7396 100.898 83.5729 100.496 83.5729 100.076C83.5729 99.656 83.7396 99.2534 84.0365 98.9565C84.3333 98.6597 84.7359 98.4929 85.1558 98.4929C85.5756 98.4929 85.9782 98.6597 86.275 98.9565C86.5719 99.2534 86.7386 99.656 86.7386 100.076C86.7386 100.496 86.5719 100.898 86.275 101.195C85.9782 101.492 85.5756 101.659 85.1558 101.659ZM82.7814 100.076C82.7814 100.706 83.0316 101.309 83.4769 101.755C83.9221 102.2 84.526 102.45 85.1558 102.45C85.7855 102.45 86.3894 102.2 86.8347 101.755C87.2799 101.309 87.5301 100.706 87.5301 100.076C87.5301 99.4461 87.2799 98.8422 86.8347 98.3969C86.3894 97.9516 85.7855 97.7015 85.1558 97.7015C84.526 97.7015 83.9221 97.9516 83.4769 98.3969C83.0316 98.8422 82.7814 99.4461 82.7814 100.076Z" fill="white"/>
<path fill-rule="evenodd" clip-rule="evenodd" d="M15.6484 74.4236C15.6484 74.4236 14.8569 74.4236 14.8569 73.6321C14.8569 72.8407 15.6484 70.4664 19.6056 70.4664C23.5628 70.4664 24.3542 72.8407 24.3542 73.6321C24.3542 74.4236 23.5628 74.4236 23.5628 74.4236H15.6484ZM23.5588 73.6765V73.6749V73.6765ZM23.5454 73.6321H15.6658C15.6621 73.6317 15.6584 73.6312 15.6547 73.6306L15.6484 73.629C15.6492 73.4343 15.7703 72.8486 16.3068 72.312C16.8229 71.796 17.794 71.2578 19.6056 71.2578C21.418 71.2578 22.3883 71.796 22.9043 72.312C23.4409 72.8486 23.5612 73.4343 23.5628 73.629C23.557 73.6301 23.5512 73.6312 23.5454 73.6321ZM15.6515 73.6765V73.6749V73.6765ZM19.6056 68.8835C19.1858 68.8835 18.7832 68.7167 18.4863 68.4199C18.1895 68.123 18.0227 67.7204 18.0227 67.3006C18.0227 66.8808 18.1895 66.4782 18.4863 66.1813C18.7832 65.8845 19.1858 65.7177 19.6056 65.7177C20.0254 65.7177 20.428 65.8845 20.7249 66.1813C21.0217 66.4782 21.1885 66.8808 21.1885 67.3006C21.1885 67.7204 21.0217 68.123 20.7249 68.4199C20.428 68.7167 20.0254 68.8835 19.6056 68.8835ZM17.2313 67.3006C17.2313 67.9303 17.4814 68.5342 17.9267 68.9795C18.372 69.4248 18.9759 69.6749 19.6056 69.6749C20.2353 69.6749 20.8392 69.4248 21.2845 68.9795C21.7298 68.5342 21.9799 67.9303 21.9799 67.3006C21.9799 66.6709 21.7298 66.067 21.2845 65.6217C20.8392 65.1764 20.2353 64.9263 19.6056 64.9263C18.9759 64.9263 18.372 65.1764 17.9267 65.6217C17.4814 66.067 17.2313 66.6709 17.2313 67.3006Z" fill="white"/>
<path fill-rule="evenodd" clip-rule="evenodd" d="M32.0358 8.87336C32.0358 8.87336 31.2444 8.87336 31.2444 8.08192C31.2444 7.29047 32.0358 4.91614 35.993 4.91614C39.9503 4.91614 40.7417 7.29047 40.7417 8.08192C40.7417 8.87336 39.9503 8.87336 39.9503 8.87336H32.0358ZM39.9463 8.12624V8.12465V8.12624ZM39.9328 8.08192H32.0532C32.0495 8.08148 32.0458 8.08096 32.0422 8.08033L32.0358 8.07875C32.0366 7.88406 32.1577 7.29839 32.6943 6.76179C33.2103 6.24577 34.1814 5.70759 35.993 5.70759C37.8054 5.70759 38.7758 6.24577 39.2918 6.76179C39.8284 7.29839 39.9487 7.88406 39.9503 8.07875C39.9445 8.07987 39.9387 8.08092 39.9328 8.08192ZM32.039 8.12624V8.12465V8.12624ZM35.993 3.33326C35.5732 3.33326 35.1706 3.16649 34.8738 2.86964C34.5769 2.57279 34.4102 2.17018 34.4102 1.75037C34.4102 1.33056 34.5769 0.927947 34.8738 0.631098C35.1706 0.334249 35.5732 0.167481 35.993 0.167481C36.4128 0.167481 36.8155 0.334249 37.1123 0.631098C37.4092 0.927947 37.5759 1.33056 37.5759 1.75037C37.5759 2.17018 37.4092 2.57279 37.1123 2.86964C36.8155 3.16649 36.4128 3.33326 35.993 3.33326ZM33.6187 1.75037C33.6187 2.38008 33.8689 2.984 34.3141 3.42927C34.7594 3.87455 35.3633 4.1247 35.993 4.1247C36.6227 4.1247 37.2267 3.87455 37.6719 3.42927C38.1172 2.984 38.3674 2.38008 38.3674 1.75037C38.3674 1.12066 38.1172 0.516736 37.6719 0.071463C37.2267 -0.37381 36.6227 -0.623962 35.993 -0.623962C35.3633 -0.623962 34.7594 -0.37381 34.3141 0.071463C33.8689 0.516736 33.6187 1.12066 33.6187 1.75037Z" fill="white"/>
<path fill-rule="evenodd" clip-rule="evenodd" d="M15.6484 190.254C15.6484 190.254 14.8569 190.254 14.8569 189.462C14.8569 188.671 15.6484 186.296 19.6056 186.296C23.5628 186.296 24.3542 188.671 24.3542 189.462C24.3542 190.254 23.5628 190.254 23.5628 190.254H15.6484ZM23.5588 189.507V189.505V189.507ZM23.5454 189.462H15.6658C15.6621 189.462 15.6584 189.461 15.6547 189.461L15.6484 189.459C15.6492 189.264 15.7703 188.679 16.3068 188.142C16.8229 187.626 17.794 187.088 19.6056 187.088C21.418 187.088 22.3883 187.626 22.9043 188.142C23.4409 188.679 23.5612 189.264 23.5628 189.459C23.557 189.46 23.5512 189.461 23.5454 189.462ZM15.6515 189.507V189.505V189.507ZM19.6056 184.714C19.1858 184.714 18.7832 184.547 18.4863 184.25C18.1895 183.953 18.0227 183.55 18.0227 183.131C18.0227 182.711 18.1895 182.308 18.4863 182.011C18.7832 181.715 19.1858 181.548 19.6056 181.548C20.0254 181.548 20.428 181.715 20.7249 182.011C21.0217 182.308 21.1885 182.711 21.1885 183.131C21.1885 183.55 21.0217 183.953 20.7249 184.25C20.428 184.547 20.0254 184.714 19.6056 184.714ZM17.2313 183.131C17.2313 183.76 17.4814 184.364 17.9267 184.81C18.372 185.255 18.9759 185.505 19.6056 185.505C20.2353 185.505 20.8392 185.255 21.2845 184.81C21.7298 184.364 21.9799 183.76 21.9799 183.131C21.9799 182.501 21.7298 181.897 21.2845 181.452C20.8392 181.006 20.2353 180.756 19.6056 180.756C18.9759 180.756 18.372 181.006 17.9267 181.452C17.4814 181.897 17.2313 182.501 17.2313 183.131Z" fill="white"/>
<g clip-path="url(#clip1)">
<path d="M72.3749 36.6236C73.2953 35.4304 72.9885 33.6407 71.4544 33.0441C69.9204 32.4475 68.9999 33.6407 68.6931 34.2372C68.3863 33.6407 67.159 32.4475 65.6249 33.0441C64.0909 33.6407 64.0909 35.4304 65.0113 36.6236C65.9318 37.8168 68.6931 40.2031 68.6931 40.2031C68.6931 40.2031 71.4544 37.8168 72.3749 36.6236Z" stroke="white" stroke-width="0.54545" stroke-linecap="round" stroke-linejoin="round"/>
</g>
<g clip-path="url(#clip2)">
<path d="M6.68224 169.577C7.57712 168.35 7.27882 166.509 5.78736 165.895C4.29589 165.282 3.40101 166.509 3.10272 167.123C2.80443 166.509 1.61125 165.282 0.119789 165.895C-1.37168 166.509 -1.37168 168.35 -0.476797 169.577C0.418082 170.804 3.10272 173.259 3.10272 173.259C3.10272 173.259 5.78736 170.804 6.68224 169.577Z" stroke="white" stroke-width="0.54545" stroke-linecap="round" stroke-linejoin="round"/>
</g>
<path d="M147.817 19.0481C152.621 14.2446 160.408 14.2446 165.212 19.0481L178.567 32.4031C183.37 37.2066 183.37 44.9944 178.567 49.7979L165.212 63.1529C160.408 67.9563 152.621 67.9563 147.817 63.1529L134.462 49.7978C129.659 44.9944 129.659 37.2066 134.462 32.4031L147.817 19.0481Z" fill="#00D4CA"/>
<path fill-rule="evenodd" clip-rule="evenodd" d="M144.045 34.6686C145.48 34.0291 147.161 34.6738 147.801 36.1086L150.735 42.9979L154.005 36.5559C154.499 35.6287 155.464 35.0495 156.515 35.0495C157.565 35.0495 158.53 35.6287 159.025 36.5559L162.295 42.9979L165.228 36.1086C165.868 34.6738 167.549 34.0291 168.984 34.6686C170.419 35.3082 171.064 36.9898 170.424 38.4246L165.121 50.3232C164.678 51.3158 163.709 51.9695 162.623 52.0078C161.537 52.0461 160.524 51.4621 160.013 50.5031L156.515 43.9407L153.017 50.5031C152.505 51.4621 151.492 52.0461 150.406 52.0078C149.32 51.9695 148.351 51.3158 147.909 50.3232L142.605 38.4246C141.965 36.9898 142.61 35.3082 144.045 34.6686Z" fill="white"/>
</g>
<defs>
<linearGradient id="paint0_linear" x1="2.17108" y1="2.90038" x2="12.14" y2="12.3074" gradientUnits="userSpaceOnUse">
<stop stop-color="#55EC92"/>
<stop offset="1" stop-color="#47D1CA"/>
</linearGradient>
<linearGradient id="paint1_linear" x1="4.82462" y1="2.90038" x2="12.5841" y2="19.1715" gradientUnits="userSpaceOnUse">
<stop stop-color="#55EC92"/>
<stop offset="1" stop-color="#47D1CA"/>
</linearGradient>
<linearGradient id="paint2_linear" x1="6.69417" y1="0" x2="6.69417" y2="13.4143" gradientUnits="userSpaceOnUse">
<stop stop-color="#55EC92"/>
<stop offset="1" stop-color="#47D1CA"/>
</linearGradient>
<linearGradient id="paint3_linear" x1="2.17427" y1="2.89902" x2="12.1397" y2="12.3209" gradientUnits="userSpaceOnUse">
<stop stop-color="#55EC92"/>
<stop offset="1" stop-color="#47D1CA"/>
</linearGradient>
<linearGradient id="paint4_linear" x1="4.83171" y1="2.89902" x2="12.5781" y2="19.1742" gradientUnits="userSpaceOnUse">
<stop stop-color="#55EC92"/>
<stop offset="1" stop-color="#47D1CA"/>
</linearGradient>
<linearGradient id="paint5_linear" x1="4.86483" y1="2.88941" x2="12.536" y2="19.1711" gradientUnits="userSpaceOnUse">
<stop stop-color="#55EC92"/>
<stop offset="1" stop-color="#47D1CA"/>
</linearGradient>
<linearGradient id="paint6_linear" x1="4.8206" y1="2.88941" x2="12.5363" y2="19.1167" gradientUnits="userSpaceOnUse">
<stop stop-color="#55EC92"/>
<stop offset="1" stop-color="#47D1CA"/>
</linearGradient>
<linearGradient id="paint7_linear" x1="2.17108" y1="2.90038" x2="12.14" y2="12.3074" gradientUnits="userSpaceOnUse">
<stop stop-color="#55EC92"/>
<stop offset="1" stop-color="#47D1CA"/>
</linearGradient>
<linearGradient id="paint8_linear" x1="4.82462" y1="2.90038" x2="12.5841" y2="19.1715" gradientUnits="userSpaceOnUse">
<stop stop-color="#55EC92"/>
<stop offset="1" stop-color="#47D1CA"/>
</linearGradient>
<linearGradient id="paint9_linear" x1="6.69416" y1="0" x2="6.69416" y2="13.4143" gradientUnits="userSpaceOnUse">
<stop stop-color="#55EC92"/>
<stop offset="1" stop-color="#47D1CA"/>
</linearGradient>
<linearGradient id="paint10_linear" x1="2.18073" y1="2.90038" x2="12.1522" y2="12.3515" gradientUnits="userSpaceOnUse">
<stop stop-color="#55EC92"/>
<stop offset="1" stop-color="#47D1CA"/>
</linearGradient>
<linearGradient id="paint11_linear" x1="6.72392" y1="0" x2="6.72392" y2="13.4143" gradientUnits="userSpaceOnUse">
<stop stop-color="#55EC92"/>
<stop offset="1" stop-color="#47D1CA"/>
</linearGradient>
<linearGradient id="paint12_linear" x1="2.17427" y1="2.89902" x2="12.1397" y2="12.3209" gradientUnits="userSpaceOnUse">
<stop stop-color="#55EC92"/>
<stop offset="1" stop-color="#47D1CA"/>
</linearGradient>
<linearGradient id="paint13_linear" x1="4.83171" y1="2.89902" x2="12.5781" y2="19.1742" gradientUnits="userSpaceOnUse">
<stop stop-color="#55EC92"/>
<stop offset="1" stop-color="#47D1CA"/>
</linearGradient>
<clipPath id="clip0">
<rect x="0.691345" width="196" height="201" rx="10" fill="white"/>
</clipPath>
<clipPath id="clip1">
<rect width="9.8181" height="9.54538" fill="white" transform="matrix(-1 0 0 1 73.6021 31.8508)"/>
</clipPath>
<clipPath id="clip2">
<rect width="9.54538" height="9.8181" fill="white" transform="matrix(-1 0 0 1 7.87543 164.668)"/>
</clipPath>
</defs>
</svg>
